<?xml version="1.0" encoding="UTF-8" standalone="no"?>
<svg xmlns="http://www.w3.org/2000/svg" width="264" height="162" viewBox="0 0 264 162" id="svg2">
    <defs id="defs78">
        <clipPath id="jagged-edge">
            <path id="path2" d="M0 0v152l12 10 12-10 12 10 12-10 12 10 12-10 12 10 12-10 12 10 12-10 12 10 12-10 12 10 12-10 12 10 12-10 12 10 12-10 12 10 12-10 12 10 12-10V0z"/>
        </clipPath>
    </defs>
    <g id="screenshot" clip-path="url(#jagged-edge)">
        <path fill="#fff" d="M263.5 162.25l-263-.5V.5h263z" id="background"/>
        <path fill="#eaecf0" d="M11 22c0-7.732 6.268-14 14-14s14 6.268 14 14-6.268 14-14 14-14-6.268-14-14z" id="logo"/>
        <path fill="#eaecf0" d="M38 163.807V58H13v105.807h25z" id="sidebar"/>
        <g fill="#eaecf0" id="personal-tools">
            <path id="path10" d="M233 5h26v6h-26V5zm-24 0h22v6h-22zm-24 0h22v6h-22zm-23 0h13v6h-13zm15 0h6v6h-6zm-23 0h6v6h-6z"/>
        </g>
        <g fill="#eaecf0" id="search">
            <path d="M258 16v4h-92v-4h92m1-1h-94v6h94v-6z" id="path5717"/>
            <path d="M168 17h2v2h-2z" id="icon"/>
        </g>
        <path fill="#eaecf0" d="M38 45v-5H13v5h25z" id="sitename"/>
        <path fill="#eaecf0" id="border" d="M0 0v162h264V0zm1 1h262v150.533l-11 9.166-12-10-12 10-12-10-12 10-12-10-12 10-12-10-12 10-12-10-12 10-12-10-12 10-12-10-12 10-12-10-12 10-12-10-12 10-12-10-12 10-11-9.167z"/>
        <path d="M48 59.002l97.857.045.028 104.224H48.112z" id="path4192-4-7-3-8-0-4-5-8" fill="#eaecf0" fill-rule="evenodd" stroke-width=".206"/>
        <path id="path4192-8-9-8-3-6-3-2-5-7" d="M150.026 60.398h96.544l.05 102.873h-96.483z" fill="none" fill-rule="evenodd" stroke="#eaecf0" stroke-width="2.757"/>
        <path id="rect4209-65-4-8-5-2" d="M53.082 77.26h50.985v3.147H53.082z" fill="#36c" stroke-width=".617" stroke-linecap="round"/>
        <path id="rect4209-5-6-8-37-4-5" d="M52.97 91.665h72.803v3.146H52.97z" fill="#c8ccd1" stroke-width=".617" stroke-linecap="round"/>
        <path id="rect4209-58-3-6-9-2-2" d="M52.97 99.896h32.415v3.146H52.97z" fill="#36c" stroke-width=".617" stroke-linecap="round"/>
        <path id="rect4209-4-3-6-4-1-3" d="M52.97 114.3h83.827v3.146H52.97z" fill="#c8ccd1" stroke-width=".617" stroke-linecap="round"/>
        <path id="rect4209-3-0-4-5-5-6" d="M53.026 122.531h83.827v3.146H53.026z" fill="#c8ccd1" stroke-width=".617" stroke-linecap="round"/>
        <path id="rect4209-6-0-6-30-2-3" d="M52.97 128.704h41.8v3.147h-41.8z" fill="#c8ccd1" stroke-width=".617" stroke-linecap="round"/>
        <path id="rect4209-09-9-7-83-7-6" d="M158.82 77.26h80.047v3.147h-80.046z" fill="#c8ccd1" stroke-width=".617" stroke-linecap="round"/>
        <path id="rect4209-54-3-2-5-0-2" d="M158.82 99.896h80.047v3.146h-80.046z" fill="#c8ccd1" stroke-width=".617" stroke-linecap="round"/>
        <path id="rect4209-33-3-5-8-2-8" d="M158.82 84.463h80.047v3.146h-80.046z" fill="#c8ccd1" stroke-width=".617" stroke-linecap="round"/>
        <path id="rect4209-52-8-7-7-5-0" d="M158.82 91.665h29.441v3.146h-29.44z" fill="#c8ccd1" stroke-width=".617" stroke-linecap="round"/>
        <path id="rect4209-7-5-8-2-9-4" d="M158.82 114.3h80.047v3.146h-80.046z" fill="#c8ccd1" stroke-width=".617" stroke-linecap="round"/>
        <path id="rect4209-74-1-6-6-6-2" d="M158.82 106.069h80.047v3.146h-80.046z" fill="#c8ccd1" stroke-width=".617" stroke-linecap="round"/>
        <path id="rect4209-73-1-7-8-9-2" d="M158.875 128.704h80.046v3.147h-80.046z" fill="#c8ccd1" stroke-width=".617" stroke-linecap="round"/>
        <path id="rect5462-5-8-1-1-6-9-2-4-3" d="M53.718 45.505h23.669v3.881H53.718z" fill="#eaecf0" stroke="#eaecf0" stroke-width="1.214" stroke-linecap="round"/>
        <path id="rect5462-5-8-1-1-6-9-2-4-3-6" d="M159.178 45.402h23.668v3.881h-23.668z" fill="#eaecf0" stroke="#eaecf0" stroke-width="1.214" stroke-linecap="round"/>
        <path id="rect5462-5-8-1-1-6-9-2-4-3-7" d="M49.355 29h42.067v6.9H49.355z" fill="#c8ccd1" stroke="#c8ccd1" stroke-width="2.158" stroke-linecap="round"/>
        <path d="M190.35 89.296v7.937" id="path4922-54-0-8-3-9" fill="none" fill-rule="evenodd" stroke="#36c" stroke-width="1.023"/>
        <path d="M191.683 89.197l-2.654.006" id="path4922-54-0-8-3-9-5" fill="none" fill-rule="evenodd" stroke="#36c" stroke-width=".603"/>
        <path d="M191.683 97.41l-2.654.005" id="path4922-54-0-8-3-9-5-3" fill="none" fill-rule="evenodd" stroke="#36c" stroke-width=".603"/>
        <path id="rect4209-3-0-4-5-5-6-5" d="M53.061 85.474h81.475v3.147H53.061z" fill="#c8ccd1" stroke-width=".617" stroke-linecap="round"/>
    </g>
</svg>
