<?xml version="1.0" encoding="UTF-8" standalone="no"?>
<svg xmlns="http://www.w3.org/2000/svg" width="1365.412" height="837.897" viewBox="0 0 1280.074 785.5283" id="svg6145">
    <g id="layer1" transform="translate(-14.249 3.26)">
        <path d="M14.522 733.27l64 48.5 57-46.75 66.25 46.5 60.5-47.25 60.25 47.25 67.75-47.5 68.75 46.75 64-45.5 62 46.25 66.25-46.75 58.75 47 65.75-47 68 47.5 63.25-48.5 63.25 47.75 66.75-47.25 60.5 47 66.25-46.75 68.5 47 61.5-45.25V-3.01H14.249z" id="path6097" fill="#fff" fill-rule="evenodd"/>
        <path d="M259.972 266.181l475.551.22.136 496.348-25.175 14.885-58.976-46.99-67.168 46.99-61.16-47.537-64.437 46.445-69.897-46.445-66.076 48.084-62.252-49.177z" id="path4192-4-7-3-8-0-4-5-8" fill="#e5e5e5" fill-rule="evenodd"/>
        <path d="M755.787 272.964h469.17l.248 495.312-60.88-43.557-67.075 46.557-60.422-47.337-67.885 46.776-62.772-47.026-61.755 47.24-63.972-46.722-24.12 15.8z" id="path4192-8-9-8-3-6-3-2-5-7" fill="#fff" fill-rule="evenodd" stroke="#e5e5e5" stroke-width="13.397"/>
        <path d="M17.252 732.071l61.681 45.938 56.234-46.65 66.63 46.697 60.625-47.619 60.69 47.677 66.974-47.051 69.186 47.004 63.634-46.538 62.189 46.675 66.756-46.868 58.306 46.72 65.167-47.459 68.48 47.767 62.942-47.927 63.11 47.619 67.12-47.573 60.804 47.483 65.505-46.823 68.427 46.969 59.166-43.289.493-735.122L17.24-.31z" id="path5450-6-6-9-0-7-0-1-1" fill="none" fill-opacity=".984" fill-rule="evenodd" stroke="#e6e6e6" stroke-width="5.9" stroke-linecap="round"/>
        <path id="path5460-9-0-2-0-8-6-7-1" d="M200.541 172.16a64.573 64.573 0 0 1-63.987 64.57 64.573 64.573 0 0 1-65.149-63.398 64.573 64.573 0 0 1 62.805-65.722 64.573 64.573 0 0 1 66.289 62.206" fill="#e5e5e5" stroke="#e5e5e5" stroke-width="5.9" stroke-linecap="round" stroke-linejoin="round"/>
        <path id="rect5462-5-8-1-1-6-9-2-4" fill="#e5e5e5" stroke="#e5e5e5" stroke-width="5.9" stroke-linecap="round" d="M80.057 260.988h115.019v18.864H80.057z"/>
        <path id="rect5462-0-7-0-5-2-1-9-9-8" fill="#e5e5e5" stroke="#e5e5e5" stroke-width="5.9" stroke-linecap="round" d="M80.513 348.269h115.019v283.983H80.513z"/>
        <path id="rect5462-3-2-6-0-8-6-7-6-7" fill="#d8d8d8" stroke="#d8d8d8" stroke-width="5.9" stroke-linecap="round" d="M1146.765 24.724h119.661v22.687h-119.661z"/>
        <path d="M23.7 69.334h1260.34" id="path5496-1-7-4-2-0-1-8-0" fill="#e5e5e5" fill-rule="evenodd" stroke="#e5e5e5" stroke-width="5"/>
        <path id="rect5462-3-6-0-6-6-7-8-5-8-4" fill="#e5e5e5" stroke="#e5e5e5" stroke-width="5.9" stroke-linecap="round" d="M60.941 24.283h148.603V46.97H60.941z"/>
        <path id="rect5462-3-3-8-7-1-6-7-6-7-1" fill="#d8d8d8" stroke="#d8d8d8" stroke-width="5.9" stroke-linecap="round" d="M908.112 25.601h54.132v22.687h-54.132z"/>
        <path id="rect5462-3-3-1-8-3-9-8-6-5-2-2" fill="#d8d8d8" stroke="#d8d8d8" stroke-width="5.9" stroke-linecap="round" d="M1063.692 24.189h54.132v22.687h-54.132z"/>
        <path id="rect5462-3-3-6-0-0-3-6-4-6-4-9" fill="#d8d8d8" stroke="#d8d8d8" stroke-width="5.9" stroke-linecap="round" d="M986.96 24.001h54.132v22.687H986.96z"/>
        <path id="rect5462-3-6-3-0-9-8-3-4-1-3-3" fill="none" stroke="#e5e5e5" stroke-width="5" stroke-linecap="round" d="M253.418 23.808H702.76v24.325H253.418z"/>
        <path id="rect5462-3-6-2-5-7-4-4-2-8-3-8" fill="#e2e5e5" stroke="#e5e5e5" stroke-width="5.9" stroke-linecap="round" d="M268.823 33.935h3.797v3.942h-3.797z"/>
        <path id="rect4209-65-4-8-5-2" fill="#f95" stroke-width="3" stroke-linecap="round" d="M284.669 354.91h247.768v15.29H284.669z"/>
        <path id="rect4209-5-6-8-37-4-5" fill="#d8d8d8" stroke-width="3" stroke-linecap="round" d="M284.123 424.91h353.801v15.29H284.123z"/>
        <path id="rect4209-58-3-6-9-2-2" fill="#72a3ff" stroke-width="3" stroke-linecap="round" d="M284.123 464.91h157.526v15.29H284.123z"/>
        <path id="rect4209-4-3-6-4-1-3" fill="#d8d8d8" stroke-width="3" stroke-linecap="round" d="M284.123 534.91h407.372v15.29H284.123z"/>
        <path id="rect4209-3-0-4-5-5-6" fill="#d8d8d8" stroke-width="3" stroke-linecap="round" d="M284.396 574.91h407.372v15.29H284.396z"/>
        <path id="rect4209-6-0-6-30-2-3" fill="#d8d8d8" stroke-width="3" stroke-linecap="round" d="M284.123 604.91h203.14v15.29h-203.14z"/>
        <path id="rect4209-09-9-7-83-7-6" fill="#d8d8d8" stroke-width="3" stroke-linecap="round" d="M798.525 354.91h389v15.29h-389z"/>
        <path id="rect4209-54-3-2-5-0-2" fill="#d8d8d8" stroke-width="3" stroke-linecap="round" d="M798.525 464.91h389v15.29h-389z"/>
        <path id="rect4209-33-3-5-8-2-8" fill="#d8d8d8" stroke-width="3" stroke-linecap="round" d="M798.525 389.91h389v15.29h-389z"/>
        <path id="rect4209-52-8-7-7-5-0" fill="#d8d8d8" stroke-width="3" stroke-linecap="round" d="M798.525 424.91h143.072v15.29H798.525z"/>
        <path id="rect4209-7-5-8-2-9-4" fill="#d8d8d8" stroke-width="3" stroke-linecap="round" d="M798.525 534.91h389v15.29h-389z"/>
        <path id="rect4209-74-1-6-6-6-2" fill="#d8d8d8" stroke-width="3" stroke-linecap="round" d="M798.525 494.91h389v15.29h-389z"/>
        <path id="rect4209-73-1-7-8-9-2" fill="#d8d8d8" stroke-width="3" stroke-linecap="round" d="M798.786 604.91h389v15.29h-389z"/>
        <path d="M735.574 763.207l15.194-11.144-15.191-1.108z" id="path6246-6-7-6-7-9-8-0" fill="#d8d8d8" fill-rule="evenodd"/>
        <path id="path6068-0" d="M735.574 763.207l15.237-11.12-.001-4.418-15.27 3.413z" fill="#fff" fill-rule="evenodd"/>
        <path id="rect5462-5-8-1-1-6-9-2-4-3" fill="#e5e5e5" stroke="#e5e5e5" stroke-width="5.9" stroke-linecap="round" d="M287.762 200.587h115.019v18.864H287.762z"/>
        <path id="rect5462-5-8-1-1-6-9-2-4-3-6" fill="#e5e5e5" stroke="#e5e5e5" stroke-width="5.9" stroke-linecap="round" d="M800.262 200.087h115.019v18.864H800.262z"/>
        <path id="rect5462-5-8-1-1-6-9-2-4-3-7" fill="#d8d8d8" stroke="#d8d8d8" stroke-width="10.487" stroke-linecap="round" d="M266.556 120.38h204.433v33.528H266.556z"/>
        <path id="rect4209-65-4-8-5-8-9" transform="rotate(90)" fill="#fff" stroke-width="3" stroke-linecap="round" d="M259.182-750.823h492.49v15.29h-492.49z"/>
        <g id="g6041" transform="matrix(.72074 0 0 .72074 124.725 85.605)" fill="none" fill-rule="evenodd" stroke="#347bff">
            <path id="path4922-54-0-8-3-9" d="M1147.465 454.805v53.515" stroke-width="6.9"/>
            <path id="path4922-54-0-8-3-9-5" d="M1156.448 454.136l-17.896.034" stroke-width="4.066"/>
            <path id="path4922-54-0-8-3-9-5-3" d="M1156.448 509.511l-17.896.034" stroke-width="4.066"/>
        </g>
        <path id="rect4209-3-0-4-5-5-6-5" fill="#d8d8d8" stroke-width="3" stroke-linecap="round" d="M284.568 394.827h395.943v15.29H284.568z"/>
    </g>
</svg>
