<svg xmlns="http://www.w3.org/2000/svg" width="729.462" height="243.754" viewBox="0 0 193.00348 64.493317">
    <path d="M193.002-.001H-.002v64.493h193.004z" fill="#fdfcfd"/>
    <path d="M189.002 43.953H-.002v20.54h189.004z" fill="#f1f1f1"/>
    <path d="M119.072 1.585H65.9v8.052h53.173z" fill="#feeb5e"/>
    <g style="line-height:1.25" font-weight="400" font-size="1.6" font-family="sans-serif" letter-spacing="0" word-spacing="0">
        <path d="M150.24 10.153v.497q-.22-.113-.461-.172-.242-.05-.498-.05-.392 0-.59.12-.193.117-.193.358 0 .183.139.29.139.102.563.197l.183.037q.557.124.79.344.239.22.239.607 0 .447-.355.707-.352.26-.97.26-.256 0-.534-.052-.278-.047-.586-.146v-.545q.293.15.571.23.285.073.564.073.37 0 .57-.128.202-.128.202-.358 0-.216-.147-.33t-.633-.22l-.183-.043q-.49-.103-.706-.315-.22-.212-.22-.586 0-.45.322-.695.322-.249.912-.249.292 0 .549.044.256.044.475.128zm3.674 1.174v1.936h-.527v-1.921q0-.454-.176-.68t-.53-.228q-.428 0-.674.275-.245.274-.245.743v1.811h-.53v-4.45h.53v1.742q.187-.285.443-.428.256-.146.593-.146.549 0 .834.344.282.34.282 1.002zm2.298-.9q-.424 0-.67.33-.245.329-.245.907 0 .575.242.904.245.33.673.33.418 0 .666-.33.246-.33.246-.904 0-.57-.246-.9-.248-.337-.666-.337zm0-.446q.685 0 1.076.446.392.447.392 1.237 0 .787-.392 1.233-.391.447-1.076.447-.691 0-1.083-.447-.388-.446-.388-1.233 0-.79.388-1.237.392-.446 1.083-.446zm2.031.08h.527l.66 2.496.65-2.496h.623l.658 2.496.652-2.496h.527l-.838 3.202h-.622l-.685-2.627-.695 2.627h-.622zm9.267.121v.49q-.22-.12-.45-.183-.22-.062-.45-.062-.513 0-.795.33-.285.321-.285.907t.285.911q.282.322.794.322.227 0 .45-.058.227-.062.45-.183v.483q-.219.102-.457.154-.234.05-.501.05-.721 0-1.15-.453-.424-.454-.424-1.226 0-.783.428-1.233.432-.45 1.182-.45.242 0 .476.05.23.052.447.15zm3.582 1.145v1.936h-.526v-1.921q0-.454-.176-.68-.18-.228-.534-.228-.425 0-.67.275-.245.27-.245.74v1.81h-.531V8.814h.53v1.742q.187-.285.44-.428.26-.146.593-.146.552 0 .838.344.281.34.281 1.002zm2.511.326q-.637 0-.886.146-.245.147-.245.494 0 .282.183.447.187.165.505.165.44 0 .7-.311.266-.311.266-.824v-.117zm1.05-.22v1.83h-.53v-.486q-.183.292-.45.431-.268.136-.66.136-.49 0-.782-.275-.286-.278-.286-.739 0-.542.359-.816.366-.274 1.08-.274h.739v-.052q0-.366-.242-.56-.238-.2-.67-.2-.274 0-.534.065-.256.066-.498.198v-.484q.29-.11.56-.164.271-.059.527-.059.696 0 1.04.363.344.358.344 1.09zm3.747-.106v1.936h-.526v-1.921q0-.454-.176-.68-.18-.228-.534-.228-.425 0-.67.275-.245.27-.245.74v1.81h-.53v-3.198h.53v.494q.187-.285.44-.428.259-.146.592-.146.553 0 .834.344.286.34.286 1.002zm3.163.297q0-.571-.238-.886-.234-.315-.659-.315-.424 0-.659.315-.237.315-.237.886 0 .567.234.882.238.314.659.314.428 0 .662-.314.238-.315.238-.882zm.527 1.24q0 .816-.366 1.215-.362.403-1.11.403-.277 0-.522-.044-.25-.04-.476-.128v-.512q.227.128.454.186.227.062.46.062.517 0 .777-.274.256-.267.256-.812v-.264q-.165.282-.417.42-.257.144-.612.144-.585 0-.947-.45-.36-.45-.36-1.19 0-.743.36-1.193t.951-.45q.351 0 .608.143.256.139.417.42v-.479h.527zm3.82-1.335v.256h-2.415q.033.545.322.83.293.282.82.282.304 0 .585-.073.286-.073.568-.22v.495q-.286.12-.582.183t-.604.062q-.769 0-1.215-.447-.447-.446-.447-1.207 0-.784.425-1.245.425-.464 1.145-.464.648 0 1.022.417.376.417.376 1.134zm-.527-.154q-.003-.432-.241-.688-.234-.256-.622-.256-.44 0-.707.245-.263.249-.303.703zm3.433-1.222v.497q-.223-.113-.465-.172-.237-.055-.497-.055-.392 0-.586.121-.197.117-.197.359 0 .183.142.289.14.102.564.198l.18.036q.56.125.793.344.238.22.238.608 0 .446-.355.706-.351.26-.97.26-.256 0-.538-.051-.278-.048-.585-.147v-.545q.293.15.574.23.282.074.56.074.374 0 .571-.128.202-.129.202-.36 0-.215-.147-.328-.143-.114-.63-.22l-.182-.044q-.49-.102-.707-.315-.22-.212-.22-.585 0-.45.323-.696.318-.248.908-.248.292 0 .548.043.257.044.476.129z" style="line-height:0"/>
    </g>
    <g style="line-height:1.25" font-weight="400" font-size="1.6" font-family="sans-serif" letter-spacing="0" word-spacing="0">
        <path d="M143.738 30.714v-1.94h.524v1.918q0 .454.179.68.176.227.53.227.429 0 .674-.27.249-.271.249-.74v-1.815h.523v3.202h-.523v-.494q-.194.293-.447.436-.252.139-.585.139-.553 0-.842-.344-.282-.34-.282-1.003zm1.321-2.02zm5.113 1.346v1.936h-.527v-1.92q0-.455-.18-.682-.175-.227-.53-.227-.425 0-.673.275-.246.27-.246.74v1.81h-.527v-3.198h.527v.494q.19-.285.443-.428.256-.146.593-.146.55 0 .835.344.281.34.281 1.002zm3.356-1.145v.49q-.22-.12-.447-.183-.223-.062-.453-.062-.513 0-.795.33-.281.322-.281.907t.281.911q.282.322.795.322.23 0 .453-.058.224-.062.447-.183v.483q-.22.102-.458.154-.234.05-.497.05-.725 0-1.15-.453-.428-.454-.428-1.226 0-.783.429-1.233.431-.45 1.182-.45.241 0 .475.05.23.052.447.151zm3.582 1.145v1.936h-.523v-1.92q0-.455-.179-.682-.176-.227-.53-.227-.429 0-.674.275-.245.27-.245.74v1.81h-.527v-4.446h.527v1.742q.19-.285.443-.428.256-.146.592-.146.55 0 .835.344.282.34.282 1.002zm2.511.326q-.637 0-.882.147t-.245.494q0 .281.183.446t.501.165q.44 0 .703-.311.264-.311.264-.824v-.117zm1.05-.22v1.83h-.526v-.486q-.18.292-.447.431-.27.136-.659.136-.49 0-.783-.275-.293-.278-.293-.739 0-.541.366-.816.363-.274 1.08-.274h.736V29.9q0-.366-.238-.56-.238-.2-.67-.2-.275 0-.534.065t-.502.198v-.483q.29-.11.56-.165.271-.059.53-.059.696 0 1.037.363.344.358.344 1.09zm3.748-.106v1.936h-.523v-1.92q0-.455-.176-.682t-.53-.227q-.429 0-.674.275-.245.27-.245.74v1.81h-.535v-3.198h.531v.494q.187-.285.443-.428.256-.146.593-.146.549 0 .834.344.282.34.282 1.002zm3.162.297q0-.571-.238-.886-.234-.315-.659-.315-.424 0-.658.315-.238.315-.238.886 0 .567.234.882.238.315.662.315.425 0 .66-.315.237-.315.237-.882zm.527 1.24q0 .817-.366 1.215-.359.403-1.109.403-.278 0-.523-.044-.245-.04-.476-.128v-.512q.23.128.454.186.227.063.46.063.52 0 .777-.275.256-.267.256-.812v-.264q-.161.282-.417.421-.256.143-.608.143-.589 0-.951-.45-.359-.45-.359-1.19 0-.743.359-1.193.362-.45.951-.45.355 0 .608.143.256.139.417.42v-.479h.527zm3.824-1.335v.256h-2.419q.033.545.326.83.293.282.816.282.304 0 .586-.073.285-.073.567-.22v.495q-.282.12-.582.183-.293.062-.6.062-.769 0-1.219-.447-.443-.446-.443-1.207 0-.783.421-1.245.428-.464 1.15-.464.643 0 1.017.42.38.414.38 1.128zm-.527-.154q-.007-.432-.245-.688-.234-.256-.622-.256-.44 0-.706.245-.264.249-.304.703zm3.495-.831V27.53h.527v4.45h-.527v-.483q-.164.285-.42.428-.25.136-.604.136-.582 0-.948-.462-.363-.464-.363-1.218t.366-1.219q.366-.465.945-.465.355 0 .603.143.257.135.421.42zm-1.793 1.12q0 .578.238.911.241.33.659.33.417 0 .658-.33.238-.329.238-.915 0-.578-.238-.907-.241-.33-.658-.33-.418 0-.66.33-.237.33-.237.911zm5.79-2.514v.911h1.083v.406h-1.083v1.739q0 .391.106.505.11.11.439.11h.538v.439h-.542q-.607 0-.841-.224-.231-.23-.231-.83V29.18h-.38v-.406h.384v-.915zm4.516 2.379v.256h-2.416q.033.545.322.83.293.282.82.282.3 0 .586-.073t.563-.22v.495q-.282.12-.578.183t-.604.062q-.768 0-1.215-.447-.446-.446-.446-1.207 0-.783.424-1.245.425-.464 1.146-.464.647 0 1.02.42.378.414.378 1.128zm-.527-.154q-.004-.432-.242-.688-.234-.256-.622-.256-.44 0-.706.245-.264.249-.304.703zm3.948-1.314l-1.156 1.556 1.219 1.646h-.622l-.934-1.259-.93 1.26h-.621l1.244-1.677-1.135-1.526h.619l.849 1.138.849-1.138zm1.326-.911v.911h1.083v.406h-1.084v1.739q0 .391.106.505.11.11.44.11h.538v.439h-.542q-.608 0-.842-.224-.23-.23-.23-.83V29.18h-.385v-.406h.385v-.915z" style="line-height:0"/>
    </g>
    <path d="M57.862 1.585H4.69v8.052h53.173z" fill="#feeb5e"/>
    <path d="M119.072 9.635H65.9v8.052h53.173z" fill="#aad9e3"/>
    <path d="M109.86 9.635a4.541 4.541 0 0 1 4.542 4.543 4.541 4.541 0 0 1 4.541-4.543 4.541 4.541 0 0 1-4.54-4.541 4.541 4.541 0 0 1-4.544 4.541z" fill="#3261ff"/>
    <path d="M111.662 9.633a2.753 2.753 0 0 1 2.753 2.753 2.753 2.753 0 0 1 2.753-2.753 2.753 2.753 0 0 1-2.753-2.753 2.753 2.753 0 0 1-2.753 2.753z" fill="#fff"/>
    <path d="M109.76 28.322a4.541 4.541 0 0 1 4.543 4.541 4.541 4.541 0 0 1 4.541-4.541 4.541 4.541 0 0 1-4.541-4.543 4.541 4.541 0 0 1-4.543 4.543z" fill="#3261ff"/>
    <path d="M111.563 28.318a2.753 2.753 0 0 1 2.753 2.753 2.753 2.753 0 0 1 2.753-2.753 2.753 2.753 0 0 1-2.753-2.753 2.753 2.753 0 0 1-2.753 2.753z" fill="#fff"/>
    <path d="M57.862 9.635H4.69v8.052h53.173z" fill="#feeb5e"/>
    <path d="M48.366 9.644a4.223 4.223 0 0 1 4.225 4.223 4.223 4.223 0 0 1 4.222-4.223 4.223 4.223 0 0 1-4.222-4.222 4.223 4.223 0 0 1-4.225 4.222zm-.009 18.579a4.223 4.223 0 0 1 4.224 4.222 4.223 4.223 0 0 1 4.223-4.222 4.223 4.223 0 0 1-4.223-4.225 4.223 4.223 0 0 1-4.224 4.225z" fill="#fff" stroke="#373635" stroke-width=".637" stroke-linecap="round" stroke-linejoin="round"/>
    <g style="line-height:1.25" font-weight="400" font-size="1.6" font-family="sans-serif" letter-spacing="0" word-spacing="0">
        <path d="M93.49 27.523v.498q-.22-.114-.461-.172-.242-.052-.498-.052-.391 0-.589.121-.194.117-.194.359 0 .183.14.289.138.102.563.198l.183.036q.556.125.79.344.238.22.238.608 0 .446-.355.706-.351.26-.97.26-.256 0-.534-.051-.278-.048-.586-.147v-.545q.293.15.571.23.286.074.564.074.37 0 .57-.128.202-.128.202-.359 0-.216-.146-.33t-.633-.219l-.183-.044q-.49-.102-.707-.315-.22-.212-.22-.585 0-.45.323-.695.322-.25.911-.25.293 0 .549.045.256.043.476.128zm3.674 1.175v1.936h-.527v-1.922q0-.453-.175-.68t-.531-.227q-.428 0-.673.274-.246.275-.246.743v1.812h-.53v-4.45h.53v1.742q.187-.286.443-.429.256-.146.593-.146.55 0 .835.344.281.34.281 1.003zm2.299-.901q-.425 0-.67.33-.245.33-.245.907 0 .575.241.904.245.33.674.33.417 0 .666-.33.245-.329.245-.904 0-.57-.245-.9-.25-.337-.666-.337zm0-.446q.684 0 1.076.446.391.447.391 1.237 0 .787-.391 1.234-.392.446-1.076.446-.692 0-1.084-.446-.388-.447-.388-1.234 0-.79.388-1.237.392-.446 1.084-.446zm2.031.081h.527l.658 2.495.652-2.495h.622l.659 2.495.651-2.495h.527l-.838 3.202h-.622l-.684-2.628-.696 2.628h-.622z" style="line-height:0"/>
    </g>
    <g style="line-height:1.25" font-weight="400" font-size="1.6" font-family="sans-serif" letter-spacing="0" word-spacing="0">
        <path d="M35.81 28.57v1.936h-.527v-1.92q0-.455-.176-.682-.179-.227-.534-.227-.424 0-.67.275-.245.27-.245.74v1.81h-.534v-4.446h.53v1.742q.187-.285.44-.428.26-.146.592-.146.553 0 .835.344.285.34.285 1.002zm1.054-1.266h.527v3.202h-.527zm0-1.248h.527v.666h-.527zm3.733 1.731V26.06h.523v4.45h-.523v-.483q-.169.285-.421.428-.253.136-.608.136-.578 0-.944-.462-.366-.464-.366-1.218t.366-1.219q.366-.465.944-.465.355 0 .608.143.256.135.42.42zm-1.793 1.12q0 .578.237.911.238.33.66.33.413 0 .654-.33.242-.329.242-.915 0-.578-.242-.907t-.658-.33q-.418 0-.66.33-.233.33-.233.911zm6.141-.135v.256h-2.42q.037.545.326.83.293.282.816.282.304 0 .586-.073.289-.073.567-.22v.495q-.282.12-.578.183-.3.062-.604.062-.769 0-1.215-.447-.446-.446-.446-1.207 0-.783.424-1.245.425-.464 1.146-.464.644 0 1.02.42.378.414.378 1.128zm-.527-.154q-.004-.432-.242-.688-.234-.256-.622-.256-.44 0-.71.245-.26.249-.3.703z" style="line-height:0"/>
    </g>
    <g style="line-height:1.25" font-weight="400" font-size="1.6" font-family="sans-serif" letter-spacing="0" word-spacing="0">
        <path d="M95.943 10.222q0-.582-.242-.911-.238-.33-.655-.33-.417 0-.659.33-.234.33-.234.911 0 .578.234.911.242.33.66.33.416 0 .654-.33.242-.329.242-.915zm-1.794-1.12q.169-.285.421-.42.256-.143.604-.143.586 0 .948.464.366.465.366 1.22 0 .753-.366 1.218-.366.46-.948.46-.351 0-.604-.135-.256-.142-.417-.428v.483h-.534v-4.45h.53zm4.451-.117q-.421 0-.67.33-.245.329-.245.907 0 .575.245.904t.67.33q.42 0 .666-.33.245-.33.245-.904 0-.57-.245-.9-.246-.337-.666-.337zm0-.446q.688 0 1.08.446.39.447.39 1.237 0 .787-.39 1.233-.392.447-1.08.447t-1.08-.447q-.388-.446-.388-1.233 0-.79.388-1.237.392-.446 1.08-.446zm2.858-.831v.911h1.087v.406h-1.087v1.739q0 .391.11.505.106.11.435.11h.542v.439h-.546q-.61 0-.841-.224-.23-.23-.23-.83V9.025h-.389V8.62h.388v-.915zm4.442 2.177v1.936h-.526v-1.92q0-.455-.176-.682-.18-.227-.534-.227-.425 0-.67.275-.249.27-.249.74v1.81h-.527V7.372h.527v1.742q.19-.285.447-.428.256-.146.589-.146.552 0 .834.344.286.34.286 1.002z" style="line-height:0"/>
    </g>
    <g style="line-height:1.25" font-weight="400" font-size="1.6" font-family="sans-serif" letter-spacing="0" word-spacing="0">
        <path d="M33.612 9.133q.197-.355.472-.523.274-.172.644-.172.501 0 .772.355.27.347.27.991v1.936h-.526V9.8q0-.461-.165-.684-.16-.22-.497-.22-.407 0-.645.27-.237.272-.237.74v1.812h-.531V9.799q0-.461-.161-.684-.165-.22-.505-.22-.403 0-.64.27-.235.275-.235.74v1.812h-.534V8.518h.53v.494q.18-.293.432-.432.25-.142.597-.142t.593.179q.245.176.362.512zm3.213-.615h.527v3.202h-.527zm0-1.248h.527v.666h-.527zm4.285 2.514v1.936h-.527V9.8q0-.454-.175-.68-.18-.228-.535-.228-.424 0-.67.275-.245.27-.245.74v1.81h-.53V8.519h.53v.494q.187-.285.44-.428.26-.146.593-.146.552 0 .838.344.281.34.281 1.002zm3.795.202v.256h-2.419q.037.545.326.83.293.282.816.282.304 0 .586-.073.289-.073.567-.22v.495q-.282.12-.582.183-.293.062-.6.062-.769 0-1.215-.447-.447-.446-.447-1.207 0-.784.421-1.245.428-.464 1.15-.464.644 0 1.02.42.377.414.377 1.128zm-.527-.15q-.007-.432-.241-.688-.238-.257-.622-.257-.443 0-.71.246-.264.248-.304.702z" style="line-height:0"/>
    </g>
    <path d="M186.665 56.417H94.603v-3.554h92.064zm-96.431 0H67.592v-3.554h22.64zm-45.674 0H21.92v-3.554h22.64zm19.036 0h-13.89v-3.554h13.89zm66.212-6.659H115.92v-3.556h13.89zm18.837 0h-13.89v-3.556h13.89zm-36.545 0H50.863v-3.556h61.239zm-64.213 0H10.622v-3.556h37.265zm138.62 0h-34.9v-3.556h34.9z" fill="#d8d8d8"/>
    <path d="M2.084 48.484l2.798-.004-1.405-1.59z" fill="silver"/>
</svg>
