<svg xmlns="http://www.w3.org/2000/svg" width="740.311" height="252.42" viewBox="0 0 195.87405 66.786217">
    <path d="M195.876.014H92.706v66.771h103.17z" fill="#f1f1f1"/>
    <path d="M195.105 29.146h-97.38v3.416h97.38z" fill="#fe8b00"/>
    <path d="M194.869 56.143V29.146" fill="none" stroke="#fe8b00" stroke-width=".67"/>
    <g style="line-height:1.25" font-weight="700" font-size="1.2" font-family="sans-serif" letter-spacing="0" word-spacing="0" fill="#fff">
        <path d="M178.617 30.332h.33v1.034h-.33zm0-.401h.33v.267h-.33zm1.688.805v.63h-.332v-.482q0-.134-.006-.185-.007-.05-.022-.074-.02-.032-.054-.05-.031-.018-.075-.018-.103 0-.162.079-.059.08-.059.22v.51h-.33v-1.034h.33v.151q.074-.09.158-.132.085-.044.185-.044.18 0 .272.11.093.11.093.32zm.829-.404h.33l.277.702.236-.702h.33l-.436 1.131q-.064.173-.152.24-.087.07-.23.07h-.19v-.217h.104q.083 0 .12-.027.04-.027.06-.096l.01-.028zm1.857.211q-.11 0-.168.079-.057.078-.057.228 0 .147.057.228.058.078.168.078.107 0 .166-.078.056-.079.056-.228 0-.148-.056-.227-.059-.079-.166-.079zm0-.236q.268 0 .416.145.15.143.15.398t-.15.398q-.15.144-.416.144-.267 0-.418-.144-.151-.144-.151-.398t.151-.398q.151-.145.418-.145zm.795.657v-.632h.332v.483q0 .126.004.18.007.054.022.08.02.031.054.05.031.016.075.016.103 0 .162-.08.059-.078.059-.22v-.509h.33v1.034h-.33v-.15q-.074.09-.158.134-.083.042-.184.042-.18 0-.272-.11-.094-.11-.094-.32zm2.124-.35q-.043-.02-.087-.03-.043-.01-.085-.01-.128 0-.197.082-.068.082-.068.233v.477h-.33v-1.034h.33v.17q.063-.1.145-.148.084-.047.198-.047l.037.003.056.005zm.691-.282h.33l.259.714.256-.714h.33l-.406 1.034h-.361zm2.393.514v.095h-.771q.011.115.083.173.073.058.202.058.104 0 .212-.031.11-.032.225-.093v.255q-.116.044-.234.066-.117.023-.235.023-.28 0-.435-.141-.155-.145-.155-.401 0-.252.151-.398.155-.145.422-.145.242 0 .388.148.147.146.147.391zm-.34-.11q0-.094-.055-.15-.054-.059-.142-.059-.097 0-.157.054-.06.053-.074.155zm1.356-.122q-.044-.02-.087-.03t-.086-.01q-.126 0-.197.082-.067.082-.067.233v.477h-.332v-1.034h.33v.17q.063-.1.146-.148.082-.047.197-.047l.036.003q.02 0 .057.005zm.972-.249v.252q-.107-.046-.205-.068-.099-.022-.187-.022-.094 0-.14.024-.044.023-.044.072 0 .04.033.061.036.02.126.032l.057.008q.253.031.341.105.088.074.088.231 0 .166-.122.249-.122.083-.362.083-.103 0-.213-.017-.11-.016-.225-.047v-.252q.1.047.203.072.104.024.211.024.096 0 .146-.027.048-.026.048-.078 0-.044-.033-.066-.033-.022-.134-.035l-.058-.006q-.22-.029-.309-.103-.09-.075-.09-.226 0-.165.114-.244.112-.079.346-.079.09 0 .19.013.101.014.219.044zm.318-.033h.33v1.034h-.33zm0-.401h.33v.267h-.33zm1.14.612q-.11 0-.168.079-.057.078-.057.228 0 .147.057.228.058.078.168.078.107 0 .165-.078.057-.079.057-.228 0-.148-.057-.227-.058-.079-.165-.079zm0-.236q.268 0 .415.145.151.143.151.398t-.15.398q-.15.144-.416.144-.267 0-.418-.144-.151-.144-.151-.398t.15-.398q.152-.145.42-.145zm1.844.429v.63h-.33v-.482q0-.134-.009-.185-.004-.05-.02-.074-.019-.032-.052-.05-.033-.018-.075-.018-.104 0-.162.079-.06.08-.06.22v.51h-.33v-1.034h.33v.151q.075-.09.159-.132.083-.044.185-.044.178 0 .27.11.095.11.095.32z" style="line-height:0;-inkscape-font-specification:'sans-serif Bold'"/>
    </g>
    <path d="M195.047 1.349h-97.38v3.416h97.38z" fill="#3c7aeb"/>
    <path d="M194.811 28.347V1.35" fill="none" stroke="#3c7aeb" stroke-width=".67"/>
    <g style="line-height:1.25" font-weight="700" font-size="1.2" font-family="sans-serif" letter-spacing="0" word-spacing="0" fill="#fff">
        <path d="M165.874 2.535h.33v1.033h-.33zm0-.401h.33V2.4h-.33zm1.687.805v.63h-.332v-.482q0-.134-.006-.186-.006-.049-.022-.074-.019-.031-.053-.05-.032-.017-.076-.017-.102 0-.162.078-.058.08-.058.22v.51h-.33V2.535h.33v.15q.074-.089.157-.131.085-.044.186-.044.18 0 .272.11.093.11.093.319zm1.674-.061q0-.258-.049-.362-.047-.107-.162-.107t-.163.105q-.05.106-.05.364 0 .26.048.368.05.107.165.107.113 0 .162-.107.047-.107.047-.368zm.354.003q0 .341-.146.528-.148.186-.419.186-.272 0-.42-.186-.148-.187-.148-.528 0-.343.148-.529.148-.185.42-.185.27 0 .419.185.146.186.146.529zm.301-.346h.331v.357h-.33zm0 .676h.331v.357h-.33zm1.413-.333q0-.258-.048-.362-.048-.107-.164-.107-.113 0-.162.105t-.049.364q0 .26.047.368.05.107.164.107.115 0 .164-.107.047-.107.047-.368zm.354.003q0 .341-.148.528-.146.186-.418.186-.27 0-.418-.186-.148-.187-.148-.528 0-.343.148-.529.148-.185.418-.185.272 0 .418.185.148.186.148.529zm.301-.346h.333v.357h-.333zm0 .676h.333v.357h-.333zm1.414-.333q0-.258-.05-.362-.048-.107-.163-.107-.113 0-.162.105t-.048.364q0 .26.047.368.05.107.163.107t.163-.107q.05-.107.05-.368zm.354.003q0 .341-.148.528-.146.186-.419.186-.272 0-.418-.186-.148-.187-.148-.528 0-.343.148-.529.146-.185.418-.185.273 0 .419.185.148.186.148.529zm.302-.346h.33v.357h-.33zm0 .676h.33v.357h-.33zm1.411-.333q0-.258-.047-.362-.05-.107-.164-.107-.113 0-.164.105-.047.106-.047.364 0 .26.047.368.05.107.164.107t.162-.107q.049-.107.049-.368zm.355.003q0 .341-.148.528-.148.186-.418.186-.272 0-.418-.186-.148-.187-.148-.528 0-.343.148-.529.146-.185.418-.185.27 0 .418.185.148.186.148.529zm.301-.346h.332v.357h-.332zm0 .676h.332v.357h-.332zm1.412-.333q0-.258-.047-.362-.049-.107-.164-.107t-.163.105q-.047.106-.047.364 0 .26.047.368.049.107.163.107t.162-.107.05-.368zm.356.003q0 .341-.148.528-.148.186-.419.186-.272 0-.42-.186-.146-.187-.146-.528 0-.343.146-.529.148-.185.42-.185.27 0 .419.185.148.186.148.529zm.3-.346h.332v.357h-.33zm0 .676h.332v.357h-.33zm1.413-.333q0-.258-.05-.362-.046-.107-.161-.107t-.164.105q-.047.106-.047.364 0 .26.047.368.049.107.164.107.113 0 .162-.107t.049-.368zm.355.003q0 .341-.148.528-.148.186-.418.186-.272 0-.42-.186-.146-.187-.146-.528 0-.343.146-.529.148-.185.42-.185.27 0 .418.185.148.186.148.529zm.301-.346h.331v.357h-.331zm0 .676h.331v.357h-.331zm1.412-.333q0-.258-.049-.362-.047-.107-.162-.107t-.163.105q-.05.106-.05.364 0 .26.05.368t.163.107q.113 0 .162-.107.047-.107.047-.368zm.354.003q0 .341-.146.528-.148.186-.419.186-.272 0-.42-.186-.148-.187-.148-.528 0-.343.148-.529.148-.185.42-.185.27 0 .419.185.146.186.146.529zm.3-.346h.334v.357h-.334zm0 .676h.334v.357h-.334zm.766.112h.315v-.89l-.322.065v-.24l.319-.066h.338v1.13h.315v.246h-.965zm1.49-1.131v.511h-.219v-.511zm1.146.376v.251q-.106-.045-.205-.067-.098-.022-.186-.022-.094 0-.14.023-.046.024-.046.073 0 .039.035.061.035.02.126.031l.056.008q.254.032.342.106.088.074.088.231 0 .165-.123.248-.12.084-.362.084-.103 0-.212-.017-.11-.016-.225-.048v-.25q.1.047.203.072.104.024.21.024.097 0 .146-.027t.048-.079q0-.044-.033-.066-.033-.022-.133-.034l-.059-.007q-.22-.028-.31-.102-.086-.075-.086-.226 0-.166.113-.244.112-.079.345-.079.09 0 .192.013.1.014.218.044zm.844-.033h.33l.258.714.255-.714h.33l-.406 1.033h-.361zm2.392.514v.094h-.77q.01.115.083.173.07.059.2.059.105 0 .214-.032.11-.031.224-.093v.255q-.117.044-.235.066-.115.024-.233.024-.28 0-.436-.142-.154-.144-.154-.4 0-.252.15-.399.153-.144.42-.144.245 0 .391.147.146.147.146.392zm-.34-.11q0-.094-.055-.151-.055-.058-.141-.058-.098 0-.157.053-.06.054-.074.156zm1.356-.123q-.044-.02-.088-.03-.042-.01-.085-.01-.125 0-.196.083-.068.082-.068.233v.476h-.33V2.535h.33v.17q.063-.101.145-.148.083-.047.198-.047l.036.003.057.004zm.972-.248v.251q-.106-.045-.204-.067-.1-.022-.187-.022-.095 0-.14.023-.046.024-.046.073 0 .039.035.061.034.02.126.031l.056.008q.254.032.342.106.088.074.088.231 0 .165-.123.248-.121.084-.362.084-.104 0-.212-.017-.11-.016-.225-.048v-.25q.099.047.203.072.104.024.21.024.097 0 .145-.027t.05-.079q0-.044-.034-.066-.033-.022-.134-.034l-.058-.007q-.22-.028-.308-.102-.09-.075-.09-.226 0-.166.113-.244.112-.079.345-.079.091 0 .192.013.1.014.218.044zm.318-.033h.33v1.033h-.33zm0-.401h.33V2.4h-.33zm1.141.611q-.11 0-.169.08-.056.078-.056.227 0 .148.056.228.058.079.169.079.107 0 .165-.079.056-.078.056-.228 0-.148-.056-.226-.058-.079-.165-.079zm0-.235q.265 0 .415.144.15.143.15.398t-.15.398q-.15.145-.415.145-.268 0-.419-.145-.15-.143-.15-.398t.15-.398q.151-.144.419-.144zm1.843.429v.63h-.33v-.482q0-.134-.008-.186-.005-.05-.02-.074-.02-.031-.052-.05-.033-.017-.076-.017-.104 0-.162.078-.06.08-.06.22v.51h-.33V2.535h.33v.15q.076-.089.158-.131.085-.044.187-.044.177 0 .27.11.095.11.095.319z" style="line-height:0;-inkscape-font-specification:'sans-serif Bold'"/>
    </g>
    <path d="M193.28 35.909h-15.354v-1.611h15.354zm-20.14 2.929h-41.722v-1.612h41.72zm20.074 8.522H147.97v-1.61h45.243zm-25.96 12.074H141.57v-1.611h25.685zm26.096 5.944h-41.72v-1.611h41.72z" fill="#d8d8d8"/>
    <path d="M175.355 36.46h-24.414v-3.007h24.414z" fill="#ead97f"/>
    <path d="M193.28 44.435h-9.787v-1.612h9.787zm-47.64 8.87h-10.26v-1.61h10.26zm-20.825 0h-10.26v-1.61h10.26zm24.835 12.073h-10.262v-1.611h10.261zm43.63-5.944h-8.494v-1.611h8.494zm-7.804-20.67h-10.26v-1.611h10.26zm-44.363 5.671h-10.261v-1.612h10.261zM128.95 65.378h-10.26v-1.611h10.26zm64.33-26.614h-6.294v-1.611h6.294zM161.894 41.6h-6.295v-1.612h6.295zm-18.367 0h-6.294v-1.612h6.294zm-16.815 0h-6.293v-1.612h6.293zm13.323 17.834h-6.295v-1.611h6.295zm-2.458 5.944h-6.294v-1.611h6.294zm-5.303-5.944h-6.294v-1.611h6.294zm35.31 2.926h-6.294v-1.61h6.294zm-34.144-9.055h-6.296v-1.61h6.295zm59.84-3.018h-6.294v-1.61h6.294zM176.122 62.36h-6.296v-1.61h6.294zm9.176-12.073H156.64v-1.61h28.658zm-38.931-2.927h-28.53v-1.61h28.53zm13.193 15h-27.754v-1.61h27.753zm-29.102 0H113.57v-1.61h16.89zm9.312-12.073h-19.993v-1.61h19.993zm-9.7-11.523h-11.585v-1.611h11.584zm5.142 2.836h-5.636v-1.612h5.636zm18.398 0h-7.835v-1.612h7.835zm39.67 0h-29.177v-1.612h29.177zm-30.666 2.835h-19.087v-1.612h19.087zm18.933 0h-16.63v-1.612h16.63zm-27.937 5.852H142.8v-1.61h10.81zm39.67 3.018h-14.949v-1.61h14.948zm-16.524 0h-28.53v-1.61h28.53zm16.524 9.055h-15.818v-1.61h15.818zM116.726 38.8H97.638v-1.61h19.088zm-.558 8.55h-8.604v-1.61h8.606zm67.048 12.055H169.34v-1.613h13.876zM116.88 65.36h-13.878v-1.61h13.877zm76.438-56.887h-15.351V6.862h15.35zm-20.14 2.929h-41.72V9.791h41.72zm20.076 8.523H148.01v-1.611h45.244z" fill="#d8d8d8"/>
    <path d="M175.888 9.043h-25.636V6.037h25.636z" fill="#a3c9d2"/>
    <path d="M193.318 17h-9.786v-1.612h9.787zm-47.638 8.87h-10.263v-1.61h10.262zm-20.824 0h-10.262v-1.61h10.262zm60.659-14.541h-10.26V9.717h10.26zM141.152 17h-10.261v-1.612h10.261zm52.166-5.671h-6.293V9.717h6.294zm-31.385 2.835h-6.295v-1.611h6.295zm-18.367 0h-6.294v-1.611h6.294zm-16.814 0h-6.294v-1.611h6.294zm6.726 11.706h-6.295v-1.61h6.295zm59.84-3.019h-6.293v-1.61h6.294zm-7.981 0h-28.658v-1.61h28.658zm-38.931-2.926h-28.53v-1.611h28.53zm-6.596 2.926h-19.992v-1.61h19.992zm-9.7-11.522h-11.587V9.717h11.586zm5.14 2.835h-5.635v-1.611h5.636zm18.399 0h-7.836v-1.611h7.837zm39.669 0h-29.174v-1.611h29.174zM162.653 17h-19.087v-1.612h19.087zm18.933 0h-16.63v-1.612h16.629zm-27.937 5.851h-10.81v-1.61h10.81zm39.669 3.019H178.37v-1.61h14.948zm-16.523 0h-28.53v-1.61h28.53zm-60.03-14.505H97.678v-1.61h19.087zm-.556 8.55h-8.606v-1.611h8.606zm32.314 15.938h-19.088V34.24h19.088zm-20.574 0h-10.262V34.24h10.262zm20.476-27.485h-19.087V6.757h19.087zm-20.575 0h-10.26V6.757h10.26z" fill="#d8d8d8"/>
    <path d="M95.732 6.008l.014 9.485h-2.781L92.95 6.01z" fill="silver"/>
    <path d="M163.259 42.266h-44.614v-3.007h44.614z" opacity=".517" fill="#8fa1fd"/>
    <path d="M89.805.005H.003V66.7h89.802z" fill="#fdfcfd"/>
    <path d="M76.922 7.123H45.319V5.47h31.603zm-25.429 3.005H24.956V8.475h26.537zm36.833 8.739H67.397v-1.651h20.93zM78.151 31.248H35.366v-1.652H78.15zm-22.709 6.097h-11.79V35.69h11.79zm32.952-21.479H78.359v-1.651h10.035zm-49.782 9.098H26.1v-1.653h12.512zm-18.039 0H7.663v-1.653h12.91zm23.078 12.381H33.13V35.69h10.522zm44.743-6.097h-8.71v-1.652h8.71zM81.94 10.052H69.868V8.4h12.07zm-47.042 5.814H24.376v-1.651h10.522zM22.425 37.345H11.903V35.69h10.522z" fill="#d8d8d8"/>
    <path d="M88.394 10.052h-6.455V8.4h6.455zM59.661 12.96h-8.494v-1.653h8.494zm-18.833 0h-8.53v-1.653h8.53zm-17.244 0H17.13v-1.653h6.454zm10.208 18.288h-6.454v-1.652h6.454zm-2.519 6.097h-6.455V35.69h6.455zm-5.439-6.097H19.38v-1.652h6.454zm36.21 3.001h-6.455v-1.652h6.455zM26.1 24.964h-6.457v-1.653H26.1zm62.294-3.096h-6.455v-1.651h6.455zM70.799 34.249h-8.755v-1.652h8.753zm9.541-12.381H61.764v-1.651h18.58zm-14.654-3.001H46.908v-1.651h18.778zM33.919 34.249h-8.565v-1.652h8.565zm-9.947 0H6.652v-1.652h17.32zm23.343-12.381H26.813v-1.651h20.502zM23.574 10.052H11.693V8.4h11.881z" fill="#d8d8d8"/>
    <path d="M32.299 12.96h-5.78v-1.653h5.78zm18.868 0h-8.035v-1.653h8.035zm37.227 0h-17.65v-1.653h17.65zm-31.447 2.906H37.373v-1.651h19.574zm19.416 0H59.309v-1.651h17.054zM59.85 21.868H48.765v-1.651H59.85zm28.544 3.096H71.449v-1.653h16.945z" fill="#d8d8d8"/>
    <path d="M71.449 24.964H60.762v-1.653H71.45zm16.945 9.285h-16.22v-1.652h16.22zM88.39 7.05H78.355V5.4H88.39zm-19.634 3.002h-8.494V8.4h8.494zm-8.494 0h-8.034V8.4h8.034zm-1.456 14.912H47.722v-1.653h11.084zm-12.413 0h-6.455v-1.653h6.455zM25.25 21.868H12.572v-1.651h12.677zm63.2 15.477H71.132V35.69H88.45zm-20.044 0H57.884V35.69h10.522zm-14.325-3.096H43.56v-1.652h10.522zm-11.848 0h-6.455v-1.652h6.455z" fill="#d8d8d8"/>
    <path d="M88.257 4.409H45.726V.106h42.53z" fill="#9babc7"/>
    <g style="line-height:1.25" font-weight="400" font-size="8" font-family="sans-serif" letter-spacing="0" word-spacing="0">
        <path d="M82.082 1.255l-.46 1.254h.925zm-.191-.333h.387l.958 2.517h-.354l-.23-.645h-1.134l-.23.645h-.359z" style="line-height:0" font-size="2"/>
        <path d="M84.206 1.694l-.368 1.001h.741zm-.152-.27h.308l.768 2.015h-.283l-.183-.518h-.908l-.183.518h-.289z" font-size="1.6"/>
        <path d="M85.938 1.984l-.307.835h.616zm-.128-.225h.261l.639 1.68h-.237l-.153-.431h-.757l-.152.431h-.24z" font-size="1.333"/>
        <path d="M75.866 1.896q.154 0 .232-.07.08-.065.08-.196t-.08-.199q-.078-.069-.232-.069h-.359v.534zm.021 1.101q.197 0 .294-.083.1-.082.1-.25 0-.162-.099-.243-.096-.083-.293-.083h-.382v.66zm.604-.906q.21.06.325.224.114.164.114.403 0 .362-.247.542-.245.18-.748.18h-1.077V.921h.974q.525 0 .76.157.234.159.234.508 0 .184-.086.314-.086.128-.249.19z" style="-inkscape-font-specification:'sans-serif Bold'" font-weight="700" font-size="2"/>
        <path d="M70.58.922h.341l-.49 2.517h-.342z" style="-inkscape-font-specification:'sans-serif Italic'" font-style="italic" font-size="2"/>
    </g>
    <path d="M2.71 0l.014 66.434-2.71.007L0 .005z" fill="#f1f1f1"/>
    <path d="M2.774 9.507l.015 9.91H.08L.066 9.509z" fill="silver"/>
    <g fill="silver" stroke="#000" fill-rule="evenodd">
        <path d="M46.265 16.59v2.859" stroke-width=".369"/>
        <path d="M45.785 16.554l.957.001m-.957 2.957l.957.002" stroke-width=".217"/>
    </g>
    <path d="M69.483 12.96h-8.144v-1.653h8.144z" fill="#d8d8d8"/>
    <path d="M.15 1.83l2.388-.004L1.34.203zm.002 62.75l2.39.004-1.2 1.623z" fill="silver"/>
    <path d="M67.603 43.522H24.61v-1.66h42.993zm20.686 8.783H41.668v-1.66h46.62zm.066-3.015H78.271v-1.661h10.085zm-49.09 9.14H28.691v-1.66h10.574zm-21.458 0H7.234v-1.66h10.573zm62.508-14.984H69.742v-1.66h10.573zM34.6 49.29H24.028v-1.661H34.6zm53.755-5.844h-6.486v-1.66h6.486zm-32.341 2.922h-6.486v-1.66h6.486zm-18.925 0h-6.487v-1.66h6.487zm-17.327 0h-6.487v-1.66h6.487zm6.93 12.062h-6.486v-1.66h6.486zm61.663-3.11h-6.486v-1.66h6.486zm-8.223 0H50.6v-1.66h29.532zm-40.117-3.015h-29.4v-1.66h29.4zm-6.798 3.015H12.615v-1.66h20.602zm-9.996-11.874h-11.94v-1.66h11.94zm5.299 2.922h-5.81v-1.66h5.81zm18.957 0h-8.072v-1.66h8.072zm40.878 0H58.292v-1.66h30.063zM56.757 49.29H37.089v-1.661h19.668zm19.509 0H59.129v-1.661h17.138zm-28.789 6.03H36.339v-1.66h11.14zm40.878 3.11H72.952v-1.66h15.404zm-17.025 0h-29.4v-1.66h29.4zm17.19 6.51H77.975v-1.735h10.547zm-56.217 0H21.245v-1.735h11.058zm26.023-3.056H49.4V60.15h8.926zm-19.793 0h-8.961V60.15h8.961zm-16.791 0H14.96V60.15h6.783zm7.83 0h-6.074V60.15h6.074zm19.828 0h-8.444V60.15H49.4zm39.12 0H69.972V60.15h18.55zM55.474 64.94H34.905v-1.735h20.569zm20.403 0H57.956v-1.735h17.92zm-7.23-3.054h-8.558V60.15h8.558z" fill="#d8d8d8"/>
    <path d="M99.103 17.76a41.198 41.198 0 0 0 6.801.53c11.918 1.934 22.69 8.958 32.685 19.026a2.224 2.224 0 1 0-3.156 3.132c-9.596-9.666-19.59-16.041-30.241-17.77-10.407-1.689-21.635.952-34.331 9.806l7.086 7.801-22.002 2.296 4.372-21.704 7.531 8.29C77.983 22.006 87.641 18.4 96.791 17.839a40.157 40.157 0 0 0 2.312-.078z" style="line-height:normal;font-variant-ligatures:normal;font-variant-position:normal;font-variant-caps:normal;font-variant-numeric:normal;font-variant-alternates:normal;font-feature-settings:normal;text-indent:0;text-align:start;text-decoration-line:none;text-decoration-style:solid;text-decoration-color:#000;text-transform:none;text-orientation:mixed;shape-padding:0;isolation:auto;mix-blend-mode:normal" color="#000" font-weight="400" font-family="sans-serif" white-space="normal" overflow="visible" opacity=".53"/>
    <path d="M93.203 64.955l2.39.004-1.2 1.623zm.005-62.872l2.389-.004-1.2-1.623z" fill="silver"/>
</svg>
