<?xml version="1.0" encoding="UTF-8" standalone="no"?>
<svg xmlns="http://www.w3.org/2000/svg" width="740.311" height="252.42" viewBox="0 0 195.87405 66.786217">
	<path fill="#f1f1f1" d="M195.876193.0138384H92.7065466V66.785252H195.876193z"/>
	<path fill="#fe8b00" d="M195.105044 29.1459738H97.72406v3.416118h97.380984z"/>
	<path fill="none" stroke="#fe8b00" stroke-width=".670251" d="M194.8686544 56.1433958v-26.997422"/>
	<path fill="#fff" d="M178.61697234 30.33207629h.33032089v1.03343247h-.33032089zm0-.40110393h.33032089v.26740262h-.33032089zm1.68778241.80535377v.62918263h-.33189383v-.48132471q0-.13370131-.00629183-.18560888-.00629183-.04876165-.0220214-.07392896-.01887547-.03145913-.05348052-.0503346-.03145913-.01730253-.07550191-.01730253-.10224218 0-.16201453.07864783-.0581994.08022078-.0581994.22021392v.50963793h-.33032088V30.3320763h.33032089v.15100383q.07392896-.08965852.15729565-.13212835.08493966-.04404279.18560888-.04404279.17931705 0 .27212149.11010696.09280444.11010697.09280444.31931019zm.82894812-.40424984h.33032088l.27684036.70153863.23594349-.70153863h.33032088l-.43570898 1.13095578q-.06449122.17302522-.15257678.24066236-.08651262.06921009-.22965166.06921009h-.19032775v-.21706801h.10381513q.0833667 0 .12111766-.02674026.03932392-.02674027.05977235-.09595036l.00943774-.02831321zm1.85766172.21077618q-.11010696 0-.16830636.07864783-.05662643.07864783-.05662643.2280787 0 .14785792.05662643.2280787.0581994.07864784.16830636.07864784.10696105 0 .16516044-.07864783.05662644-.07864783.05662644-.2280787 0-.14785792-.05662644-.22650575-.0581994-.07864783-.16516044-.07864783zm0-.23594349q.26740262 0 .41526053.144712.15100384.14313906.15100384.39795802t-.15100384.39795802q-.14943087.144712-.41526053.144712-.26740262 0-.41840645-.144712-.15100383-.14313905-.15100383-.39795802t.15100383-.39795801q.15100383-.144712.41840645-.144712zm.79434307.65749585v-.63232854h.33189384v.48289767q0 .12583653.00471887.18089.00629182.05348053.02202139.07864783.02044844.03145914.05348052.05033461.03145914.01572957.07550192.01572957.10224218 0 .16201453-.07864783.05819939-.07864783.05819939-.22021392v-.50963793h.33032088v1.03343247h-.33032088v-.14943087q-.07392896.08965852-.15729566.1337013-.0833667.04246983-.18403592.04246983-.17931705 0-.27212149-.11010696-.09437739-.11010696-.09437739-.31931018zm2.12349138-.35076931q-.04246983-.02044844-.08651261-.02988618-.04246983-.00943774-.08493966-.00943774-.12740948 0-.19661957.08179374-.06763713.08179375-.06763713.23279758v.47660584h-.33032088V30.3320763h.33032088v.16987931q.06291826-.10066922.144712-.14785792.0833667-.0471887.19819253-.0471887l.036178.00314592.05662644.00471887zm.69210089-.28155923h.33032089l.25796487.71412229.25639193-.71412229h.33032088l-.4058228 1.03343247h-.36178001zm2.39246696.51435681v.09437739h-.77074872q.0110107.11482583.0833667.17302522.072356.0581994.20133844.0581994.10381513 0 .21234914-.03145914.11010696-.03145913.22493279-.09280444v.25481897q-.1163988.04404278-.23437053.06606417-.1163988.02359435-.23437053.02359435-.27998628 0-.43570898-.14156609-.15414974-.144712-.15414974-.40110393 0-.25167305.15100383-.39795801.15414975-.144712.42155236-.144712.24223532 0 .38852028.14785791.14628496.14628496.14628496.3916662zm-.33975862-.11010697q0-.0943774-.05505348-.15100383-.05348052-.0581994-.1415661-.0581994-.0975233 0-.15729565.05348053-.05977235.05348052-.07392896.1557227zm1.35588857-.12269061q-.04404278-.02044844-.08651261-.02988618t-.08651261-.00943774q-.12583653 0-.19661958.08179374-.06763713.08179375-.06763713.23279758v.47660584h-.33189384V30.3320763h.33032088v.16987931q.06291827-.10066922.14628497-.14785792.08179374-.0471887.19661957-.0471887l.036178.00314592q.02044843 0 .05662644.00471887zm.97208716-.24852714v.25167305q-.10696104-.04561574-.20448435-.06763713-.09909627-.0220214-.18718183-.0220214-.0943774 0-.13999314.02359435-.04404278.02359435-.04404278.072356 0 .03932392.03303209.06134531.036178.02044844.12583652.03145913l.05662644.00786479q.253246.03145913.34133158.10538809.08808556.07392896.08808556.23122462 0 .16516044-.1226906.24852713-.12111767.0833667-.36178002.0833667-.10224218 0-.21234914-.01730252-.11010696-.01572957-.2249328-.0471887v-.25167305q.09909627.0471887.2029114.072356.10381514.02359435.21077619.02359435.09595035 0 .14628496-.02674026.0471887-.02674026.0471887-.07864783 0-.04404278-.03303209-.06606417-.03303209-.0220214-.1337013-.03460505l-.0581994-.00629183q-.22021392-.02831321-.3082995-.10224217-.08965852-.07550192-.08965852-.22650575 0-.16516044.11325288-.24380827.11167991-.07864783.34605044-.07864783.08965853 0 .19032775.01258365.10066922.01415661.21864096.04404279zm.31773723-.03303209h.33032088v1.03343247h-.33032088zm0-.40110393h.33032088v.26740262h-.33032088zm1.14039352.61188011q-.11010696 0-.16830635.07864783-.05662644.07864783-.05662644.2280787 0 .14785792.05662644.2280787.0581994.07864784.16830635.07864784.10696105 0 .16516044-.07864783.05662644-.07864783.05662644-.2280787 0-.14785792-.05662644-.22650575-.05819939-.07864783-.16516044-.07864783zm0-.23594349q.26740262 0 .41526054.144712.15100383.14313906.15100383.39795802t-.15100383.39795802q-.14943088.144712-.41526054.144712-.26740262 0-.41840645-.144712-.15100383-.14313905-.15100383-.39795802t.15100383-.39795801q.15100383-.144712.41840645-.144712zm1.84350511.42941715v.62918263h-.33032088v-.48132471q0-.13370131-.00786478-.18560888-.00471887-.0503346-.02044844-.07392896-.01887548-.03145913-.05190757-.0503346-.03303208-.01730253-.07550191-.01730253-.10381514 0-.16201453.07864783-.05977235.08022078-.05977235.22021392v.50963793h-.33032088V30.3320763h.33032088v.15100383q.07550192-.08965852.15886862-.13212835.0833667-.04404279.18560887-.04404279.1777441 0 .27054853.11010696.0943774.11010697.0943774.31931019z"/>
	<path fill="#3c7aeb" d="M195.047388 1.3485748H97.666404v3.416118h97.380984z"/>
	<path fill="none" stroke="#3c7aeb" stroke-width=".670251" d="M194.8109984 28.3474382V1.3485748"/>
	<path fill="#fff" d="M165.87355494 2.53467729h.33032089v1.03343247h-.33032089zm0-.40110393h.33032089v.26740262h-.33032089zm1.68778241.80535377v.62918263h-.33189383v-.48132471q0-.13370131-.00629183-.18560888-.00629183-.04876165-.0220214-.07392896-.01887547-.03145913-.05348052-.0503346-.03145913-.01730253-.07550191-.01730253-.10224218 0-.16201453.07864783-.0581994.08022078-.0581994.22021392v.50963793h-.33032088V2.5346773h.33032089v.15100383q.07392896-.08965852.15729565-.13212835.08493966-.04404279.18560888-.04404279.17931705 0 .27212149.11010696.09280444.11010697.09280444.31931019zm1.6736258-.06134531q0-.25796488-.04876165-.36178-.0471887-.10696106-.16201453-.10696106t-.16358748.1053881q-.04876166.10538808-.04876166.36335296 0 .2611108.0471887.36807184.05033461.10696105.16516044.10696105.11325287 0 .16201453-.10696105.0471887-.10696104.0471887-.36807184zm.35391523.00314592q0 .34133157-.14628496.5285134-.14785792.18560888-.41840645.18560888-.27212149 0-.4199794-.18560887-.14785792-.18718184-.14785792-.52851341 0-.34290454.14785791-.52851341.14785792-.18560888.41997941-.18560888.27054853 0 .41840645.18560888.14628496.18560887.14628496.5285134zm.30200766-.34605045h.33032089v.35706114h-.33032089zm0 .67637133h.33032089v.35706114h-.33032089zm1.41251501-.3334668q0-.25796488-.04876165-.36178-.0471887-.10696106-.16358749-.10696106-.11325287 0-.16201452.1053881t-.04876166.36335296q0 .2611108.0471887.36807184.05033461.10696105.16358748.10696105.11482583 0 .16358749-.10696105.0471887-.10696104.0471887-.36807184zm.35391523.00314592q0 .34133157-.14785792.5285134-.14628496.18560888-.41840645.18560888-.27054853 0-.41840645-.18560887-.14785791-.18718184-.14785791-.52851341 0-.34290454.14785791-.52851341.14785792-.18560888.41840645-.18560888.2721215 0 .41840645.18560888.14785792.18560887.14785792.5285134zm.30043471-.34605045h.3334668v.35706114h-.3334668zm0 .67637133h.3334668v.35706114h-.3334668zm1.41408796-.3334668q0-.25796488-.0503346-.36178-.0471887-.10696106-.16201454-.10696106-.11325287 0-.16201452.1053881t-.04876166.36335296q0 .2611108.0471887.36807184.05033461.10696105.16358748.10696105t.16201453-.10696105q.05033461-.10696104.05033461-.36807184zm.35391523.00314592q0 .34133157-.14785792.5285134-.14628496.18560888-.41840645.18560888-.27212148 0-.41840645-.18560887-.14785791-.18718184-.14785791-.52851341 0-.34290454.14785791-.52851341.14628497-.18560888.41840645-.18560888.2721215 0 .41840645.18560888.14785792.18560887.14785792.5285134zm.30200767-.34605045h.33032088v.35706114h-.33032088zm0 .67637133h.33032088v.35706114h-.33032088zm1.41094205-.3334668q0-.25796488-.0471887-.36178-.04876166-.10696106-.16358749-.10696106-.11325287 0-.16358748.1053881-.0471887.10538808-.0471887.36335296 0 .2611108.0471887.36807184.05033461.10696105.16358748.10696105t.16201453-.10696105q.04876166-.10696104.04876166-.36807184zm.35548818.00314592q0 .34133157-.14785792.5285134-.14785791.18560888-.41840645.18560888-.27212148 0-.41840645-.18560887-.14785791-.18718184-.14785791-.52851341 0-.34290454.14785791-.52851341.14628497-.18560888.41840645-.18560888.27054854 0 .41840645.18560888.14785792.18560887.14785792.5285134zm.30043471-.34605045h.33189384v.35706114h-.33189384zm0 .67637133h.33189384v.35706114h-.33189384zm1.41251501-.3334668q0-.25796488-.0471887-.36178-.04876166-.10696106-.16358749-.10696106t-.16358748.1053881q-.0471887.10538808-.0471887.36335296 0 .2611108.0471887.36807184.04876165.10696105.16358748.10696105.11325288 0 .16201453-.10696105t.04876166-.36807184zm.35548818.00314592q0 .34133157-.14785792.5285134-.14785791.18560888-.41840645.18560888-.27212148 0-.4199794-.18560887-.14628496-.18718184-.14628496-.52851341 0-.34290454.14628496-.52851341.14785792-.18560888.4199794-.18560888.27054854 0 .41840645.18560888.14785792.18560887.14785792.5285134zm.30043471-.34605045h.33189384v.35706114h-.33032088zm0 .67637133h.33189384v.35706114h-.33032088zm1.41251501-.3334668q0-.25796488-.04876166-.36178-.0471887-.10696106-.16201453-.10696106t-.16358748.1053881q-.0471887.10538808-.0471887.36335296 0 .2611108.0471887.36807184.04876165.10696105.16358748.10696105.11325288 0 .16201453-.10696105t.04876166-.36807184zm.35548818.00314592q0 .34133157-.14785792.5285134-.14785791.18560888-.41840645.18560888-.27212148 0-.4199794-.18560887-.14628496-.18718184-.14628496-.52851341 0-.34290454.14628496-.52851341.14785792-.18560888.4199794-.18560888.27054854 0 .41840645.18560888.14785792.18560887.14785792.5285134zm.30043471-.34605045h.33189384v.35706114h-.33189384zm0 .67637133h.33189384v.35706114h-.33189384zm1.41251501-.3334668q0-.25796488-.04876166-.36178-.0471887-.10696106-.16201453-.10696106t-.16358748.1053881q-.04876165.10538808-.04876165.36335296 0 .2611108.04876165.36807184t.16358748.10696105q.11325288 0 .16201453-.10696105.0471887-.10696104.0471887-.36807184zm.35391523.00314592q0 .34133157-.14628497.5285134-.14785791.18560888-.41840645.18560888-.27212148 0-.4199794-.18560887-.14785792-.18718184-.14785792-.52851341 0-.34290454.14785792-.52851341.14785792-.18560888.4199794-.18560888.27054854 0 .41840645.18560888.14628497.18560887.14628497.5285134zm.3004347-.34605045h.3334668v.35706114h-.3334668zm0 .67637133h.3334668v.35706114h-.3334668zm.76602986.11167992h.31459131V2.4324351l-.3224561.06606418v-.24066236l.31931019-.06606417h.33818566v1.13095578h.31459132v.24538122h-.96422238zm1.48958988-1.13095578v.51121088h-.21864097v-.51121088zm1.14511238.37593662v.25167305q-.10538809-.04561574-.20448435-.06763713-.0975233-.0220214-.18560888-.0220214-.0943774 0-.13999313.02359435-.04561574.02359435-.04561574.072356 0 .03932392.03460504.06134531.03460505.02044844.12583653.03145913l.05662643.00786479q.25324601.03145913.34133158.10538809t.08808557.23122462q0 .16516044-.12269061.24852713-.12111766.0833667-.36178002.0833667-.10381513 0-.21234913-.01730252-.11010696-.01572957-.2249328-.0471887v-.25167305q.09909627.0471887.2029114.072356.10381514.02359435.21077619.02359435.09595035 0 .144712-.02674026t.04876165-.07864783q0-.04404278-.03303208-.06606417-.0330321-.0220214-.13370131-.03460505l-.0581994-.00629183q-.22021392-.02831321-.30987244-.10224217-.08651261-.07550192-.08651261-.22650575 0-.16516044.11325287-.24380827.11167992-.07864783.34447749-.07864783.09123148 0 .1919007.01258365.10066922.01415661.21864097.04404279zm.84467769-.03303209h.33032088l.25796488.71412229.25481896-.71412229h.33032088l-.4058228 1.03343247h-.36178zm2.39246696.51435681v.09437739h-.77074873q.0110107.11482583.0833667.17302522.07078304.0581994.19976548.0581994.1053881 0 .2139221-.03145914.11010696-.03145913.22493279-.09280444v.25481897q-.11797175.04404278-.23594349.06606417-.11482583.02359435-.23279757.02359435-.27998627 0-.43570897-.14156609-.15414975-.144712-.15414975-.40110393 0-.25167305.15100383-.39795801.15257679-.144712.4199794-.144712.24380828 0 .39009324.14785791.14628496.14628496.14628496.3916662zm-.33975863-.11010697q0-.0943774-.05505348-.15100383-.05505348-.0581994-.1415661-.0581994-.0975233 0-.15729565.05348053-.05977235.05348052-.07392896.1557227zm1.35588857-.12269061q-.04404278-.02044844-.08808557-.02988618-.04246983-.00943774-.08493965-.00943774-.12583653 0-.19661958.08179374-.06763713.08179375-.06763713.23279758v.47660584h-.33032088V2.5346773h.33032088v.16987931q.06291827-.10066922.144712-.14785792.0833667-.0471887.19819254-.0471887l.036178.00314592.05662643.00471887zm.97208716-.24852714v.25167305q-.10696104-.04561574-.20448435-.06763713-.09909626-.0220214-.18718183-.0220214-.0943774 0-.13999314.02359435-.04561574.02359435-.04561574.072356 0 .03932392.03460505.06134531.03460504.02044844.12583652.03145913l.05662644.00786479q.253246.03145913.34133158.10538809.08808557.07392896.08808557.23122462 0 .16516044-.12269062.24852713-.12111765.0833667-.36178001.0833667-.10381513 0-.21234914-.01730252-.11010696-.01572957-.22493279-.0471887v-.25167305q.09909627.0471887.2029114.072356.10381513.02359435.21077618.02359435.09595035 0 .144712-.02674026t.04876166-.07864783q0-.04404278-.03303209-.06606417-.03303209-.0220214-.1337013-.03460505l-.0581994-.00629183q-.22021392-.02831321-.30829949-.10224217-.08965853-.07550192-.08965853-.22650575 0-.16516044.11325288-.24380827.11167992-.07864783.34447749-.07864783.09123148 0 .1919007.01258365.10066922.01415661.21864097.04404279zm.31773723-.03303209h.33032089v1.03343247h-.33032089zm0-.40110393h.33032089v.26740262h-.33032089zm1.14039352.61188011q-.11010696 0-.16830635.07864783-.05662644.07864783-.05662644.2280787 0 .14785792.05662644.2280787.0581994.07864784.16830635.07864784.10696105 0 .16516044-.07864783.05662644-.07864783.05662644-.2280787 0-.14785792-.05662644-.22650575-.05819939-.07864783-.16516044-.07864783zm0-.23594349q.26582967 0 .41526054.144712.14943088.14313906.14943088.39795802t-.14943088.39795802q-.14943087.144712-.41526054.144712-.26740261 0-.41840645-.144712-.15100383-.14313905-.15100383-.39795802t.15100383-.39795801q.15100384-.144712.41840645-.144712zm1.84350511.42941715v.62918263h-.33032088v-.48132471q0-.13370131-.00786478-.18560888-.00471887-.0503346-.02044844-.07392896-.01887548-.03145913-.05190756-.0503346-.0330321-.01730253-.07550192-.01730253-.10381513 0-.16201453.07864783-.05977235.08022078-.05977235.22021392v.50963793h-.33032088V2.5346773h.33032088v.15100383q.07550192-.08965852.15729566-.13212835.08493966-.04404279.18718183-.04404279.1777441 0 .27054854.11010696.09437739.11010697.09437739.31931019z"/>
	<path fill="#d8d8d8" d="M193.2802316 35.9090226h-15.3537928v-1.6114852h15.3537928zm-20.1406822 2.9289248h-41.721323v-1.6114852h41.7198816zm20.0743778 8.5229982H147.971264v-1.6114852h45.2426632zm-25.959614 12.0731664h-25.685748v-1.6114852h25.685748zm26.096547 5.9443336h-41.721323v-1.6114852h41.721323z"/>
	<path fill="#ead97f" d="M175.3549812 36.4596374H150.940548V33.452877h24.4144332z"/>
	<path fill="#d8d8d8" d="M193.2802316 44.4349036h-9.787106v-1.6114852h9.787106zm-47.6411528 8.8703756h-10.2598852v-1.6100438h10.2598852zm-20.8239058 0h-10.2598852v-1.6100438h10.2598852zm24.8338806 12.0731664H139.387727v-1.6114852h10.2613266zm43.631178-5.9443336h-8.4941702v-1.6114852h8.4941702zm-7.8037396-20.669676h-10.2613266v-1.6114852h10.2613266zm-44.3634092 5.6704676h-10.2613266v-1.6114852h10.2613266zm-12.1625332 20.943542h-10.2598852v-1.6114852h10.2598852zm64.329682-26.6140096h-6.2945938v-1.6114852h6.2945938zm-31.386485 2.8352338h-6.2945938v-1.6114852h6.2945938zm-18.3663188 0h-6.2945938v-1.6114852h6.2945938zm-16.8153724 0h-6.2931524v-1.6114852h6.2931524zm13.3228602 17.8344422h-6.2945938v-1.6114852h6.2945938zm-2.457587 5.9443336h-6.2945938v-1.6114852h6.2945938zm-5.3029106-5.9443336h-6.2945938v-1.6114852h6.2945938zm35.3099758 2.926042H161.2898v-1.6114852h6.2945938zm-34.1453246-9.0548748h-6.2945938v-1.6100438h6.2945938zm59.8411624-3.0182916h-6.2945938v-1.6100438h6.2945938zM176.121806 62.360154h-6.2960352v-1.6114852h6.2945938zm9.1759524-12.0731664h-28.6579148v-1.6100438h28.6579148zm-38.9307726-2.926042h-28.5296302v-1.6114852h28.5296302zM159.56012 62.360154h-27.754157v-1.6114852h27.7527156zm-29.101866 0h-16.8888838v-1.6114852h16.8888838zm9.311444-12.0731664H119.77748v-1.6100438h19.992218zm-9.700622-11.5225516h-11.5845318v-1.6114852h11.5845318zm5.1429152 2.8352338h-5.635874v-1.6114852h5.635874zm18.3980296 0h-7.8354504v-1.6114852h7.8354504zm39.6702108 0h-29.1768188v-1.6114852h29.1768188zm-30.665785 2.8352338h-19.0870188v-1.6114852h19.0870188zm18.932789 0h-16.6308732v-1.6114852h16.6308732zm-27.9372148 5.852084h-10.8105v-1.6100438h10.8105zm39.6702108 3.0182916h-14.9487594v-1.6100438h14.947318zm-16.5242096 0h-28.5296302v-1.6100438h28.5296302zm16.5242096 9.0548748H177.462308v-1.6114852h15.8179236zm-76.5541954-23.559683H97.637576v-1.6100438h19.0884602zm-.5578218 8.5503848h-8.6037166v-1.6114852h8.605158zm67.0481624 12.0544282H169.340019v-1.6129266h13.8763578zm-66.3361108 5.9544234h-13.8777992v-1.6100438h13.8763578zM193.317708 8.473415h-15.35091V6.8619298h15.35091zm-20.1392408 2.9289248h-41.721323V9.7908546h41.721323zm20.0758192 8.5229982h-45.2441046v-1.6114852h45.2441046z"/>
	<path fill="#a3c9d2" d="M175.8882992 9.042768h-25.6367404V6.037449h25.6367404z"/>
	<path fill="#d8d8d8" d="M193.317708 16.999296h-9.7856646v-1.6114852h9.787106zm-47.63827 8.8703756H135.41667v-1.6100438h10.262768zm-20.8239058 0h-10.2613266v-1.6100438h10.2613266zm60.6598776-14.5408432h-10.2613266V9.7173432h10.2613266zm-44.3634092 5.6704676H130.890674v-1.6114852h10.2613266zm52.1657074-5.6704676h-6.2931524V9.7173432h6.2945938zm-31.3850436 2.8352338h-6.2945938V12.552577h6.2945938zm-18.3663188 0h-6.2945938V12.552577h6.2945938zm-16.813931 0h-6.2945938V12.552577h6.2945938zm6.7255724 11.7056094h-6.2945938v-1.6100438h6.2945938zm59.839721-3.0182916h-6.2931524v-1.6100438h6.2945938zm-7.9810318 0h-28.6579148v-1.6100438h28.6579148zm-38.9307726-2.926042h-28.5296302v-1.6114852h28.5296302zm-6.5958464 2.926042h-19.992218v-1.6100438h19.992218zm-9.700622-11.5225516H118.523462V9.7173432h11.5859732zm5.1414738 2.8352338h-5.635874V12.552577h5.635874zm18.3980296 0h-7.8354504V12.552577h7.8368918zm39.6687694 0h-29.173936V12.552577h29.173936zm-30.6643436 2.8352338h-19.0870188v-1.6114852h19.0870188zm18.932789 0h-16.6294318v-1.6114852h16.6279904zm-27.9372148 5.852084h-10.8105v-1.6100438h10.8105zm39.6687694 3.0182916H178.37039v-1.6100438h14.947318zm-16.5227682 0h-28.5296302v-1.6100438h28.5296302zM116.764954 11.3648634H97.6779352V9.7548196h19.0870188zm-.5563804 8.5503848h-8.605158V18.303763h8.605158zm32.3147466 15.9375598H129.43486v-1.6114852h19.0884602zm-20.5745436 0H117.68745v-1.6114852h10.2613266zM148.425305 8.3681928h-19.0870188V6.7567076h19.0870188zm-20.5745436 0h-10.2598852V6.7567076H127.84932z"/>
	<path fill="silver" d="M95.73155064 6.00821957l.01489053 9.484412-2.781902.00097367-.01489053-9.484412z"/>
	<path fill="#8fa1fd" d="M163.2587524 42.2655966h-44.6142128v-3.0067604h44.6142128z" opacity=".517"/>
	<path fill="#fdfcfd" d="M89.8050084.00519H.0029056v66.693578h89.8021028z"/>
	<path fill="#d8d8d8" d="M76.9217752 7.1228232h-31.602695V5.4709788h31.602695zm-25.4291788 3.005319h-26.536174V8.4748564h26.536174zm36.8335356 8.7392082H67.397004V17.215506h20.929128zM78.1512894 31.247535H35.3662132v-1.6518444H78.149848zm-22.709257 6.097122h-11.790652v-1.6532858h11.790652zm32.9518454-21.4783014H78.358851v-1.6518444h10.0350268zM38.612246 24.9644724H26.0994526v-1.6532858h12.511352zm-18.039121 0H7.6639466v-1.6532858H20.573125z"/>
	<path fill="#d8d8d8" d="M43.6513804 37.344657h-10.52222v-1.6532858h10.52222zm44.7424974-6.097122H79.684939v-1.6518444h8.7089388zm-6.4545892-21.195787H69.869005V8.3999036h12.0702836zm-47.0415304 5.8146076h-10.52222v-1.6518444h10.52222zM22.425324 37.344657h-10.52222v-1.6532858h10.52222zm65.9685538-27.292909h-6.4545892V8.3999036h6.4545892zm-28.7328676 2.9073038H51.16684v-1.6518444h8.4941702zm-18.8333324 0H32.298914v-1.6518444h8.5287638zm-17.2434682 0h-6.4545892v-1.6518444h6.4545892zM33.7922044 31.247535h-6.4545892v-1.6518444h6.4545892zm-2.5195672 6.097122H24.818048v-1.6532858h6.4545892zm-5.4384022-6.097122h-6.4545892v-1.6518444h6.4545892zm36.2094094 3.0009948h-6.4545892v-1.6518444h6.4545892zM26.100894 24.9644724h-6.457472v-1.6532858h6.4560306zm62.2929838-3.0961272h-6.4545892v-1.6518444h6.4545892zM70.798708 34.2485298h-8.7550636v-1.6518444h8.7536222zm9.542068-12.3801846H61.7625714v-1.6518444h18.579646zm-14.6547138-3.0009948H46.907503V17.215506h18.7785592zM33.9190476 34.2485298h-8.5647988v-1.6518444h8.5647988zm-9.9471014 0H6.6520838v-1.6518444h17.3198624zm23.343473-12.3801846H26.8129456v-1.6518444h20.5024736zM23.5741198 10.051748H11.6926596V8.3999036h11.8814602zm8.7247942 2.9073038H26.5189v-1.6518444h5.780014zm18.867926 0h-8.0343636v-1.6518444H51.16684zm37.2270378 0h-17.649943v-1.6518444h17.649943zM56.946854 15.8663556H37.372642v-1.6518444h19.574212zm19.415658 0H59.3093086v-1.6518444H76.362512zm-16.5126784 6.0019896h-11.084366v-1.6518444h11.084366zm28.5440442 3.0961272H71.4487794v-1.6532858h16.9450984zm-16.9450984 0H60.7622398v-1.6532858h10.6865396zm16.9450984 9.2840574H72.1738036v-1.6518444h16.2200742zm-.0043242-27.1977766H78.3545268V5.3989088h10.0350268zM68.7562442 10.051748H60.262074V8.3999036h8.4941702zm-8.4941702 0h-8.0343636V8.3999036h8.0343636zM58.80626 24.9644724H47.721894v-1.6532858H58.80626zm-12.4133368 0H39.938334v-1.6532858h6.4545892zM25.250468 21.8683452H12.5719136v-1.6518444h12.677113zM88.4500924 37.344657h-17.318421v-1.6532858h17.318421zm-20.0441084 0h-10.52222v-1.6532858h10.52222zm-14.3246332-3.0961272h-10.52222v-1.6518444h10.52222zm-11.848308 0h-6.4545892v-1.6518444h6.4545892z"/>
	<path fill="#9babc7" d="M88.2569448 4.408667H45.725555V.106088h42.5313898z"/>
	<path d="M82.0823954 1.2550706l-.46102406 1.25357106h.9255015zM81.89073371.921821h.38677675l.95830845 2.5175022h-.3539698l-.22964868-.64577903h-1.13443l-.2296487.64577902h-.35914983z"/>
	<path d="M84.20621413 1.6936478l-.36778325 1.0014755h.74074653zm-.151948-.26936237h.30734937l.76837344 2.01503776h-.28317583l-.18302828-.51800456h-.90823468l-.18302828.51800456H83.284166z"/>
	<path d="M85.93807606 1.98373036l-.30734938.83571404h.61642544zm-.12777446-.22446864h.26072897l.6388723 1.68006147h-.23655542l-.1536747-.43167047h-.75628666l-.151948.43167047h-.24000879z"/>
	<path d="M75.8663406 1.89566959q.1536747 0 .23137538-.06906728.07942737-.06561391.07942737-.19684173 0-.13122783-.07942737-.19856842-.07770068-.06906728-.23137537-.06906728h-.35914984v.5335447zm.02072019 1.10162304q.19684174 0 .29353592-.08288073.10014755-.08288073.10014755-.25036887 0-.1623081-.09842087-.24346215-.09669418-.08288073-.29353592-.08288073h-.3815967v.65959248zm.60433866-.906508q.20892851.06043388.3246162.22446865.113961.16403478.113961.40231688 0 .3626032-.2469155.54217812-.24518884.17957491-.74765327.17957491h-1.0774495V.921821h.97384859q.5249113 0 .75974003.15712805.23482874.15885474.23482874.50764448 0 .18475496-.0863341.3142561-.0863341.12777446-.24864219.189935z"/>
	<path d="M70.57924067.921821h.34188301l-.49037766 2.5175022h-.34188301z"/>
	<path fill="#f1f1f1" d="M2.70975428-.00004845l.0146155 66.434126-2.709832.00688297L-.00007804.00539312z"/>
	<path fill="silver" d="M2.7741575 9.5069477l.01446805 9.909625-2.7083906.00102918-.01446805-9.909625z"/>
	<g fill="silver" fill-rule="evenodd" stroke="#000">
		<path stroke-width=".368667" d="M46.26531959 16.58939261v2.85945084"/>
		<path stroke-width=".21724638" d="M45.78533366 16.55364614l.95623157.00181671m-.95623157 2.95701895l.95623157.0018167"/>
	</g>
	<path fill="#d8d8d8" d="M69.4827098 12.9604932h-8.14391v-1.6532858h8.14391z"/>
	<path fill="silver" d="M.1494438 1.829767l2.38897685-.00416695L1.33922696.20263882zm.0028828 62.7503784l2.38897685.00416695-1.19919369 1.62296123z"/>
	<path fill="#d8d8d8" d="M67.6031242 43.5224974H24.6104864v-1.6604928h42.9926378zm20.6855314 8.7824502H41.668014v-1.6604928h46.6206416zm.0663044-3.0154088H78.2709256V47.629046h10.0854758zm-49.0897598 9.1413588H28.6910898v-1.6604928h10.5741104zm-21.4581218 0H7.2344094v-1.6604928h10.572669zm62.5077524-14.9847944h-10.572669v-1.6604928h10.572669zm-45.714001 5.8434356H24.0267194V47.629046h10.5741104zM88.35496 43.4461032h-6.4863v-1.6604928h6.4863zM56.0142682 46.367821h-6.4863v-1.6604928h6.4863zm-18.925582 0h-6.4863v-1.6604928h6.4863zm-17.3270694 0h-6.4863v-1.6604928h6.4863zm6.9302512 12.0630766h-6.4863v-1.6604928h6.4863zm61.663092-3.1105412h-6.4863v-1.6604928h6.4863zm-8.223187 0H50.6003698v-1.6604928H80.131773zm-40.1170448-3.0154088H10.6159338v-1.6604928h29.3987944zm-6.7976424 3.0154088H12.6151556v-1.6604928h20.6019302zm-9.996109-11.8742532H11.2818606v-1.6604928h11.9391162zm5.2985864 2.9217178h-5.808842v-1.6604928h5.808842zm18.9572928 0h-8.07184v-1.6604928h8.07184zm40.878104 0H58.2916802v-1.6604928H88.35496zm-31.5983708 2.9217178h-19.667903V47.629046h19.667903zm19.509349 0H59.1291336V47.629046h17.138246zM47.476856 55.3203564H36.3391582v-1.6604928h11.1391392zm40.878104 3.1105412H72.9521596v-1.6604928h15.4042418zm-17.0258168 0H41.9303488v-1.6604928h29.3987944zM88.520721 64.94026H77.9739972v-1.7354456H88.520721zm-56.2174828 0H21.2448174v-1.7354456h11.0584208zm26.0230356-3.055768h-8.9265902v-1.7354456h8.9265902zm-19.7933048 0h-8.9611838v-1.7354456h8.9611838zm-16.7908686 0H14.958872v-1.7354456h6.7832284zm7.8296848 0h-6.0740596v-1.7354456h6.0740596zm19.8278984 0h-8.4437212v-1.7354456h8.4437212zm39.1210374 0H69.9713444v-1.7354456H88.520721zM55.4737432 64.94026h-20.568778v-1.7354456h20.568778zm20.403017 0H57.955834v-1.7354456h17.9209262zm-7.2300624-3.0543266H60.089106v-1.7354456h8.5575918z"/>
	<path d="M99.1034798 17.7603552a41.1980948 41.1980948 0 0 1 6.8005252.5289938c11.9174952 1.9343588 22.6905188 8.958301 32.6851864 19.02648a2.2240802 2.2240802 0 1 1-3.156666 3.1321622c-9.5953998-9.6660284-19.5900674-16.0413406-30.240572-17.7695792-10.406908-1.6893208-21.635414.951324-34.3312652 9.8058442l7.0859224 7.8008568-22.0015296 2.2961502 4.3717662-21.7046012 7.531315 8.2909328c10.1344834-7.1623166 19.7933048-10.767258 28.943312-11.329404a40.157404 40.157404 0 0 1 2.3120056-.0778356z" color="#000" font-family="sans-serif" font-weight="400" opacity=".53" overflow="visible" style="line-height:normal;font-variant-ligatures:normal;font-variant-position:normal;font-variant-caps:normal;font-variant-numeric:normal;font-variant-alternates:normal;font-feature-settings:normal;text-indent:0;text-align:start;text-decoration-line:none;text-decoration-style:solid;text-decoration-color:#000;text-transform:none;text-orientation:mixed;shape-padding:0;isolation:auto;mix-blend-mode:normal" white-space="normal"/>
	<path fill="silver" d="M93.203345 64.9549094l2.38897685.00416695-1.19919369 1.62296123zm.0043242-62.871456l2.38897685-.00416695L94.39745236.45632522z"/>
</svg>
