<?xml version="1.0" encoding="UTF-8" standalone="no"?>
<!-- Created with Inkscape (http://www.inkscape.org/) -->

<svg
   xmlns:dc="http://purl.org/dc/elements/1.1/"
   xmlns:cc="http://creativecommons.org/ns#"
   xmlns:rdf="http://www.w3.org/1999/02/22-rdf-syntax-ns#"
   xmlns:svg="http://www.w3.org/2000/svg"
   xmlns="http://www.w3.org/2000/svg"
   xmlns:sodipodi="http://sodipodi.sourceforge.net/DTD/sodipodi-0.dtd"
   xmlns:inkscape="http://www.inkscape.org/namespaces/inkscape"
   width="201.31895mm"
   height="67.27198mm"
   viewBox="0 0 201.31895 67.27198"
   version="1.1"
   id="svg15787"
   inkscape:version="0.92.1 r15371"
   sodipodi:docname="3LTR.svg"
   inkscape:export-filename="C:\Users\adobe_swe\Pictures\2colDif\LTR\3LTR.png"
   inkscape:export-xdpi="300"
   inkscape:export-ydpi="300">
  <defs
     id="defs15781" />
  <sodipodi:namedview
     id="base"
     pagecolor="#ffffff"
     bordercolor="#666666"
     borderopacity="1.0"
     inkscape:pageopacity="0.0"
     inkscape:pageshadow="2"
     inkscape:zoom="0.35"
     inkscape:cx="-79.554725"
     inkscape:cy="-284.5521"
     inkscape:document-units="mm"
     inkscape:current-layer="layer1"
     showgrid="false"
     fit-margin-top="0"
     fit-margin-left="0"
     fit-margin-right="0"
     fit-margin-bottom="0"
     inkscape:window-width="1600"
     inkscape:window-height="838"
     inkscape:window-x="-8"
     inkscape:window-y="-8"
     inkscape:window-maximized="1" />
  <metadata
     id="metadata15784">
    <rdf:RDF>
      <cc:Work
         rdf:about="">
        <dc:format>image/svg+xml</dc:format>
        <dc:type
           rdf:resource="http://purl.org/dc/dcmitype/StillImage" />
        <dc:title></dc:title>
      </cc:Work>
    </rdf:RDF>
  </metadata>
  <g
     inkscape:label="Layer 1"
     inkscape:groupmode="layer"
     id="layer1"
     transform="translate(-4.0399258,-6.2736098)">
    <g
       id="g9792"
       transform="matrix(1.9532964,0,0,1.9532964,-412.16099,5.5300655)">
      <path
         inkscape:connector-curvature="0"
         style="opacity:1;fill:#fdfcfd;fill-opacity:1;stroke:none;stroke-width:1.1948843;stroke-linecap:round;stroke-linejoin:round;stroke-miterlimit:4;stroke-dasharray:none;stroke-opacity:1"
         d="M 213.07617,0.38066128 H 316.14243 V 34.820893 H 213.07617 Z"
         id="rect4663-32-8-8-2" />
      <path
         inkscape:connector-curvature="0"
         style="opacity:1;fill:#f1f1f1;fill-opacity:1;stroke:none;stroke-width:0.66730964;stroke-linecap:round;stroke-linejoin:round;stroke-miterlimit:4;stroke-dasharray:none;stroke-opacity:1"
         d="M 215.21227,23.851952 H 316.14243 V 34.820891 H 215.21227 Z"
         id="rect4663-32-8-3-3" />
      <path
         inkscape:connector-curvature="0"
         style="opacity:1;fill:#feeb5e;fill-opacity:1;stroke:none;stroke-width:0.22159001;stroke-linecap:round;stroke-linejoin:round;stroke-miterlimit:4;stroke-dasharray:none;stroke-opacity:1"
         d="m 252.55457,1.227211 h 28.39551 v 4.2991376 h -28.39551 z"
         id="rect4663-4" />
      <g
         aria-label="show changes"
         transform="matrix(1.9543009,0,0,1.9543009,215.35169,-9.9193476)"
         style="font-style:normal;font-weight:normal;font-size:8px;line-height:1.25;font-family:sans-serif;letter-spacing:0px;word-spacing:0px;fill:#000000;fill-opacity:1;stroke:none"
         id="flowRoot4530-4-5">
        <path
           inkscape:connector-curvature="0"
           d="M 0.55429689,8.0453125 V 8.18125 Q 0.49335938,8.15 0.42773438,8.134375 0.36210938,8.11875 0.29179688,8.11875 q -0.10703125,0 -0.1609375,0.032813 -0.053125,0.032812 -0.053125,0.098437 0,0.05 0.03828125,0.078906 0.0382813,0.028125 0.15390625,0.053906 l 0.0492187,0.010938 q 0.153125,0.032812 0.21718751,0.092969 0.0648438,0.059375 0.0648438,0.1664063 0,0.121875 -0.096875,0.1929687 -0.0960937,0.071094 -0.26484375,0.071094 -0.0703125,0 -0.146875,-0.014063 Q 0.01679688,8.8898437 -0.06757812,8.8625 V 8.7140625 q 0.0796875,0.041406 0.15703125,0.0625 0.07734375,0.020312 0.153125,0.020312 0.1015625,0 0.15625,-0.034375 0.0546875,-0.035156 0.0546875,-0.098437 0,-0.058594 -0.0398438,-0.089844 -0.0390625,-0.03125 -0.17265625,-0.060156 l -0.05,-0.011719 q -0.13359375,-0.028125 -0.19296875,-0.085937 -0.059375,-0.058594 -0.059375,-0.1601562 0,-0.1234375 0.0875,-0.190625 0.0875,-0.067188 0.2484375,-0.067188 0.0796875,0 0.15,0.011719 0.0703125,0.011719 0.12968756,0.035156 z"
           style="font-size:1.60000002px;line-height:0"
           id="path10435" />
        <path
           inkscape:connector-curvature="0"
           d="m 1.5582032,8.3664062 v 0.5281251 h -0.14375 V 8.3710937 q 0,-0.1242187 -0.048438,-0.1859375 -0.048437,-0.061719 -0.1453125,-0.061719 -0.1164063,0 -0.1835938,0.074219 Q 0.9699219,8.271875 0.9699219,8.4 V 8.8945313 H 0.82539065 V 7.6789062 H 0.9699219 V 8.1554687 Q 1.0214844,8.0765625 1.0910157,8.0375 1.1613277,7.998437 1.2527344,7.998437 q 0.1507813,0 0.228125,0.09375 0.077344,0.092969 0.077344,0.2742192 z"
           style="font-size:1.60000002px;line-height:0"
           id="path10437" />
        <path
           inkscape:connector-curvature="0"
           d="m 2.1855469,8.1203125 q -0.115625,0 -0.1828125,0.090625 -0.067187,0.089844 -0.067187,0.246875 0,0.1570312 0.066406,0.2476562 0.067188,0.089844 0.1835937,0.089844 0.1148438,0 0.1820313,-0.090625 0.067187,-0.090625 0.067187,-0.246875 0,-0.1554688 -0.067187,-0.2460938 -0.067188,-0.091406 -0.1820315,-0.091406 z m 0,-0.121875 q 0.1875,0 0.2945313,0.121875 0.1070312,0.121875 0.1070312,0.3375 0,0.2148437 -0.1070312,0.3375 -0.1070313,0.121875 -0.2945313,0.121875 -0.1882812,0 -0.2953125,-0.121875 -0.10625,-0.1226563 -0.10625,-0.3375 0,-0.215625 0.10625,-0.3375 0.1070313,-0.121875 0.2953125,-0.121875 z"
           style="font-size:1.60000002px;line-height:0"
           id="path10439" />
        <path
           inkscape:connector-curvature="0"
           d="m 2.7410156,8.0195312 h 0.14375 L 3.0644531,8.7023437 3.2433594,8.0195312 H 3.4128906 L 3.5925781,8.7023437 3.7714844,8.0195312 h 0.14375 L 3.6863281,8.8945313 H 3.5167969 L 3.3285156,8.1773437 3.1394531,8.8945313 H 2.9699219 Z"
           style="font-size:1.60000002px;line-height:0"
           id="path10441" />
        <path
           inkscape:connector-curvature="0"
           d="M 5.2730473,8.053125 V 8.1875 Q 5.2121103,8.153906 5.150391,8.1375 5.089454,8.120313 5.0269535,8.120313 q -0.1398437,0 -0.2171875,0.089062 -0.077344,0.088281 -0.077344,0.2484375 0,0.1601562 0.077344,0.2492187 0.077344,0.088281 0.2171875,0.088281 0.0625,0 0.1234375,-0.016406 0.061719,-0.017188 0.1226563,-0.050781 v 0.1328125 q -0.060156,0.028125 -0.125,0.042187 -0.064063,0.014063 -0.1367188,0.014063 -0.1976562,0 -0.3140625,-0.1242188 Q 4.5808598,8.66875 4.5808598,8.4578125 q 0,-0.2140625 0.1171875,-0.3367188 0.1179687,-0.1226562 0.3226562,-0.1226562 0.066406,0 0.1296875,0.014062 0.063281,0.013281 0.1226563,0.040625 z"
           style="font-size:1.60000002px;line-height:0"
           id="path10443" />
        <path
           inkscape:connector-curvature="0"
           d="m 6.2519534,8.3664062 v 0.5281251 h -0.14375 V 8.3710937 q 0,-0.1242187 -0.048437,-0.1859375 -0.048438,-0.061719 -0.1453125,-0.061719 -0.1164062,0 -0.1835937,0.074219 Q 5.6636722,8.271875 5.6636722,8.4 V 8.8945313 H 5.5191409 V 7.6789062 H 5.6636722 V 8.1554687 Q 5.7152347,8.0765625 5.7847659,8.0375 5.8550779,7.998437 5.9464847,7.998437 q 0.1507812,0 0.228125,0.09375 0.077344,0.092969 0.077344,0.2742192 z"
           style="font-size:1.60000002px;line-height:0"
           id="path10445" />
        <path
           inkscape:connector-curvature="0"
           d="m 6.9378909,8.4546875 q -0.1742187,0 -0.2414062,0.039844 -0.067188,0.039844 -0.067188,0.1359375 0,0.076562 0.05,0.121875 0.050781,0.044531 0.1375,0.044531 0.1195312,0 0.1914062,-0.084375 0.072656,-0.085156 0.072656,-0.2257813 v -0.032031 z m 0.2867188,-0.059375 v 0.4992188 h -0.14375 V 8.7617187 q -0.049219,0.079688 -0.1226563,0.1179688 -0.073438,0.0375 -0.1796875,0.0375 -0.134375,0 -0.2140625,-0.075 -0.078906,-0.075781 -0.078906,-0.2023438 0,-0.1476562 0.098438,-0.2226562 0.099219,-0.075 0.2953125,-0.075 H 7.0808597 V 8.328125 q 0,-0.099219 -0.065625,-0.153125 -0.064844,-0.054687 -0.1828125,-0.054687 -0.075,0 -0.1460938,0.017969 -0.071094,0.017969 -0.1367187,0.053906 V 8.059375 q 0.078906,-0.030469 0.153125,-0.045312 0.074219,-0.015625 0.1445312,-0.015625 0.1898438,0 0.2835938,0.098438 0.09375,0.098437 0.09375,0.2984365 z"
           style="font-size:1.60000002px;line-height:0"
           id="path10447" />
        <path
           inkscape:connector-curvature="0"
           d="m 8.2488282,8.3664062 v 0.5281251 h -0.14375 V 8.3710937 q 0,-0.1242187 -0.048437,-0.1859375 -0.048438,-0.061719 -0.1453125,-0.061719 -0.1164062,0 -0.1835937,0.074219 Q 7.660547,8.271875 7.660547,8.4 V 8.8945313 H 7.5160157 V 8.0195312 H 7.660547 V 8.1554687 Q 7.7121095,8.0765625 7.7816407,8.0375 7.8519527,7.998437 7.9433595,7.998437 q 0.1507812,0 0.228125,0.09375 0.077344,0.092969 0.077344,0.2742192 z"
           style="font-size:1.60000002px;line-height:0"
           id="path10449" />
        <path
           inkscape:connector-curvature="0"
           d="m 9.1128912,8.446875 q 0,-0.15625 -0.064844,-0.2421875 Q 8.983985,8.11875 8.8675787,8.11875 q -0.115625,0 -0.1804687,0.085937 -0.064063,0.085937 -0.064063,0.2421875 0,0.1554687 0.064063,0.2414062 0.064844,0.085937 0.1804687,0.085937 0.1164063,0 0.1804688,-0.085937 0.064844,-0.085937 0.064844,-0.2414057 z m 0.14375,0.3390625 q 0,0.2234375 -0.099219,0.3320313 -0.099219,0.109375 -0.3039063,0.109375 -0.075781,0 -0.1429687,-0.011719 Q 8.64336,9.2046875 8.5800787,9.18125 V 9.0414063 q 0.063281,0.034375 0.125,0.050781 0.061719,0.016406 0.1257813,0.016406 0.1414062,0 0.2117187,-0.074219 0.070312,-0.073438 0.070312,-0.2226563 V 8.740625 Q 9.06836,8.8179687 8.9988287,8.85625 8.9292977,8.894531 8.8324225,8.894531 q -0.1609375,0 -0.2593751,-0.1226563 -0.098437,-0.1226563 -0.098437,-0.325 0,-0.203125 0.098437,-0.3257813 0.098438,-0.1226562 0.2593751,-0.1226562 0.096875,0 0.1664062,0.038281 Q 9.06836,8.075 9.1128912,8.1523437 V 8.0195312 h 0.14375 z"
           style="font-size:1.60000002px;line-height:0"
           id="path10451" />
        <path
           inkscape:connector-curvature="0"
           d="m 10.301172,8.4210937 v 0.070312 H 9.640235 q 0.00937,0.1484375 0.089062,0.2265625 0.080469,0.077344 0.2234375,0.077344 0.082812,0 0.1601565,-0.020312 0.07813,-0.020313 0.154688,-0.060937 V 8.85 q -0.07734,0.032813 -0.158594,0.05 -0.08125,0.017188 -0.1648443,0.017188 -0.209375,0 -0.3320312,-0.121875 Q 9.4902349,8.6734375 9.4902349,8.465625 9.4902349,8.2507812 9.60586,8.125 9.7222662,7.9984375 9.9191412,7.9984375 q 0.1765628,0 0.2789058,0.1140625 0.103125,0.1132812 0.103125,0.3085937 z m -0.14375,-0.042188 q -0.0016,-0.1179687 -0.06641,-0.1882812 -0.06406,-0.070312 -0.1703123,-0.070312 -0.1203125,0 -0.1929687,0.067969 -0.071871,0.067968 -0.082809,0.191406 z"
           style="font-size:1.60000002px;line-height:0"
           id="path10453" />
        <path
           inkscape:connector-curvature="0"
           d="M 11.094922,8.0453125 V 8.18125 Q 11.033985,8.15 10.96836,8.134375 10.902735,8.11875 10.832422,8.11875 q -0.107031,0 -0.160937,0.032813 -0.05313,0.032812 -0.05313,0.098437 0,0.05 0.03828,0.078906 0.03828,0.028125 0.153906,0.053906 l 0.04922,0.010938 q 0.153125,0.032812 0.217188,0.092969 0.06484,0.059375 0.06484,0.1664063 0,0.121875 -0.09688,0.1929687 -0.09609,0.071094 -0.264843,0.071094 -0.07031,0 -0.146875,-0.014063 Q 10.557422,8.8898437 10.473047,8.8625 V 8.7140625 q 0.07969,0.041406 0.157032,0.0625 0.07734,0.020312 0.153125,0.020312 0.101562,0 0.15625,-0.034375 0.05469,-0.035156 0.05469,-0.098437 0,-0.058594 -0.03984,-0.089844 -0.03906,-0.03125 -0.172656,-0.060156 l -0.05,-0.011719 q -0.133594,-0.028125 -0.192969,-0.085937 -0.05937,-0.058594 -0.05937,-0.1601562 0,-0.1234375 0.0875,-0.190625 0.0875,-0.067188 0.248438,-0.067188 0.07969,0 0.15,0.011719 0.07031,0.011719 0.129687,0.035156 z"
           style="font-size:1.60000002px;line-height:0"
           id="path10455" />
      </g>
      <g
         aria-label="unchanged text"
         transform="matrix(1.9543009,0,0,1.9543009,215.11901,0.07321328)"
         style="font-style:normal;font-weight:normal;font-size:8px;line-height:1.25;font-family:sans-serif;letter-spacing:0px;word-spacing:0px;fill:#000000;fill-opacity:1;stroke:none"
         id="flowRoot4530-4-1-3">
        <path
           inkscape:connector-curvature="0"
           d="M -0.01835937,8.5492187 V 8.0195312 h 0.14375 V 8.54375 q 0,0.1242187 0.0484375,0.1867187 0.0484375,0.061719 0.1453125,0.061719 0.11640625,0 0.18359375,-0.074219 Q 0.57070314,8.64375 0.57070314,8.515625 V 8.0195312 h 0.14375 v 0.8750001 h -0.14375 V 8.7601562 q -0.0523438,0.079687 -0.12187501,0.11875 -0.06875,0.038281 -0.16015625,0.038281 -0.15078125,0 -0.22890625,-0.09375 -0.078125,-0.09375 -0.078125,-0.2742185 z M 0.34335938,7.9984375 Z"
           style="font-size:1.60000002px;line-height:0"
           id="path10408" />
        <path
           inkscape:connector-curvature="0"
           d="m 1.7394531,8.3664062 v 0.5281251 h -0.14375 V 8.3710937 q 0,-0.1242187 -0.048437,-0.1859375 -0.048437,-0.061719 -0.1453125,-0.061719 -0.1164062,0 -0.1835937,0.074219 Q 1.1511719,8.271875 1.1511719,8.4 V 8.8945313 H 1.0066406 V 8.0195312 H 1.1511719 V 8.1554687 Q 1.2027344,8.0765625 1.2722656,8.0375 1.3425776,7.998437 1.4339844,7.998437 q 0.1507812,0 0.228125,0.09375 0.077344,0.092969 0.077344,0.2742192 z"
           style="font-size:1.60000002px;line-height:0"
           id="path10410" />
        <path
           inkscape:connector-curvature="0"
           d="M 2.6574219,8.053125 V 8.1875 Q 2.5964839,8.153906 2.5347656,8.1375 2.4738276,8.120313 2.4113281,8.120313 q -0.1398437,0 -0.2171875,0.089062 -0.077344,0.088281 -0.077344,0.2484375 0,0.1601562 0.077344,0.2492187 0.077344,0.088281 0.2171875,0.088281 0.0625,0 0.1234375,-0.016406 0.061719,-0.017188 0.1226563,-0.050781 v 0.1328125 q -0.060156,0.028125 -0.125,0.042187 -0.064062,0.014063 -0.1367188,0.014063 -0.1976562,0 -0.3140625,-0.1242188 Q 1.9652344,8.66875 1.9652344,8.4578125 q 0,-0.2140625 0.1171875,-0.3367188 0.1179687,-0.1226562 0.3226562,-0.1226562 0.066406,0 0.1296875,0.014062 0.063281,0.013281 0.1226563,0.040625 z"
           style="font-size:1.60000002px;line-height:0"
           id="path10412" />
        <path
           inkscape:connector-curvature="0"
           d="M 3.636328,8.3664062 V 8.8945313 H 3.492578 V 8.3710937 q 0,-0.1242187 -0.048437,-0.1859375 -0.048437,-0.061719 -0.1453125,-0.061719 -0.1164062,0 -0.1835937,0.074219 Q 3.0480468,8.271875 3.0480468,8.4 V 8.8945313 H 2.9035155 V 7.6789062 H 3.0480468 V 8.1554687 Q 3.0996093,8.0765625 3.1691405,8.0375 3.2394525,7.998437 3.3308593,7.998437 q 0.1507812,0 0.228125,0.09375 0.077344,0.092969 0.077344,0.2742192 z"
           style="font-size:1.60000002px;line-height:0"
           id="path10414" />
        <path
           inkscape:connector-curvature="0"
           d="m 4.3222655,8.4546875 q -0.1742187,0 -0.2414062,0.039844 -0.067188,0.039844 -0.067188,0.1359375 0,0.076562 0.05,0.121875 0.050781,0.044531 0.1375,0.044531 0.1195312,0 0.1914062,-0.084375 0.072656,-0.085156 0.072656,-0.2257813 v -0.032031 z m 0.2867188,-0.059375 v 0.4992188 h -0.14375 V 8.7617187 q -0.049219,0.079688 -0.1226563,0.1179688 -0.073437,0.0375 -0.1796875,0.0375 -0.134375,0 -0.2140625,-0.075 -0.078906,-0.075781 -0.078906,-0.2023438 0,-0.1476562 0.098437,-0.2226562 0.099219,-0.075 0.2953125,-0.075 H 4.4652343 V 8.328125 q 0,-0.099219 -0.065625,-0.153125 -0.064844,-0.054687 -0.1828125,-0.054687 -0.075,0 -0.1460938,0.017969 Q 3.999609,8.156251 3.9339843,8.192188 V 8.059375 q 0.078906,-0.030469 0.153125,-0.045312 0.074219,-0.015625 0.1445312,-0.015625 0.1898438,0 0.2835938,0.098438 0.09375,0.098437 0.09375,0.2984365 z"
           style="font-size:1.60000002px;line-height:0"
           id="path10416" />
        <path
           inkscape:connector-curvature="0"
           d="m 5.6332033,8.3664062 v 0.5281251 h -0.14375 V 8.3710937 q 0,-0.1242187 -0.048438,-0.1859375 -0.048437,-0.061719 -0.1453125,-0.061719 -0.1164062,0 -0.1835937,0.074219 Q 5.0449221,8.271875 5.0449221,8.4 V 8.8945313 H 4.9003908 V 8.0195312 H 5.0449221 V 8.1554687 Q 5.0964846,8.0765625 5.1660158,8.0375 5.2363278,7.998437 5.3277346,7.998437 q 0.1507812,0 0.228125,0.09375 0.077344,0.092969 0.077344,0.2742192 z"
           style="font-size:1.60000002px;line-height:0"
           id="path10418" />
        <path
           inkscape:connector-curvature="0"
           d="m 6.4972658,8.446875 q 0,-0.15625 -0.064844,-0.2421875 Q 6.3683596,8.11875 6.2519533,8.11875 q -0.115625,0 -0.1804687,0.085937 -0.064062,0.085937 -0.064062,0.2421875 0,0.1554687 0.064062,0.2414062 0.064844,0.085937 0.1804687,0.085937 0.1164063,0 0.1804688,-0.085937 0.064844,-0.085937 0.064844,-0.2414057 z m 0.14375,0.3390625 q 0,0.2234375 -0.099219,0.3320313 -0.099219,0.109375 -0.3039063,0.109375 -0.075781,0 -0.1429687,-0.011719 Q 6.0277346,9.2046875 5.9644533,9.18125 V 9.0414063 q 0.063281,0.034375 0.125,0.050781 0.061719,0.016406 0.1257813,0.016406 0.1414062,0 0.2117187,-0.074219 0.070312,-0.073438 0.070312,-0.2226563 V 8.740625 Q 6.4527343,8.817969 6.3832028,8.85625 6.3136718,8.894531 6.2167966,8.894531 q -0.1609375,0 -0.259375,-0.1226563 -0.098437,-0.1226563 -0.098437,-0.325 0,-0.203125 0.098437,-0.3257813 0.098438,-0.1226562 0.259375,-0.1226562 0.096875,0 0.1664062,0.038281 0.069531,0.038281 0.1140625,0.115625 v -0.132812 h 0.14375 z"
           style="font-size:1.60000002px;line-height:0"
           id="path10420" />
        <path
           inkscape:connector-curvature="0"
           d="m 7.6855471,8.4210937 v 0.070312 H 7.0246096 q 0.00938,0.1484375 0.089062,0.2265625 0.080469,0.077344 0.2234375,0.077344 0.082813,0 0.1601562,-0.020312 0.078125,-0.020313 0.1546875,-0.060937 V 8.85 q -0.077344,0.032813 -0.1585937,0.05 -0.08125,0.017188 -0.1648438,0.017188 -0.209375,0 -0.3320312,-0.121875 -0.121875,-0.121875 -0.121875,-0.3296875 0,-0.2148438 0.115625,-0.340625 0.1164062,-0.1265625 0.3132812,-0.1265625 0.1765625,0 0.2789063,0.1140625 0.103125,0.1132812 0.1031255,0.3085932 z m -0.14375,-0.042188 Q 7.5402346,8.2609375 7.4753908,8.190625 7.4113283,8.1203125 7.3050783,8.1203125 q -0.1203125,0 -0.1929687,0.067969 -0.071875,0.067969 -0.082813,0.1914063 z"
           style="font-size:1.60000002px;line-height:0"
           id="path10422" />
        <path
           inkscape:connector-curvature="0"
           d="M 8.4972658,8.1523437 V 7.6789062 h 0.14375 v 1.2156251 h -0.14375 V 8.7632812 q -0.045312,0.078125 -0.1148437,0.1164063 -0.06875,0.0375 -0.165625,0.0375 -0.1585938,0 -0.2585938,-0.1265625 -0.099219,-0.1265625 -0.099219,-0.3328125 0,-0.20625 0.099219,-0.3328125 0.1,-0.1265625 0.2585938,-0.1265625 0.096875,0 0.165625,0.038281 0.069531,0.0375 0.1148437,0.1156252 z M 8.0074221,8.4578125 q 0,0.1585937 0.064844,0.2492187 0.065625,0.089844 0.1796875,0.089844 0.1140625,0 0.1796875,-0.089844 0.065625,-0.090625 0.065625,-0.2492187 0,-0.1585938 -0.065625,-0.2484375 Q 8.3660158,8.11875 8.2519533,8.11875 q -0.1140625,0 -0.1796875,0.090625 -0.064844,0.089844 -0.064844,0.2484375 z"
           style="font-size:1.60000002px;line-height:0"
           id="path10424" />
        <path
           inkscape:connector-curvature="0"
           d="M 9.5886717,7.7710937 V 8.0195312 H 9.8847654 V 8.13125 H 9.5886717 v 0.475 q 0,0.1070312 0.028906,0.1375 0.029687,0.030469 0.1195313,0.030469 H 9.8847654 V 8.8945313 H 9.7371092 q -0.1664063,0 -0.2296875,-0.061719 -0.063281,-0.0625 -0.063281,-0.2265625 v -0.475 H 9.3386717 V 8.0195312 H 9.4441404 V 7.7710937 Z"
           style="font-size:1.60000002px;line-height:0"
           id="path10426" />
        <path
           inkscape:connector-curvature="0"
           d="m 10.823047,8.4210937 v 0.070312 h -0.660938 q 0.0094,0.1484375 0.08906,0.2265625 0.08047,0.077344 0.223437,0.077344 0.08281,0 0.160157,-0.020312 0.07813,-0.020313 0.154687,-0.060937 V 8.85 q -0.07734,0.032813 -0.158594,0.05 -0.08125,0.017188 -0.164843,0.017188 -0.209375,0 -0.332032,-0.121875 -0.121875,-0.121875 -0.121875,-0.3296875 0,-0.2148438 0.115625,-0.340625 0.116407,-0.1265625 0.313282,-0.1265625 0.176562,0 0.278906,0.1140625 0.103125,0.1132812 0.103125,0.3085937 z m -0.14375,-0.042188 q -0.0016,-0.1179687 -0.06641,-0.1882812 -0.06406,-0.070312 -0.170313,-0.070312 -0.120312,0 -0.192969,0.067969 -0.07188,0.067969 -0.08281,0.1914063 z"
           style="font-size:1.60000002px;line-height:0"
           id="path10428" />
        <path
           inkscape:connector-curvature="0"
           d="M 11.758203,8.0195312 11.441797,8.4453125 11.77461,8.8945313 H 11.605078 L 11.350391,8.5507812 11.095703,8.8945313 H 10.926172 L 11.266016,8.4367187 10.955078,8.0195312 H 11.12461 L 11.356641,8.33125 11.588672,8.0195312 Z"
           style="font-size:1.60000002px;line-height:0"
           id="path10430" />
        <path
           inkscape:connector-curvature="0"
           d="m 12.119922,7.7710937 v 0.2484375 h 0.296093 V 8.13125 h -0.296093 v 0.475 q 0,0.1070312 0.02891,0.1375 0.02969,0.030469 0.119531,0.030469 h 0.147656 v 0.1203126 h -0.147656 q -0.166406,0 -0.229687,-0.061719 -0.06328,-0.0625 -0.06328,-0.2265625 v -0.475 H 11.869922 V 8.0195312 H 11.97539 V 7.7710937 Z"
           style="font-size:1.60000002px;line-height:0"
           id="path10432" />
      </g>
      <path
         inkscape:connector-curvature="0"
         style="opacity:1;fill:#feeb5e;fill-opacity:1;stroke:none;stroke-width:0.22159001;stroke-linecap:round;stroke-linejoin:round;stroke-miterlimit:4;stroke-dasharray:none;stroke-opacity:1"
         d="m 285.24164,1.227211 h 28.39552 v 4.2991376 h -28.39552 z"
         id="rect4663-3-35" />
      <path
         inkscape:connector-curvature="0"
         style="opacity:1;fill:#aad9e3;fill-opacity:1;stroke:none;stroke-width:0.22159001;stroke-linecap:round;stroke-linejoin:round;stroke-miterlimit:4;stroke-dasharray:none;stroke-opacity:1"
         d="m 252.55457,5.5263391 h 28.39551 v 4.2991375 h -28.39551 z"
         id="rect4663-32-89" />
      <path
         inkscape:connector-curvature="0"
         style="opacity:1;fill:#3261ff;fill-opacity:1;stroke:none;stroke-width:0.56828529;stroke-linecap:round;stroke-linejoin:round;stroke-miterlimit:4;stroke-dasharray:none;stroke-opacity:1"
         d="m 257.4746,5.5263391 a 2.4254811,2.4254811 0 0 1 -2.42548,2.425481 2.4254811,2.4254811 0 0 1 -2.42548,-2.425481 2.4254811,2.4254811 0 0 1 2.42548,-2.4254811 2.4254811,2.4254811 0 0 1 2.42548,2.4254811 z"
         id="path4586-9-8" />
      <path
         inkscape:connector-curvature="0"
         style="opacity:1;fill:#ffffff;fill-opacity:1;stroke:none;stroke-width:0.34444562;stroke-linecap:round;stroke-linejoin:round;stroke-miterlimit:4;stroke-dasharray:none;stroke-opacity:1"
         d="m 256.51176,5.5247135 a 1.4701177,1.4701177 0 0 1 -1.47012,1.4701177 1.4701177,1.4701177 0 0 1 -1.47012,-1.4701177 1.4701177,1.4701177 0 0 1 1.47012,-1.4701177 1.4701177,1.4701177 0 0 1 1.47012,1.4701177 z"
         id="path4586-4" />
      <path
         inkscape:connector-curvature="0"
         style="opacity:1;fill:#3261ff;fill-opacity:1;stroke:none;stroke-width:0.56828529;stroke-linecap:round;stroke-linejoin:round;stroke-miterlimit:4;stroke-dasharray:none;stroke-opacity:1"
         d="m 257.52768,15.504586 a 2.4254811,2.4254811 0 0 1 -2.42548,2.425481 2.4254811,2.4254811 0 0 1 -2.42548,-2.425481 2.4254811,2.4254811 0 0 1 2.42548,-2.425481 2.4254811,2.4254811 0 0 1 2.42548,2.425481 z"
         id="path4586-9-1-6" />
      <path
         inkscape:connector-curvature="0"
         style="opacity:1;fill:#ffffff;fill-opacity:1;stroke:none;stroke-width:0.34444562;stroke-linecap:round;stroke-linejoin:round;stroke-miterlimit:4;stroke-dasharray:none;stroke-opacity:1"
         d="m 256.56483,15.502947 a 1.4701177,1.4701177 0 0 1 -1.47012,1.470118 1.4701177,1.4701177 0 0 1 -1.47012,-1.470118 1.4701177,1.4701177 0 0 1 1.47012,-1.470118 1.4701177,1.4701177 0 0 1 1.47012,1.470118 z"
         id="path4586-6-3" />
      <path
         inkscape:connector-curvature="0"
         style="opacity:1;fill:#feeb5e;fill-opacity:1;stroke:none;stroke-width:0.22159001;stroke-linecap:round;stroke-linejoin:round;stroke-miterlimit:4;stroke-dasharray:none;stroke-opacity:1"
         d="m 285.24164,5.5263391 h 28.39552 v 4.2991375 h -28.39552 z"
         id="rect4663-3-3-7" />
      <path
         inkscape:connector-curvature="0"
         style="opacity:1;fill:#ffffff;fill-opacity:1;stroke:#373635;stroke-width:0.33994251;stroke-linecap:round;stroke-linejoin:round;stroke-miterlimit:4;stroke-dasharray:none;stroke-opacity:1"
         d="m 290.31275,5.5311699 a 2.255316,2.255316 0 0 1 -2.25532,2.255316 2.255316,2.255316 0 0 1 -2.25531,-2.255316 2.255316,2.255316 0 0 1 2.25531,-2.255316 2.255316,2.255316 0 0 1 2.25532,2.255316 z"
         id="path4586-6-0-1" />
      <path
         inkscape:connector-curvature="0"
         style="opacity:1;fill:#ffffff;fill-opacity:1;stroke:#373635;stroke-width:0.33994251;stroke-linecap:round;stroke-linejoin:round;stroke-miterlimit:4;stroke-dasharray:none;stroke-opacity:1"
         d="m 290.31754,15.451507 a 2.255316,2.255316 0 0 1 -2.25531,2.255316 2.255316,2.255316 0 0 1 -2.25532,-2.255316 2.255316,2.255316 0 0 1 2.25532,-2.255316 2.255316,2.255316 0 0 1 2.25531,2.255316 z"
         id="path4586-6-0-0-9" />
      <g
         aria-label="show"
         transform="matrix(1.9543009,0,0,1.9543009,259.77915,-0.64383895)"
         style="font-style:normal;font-weight:normal;font-size:8px;line-height:1.25;font-family:sans-serif;letter-spacing:0px;word-spacing:0px;fill:#000000;fill-opacity:1;stroke:none"
         id="flowRoot4530-4-6-2">
        <path
           inkscape:connector-curvature="0"
           d="M 0.55429689,8.0453125 V 8.18125 Q 0.49335938,8.15 0.42773438,8.134375 0.36210938,8.11875 0.29179688,8.11875 q -0.10703125,0 -0.1609375,0.032813 -0.053125,0.032812 -0.053125,0.098437 0,0.05 0.03828125,0.078906 0.0382813,0.028125 0.15390625,0.053906 l 0.0492187,0.010938 q 0.153125,0.032812 0.21718751,0.092969 0.0648438,0.059375 0.0648438,0.1664063 0,0.121875 -0.096875,0.1929687 -0.0960937,0.071094 -0.26484375,0.071094 -0.0703125,0 -0.146875,-0.014063 Q 0.01679688,8.8898437 -0.06757812,8.8625 V 8.7140625 q 0.0796875,0.041406 0.15703125,0.0625 0.07734375,0.020312 0.153125,0.020312 0.1015625,0 0.15625,-0.034375 0.0546875,-0.035156 0.0546875,-0.098437 0,-0.058594 -0.0398438,-0.089844 -0.0390625,-0.03125 -0.17265625,-0.060156 l -0.05,-0.011719 q -0.13359375,-0.028125 -0.19296875,-0.085937 -0.059375,-0.058594 -0.059375,-0.1601562 0,-0.1234375 0.0875,-0.190625 0.0875,-0.067188 0.2484375,-0.067188 0.0796875,0 0.15,0.011719 0.0703125,0.011719 0.12968756,0.035156 z"
           style="font-size:1.60000002px;line-height:0"
           id="path10390" />
        <path
           inkscape:connector-curvature="0"
           d="m 1.5582032,8.3664062 v 0.5281251 h -0.14375 V 8.3710937 q 0,-0.1242187 -0.048438,-0.1859375 -0.048437,-0.061719 -0.1453125,-0.061719 -0.1164063,0 -0.1835938,0.074219 Q 0.9699219,8.271875 0.9699219,8.4 V 8.8945313 H 0.82539065 V 7.6789062 H 0.9699219 V 8.1554687 Q 1.0214844,8.0765625 1.0910157,8.0375 1.1613277,7.998437 1.2527344,7.998437 q 0.1507813,0 0.228125,0.09375 0.077344,0.092969 0.077344,0.2742192 z"
           style="font-size:1.60000002px;line-height:0"
           id="path10392" />
        <path
           inkscape:connector-curvature="0"
           d="m 2.1855469,8.1203125 q -0.115625,0 -0.1828125,0.090625 -0.067187,0.089844 -0.067187,0.246875 0,0.1570312 0.066406,0.2476562 0.067188,0.089844 0.1835937,0.089844 0.1148438,0 0.1820313,-0.090625 0.067187,-0.090625 0.067187,-0.246875 0,-0.1554688 -0.067187,-0.2460938 -0.067188,-0.091406 -0.1820315,-0.091406 z m 0,-0.121875 q 0.1875,0 0.2945313,0.121875 0.1070312,0.121875 0.1070312,0.3375 0,0.2148437 -0.1070312,0.3375 -0.1070313,0.121875 -0.2945313,0.121875 -0.1882812,0 -0.2953125,-0.121875 -0.10625,-0.1226563 -0.10625,-0.3375 0,-0.215625 0.10625,-0.3375 0.1070313,-0.121875 0.2953125,-0.121875 z"
           style="font-size:1.60000002px;line-height:0"
           id="path10394" />
        <path
           inkscape:connector-curvature="0"
           d="m 2.7410156,8.0195312 h 0.14375 L 3.0644531,8.7023437 3.2433594,8.0195312 H 3.4128906 L 3.5925781,8.7023437 3.7714844,8.0195312 h 0.14375 L 3.6863281,8.8945313 H 3.5167969 L 3.3285156,8.1773437 3.1394531,8.8945313 H 2.9699219 Z"
           style="font-size:1.60000002px;line-height:0"
           id="path10396" />
      </g>
      <g
         aria-label="hide"
         transform="matrix(1.9543009,0,0,1.9543009,292.15771,-0.71230036)"
         style="font-style:normal;font-weight:normal;font-size:8px;line-height:1.25;font-family:sans-serif;letter-spacing:0px;word-spacing:0px;fill:#000000;fill-opacity:1;stroke:none"
         id="flowRoot4530-4-6-3-8">
        <path
           inkscape:connector-curvature="0"
           d="m 0.72382814,8.3664062 v 0.5281251 h -0.14375 V 8.3710937 q 0,-0.1242187 -0.0484375,-0.1859375 -0.0484375,-0.061719 -0.14531251,-0.061719 -0.11640625,0 -0.18359375,0.074219 Q 0.13554688,8.271875 0.13554688,8.4 V 8.8945313 H -0.00898437 V 7.6789062 H 0.13554688 V 8.1554687 Q 0.18710938,8.0765625 0.25664063,8.0375 0.32695313,7.998437 0.41835938,7.998437 q 0.15078126,0 0.22812501,0.09375 0.0773437,0.092969 0.0773437,0.2742192 z"
           style="font-size:1.60000002px;line-height:0"
           id="path10381" />
        <path
           inkscape:connector-curvature="0"
           d="m 1.0121094,8.0195312 h 0.14375 v 0.8750001 h -0.14375 z m 0,-0.340625 h 0.14375 v 0.1820313 h -0.14375 z"
           style="font-size:1.60000002px;line-height:0"
           id="path10383" />
        <path
           inkscape:connector-curvature="0"
           d="M 2.0316407,8.1523437 V 7.6789062 h 0.14375 v 1.2156251 h -0.14375 V 8.7632812 q -0.045313,0.078125 -0.1148438,0.1164063 -0.06875,0.0375 -0.165625,0.0375 -0.1585937,0 -0.2585937,-0.1265625 -0.099219,-0.1265625 -0.099219,-0.3328125 0,-0.20625 0.099219,-0.3328125 0.1,-0.1265625 0.2585937,-0.1265625 0.096875,0 0.165625,0.038281 0.069531,0.0375 0.1148438,0.1156252 z M 1.5417969,8.4578125 q 0,0.1585937 0.064844,0.2492187 0.065625,0.089844 0.1796875,0.089844 0.1140625,0 0.1796875,-0.089844 0.065625,-0.090625 0.065625,-0.2492187 0,-0.1585938 -0.065625,-0.2484375 Q 1.9003907,8.11875 1.7863282,8.11875 q -0.1140625,0 -0.1796875,0.090625 -0.064844,0.089844 -0.064844,0.2484375 z"
           style="font-size:1.60000002px;line-height:0"
           id="path10385" />
        <path
           inkscape:connector-curvature="0"
           d="m 3.2199218,8.4210937 v 0.070312 H 2.5589843 q 0.00937,0.1484375 0.089062,0.2265625 0.080469,0.077344 0.2234375,0.077344 0.082812,0 0.1601562,-0.020312 0.078125,-0.020313 0.1546875,-0.060937 V 8.85 Q 3.1089835,8.882813 3.0277338,8.9 2.9464838,8.917188 2.86289,8.917188 q -0.209375,0 -0.3320312,-0.121875 -0.121875,-0.121875 -0.121875,-0.3296875 0,-0.2148438 0.115625,-0.340625 Q 2.641015,7.998438 2.83789,7.998438 q 0.1765625,0 0.2789063,0.1140625 0.103125,0.1132812 0.1031255,0.3085932 z m -0.14375,-0.042188 Q 3.0746093,8.2609375 3.0097655,8.190625 2.945703,8.1203125 2.839453,8.1203125 q -0.1203125,0 -0.1929687,0.067969 -0.071875,0.067969 -0.082813,0.1914063 z"
           style="font-size:1.60000002px;line-height:0"
           id="path10387" />
      </g>
      <g
         aria-label="both"
         transform="matrix(1.9543009,0,0,1.9543009,259.60754,-10.69054)"
         style="font-style:normal;font-weight:normal;font-size:8px;line-height:1.25;font-family:sans-serif;letter-spacing:0px;word-spacing:0px;fill:#000000;fill-opacity:1;stroke:none"
         id="flowRoot4530-4-6-3-7-75">
        <path
           inkscape:connector-curvature="0"
           d="m 0.62460939,8.4578125 q 0,-0.1585938 -0.065625,-0.2484375 Q 0.49414063,8.11875 0.38007813,8.11875 q -0.1140625,0 -0.1796875,0.090625 -0.0648437,0.089844 -0.0648437,0.2484375 0,0.1585937 0.0648437,0.2492187 0.065625,0.089844 0.1796875,0.089844 0.1140625,0 0.17890626,-0.089844 0.065625,-0.090625 0.065625,-0.2492187 z M 0.13554688,8.1523437 q 0.0453125,-0.078125 0.1140625,-0.115625 0.0695312,-0.038281 0.165625,-0.038281 0.15937501,0 0.25859376,0.1265625 0.1,0.1265625 0.1,0.3328125 0,0.20625 -0.1,0.3328125 -0.0992188,0.1265625 -0.25859376,0.1265625 -0.0960938,0 -0.165625,-0.0375 -0.06875,-0.038281 -0.1140625,-0.1164063 V 8.8945313 H -0.00898437 V 7.6789062 h 0.14453125 z"
           style="font-size:1.60000002px;line-height:0"
           id="path10372" />
        <path
           inkscape:connector-curvature="0"
           d="m 1.3511719,8.1203125 q -0.115625,0 -0.1828125,0.090625 -0.067187,0.089844 -0.067187,0.246875 0,0.1570312 0.066406,0.2476562 0.067187,0.089844 0.1835938,0.089844 0.1148437,0 0.1820312,-0.090625 0.067188,-0.090625 0.067188,-0.246875 0,-0.1554688 -0.067188,-0.2460938 -0.067187,-0.091406 -0.1820315,-0.091406 z m 0,-0.121875 q 0.1875,0 0.2945312,0.121875 0.1070313,0.121875 0.1070313,0.3375 0,0.2148437 -0.1070313,0.3375 -0.1070312,0.121875 -0.2945312,0.121875 -0.1882813,0 -0.2953125,-0.121875 -0.10625002,-0.1226563 -0.10625002,-0.3375 0,-0.215625 0.10625002,-0.3375 0.1070312,-0.121875 0.2953125,-0.121875 z"
           style="font-size:1.60000002px;line-height:0"
           id="path10374" />
        <path
           inkscape:connector-curvature="0"
           d="M 2.132422,7.7710937 V 8.0195312 H 2.4285157 V 8.13125 H 2.132422 v 0.475 q 0,0.1070312 0.028906,0.1375 0.029688,0.030469 0.1195313,0.030469 H 2.4285157 V 8.8945313 H 2.2808595 q -0.1664063,0 -0.2296875,-0.061719 -0.063281,-0.0625 -0.063281,-0.2265625 v -0.475 H 1.882422 V 8.0195312 H 1.9878907 V 7.7710937 Z"
           style="font-size:1.60000002px;line-height:0"
           id="path10376" />
        <path
           inkscape:connector-curvature="0"
           d="m 3.3457032,8.3664062 v 0.5281251 h -0.14375 V 8.3710937 q 0,-0.1242187 -0.048438,-0.1859375 -0.048437,-0.061719 -0.1453125,-0.061719 -0.1164063,0 -0.1835938,0.074219 Q 2.7574219,8.271875 2.7574219,8.4 V 8.8945313 H 2.6128907 V 7.6789062 H 2.7574219 V 8.1554687 Q 2.8089844,8.0765625 2.8785157,8.0375 2.9488277,7.998437 3.0402344,7.998437 q 0.1507813,0 0.228125,0.09375 0.077344,0.092969 0.077344,0.2742192 z"
           style="font-size:1.60000002px;line-height:0"
           id="path10378" />
      </g>
      <g
         aria-label="mine"
         transform="matrix(1.9543009,0,0,1.9543009,292.1793,-10.743616)"
         style="font-style:normal;font-weight:normal;font-size:8px;line-height:1.25;font-family:sans-serif;letter-spacing:0px;word-spacing:0px;fill:#000000;fill-opacity:1;stroke:none"
         id="flowRoot4530-4-6-3-7-7-0">
        <path
           inkscape:connector-curvature="0"
           d="m 0.67773439,8.1875 q 0.0539062,-0.096875 0.12890625,-0.1429688 0.075,-0.046094 0.1765625,-0.046094 0.13671876,0 0.21093746,0.096094 0.074219,0.095313 0.074219,0.271875 V 8.8945313 H 1.1238281 V 8.3710937 q 0,-0.1257812 -0.044531,-0.1867187 -0.044531,-0.060937 -0.13593751,-0.060937 -0.11171875,0 -0.1765625,0.074219 Q 0.70195314,8.271875 0.70195314,8.4 V 8.8945313 H 0.55742189 V 8.3710937 q 0,-0.1265625 -0.0445313,-0.1867187 -0.0445313,-0.060937 -0.1375,-0.060937 -0.11015625,0 -0.175,0.075 Q 0.13554688,8.2726562 0.13554688,8.4 V 8.8945313 H -0.00898437 V 8.0195312 h 0.14453125 v 0.1359375 q 0.0492187,-0.080469 0.11796875,-0.11875 0.06875,-0.038281 0.16328125,-0.038281 0.0953125,0 0.16171876,0.048438 0.0671875,0.048438 0.0992188,0.1406243 z"
           style="font-size:1.60000002px;line-height:0"
           id="path10363" />
        <path
           inkscape:connector-curvature="0"
           d="m 1.5558594,8.0195312 h 0.14375 v 0.8750001 h -0.14375 z m 0,-0.340625 h 0.14375 v 0.1820313 h -0.14375 z"
           style="font-size:1.60000002px;line-height:0"
           id="path10365" />
        <path
           inkscape:connector-curvature="0"
           d="m 2.7269531,8.3664062 v 0.5281251 h -0.14375 V 8.3710937 q 0,-0.1242187 -0.048437,-0.1859375 -0.048437,-0.061719 -0.1453125,-0.061719 -0.1164063,0 -0.1835938,0.074219 Q 2.1386718,8.271875 2.1386718,8.4 V 8.8945313 H 1.9941406 V 8.0195312 H 2.1386718 V 8.1554687 Q 2.1902343,8.0765625 2.2597656,8.0375 2.3300776,7.998437 2.4214843,7.998437 q 0.1507813,0 0.228125,0.09375 0.077344,0.092969 0.077344,0.2742192 z"
           style="font-size:1.60000002px;line-height:0"
           id="path10367" />
        <path
           inkscape:connector-curvature="0"
           d="m 3.7636718,8.4210937 v 0.070312 H 3.1027343 q 0.00938,0.1484375 0.089063,0.2265625 0.080469,0.077344 0.2234375,0.077344 0.082813,0 0.1601563,-0.020312 0.078125,-0.020313 0.1546875,-0.060937 V 8.85 q -0.077344,0.032813 -0.1585938,0.05 -0.08125,0.017188 -0.1648437,0.017188 -0.209375,0 -0.3320313,-0.121875 -0.121875,-0.121875 -0.121875,-0.3296875 0,-0.2148438 0.115625,-0.340625 0.1164063,-0.1265625 0.3132813,-0.1265625 0.1765625,0 0.2789062,0.1140625 0.103125,0.1132812 0.1031245,0.3085932 z m -0.14375,-0.042188 Q 3.6183593,8.2609375 3.5535156,8.190625 3.4894531,8.1203125 3.3832031,8.1203125 q -0.1203125,0 -0.1929688,0.067969 -0.071875,0.067969 -0.082813,0.1914063 z"
           style="font-size:1.60000002px;line-height:0"
           id="path10369" />
      </g>
      <path
         inkscape:connector-curvature="0"
         transform="scale(1,-1)"
         style="opacity:1;fill:#d8d8d8;fill-opacity:1;fill-rule:nonzero;stroke:none;stroke-width:0.37249532;stroke-linecap:round;stroke-linejoin:miter;stroke-miterlimit:4;stroke-dasharray:none;stroke-dashoffset:0;stroke-opacity:1"
         d="m 216.45918,-30.508022 h 49.16236 v 1.898497 h -49.16236 z"
         id="rect4209-3-0-4-5-5-6-5-15-1" />
      <path
         inkscape:connector-curvature="0"
         transform="scale(1,-1)"
         style="opacity:1;fill:#d8d8d8;fill-opacity:1;fill-rule:nonzero;stroke:none;stroke-width:0.18472576;stroke-linecap:round;stroke-linejoin:miter;stroke-miterlimit:4;stroke-dasharray:none;stroke-dashoffset:0;stroke-opacity:1"
         d="m 267.95547,-30.508022 h 12.09055 v 1.898497 h -12.09055 z"
         id="rect4209-3-0-4-5-5-6-5-1-9-17-3" />
      <path
         inkscape:connector-curvature="0"
         transform="scale(1,-1)"
         style="opacity:1;fill:#d8d8d8;fill-opacity:1;fill-rule:nonzero;stroke:none;stroke-width:0.18472576;stroke-linecap:round;stroke-linejoin:miter;stroke-miterlimit:4;stroke-dasharray:none;stroke-dashoffset:0;stroke-opacity:1"
         d="m 292.34479,-30.508022 h 12.09054 v 1.898497 h -12.09054 z"
         id="rect4209-3-0-4-5-5-6-5-1-9-2-58" />
      <path
         inkscape:connector-curvature="0"
         transform="scale(1,-1)"
         style="opacity:1;fill:#d8d8d8;fill-opacity:1;fill-rule:nonzero;stroke:none;stroke-width:0.14468262;stroke-linecap:round;stroke-linejoin:miter;stroke-miterlimit:4;stroke-dasharray:none;stroke-dashoffset:0;stroke-opacity:1"
         d="m 282.17987,-30.508022 h 7.41692 v 1.898497 h -7.41692 z"
         id="rect4209-3-0-4-5-5-6-5-1-9-2-5-67-5" />
      <path
         inkscape:connector-curvature="0"
         transform="scale(1,-1)"
         style="opacity:1;fill:#d8d8d8;fill-opacity:1;fill-rule:nonzero;stroke:none;stroke-width:0.14468262;stroke-linecap:round;stroke-linejoin:miter;stroke-miterlimit:4;stroke-dasharray:none;stroke-dashoffset:0;stroke-opacity:1"
         d="m 246.82181,-26.951698 h 7.41692 v 1.898497 h -7.41692 z"
         id="rect4209-3-0-4-5-5-6-5-1-9-2-5-63-4" />
      <path
         inkscape:connector-curvature="0"
         transform="scale(1,-1)"
         style="opacity:1;fill:#d8d8d8;fill-opacity:1;fill-rule:nonzero;stroke:none;stroke-width:0.14468262;stroke-linecap:round;stroke-linejoin:miter;stroke-miterlimit:4;stroke-dasharray:none;stroke-dashoffset:0;stroke-opacity:1"
         d="m 236.76306,-26.951698 h 7.41692 v 1.898497 h -7.41692 z"
         id="rect4209-3-0-4-5-5-6-5-1-9-2-5-4-8" />
      <path
         inkscape:connector-curvature="0"
         transform="scale(1,-1)"
         style="opacity:1;fill:#d8d8d8;fill-opacity:1;fill-rule:nonzero;stroke:none;stroke-width:0.30380538;stroke-linecap:round;stroke-linejoin:miter;stroke-miterlimit:4;stroke-dasharray:none;stroke-dashoffset:0;stroke-opacity:1"
         d="m 256.2778,-26.951698 h 32.70258 v 1.898497 H 256.2778 Z"
         id="rect4209-3-0-4-5-5-6-5-4-0-57" />
      <path
         inkscape:connector-curvature="0"
         transform="scale(1,-1)"
         style="opacity:1;fill:#d8d8d8;fill-opacity:1;fill-rule:nonzero;stroke:none;stroke-width:0.23699366;stroke-linecap:round;stroke-linejoin:miter;stroke-miterlimit:4;stroke-dasharray:none;stroke-dashoffset:0;stroke-opacity:1"
         d="m 290.56903,-26.951698 h 19.90052 v 1.898497 h -19.90052 z"
         id="rect4209-3-0-4-5-5-6-5-4-6-7" />
      <path
         inkscape:connector-curvature="0"
         transform="scale(1,-1)"
         style="opacity:1;fill:#d8d8d8;fill-opacity:1;fill-rule:nonzero;stroke:none;stroke-width:0.22934899;stroke-linecap:round;stroke-linejoin:miter;stroke-miterlimit:4;stroke-dasharray:none;stroke-dashoffset:0;stroke-opacity:1"
         d="m 216.54385,-26.951698 h 18.63738 v 1.898497 h -18.63738 z"
         id="rect4209-3-0-4-5-5-6-5-4-19-2" />
      <path
         inkscape:connector-curvature="0"
         transform="matrix(0.02568443,-0.00251617,0.00383105,0.01686905,312.99106,26.784921)"
         style="opacity:1;fill:#c0c0c0;fill-opacity:1;stroke:none;stroke-width:0.37795275;stroke-linecap:round;stroke-linejoin:round;stroke-miterlimit:4;stroke-dasharray:none;stroke-opacity:1"
         inkscape:transform-center-x="0.0010250611"
         inkscape:transform-center-y="-0.14111419"
         d="m 82.039107,-18.156425 -56.90709,-8.625123 35.92312,-44.970424 z"
         id="path7050-5-2-6" />
    </g>
  </g>
</svg>
