<svg xmlns="http://www.w3.org/2000/svg" width="711.927" height="292.544" viewBox="0 0 188.36409 77.402176">
    <path d="M92.888 35.445H0v41.957h92.888z" fill="#fdfcfd"/>
    <path d="M153.831 14.746h-25.95v3.93h25.95z" fill="#feeb5e"/>
    <g style="line-height:1.25" font-weight="400" font-size="1.6" font-family="sans-serif" letter-spacing="0" word-spacing="0">
        <path style="line-height:0" d="M169.041 18.928v.243q-.107-.055-.225-.084-.117-.025-.242-.025-.192 0-.288.06-.095.056-.095.174 0 .09.068.141.068.05.275.097l.09.018q.271.06.385.168.116.107.116.296 0 .218-.173.345-.171.127-.473.127-.125 0-.26-.025-.137-.024-.287-.072v-.266q.143.073.279.113.14.035.275.035.18 0 .279-.062.098-.063.098-.175 0-.106-.072-.161t-.309-.107l-.089-.022q-.24-.05-.345-.153-.107-.104-.107-.286 0-.22.157-.34.158-.12.445-.12.143 0 .268.02.125.022.232.063zm1.794.574v.945h-.258v-.938q0-.222-.085-.332t-.26-.111q-.208 0-.328.134-.12.134-.12.362v.885h-.259v-2.172h.26v.85q.09-.14.216-.21.125-.07.289-.07.268 0 .407.167.138.166.138.49zm1.121-.44q-.207 0-.327.161-.12.16-.12.443 0 .28.119.441.12.161.328.161.204 0 .325-.16.12-.162.12-.442 0-.279-.12-.44-.121-.164-.325-.164zm0-.217q.334 0 .525.217.191.218.191.604 0 .384-.19.602-.192.218-.526.218-.337 0-.528-.218-.19-.218-.19-.602 0-.386.19-.604.19-.217.528-.217zm.991.039h.258l.321 1.218.318-1.218h.304l.321 1.218.318-1.218h.257l-.409 1.563h-.303l-.334-1.283-.34 1.283h-.303zm4.523.059v.24q-.108-.06-.22-.09-.107-.03-.22-.03-.25 0-.387.16-.14.157-.14.443t.14.445q.137.157.387.157.111 0 .22-.029.11-.03.22-.089v.236q-.108.05-.224.075-.114.025-.244.025-.352 0-.561-.222-.207-.221-.207-.598 0-.382.209-.602.21-.22.577-.22.117 0 .232.026.112.025.218.073zm1.748.559v.945h-.257v-.938q0-.222-.086-.332-.087-.111-.26-.111-.208 0-.327.134-.12.132-.12.36v.885h-.259v-2.17h.259v.85q.091-.14.214-.21.127-.07.29-.07.27 0 .409.167.137.166.137.49zm1.225.158q-.31 0-.432.072-.12.072-.12.241 0 .138.09.218.09.08.246.08.215 0 .341-.151.13-.152.13-.402v-.057zm.513-.106v.893h-.259v-.238q-.09.143-.22.21t-.321.067q-.24 0-.382-.134-.14-.136-.14-.36 0-.265.175-.4.179-.133.527-.133h.361v-.025q0-.179-.118-.273-.116-.099-.327-.099-.134 0-.26.033-.126.032-.243.096v-.236q.14-.053.273-.08.132-.029.257-.029.34 0 .507.177.168.175.168.532zm1.829-.052v.945h-.257v-.938q0-.222-.086-.332-.088-.111-.26-.111-.208 0-.328.134-.12.132-.12.36v.885h-.258v-1.561h.259v.24q.09-.138.214-.208.127-.071.29-.071.269 0 .406.167.14.166.14.49zm1.543.144q0-.278-.116-.432-.114-.153-.322-.153-.207 0-.321.153-.116.154-.116.432 0 .277.114.43.116.154.322.154.209 0 .323-.153.116-.154.116-.43zm.257.606q0 .398-.179.593-.176.196-.54.196-.136 0-.256-.021-.122-.02-.232-.063v-.25q.11.063.221.091.11.03.225.03.252 0 .379-.133.125-.13.125-.397v-.128q-.08.137-.204.205-.125.07-.298.07-.286 0-.463-.22-.175-.22-.175-.58 0-.363.175-.583t.465-.22q.171 0 .296.07.125.068.204.206v-.234h.257zm1.865-.652v.125h-1.18q.017.266.158.405.143.138.4.138.148 0 .286-.036.14-.035.277-.107v.241q-.14.06-.284.09t-.295.03q-.375 0-.593-.218-.218-.218-.218-.59 0-.382.207-.607.208-.226.56-.226.316 0 .498.203.184.204.184.554zm-.257-.075q-.002-.21-.118-.336-.115-.125-.304-.125-.214 0-.345.12-.128.121-.148.343zm1.675-.597v.243q-.11-.055-.227-.084-.116-.026-.243-.026-.191 0-.286.059-.096.057-.096.175 0 .089.07.14.067.05.275.097l.087.018q.273.06.388.168.116.107.116.296 0 .218-.174.345-.171.127-.473.127-.125 0-.262-.025-.136-.023-.286-.072v-.266q.143.074.28.113.138.036.274.036.182 0 .278-.063.098-.062.098-.175 0-.105-.071-.16-.07-.056-.307-.108l-.09-.021q-.239-.05-.344-.154-.107-.104-.107-.286 0-.22.157-.339.155-.121.443-.121.143 0 .268.02.125.022.232.063z"/>
    </g>
    <g style="line-height:1.25" font-weight="400" font-size="1.6" font-family="sans-serif" letter-spacing="0" word-spacing="0">
        <path style="line-height:0" d="M165.869 28.962v-.946h.255v.936q0 .221.088.332.085.11.259.11.209 0 .328-.132.122-.132.122-.36v-.886h.255v1.563h-.255v-.242q-.095.143-.218.213-.123.068-.286.068-.27 0-.41-.168-.138-.166-.138-.49zm.645-.985zm2.495.657v.945h-.258v-.938q0-.222-.087-.332-.086-.111-.259-.111-.207 0-.329.134-.12.132-.12.36v.885h-.256v-1.561h.257v.24q.093-.138.216-.208.125-.071.29-.071.267 0 .406.167.138.166.138.49zm1.637-.559v.24q-.107-.06-.217-.09t-.222-.03q-.25 0-.387.16-.138.157-.138.443t.138.445q.137.157.387.157.113 0 .222-.029.108-.03.217-.089v.236q-.107.05-.223.075-.114.025-.243.025-.353 0-.56-.222-.21-.221-.21-.598 0-.382.21-.602.21-.22.576-.22.118 0 .233.026.112.025.217.073zm1.749.559v.945h-.255v-.938q0-.222-.088-.332-.086-.111-.259-.111-.209 0-.329.134-.12.132-.12.36v.885h-.256v-2.17h.257v.85q.093-.14.216-.21.125-.07.29-.07.267 0 .406.167.138.166.138.49zm1.225.159q-.31 0-.43.071t-.12.241q0 .138.09.218t.244.08q.214 0 .343-.151.129-.152.129-.402v-.057zm.513-.107v.893h-.257v-.238q-.088.143-.218.21-.133.067-.322.067-.24 0-.382-.134-.143-.136-.143-.36 0-.265.179-.4.176-.133.527-.133h.359v-.025q0-.179-.117-.273-.116-.099-.326-.099-.134 0-.261.033t-.245.096v-.236q.141-.053.273-.08.133-.029.26-.029.339 0 .505.177.168.175.168.532zm1.829-.052v.945h-.256v-.938q0-.222-.086-.332t-.259-.111q-.208 0-.328.134-.12.132-.12.36v.885h-.26v-1.561h.258v.24q.092-.138.217-.208.125-.071.289-.071.268 0 .407.167.138.166.138.49zm1.543.144q0-.278-.116-.432-.115-.153-.322-.153-.207 0-.321.153-.116.154-.116.432 0 .277.114.43.116.154.323.154.207 0 .322-.153.116-.154.116-.43zm.257.606q0 .398-.179.593-.175.196-.54.196-.137 0-.256-.021-.12-.02-.232-.063v-.25q.112.063.221.091.11.03.225.03.254 0 .379-.133.125-.13.125-.397v-.128q-.079.137-.204.205-.125.07-.296.07-.288 0-.465-.22-.175-.22-.175-.58 0-.363.175-.583.177-.22.465-.22.173 0 .296.07.125.068.204.206v-.234h.257zm1.866-.652v.125h-1.18q.016.266.159.405.143.138.398.138.148 0 .286-.036.139-.035.277-.107v.241q-.138.06-.284.09-.143.03-.293.03-.375 0-.595-.218-.216-.218-.216-.59 0-.382.205-.607.21-.226.561-.226.314 0 .497.205.185.202.185.55zm-.257-.075q-.003-.21-.12-.336-.114-.125-.303-.125-.215 0-.345.12-.128.121-.148.343zm1.706-.405v-.843h.257v2.171h-.257v-.235q-.08.139-.206.209-.121.066-.294.066-.284 0-.463-.225-.177-.227-.177-.595t.179-.595q.178-.227.46-.227.174 0 .295.07.125.066.206.205zm-.875.546q0 .282.116.445.118.16.321.16.204 0 .322-.16.116-.161.116-.447 0-.282-.116-.443-.118-.16-.322-.16-.203 0-.321.16-.116.161-.116.445zm2.825-1.227v.445h.529v.198h-.529v.848q0 .192.052.247.053.053.214.053h.263v.215h-.265q-.296 0-.41-.11-.113-.112-.113-.405v-.848h-.186v-.198h.188v-.447zm2.204 1.161v.125h-1.179q.016.266.157.405.143.138.4.138.147 0 .286-.036t.275-.107v.241q-.137.06-.282.09t-.295.03q-.375 0-.593-.218-.217-.218-.217-.59 0-.382.207-.607.207-.226.559-.226.316 0 .498.205.184.202.184.55zm-.257-.075q-.002-.21-.118-.336-.114-.125-.304-.125-.214 0-.344.12-.129.121-.149.343zm1.926-.641l-.563.759.594.804h-.303l-.456-.615-.453.615h-.304l.607-.818-.553-.745h.301l.415.555.414-.555zm.647-.445v.445h.53v.198h-.53v.848q0 .192.052.247.054.053.215.053h.262v.215h-.264q-.297 0-.411-.11-.113-.112-.113-.405v-.848h-.187v-.198h.187v-.447z"/>
    </g>
    <path d="M123.959 14.746h-25.95v3.93h25.95z" fill="#feeb5e"/>
    <path d="M153.831 18.675h-25.95v3.93h25.95z" fill="#aad9e3"/>
    <path d="M149.335 18.675a2.217 2.217 0 0 0 2.217 2.217 2.217 2.217 0 0 0 2.216-2.217 2.217 2.217 0 0 0-2.216-2.216 2.217 2.217 0 0 0-2.217 2.216z" fill="#3261ff"/>
    <path d="M150.215 18.674a1.344 1.344 0 0 0 1.343 1.343 1.344 1.344 0 0 0 1.344-1.343 1.344 1.344 0 0 0-1.344-1.344 1.344 1.344 0 0 0-1.343 1.344z" fill="#fff"/>
    <path d="M149.287 27.794a2.217 2.217 0 0 0 2.216 2.217 2.217 2.217 0 0 0 2.217-2.217 2.217 2.217 0 0 0-2.217-2.216 2.217 2.217 0 0 0-2.216 2.216z" fill="#3261ff"/>
    <path d="M150.166 27.793a1.344 1.344 0 0 0 1.344 1.343 1.344 1.344 0 0 0 1.344-1.343 1.344 1.344 0 0 0-1.344-1.344 1.344 1.344 0 0 0-1.344 1.344z" fill="#fff"/>
    <path d="M123.959 18.675h-25.95v3.93h25.95z" fill="#feeb5e"/>
    <path d="M119.325 18.68a2.061 2.061 0 0 0 2.06 2.06 2.061 2.061 0 0 0 2.062-2.06 2.061 2.061 0 0 0-2.061-2.061 2.061 2.061 0 0 0-2.061 2.06zm-.005 9.066a2.061 2.061 0 0 0 2.061 2.06 2.061 2.061 0 0 0 2.061-2.06 2.061 2.061 0 0 0-2.06-2.061 2.061 2.061 0 0 0-2.062 2.06z" fill="#fff" stroke="#373635" stroke-width=".311" stroke-linecap="round" stroke-linejoin="round"/>
    <g style="line-height:1.25" font-weight="400" font-size="1.6" font-family="sans-serif" letter-spacing="0" word-spacing="0">
        <path style="line-height:0" d="M141.346 27.404v.243q-.107-.055-.225-.084-.117-.025-.242-.025-.192 0-.288.06-.095.056-.095.174 0 .09.068.141.068.05.275.097l.09.018q.271.06.385.168.116.107.116.296 0 .218-.173.345-.171.127-.473.127-.125 0-.26-.025-.137-.024-.287-.072v-.266q.143.073.279.113.14.035.275.035.18 0 .279-.062.098-.063.098-.175 0-.106-.072-.161t-.309-.107l-.089-.022q-.24-.05-.345-.153-.107-.104-.107-.286 0-.22.157-.34.158-.12.445-.12.143 0 .268.02.125.022.232.063zm1.794.574v.945h-.258v-.938q0-.222-.085-.332t-.26-.111q-.208 0-.328.134-.12.134-.12.362v.885h-.259V26.75h.26v.85q.09-.14.216-.21.125-.07.289-.07.268 0 .407.167.138.166.138.49zm1.121-.44q-.207 0-.327.161-.12.16-.12.443 0 .28.119.441.12.161.328.161.204 0 .325-.16.12-.162.12-.442 0-.279-.12-.44-.121-.164-.325-.164zm0-.217q.334 0 .525.217.191.218.191.604 0 .384-.19.602-.192.218-.526.218-.337 0-.528-.218-.19-.218-.19-.602 0-.386.19-.604.19-.217.528-.217zm.991.039h.258l.321 1.218.318-1.218h.304l.321 1.218.318-1.218h.257l-.409 1.563h-.303l-.334-1.283-.34 1.283h-.303z"/>
    </g>
    <g style="line-height:1.25" font-weight="400" font-size="1.6" font-family="sans-serif" letter-spacing="0" word-spacing="0">
        <path style="line-height:0" d="M113.196 27.916v.945h-.257v-.938q0-.222-.086-.332-.087-.111-.26-.111-.208 0-.327.134-.12.132-.12.36v.885h-.26v-2.17h.258v.85q.091-.14.214-.21.127-.07.29-.07.27 0 .407.167.14.166.14.49zm.514-.618h.258v1.563h-.258zm0-.61h.258v.326h-.258zm1.822.846v-.843h.256v2.171h-.256v-.235q-.082.139-.205.209-.123.066-.297.066-.282 0-.46-.225-.18-.227-.18-.595t.18-.595q.178-.227.46-.227.174 0 .297.07.125.066.205.205zm-.875.546q0 .282.116.445.116.16.322.16.201 0 .32-.16.117-.161.117-.447 0-.282-.118-.443t-.321-.16q-.204 0-.322.16-.114.161-.114.445zm2.997-.066v.125h-1.18q.017.266.158.405.143.138.399.138.148 0 .285-.036.141-.035.277-.107v.241q-.137.06-.282.09-.146.03-.295.03-.375 0-.593-.218-.218-.218-.218-.59 0-.382.208-.607.207-.226.559-.226.314 0 .498.205.184.202.184.55zm-.257-.075q-.002-.21-.118-.336-.114-.125-.304-.125-.214 0-.346.12-.127.121-.147.343z"/>
    </g>
    <g style="line-height:1.25" font-weight="400" font-size="1.6" font-family="sans-serif" letter-spacing="0" word-spacing="0">
        <path style="line-height:0" d="M142.542 18.961q0-.284-.118-.445-.116-.16-.32-.16-.203 0-.32.16-.115.161-.115.445 0 .282.114.445.118.16.322.16.203 0 .32-.16.117-.161.117-.447zm-.875-.546q.082-.14.206-.206.125-.07.294-.07.286 0 .463.227.178.227.178.595t-.178.595q-.179.225-.463.225-.171 0-.294-.066-.126-.07-.204-.21v.237h-.26V17.57h.258zm2.172-.058q-.205 0-.327.161-.12.16-.12.443 0 .28.12.441t.327.161q.205 0 .325-.16.12-.162.12-.442 0-.279-.12-.44-.12-.164-.325-.164zm0-.217q.336 0 .527.217.19.218.19.604 0 .384-.19.602-.191.218-.527.218t-.527-.218q-.19-.218-.19-.602 0-.386.19-.604.191-.217.527-.217zm1.395-.406v.445h.53v.198h-.53v.848q0 .192.053.247.052.053.213.053h.264v.215h-.266q-.298 0-.41-.11-.113-.112-.113-.405v-.848h-.19v-.198h.19v-.447zm2.168 1.063v.945h-.257v-.938q0-.222-.086-.332-.087-.111-.26-.111-.208 0-.328.134-.121.132-.121.36v.885h-.257v-2.17h.257v.85q.093-.14.218-.21.125-.07.287-.07.27 0 .408.167.139.166.139.49z"/>
    </g>
    <g style="line-height:1.25" font-weight="400" font-size="1.6" font-family="sans-serif" letter-spacing="0" word-spacing="0">
        <path style="line-height:0" d="M112.124 18.43q.096-.173.23-.256.134-.083.315-.083.244 0 .376.173.133.17.133.484v.945h-.258v-.938q0-.225-.08-.334-.078-.107-.243-.107-.198 0-.314.132-.116.132-.116.36v.885h-.26v-.936q0-.225-.078-.334-.08-.107-.246-.107-.197 0-.313.132-.114.134-.114.36v.885h-.26V18.13h.258v.24q.088-.142.21-.21.122-.07.292-.07t.29.088q.119.086.176.25zm1.568-.3h.257v1.563h-.257zm0-.61h.257v.326h-.257zm2.091 1.228v.945h-.257v-.938q0-.222-.085-.332-.088-.111-.261-.111-.207 0-.327.134-.12.132-.12.36v.885h-.259V18.13h.26v.24q.09-.138.214-.208.126-.071.289-.071.27 0 .409.167.137.166.137.49zm1.853.098v.125h-1.181q.018.266.159.405.143.138.398.138.148 0 .286-.036.141-.035.277-.107v.241q-.138.06-.284.09-.143.03-.293.03-.375 0-.593-.218-.218-.218-.218-.59 0-.382.205-.607.21-.226.561-.226.315 0 .499.205.184.202.184.55zm-.258-.073q-.003-.211-.118-.336-.116-.125-.303-.125-.216 0-.347.12-.128.121-.148.343z"/>
    </g>
    <path d="M188.364 35.361H95.477v41.957h92.887z" fill="#f1f1f1"/>
    <path d="M187.394 35.458H99.697v3.88h87.697z" fill="#fe8b00"/>
    <path d="M187.128 59.604V35.458" fill="none" stroke="#fe8b00" stroke-width=".675"/>
    <g style="line-height:1.25" font-weight="700" font-size="1.2" font-family="sans-serif" letter-spacing="0" word-spacing="0" fill="#fff">
        <path style="line-height:0;-inkscape-font-specification:'sans-serif Bold'" d="M168.675 36.806h.375v1.174h-.375zm0-.455h.375v.303h-.375zm1.915.914v.715h-.376v-.547q0-.152-.007-.21-.007-.056-.025-.085-.021-.035-.06-.057-.036-.02-.087-.02-.116 0-.183.09-.067.09-.067.25v.579h-.375v-1.174h.375v.172q.084-.102.18-.15.095-.05.21-.05.203 0 .309.125.105.125.105.362zm.942-.459h.375l.315.797.267-.797h.376l-.495 1.284q-.073.197-.173.274-.099.078-.261.078h-.216v-.246h.118q.094 0 .137-.03.045-.031.068-.11l.01-.032zm2.109.239q-.125 0-.19.09t-.065.259q0 .168.064.259.066.089.191.089.122 0 .188-.09.064-.089.064-.258 0-.168-.064-.257-.066-.09-.188-.09zm0-.267q.304 0 .472.164.171.162.171.452t-.171.452q-.17.164-.472.164-.303 0-.475-.164-.171-.163-.171-.452t.171-.452q.172-.164.475-.164zm.902.746v-.718h.377v.548q0 .143.006.206.007.06.025.09.023.035.06.056.036.018.086.018.116 0 .184-.09.066-.088.066-.25v-.578h.375v1.174h-.375v-.17q-.084.102-.179.152-.094.048-.208.048-.204 0-.31-.125-.107-.125-.107-.363zm2.411-.398q-.048-.023-.098-.034-.048-.01-.096-.01-.145 0-.223.092-.077.093-.077.264v.542h-.375v-1.174h.375V37q.071-.114.164-.168.095-.053.225-.053l.041.003.064.006zm.786-.32h.375l.293.811.291-.81h.375l-.46 1.173h-.411zm2.717.584v.107h-.875q.012.13.094.197.083.066.229.066.118 0 .241-.036.125-.036.255-.105v.29q-.132.05-.266.074-.132.027-.266.027-.318 0-.494-.16-.175-.165-.175-.456 0-.286.171-.452.175-.164.479-.164.275 0 .44.167.167.167.167.445zm-.386-.125q0-.107-.062-.171-.061-.066-.161-.066-.11 0-.179.06-.068.061-.084.177zm1.539-.139q-.05-.023-.098-.034t-.098-.01q-.143 0-.223.092-.077.093-.077.264v.542h-.377v-1.174h.375V37q.072-.114.166-.168.093-.053.224-.053l.04.003q.024 0 .065.006zm1.104-.282v.285q-.121-.051-.232-.076-.112-.025-.212-.025-.107 0-.16.026-.05.027-.05.083 0 .044.038.07.041.022.143.035l.064.009q.288.036.388.12.1.083.1.262 0 .188-.14.282-.137.095-.41.095-.116 0-.241-.02-.125-.018-.256-.053v-.286q.113.054.23.082.119.027.24.027.109 0 .166-.03.054-.03.054-.09 0-.05-.038-.075-.037-.025-.152-.04l-.066-.006q-.25-.032-.35-.116-.101-.086-.101-.258 0-.187.128-.276.127-.09.393-.09.102 0 .216.015.114.016.248.05zm.361-.038h.375v1.174h-.375zm0-.455h.375v.303h-.375zm1.295.694q-.125 0-.191.09-.064.09-.064.259 0 .168.064.259.066.089.191.089.121 0 .188-.09.064-.089.064-.258 0-.168-.064-.257-.067-.09-.188-.09zm0-.267q.304 0 .472.164.171.162.171.452t-.171.452q-.17.164-.472.164-.304 0-.475-.164-.172-.163-.172-.452t.172-.452q.171-.164.475-.164zm2.093.487v.715h-.375v-.547q0-.152-.009-.21-.005-.058-.023-.085-.021-.035-.059-.057-.037-.02-.086-.02-.118 0-.184.09-.067.09-.067.25v.579h-.376v-1.174h.376v.172q.085-.102.18-.15.095-.05.21-.05.202 0 .308.125.107.125.107.362z"/>
    </g>
    <path d="M185.484 42.809h-44.555V41.1h44.555zm-21.363 3.108h-44.255v-1.71h44.255zm21.294 9.041h-47.99v-1.71h47.99zm-10.526 12.805h-44.255v-1.71h44.255zm10.671 6.305h-44.255v-1.709h44.255z" fill="#d8d8d8"/>
    <path d="M139.238 43.394h-11.97v-3.189h11.97z" fill="#ead97f"/>
    <path d="M185.484 51.853h-10.38v-1.71h10.379zm-50.533 9.41h-10.884v-1.71h10.884zm-22.088 0h-10.884v-1.71h10.884zm26.341 12.805H128.32v-1.709h10.884zm46.28-6.305h-9.009v-1.71h9.01zm-8.277-21.925h-10.884v-1.709h10.884z" fill="#d8d8d8"/>
    <path d="M127.268 43.394h-14.232v-3.189h14.232z" fill="#ead97f"/>
    <path d="M130.149 51.853h-10.884v-1.71h10.884zm-12.9 22.215h-10.884v-1.709h10.884zm68.235-28.23h-6.676v-1.709h6.675zm-33.292 3.008h-6.677v-1.71h6.677zm-19.482 0h-6.676v-1.71h6.676zm-17.835 0h-6.677v-1.71h6.677zm14.131 18.917h-6.677v-1.71h6.677zm-2.607 6.305h-6.676v-1.709h6.676zm-5.625-6.305h-6.676v-1.71h6.676zm37.454 3.104h-6.676v-1.709h6.676zm-36.219-9.604h-6.677v-1.71h6.677zm63.475-3.201h-6.676v-1.71h6.675zm-18.201 12.805h-6.677v-1.709h6.677zm9.735-12.805h-30.4v-1.71h30.4zm-41.295-3.104h-30.262v-1.71h30.261zm13.993 15.909h-29.438v-1.709h29.438zm-30.868 0h-17.915v-1.709h17.915zm9.877-12.805h-21.206v-1.71h21.206zm-10.289-12.224h-12.29v-1.709h12.29zm5.454 3.008h-5.979v-1.71h5.979zm19.515 0h-8.31v-1.71h8.31zm42.079 0h-30.947v-1.71h30.946zm-32.527 3.007H132.71v-1.71h20.247zm20.082 0h-17.64v-1.71h17.64zm-29.634 6.209h-11.466v-1.71h11.466zm42.079 3.201h-15.856v-1.71h15.855zm-17.527 0h-30.262v-1.71h30.262zm17.527 9.604h-16.777v-1.709h16.777zm-9.332-63.364h-46.65V5.118h46.65zm11.168 0h-9.497V5.118h9.497zm-59.534 0h-7.037V5.118h7.037z" fill="#d8d8d8"/>
    <path d="M118.757 7.954h-18.15V4.475h18.15z" fill="#a4c2cd"/>
    <path d="M158.589 11.838h-5.485V9.451h5.485zm9.545 0h-7.038V9.451h7.038zm-25.377 0h-24.171V9.451h24.171zm-25.679 0H98.195V9.451h18.883zm70.242 0h-17.685V9.451h17.685z" fill="#d8d8d8"/>
    <path d="M151.226 12.234h-7.038V8.966h7.038z" fill="#ead97f"/>
    <path d="M71.496 7.814H27.241V5.466h44.255zm21.364 8.154H82.479v-2.347h10.38zm-8.277-8.262H73.697V5.359h10.886zm8.277 0h-6.677V5.359h6.677zm-33.293 4.132h-6.676V9.49h6.676zm-19.481 0h-6.677V9.49h6.677zm-17.836 0h-6.676V9.49h6.676zm3.561-4.132H13.523V5.359h12.29zm5.454 4.132h-5.978V9.49h5.978zm19.516 0H42.47V9.49h8.31zm42.079 0H61.912V9.49H92.86zm-32.527 4.13H40.085v-2.347h20.246zm20.081 0h-17.64v-2.347h17.64zm-.852 26.841H46.873V41.1h32.69zM53.26 45.917H25.81v-1.71h27.45zm38.1 9.041H69.71v-1.71h21.65zM80.834 67.763H36.579v-1.71h44.254zm-23.49 6.305H45.149v-1.709h12.195zm34.085-22.215h-10.38v-1.71h10.38zm-51.493 9.41H26.993v-1.71h12.942zm-18.659 0H7.924v-1.71h13.353zm23.872 12.805H34.265v-1.709h10.884zm46.28-6.305H82.42v-1.71h9.01zm-6.676-21.925H72.268v-1.709h12.485zm-48.659 6.015H25.21v-1.71h10.884zm-12.9 22.215H12.31v-1.709h10.884zm68.235-28.23h-6.676v-1.709h6.676zm-29.72 3.008h-8.787v-1.71h8.787zm-19.482 0h-8.82v-1.71h8.82zm-17.835 0h-6.677v-1.71h6.677zm10.559 18.917h-6.677v-1.71h6.677zm-2.607 6.305h-6.676v-1.709h6.676zm-5.625-6.305h-6.676v-1.71h6.676zm37.454 3.104h-6.676v-1.709h6.676z" fill="#d8d8d8"/>
    <path d="M26.993 61.263h-6.676v-1.71h6.677zm64.436-3.201h-6.676v-1.71h6.676zM73.228 70.867h-9.055v-1.709h9.055zM83.1 58.062H63.882v-1.71H83.1zm-15.16-3.104H48.517v-1.71H67.94zM35.082 70.867h-8.86v-1.709h8.86zm-10.289 0H6.877v-1.709h17.916zm24.146-12.805H27.732v-1.71h21.207zM24.381 45.838h-12.29v-1.709h12.29zm9.026 3.008h-5.979v-1.71h5.979zm19.516 0h-8.311v-1.71h8.31zm38.506 0H73.173v-1.71H91.43zm-32.527 3.007H38.655v-1.71h20.248zm20.082 0h-17.64v-1.71h17.64zm-17.081 6.209H50.437v-1.71h11.466zm29.526 3.201H73.903v-1.71H91.43zm-17.527 0H62.847v-1.71h11.055zm17.527 9.604H74.653v-1.709H91.43zm-.004-28.133H81.043v-1.71h10.38zm-20.308 3.104H62.33v-1.709h8.787zm-8.787 0h-8.31v-1.709h8.31zm-1.506 15.425H49.358v-1.71h11.466zm-12.84 0h-6.676v-1.71h6.675zm-21.87-3.201H13.003v-1.71h13.11zm65.373 16.006H73.573v-1.709h17.914zm-20.733 0H59.87v-1.709h10.884zm-14.817-3.201H45.053v-1.709h10.884zm-12.256 0h-6.676v-1.709h6.676z" fill="#d8d8d8"/>
    <path d="M91.287 40.002H47.294v-4.454h43.993z" fill="#9babc7"/>
    <g style="line-height:1.25" font-weight="400" font-size="8" font-family="sans-serif" letter-spacing="0" word-spacing="0">
        <path style="line-height:0" d="M84.9 36.738l-.476 1.297h.957zm-.198-.344h.4l.992 2.604h-.367l-.237-.668h-1.173l-.238.668h-.372z" font-size="2"/>
        <path d="M87.097 37.192l-.38 1.036h.766zm-.157-.279h.318l.795 2.085h-.293l-.19-.536h-.939l-.19.536h-.297z" font-size="1.6"/>
        <path d="M88.889 37.492l-.318.864h.637zm-.132-.232h.27l.66 1.738h-.245l-.159-.447h-.782l-.157.447h-.248z" font-size="1.333"/>
        <path style="-inkscape-font-specification:'sans-serif Bold'" d="M78.85 37.4q.158 0 .24-.07.083-.068.083-.204 0-.136-.082-.206-.083-.071-.241-.071h-.372v.552zm.023 1.14q.202 0 .303-.085.102-.086.102-.26 0-.167-.1-.251-.102-.086-.305-.086h-.395v.682zm.625-.937q.214.062.334.232.118.17.118.416 0 .375-.254.56-.255.187-.775.187h-1.114v-2.604h1.007q.543 0 .786.162.244.164.244.525 0 .191-.089.325-.09.132-.259.197z" font-weight="700" font-size="2"/>
        <path style="-inkscape-font-specification:'sans-serif Italic'" d="M73.38 36.394h.358l-.509 2.604h-.354z" font-style="italic" font-size="2"/>
    </g>
    <path d="M1.709 35.441l.01 41.92-1.71.003L0 35.444z" fill="#f1f1f1"/>
    <path d="M1.75 41.439l.009 6.254H.049L.041 41.44z" fill="silver"/>
    <path d="M97.177 35.394l.01 41.92-1.71.003-.01-41.92z" fill="#f1f1f1"/>
    <path d="M97.217 41.392l.01 6.254h-1.71l-.01-6.253z" fill="silver"/>
    <g fill="silver" stroke="#000" fill-rule="evenodd">
        <path d="M47.852 52.601v2.958" stroke-width=".381"/>
        <path d="M47.355 52.564l.99.002m-.99 3.059l.99.002" stroke-width=".225"/>
    </g>
    <path d="M71.868 48.846h-8.423v-1.708h8.423z" fill="#d8d8d8"/>
    <path d="M95.615 36.592l1.507-.003-.757-1.024zm-95.522.004l1.507-.003-.757-1.023zm95.505 39.56l1.508.003-.757 1.024zm-95.504.035l1.508.003-.757 1.024z" fill="silver"/>
    <g style="line-height:1.25" font-weight="400" font-size="1.96" font-family="sans-serif" letter-spacing="0" word-spacing="0">
        <path style="line-height:0" d="M155.452.32v.364q-.175-.162-.373-.243-.197-.08-.418-.08-.438 0-.67.268t-.232.773q0 .504.232.772t.67.268q.221 0 .418-.083.198-.08.373-.24v.358q-.18.125-.384.186-.202.06-.429.06-.578 0-.91-.353-.335-.355-.335-.968 0-.616.333-.97.334-.357.912-.357.23 0 .432.063.202.06.38.182zm1.264.66q-.251 0-.4.199-.146.196-.146.541 0 .343.145.541.148.197.401.197.25 0 .399-.199.148-.198.148-.539 0-.34-.148-.54-.147-.2-.399-.2zm0-.267q.411 0 .645.268.234.268.234.739 0 .47-.234.738t-.643.268q-.412 0-.648-.268-.232-.268-.232-.738 0-.473.232-.74.236-.267.646-.267zm2.99.807v1.156h-.314V1.529q0-.272-.107-.405-.106-.136-.316-.136-.256 0-.402.16-.149.165-.149.445v1.083h-.316V.76h.316v.296q.115-.171.267-.257.153-.085.353-.085.33 0 .5.205.168.204.168.6zM161.01.014h.875v2.662h-.318v-2.4h-.562q-.168 0-.236.069-.064.068-.064.246v.17h.517v.245h-.517v1.67h-.317v-1.67h-.301V.76h.301V.627q0-.32.149-.464.148-.149.471-.149zm1.536.747h.314v1.915h-.314zm0-.747h.314v.399h-.314zm2.349.82v.293q-.134-.071-.268-.107-.134-.04-.272-.04-.305 0-.475.197-.17.191-.17.543 0 .35.17.545.17.193.475.193.138 0 .27-.036.136-.038.268-.11V2.6q-.13.062-.272.092-.14.03-.3.03-.432 0-.687-.27-.254-.272-.254-.733 0-.47.255-.738.26-.267.708-.267.143 0 .282.03.14.028.268.09zm.86-.618v.545h.649v.245h-.649v1.037q0 .234.063.302.066.066.262.066h.322v.265h-.322q-.364 0-.503-.136-.138-.138-.138-.498V1.006h-.232V.76h.232V.216zm1.063.545h.314v1.915h-.314zm0-.747h.314v.399h-.314zm2.563 1.506v1.156h-.316V1.529q0-.272-.107-.405-.106-.136-.318-.136-.254 0-.4.16-.149.165-.149.445v1.083h-.312V.76h.316v.296q.113-.171.266-.257.154-.085.354-.085.328 0 .5.205.168.204.168.6zm1.889.175q0-.341-.142-.53-.14-.188-.393-.188-.254 0-.395.188-.141.189-.141.53 0 .34.141.529.143.187.393.187.255 0 .396-.187.143-.188.143-.529zm.315.743q0 .488-.216.725-.218.24-.665.24-.166 0-.314-.026-.146-.025-.286-.075v-.307q.14.077.275.113.134.035.275.035.31 0 .465-.162.152-.16.152-.488v-.155q-.097.17-.25.254-.152.084-.363.084-.352 0-.568-.268-.214-.27-.214-.713 0-.445.214-.713.214-.267.568-.267.21 0 .364.083.152.084.25.252V.761h.313zm3.142-1.604v.293q-.134-.071-.268-.107-.134-.04-.272-.04-.305 0-.475.197-.17.191-.17.543 0 .35.17.545.17.193.475.193.138 0 .27-.036.136-.038.268-.11V2.6q-.13.062-.274.092-.139.03-.298.03-.432 0-.687-.27-.254-.272-.254-.733 0-.47.255-.738.26-.267.706-.267.146 0 .286.03.137.028.268.09zm2.141.686v1.156h-.314V1.529q0-.272-.108-.405-.107-.136-.317-.136-.254 0-.402.16-.147.165-.147.445v1.083h-.316V.014h.316v1.043q.113-.171.265-.257.153-.085.353-.085.33 0 .5.205.17.204.17.6zm1.5.193q-.38 0-.528.087-.147.086-.147.297 0 .168.109.268.11.096.302.096.26 0 .418-.184.16-.187.16-.494V1.71zm.627-.13v1.093h-.314v-.292q-.107.174-.268.258-.16.082-.393.082-.295 0-.47-.165-.171-.164-.171-.44 0-.324.214-.488.218-.165.647-.165h.44v-.032q0-.218-.142-.335-.143-.12-.4-.12-.165 0-.322.04-.153.038-.298.117V.845q.173-.066.336-.098.16-.036.316-.036.414 0 .62.216.205.216.205.654zm2.242-.063v1.156h-.315V1.529q0-.272-.107-.405-.105-.136-.318-.136-.253 0-.4.16-.148.165-.148.445v1.083h-.316V.76h.316v.296q.112-.171.266-.257.154-.085.354-.085.328 0 .5.205.168.204.168.6zm1.889.175q0-.341-.143-.53-.14-.188-.393-.188t-.394.188q-.141.189-.141.53 0 .34.14.529.143.187.394.187.255 0 .396-.187.143-.188.143-.529zm.314.743q0 .488-.216.725-.218.24-.664.24-.166 0-.314-.026-.147-.025-.286-.075v-.307q.14.077.275.113.134.035.275.035.309 0 .464-.162.152-.16.152-.488v-.155q-.096.17-.25.254-.152.084-.362.084-.352 0-.568-.268-.215-.27-.215-.713 0-.445.215-.713.214-.267.568-.267.21 0 .364.083.152.084.25.252V.761h.312zm2.287-.798v.151h-1.447q.021.326.196.495.175.17.488.17.182 0 .35-.045.171-.044.34-.134v.299q-.17.071-.347.108-.179.038-.36.038-.46 0-.728-.266-.268-.268-.268-.722 0-.47.254-.744.255-.277.686-.277.385 0 .61.25.226.246.226.675zm-.315-.093q-.003-.26-.144-.411-.142-.155-.376-.155-.26 0-.42.148-.158.15-.181.42zm2.051-.731v.299q-.133-.07-.277-.104-.143-.034-.297-.034-.234 0-.352.072-.116.07-.116.216 0 .109.082.173.084.06.338.118l.107.023q.336.071.475.204.143.13.143.364 0 .268-.212.421-.211.156-.58.156-.154 0-.32-.03-.167-.03-.35-.09V2.28q.173.091.342.138.17.044.334.044.224 0 .343-.075.12-.077.12-.214 0-.13-.088-.197-.085-.071-.376-.134l-.111-.025q-.291-.06-.422-.187-.13-.129-.13-.35 0-.272.191-.418.193-.146.545-.146.173 0 .327.025.155.026.285.076z"/>
    </g>
    <g style="line-height:1.25" font-weight="400" font-size="1.96" font-family="sans-serif" letter-spacing="0" word-spacing="0">
        <path style="line-height:0" d="M31.215.108h1.614v.29h-1.268v.755h1.215v.291H31.56v.925h1.299v.292h-1.643zm3.461.927V0h.314v2.662h-.314v-.288q-.098.17-.25.254-.152.082-.364.082-.347 0-.565-.277t-.218-.727q0-.452.218-.729.218-.276.565-.276.214 0 .362.083.154.083.252.252zm-1.071.67q0 .347.142.545.143.196.393.196t.393-.196q.143-.198.143-.545 0-.348-.143-.545-.143-.196-.393-.196t-.393.196q-.142.197-.142.545zm2.034-.959h.314v1.915h-.314zm0-.747h.314v.399h-.314zm1.282.202v.545h.647v.245h-.647v1.037q0 .234.063.302.064.066.26.066h.324v.265h-.322q-.364 0-.503-.136-.138-.138-.138-.497V.991h-.232V.746h.232V.201zm1.804.765q-.252 0-.4.198-.146.196-.146.541 0 .343.144.541.148.197.402.197.25 0 .398-.199.149-.198.149-.539 0-.34-.149-.54-.146-.2-.398-.2zm0-.268q.41 0 .645.268.234.268.234.739 0 .47-.232.738-.236.268-.647.268-.41 0-.645-.268-.232-.268-.232-.738 0-.473.232-.74t.645-.267zm2.508.341q-.054-.03-.116-.045Q41.056.98 40.98.98q-.268 0-.411.173-.143.173-.143.498v1.01h-.314V.746h.316v.296q.1-.173.259-.257.159-.085.386-.085.032 0 .071.005l.09.01zm1.264-.293h.316l.393 1.493.391-1.493h.37l.393 1.493.393-1.493h.314l-.5 1.915h-.371l-.411-1.57-.415 1.57H43zm3.049 0h.314v1.915h-.314zm0-.747h.314v.399h-.314zm1.282.202v.545h.647v.245h-.647v1.037q0 .234.063.302.064.066.26.066h.324v.265h-.322q-.364 0-.503-.136-.138-.138-.138-.497V.991h-.232V.746h.232V.201zm2.654 1.304v1.156h-.314V1.514q0-.272-.107-.405-.106-.136-.318-.136-.254 0-.4.16-.149.165-.149.445v1.083h-.316V-.001h.316v1.043q.113-.171.267-.257.153-.085.353-.085.329 0 .5.205.168.204.168.6zm1.52-.759h.332l.599 1.607.598-1.607h.334l-.718 1.915h-.429zm3.935.879v.151H53.49q.021.326.196.495.175.17.488.17.18 0 .35-.045.172-.044.34-.134v.299q-.17.071-.349.108-.178.038-.36.038-.458 0-.726-.266-.268-.268-.268-.722 0-.47.254-.744.255-.277.686-.277.386 0 .609.25.227.246.227.675zm-.315-.093q-.003-.26-.146-.411-.14-.155-.372-.155-.264 0-.423.148-.157.15-.18.42zm1.94-.493q-.054-.03-.116-.045T56.308.98q-.268 0-.41.173-.142.173-.142.498v1.01h-.316V.746h.316v.296q.1-.173.26-.257Q56.173.7 56.4.7q.032 0 .072.005l.087.01zm1.554-.238V1.1q-.134-.07-.277-.104-.143-.034-.298-.034-.233 0-.352.072-.116.07-.116.216 0 .109.084.173.084.06.335.118l.108.023q.335.071.476.204.143.13.143.364 0 .268-.214.421-.209.156-.579.156-.153 0-.321-.03-.166-.03-.35-.09v-.325q.175.091.343.138.17.044.335.044.222 0 .342-.075.12-.077.12-.214 0-.13-.086-.197-.086-.071-.38-.134l-.108-.025q-.293-.06-.423-.187-.129-.129-.129-.35 0-.272.191-.418.191-.146.543-.146.175 0 .329.025.153.026.284.076zm.605-.055h.315v1.915h-.315zm0-.747h.315v.399h-.315zm1.713.967q-.254 0-.4.198-.148.196-.148.541 0 .343.146.541.147.197.402.197.25 0 .398-.199.147-.198.147-.539 0-.34-.147-.54-.148-.2-.398-.2zm0-.268q.41 0 .643.268.234.268.234.739 0 .47-.232.738-.236.268-.645.268-.413 0-.647-.268-.232-.268-.232-.738 0-.473.232-.74.233-.267.647-.267zm2.988.807v1.156h-.314V1.514q0-.272-.106-.405-.107-.136-.318-.136-.255 0-.401.16-.147.165-.147.445v1.083h-.316V.746h.316v.296q.113-.171.264-.257.154-.085.354-.085.33 0 .5.205.168.204.168.6zM65.48.201v.545h.646v.245h-.647v1.037q0 .234.063.302.064.066.263.066h.321v.265h-.321q-.365 0-.504-.136-.138-.138-.138-.497V.991h-.232V.746h.232V.201zm1.803.765q-.251 0-.4.198-.146.196-.146.541 0 .343.144.541.149.197.402.197.252 0 .399-.199.148-.198.148-.539 0-.34-.148-.54-.147-.2-.399-.2zm0-.268q.411 0 .645.268.234.268.234.739 0 .47-.232.738-.236.268-.647.268-.41 0-.644-.268-.233-.268-.233-.738 0-.473.233-.74.232-.267.644-.267zm3.888 1.007q0-.348-.142-.545-.143-.196-.393-.196t-.393.196q-.143.197-.143.545 0 .347.143.545.143.196.393.196t.393-.196q.142-.198.142-.545zm-1.071-.67q.1-.17.25-.252.152-.083.362-.083.349 0 .567.276t.218.729q0 .45-.218.727-.218.277-.567.277-.21 0-.362-.082-.15-.084-.25-.254v.286h-.316V0h.318zm3.556.59v.151h-1.447q.022.326.197.495.175.17.487.17.182 0 .352-.045.17-.044.338-.134v.299q-.17.071-.347.108-.178.038-.36.038-.46 0-.728-.266-.267-.268-.267-.722 0-.47.253-.744.256-.277.686-.277.386 0 .61.25.226.246.226.675zm-.315-.093q-.003-.26-.144-.411-.141-.155-.373-.155-.263 0-.422.148-.157.15-.182.42zm3.364.841v1.014h-.317V.744h.317v.291q.1-.17.25-.252.151-.083.362-.083.348 0 .566.276t.218.729q0 .45-.218.727-.218.277-.566.277-.21 0-.362-.082-.15-.084-.25-.254zm1.071-.668q0-.348-.143-.545-.143-.196-.393-.196t-.393.196q-.142.197-.142.545 0 .347.142.545.143.196.393.196t.393-.196q.143-.198.143-.545zm.814.2V.745h.315v1.148q0 .271.107.409.105.134.318.134.254 0 .4-.161.15-.165.15-.445V.746h.314v1.915h-.314v-.295q-.114.175-.268.259-.15.084-.35.084-.329 0-.5-.206-.171-.203-.171-.598zM79.383.7zm2.837 1.005q0-.348-.143-.545-.143-.196-.393-.196t-.393.196q-.143.197-.143.545 0 .347.143.545.143.196.393.196t.393-.196q.143-.198.143-.545zm-1.072-.67q.1-.17.25-.252.154-.083.363-.083.35 0 .566.276.22.277.22.729 0 .45-.22.727-.216.277-.566.277-.21 0-.361-.082-.152-.084-.25-.254v.286h-.316V0h.316zM83.066 0h.316v2.66h-.314zm.972.746h.314v1.915h-.314zm0-.747h.314v.399h-.314zm2.192.802V1.1q-.135-.07-.277-.104-.143-.034-.297-.034-.236 0-.354.072-.116.07-.116.216 0 .109.084.173.084.06.338.118l.107.023q.336.071.475.204.143.13.143.364 0 .268-.214.421-.21.156-.58.156-.153 0-.32-.03-.165-.03-.35-.09v-.325q.174.091.344.138.168.044.334.044.223 0 .343-.075.12-.077.12-.214 0-.13-.09-.197-.084-.071-.375-.134l-.11-.025q-.293-.06-.422-.187-.13-.129-.13-.35 0-.272.19-.418.192-.146.544-.146.175 0 .328.025.154.026.286.076zm2.194.704v1.156h-.312V1.514q0-.272-.107-.405-.106-.136-.318-.136-.254 0-.4.16-.149.165-.149.445v1.083h-.316V-.001h.316v1.043q.113-.171.267-.257.153-.085.353-.085.329 0 .5.205.168.204.168.6zm2.269.12v.151h-1.445q.021.326.196.495.175.17.488.17.18 0 .35-.045.171-.044.34-.134v.299q-.17.071-.35.108-.178.038-.36.038-.457 0-.725-.266-.268-.268-.268-.722 0-.47.254-.744.255-.277.686-.277.385 0 .61.25.225.246.225.675zm-.313-.093q-.004-.26-.146-.411-.14-.155-.372-.155-.264 0-.423.148-.157.15-.18.42zm2.09-.497V0h.314v2.662h-.314v-.288q-.099.17-.25.254-.152.082-.363.082-.348 0-.566-.277t-.218-.727q0-.452.218-.729.218-.276.566-.276.21 0 .363.083.151.083.25.252zm-1.072.67q0 .347.143.545.143.196.393.196t.393-.196q.143-.198.143-.545 0-.348-.143-.545-.143-.196-.393-.196t-.393.196q-.143.197-.143.545z"/>
    </g>
</svg>
