<?xml version="1.0" encoding="UTF-8"?>
<svg xmlns="http://www.w3.org/2000/svg" width="269.353" height="121.679" viewBox="0 0 71.266363 32.194153">
	<path fill="#fdfcfd" d="M71.26683903.00325368H.00038052v32.19118758h71.26645851z"/>
	<path fill="#d8d8d8" d="M61.04266254 5.65304373H35.96332293V4.34237427h25.07933961zM40.86298998 8.03707101H19.80294579V6.72640155h21.06004419zm29.23161138 6.93659196H53.48483235v-1.31135139h16.60976901zm-8.07541506 9.82456551H28.06452774v-1.31066946H62.0191863zm-18.02272797 4.83829335h-9.3560796v-1.31135139h9.3560796zM70.1477919 12.59168148h-7.9649424v-1.31066946h7.9649424zm-39.50829648 7.22027484h-9.9289008v-1.31135139h9.9289008zm-14.31439263 0H6.07978647v-1.31135139h10.24531632zm18.31459401 9.82456551h-8.35023285v-1.31135139h8.35023285zm35.5080951-4.83829335h-6.91204248v-1.31066946h6.91204248zM65.02513374 7.97706117h-9.57838878V6.66570978h9.57838878zm-37.33225785 4.61462031h-8.35023285v-1.31066946h8.35023285zm-9.89753202 17.04484035H9.44511102v-1.31135139h8.35023285zM70.1477919 7.97706117h-5.12265816V6.66570978h5.12265816zm-22.80237534 2.30765112h-6.74155998V8.9733609h6.74155998zm-14.94654174 0h-6.76815525V8.9733609h6.76747332zm-13.68428931 0h-5.12334009V8.9733609h5.12265816zm8.1013284 14.51351619h-5.12334009v-1.31066946h5.12265816zm-2.00010069 4.83829335h-5.12265816v-1.31135139h5.12265816zm-4.31593497-4.83829335h-5.12197623v-1.31066946h5.12197623zm28.73584827 2.38198149h-5.1212943v-1.31135139h5.1212943z"/>
	<path fill="#d8d8d8" d="M20.71059462 19.81195632h-5.12265816v-1.31135139h5.12265816zm49.43719728-2.45631186h-5.12265816v-1.31135139h5.12265816zm-13.96456254 9.82456551h-6.94682091v-1.31135139h6.94682091zm7.57419651-9.82456551H49.01273541v-1.31135139h14.74469046zm-11.63168001-2.38198149H37.22352957v-1.31135139h14.90221629zm-25.20958824 12.206547h-6.79747824v-1.31135139h6.79747824zm-7.89470361 0H5.27715486v-1.31135139h13.74429915zm18.52599231-9.82456551h-16.2708498v-1.31135139h16.2708498zm-18.8417259-9.37858329H9.27735624V6.66570978h9.42836418zm6.92499915 2.30765112h-4.58597925V8.9733609h4.58666118zm14.97313701 0h-6.3760455V8.9733609h6.3760455zm29.54393532 0H56.14026777V8.9733609H70.1477919zm-24.95591028 2.30696919h-15.5343654v-1.31066946h15.5343654zm15.40752642 0H47.06582526v-1.31066946h13.53358278zm-13.10464881 4.76396298h-8.796897v-1.31135139h8.796897zm22.65303267 2.45631186H56.7001323v-1.31135139h13.4476596zm-13.4476596 0h-8.48184534v-1.31135139h8.48184534zm13.4476596 7.36825365H57.27568122v-1.31135139H70.1477919zm-.00409158-21.58513029h-7.96357854V4.28441022h7.9649424zM54.56364561 7.97706117h-6.74155998V6.66570978h6.74155998zm-6.74155998 0h-6.3760455V6.66570978h6.3760455zm-1.15518942 11.83489515h-8.796897v-1.31135139h8.796897zm-9.85184271 0h-5.12265816v-1.31135139h5.12265816zm-16.77956958-2.45631186H9.97633449v-1.31135139h10.05914943zm50.15663343 12.28087737H56.4478182v-1.31135139h13.74429915zm-15.90738111 0h-8.34955092v-1.31135139h8.35023285zm-11.3677731-2.45631186h-8.35023285v-1.31135139h8.35023285zm-9.40313277 0h-5.12265816v-1.31135139h5.12265816z"/>
	<path fill="#9babc7" d="M70.0386831 3.49950879H36.28587582V.08303949H70.0386831z"/>
		<path d="M65.13904865.99542835l-.3658676.99483097h.73447577zm-.15210226-.26446609h.3069451l.76051128 1.9978837h-.28090958l-.18224865-.51248869h-.90028092l-.18224865.51248869h-.28502044z"/>
		<path d="M66.82450608 1.34348216l-.2918719.79476855h.58785467zm-.12058557-.21376533h.24391173l.60977932 1.59912913h-.22472766l-.1452508-.41108718h-.72077286l-.1452508.41108718h-.22883854z"/>
		<path d="M68.19890756 1.57369098l-.24391173.66322065h.48919374zm-.1014015-.17813778h.20691387l.50700752 1.33329276h-.1877298l-.12195587-.34257265h-.60018728l-.12058558.34257265h-.1904704z"/>
		<path d="M60.4965041 1.50380616q.12195586 0 .18498922-.05481162.06303337-.05207105.06303337-.15621313 0-.10414209-.06303337-.15758342-.06303336-.05481163-.18498923-.05481163h-.28502044v.4234198zm.01781377.8742454q.15484284 0 .2329494-.06577395.07810657-.06577395.07810657-.19869213 0-.12880732-.07673628-.19321098-.07810656-.06577395-.23431969-.06577395h-.30283422v.52345101zm.47960171-.71940256q.16443487.04796017.25624434.17813778.09043918.1301776.09043918.3192777 0 .28776103-.19458126.43027125-.19595156.14251023-.59470612.14251023h-.85506134V.73096226h.7728439q.41656834 0 .60292787.12469645.1877298.12606673.1877298.40286543 0 .1466211-.06851452.2493929-.06851453.1014015-.19869214.15073196z"/>
		<path d="M56.30067428.73096226h.27405812l-.39053282 1.9978837h-.27131754z"/>
	<path fill="#f1f1f1" d="M1.31173191-.00015597l.0068193 32.16254652-1.31135139.00340965L.00038052.00325368z"/>
	<path fill="silver" d="M1.34241876 4.6021896l.0068193 4.79805948H.03788667l-.0068193-4.79737755z"/>
	<g fill="silver" fill-rule="evenodd" stroke="#000">
		<path stroke-width=".29256" d="M36.71591881 13.16434918V15.433514"/>
		<path stroke-width=".1723984" d="M36.33501799 13.13598197l.75883348.00144168m-.75883348 2.34659163l.75883348.00144168"/>
	</g>
	<path fill="#d8d8d8" d="M55.13919453 10.28539422h-6.46196868V8.97404283h6.46196868z"/>
	<path fill="silver" d="M.07130124.88635303L1.22785452.88430724.64685016.09872388zM.0726651 31.26497067l1.15655328.00204579-.58100436.78490143z"/>
	<path fill="#fff" stroke="#242423" stroke-linecap="round" stroke-width=".39756519" d="M66.45514095 8.76469032H8.39493882v15.05906019h58.06020213z"/>
	<path fill="#3261ff" stroke="#3261ff" stroke-linecap="round" stroke-width=".31096008" d="M59.70335202 12.12524136H23.00528907v2.85865056h36.69806295z" opacity=".486"/>
	<text x="35.206" y="204.361" font-family="sans-serif" font-size="40" font-weight="400" letter-spacing="0" style="line-height:1.25" transform="translate(-.4387824 -125.07634692) scale(.68193)" word-spacing="0">
		<tspan x="35.206" y="204.361" font-size="3.333">The currently published version</tspan>
	</text>
	<path fill="#feeb5e" stroke="#feeb5e" stroke-linecap="round" stroke-width=".16161741" d="M59.77836432 16.55505864h-9.39904119v3.00799323h9.39904119z" opacity=".486"/>
	<text x="75.155" y="211.019" font-family="sans-serif" font-size="40" font-weight="400" letter-spacing="0" style="line-height:1.25" transform="translate(-.4387824 -125.07634692) scale(.68193)" word-spacing="0">
		<tspan x="75.155" y="211.019" font-size="3.333">My text</tspan>
	</text>
	<g stroke-linecap="round" stroke-linejoin="round">
		<path fill="#3261ff" d="M60.28912989 13.66162965a1.70073342 1.70073342 0 0 0 1.70073342 1.70073342 1.70073342 1.70073342 0 0 0 1.70005149-1.70073342 1.70073342 1.70073342 0 0 0-1.70005149-1.70073342 1.70073342 1.70073342 0 0 0-1.70073342 1.70073342z"/>
		<path fill="#fff" d="M60.96424059 13.66026579a1.03107816 1.03107816 0 0 0 1.03039623 1.03107816 1.03107816 1.03107816 0 0 0 1.03107816-1.03107816 1.03107816 1.03107816 0 0 0-1.03107816-1.03039623 1.03107816 1.03107816 0 0 0-1.03039623 1.03039623z"/>
	</g>
	<path fill="#fff" stroke="#373635" stroke-linecap="round" stroke-linejoin="round" stroke-width=".2386755" d="M60.29731305 18.20328345a1.58139567 1.58139567 0 0 0 1.58139567 1.58139567 1.58139567 1.58139567 0 0 0 1.58139567-1.58139567 1.58139567 1.58139567 0 0 0-1.5820776-1.58139567 1.58139567 1.58139567 0 0 0-1.58071374 1.58139567z"/>
	<path fill="#fff" stroke="#3261ff" stroke-linecap="round" stroke-width=".272772" d="M20.03616585 17.35564446h-9.74341584v4.73668578h9.74341584z"/>
	<text x="20.015" y="213.532" fill="#3261ff" font-family="sans-serif" font-size="40" font-weight="400" letter-spacing="0" style="line-height:1.25" transform="translate(-.4387824 -125.07634692) scale(.68193)" word-spacing="0">
		<tspan x="20.015" y="213.532" font-size="3.333" font-weight="700" style="-inkscape-font-specification:'sans-serif Bold'">OK</tspan>
	</text>
</svg>
