<?xml version="1.0" encoding="UTF-8"?>
<svg xmlns="http://www.w3.org/2000/svg" width="703.356" height="269.108" viewBox="0 0 186.09622 71.201599">
	<g transform="translate(0 -19.532) scale(.87811)">
		<path fill="#fdfcfd" d="M104.507 56.122H0v47.206h104.507z"/>
		<path d="M185.41183026 48.8276265v-1.0649979h.28734849v1.05294132q0 .24916932.09846207.37375398.09645264.12458466.29136735.12458466.23510331 0 .36973512-.14869782.13664124-.14869782.13664124-.40590486v-.99667728h.28734849v1.75825125h-.28734849v-.27127305q-.10649979.1607544-.24515046.23912217-.13865067.07635834-.3215088.07635834-.30342393 0-.4621689-.18888642-.15472611-.18687699-.15472611-.55058382zm.72540423-1.10920536zM188.9444082 48.45789138v1.06298847h-.28935792V48.4659291q0-.24916932-.09846207-.37375398-.09645264-.12458466-.29136735-.12458466-.23309388 0-.36973512.15070725-.13463181.14869782-.13463181.40590486v.99466785h-.28935792V47.7626286h.28935792v.27127305q.10449036-.15673554.24314103-.23510331.1406601-.0803772.32552766-.0803772.3014145 0 .45815004.18888642.15472611.18687699.15472611.55058382zM190.78705551 47.82893979v.26926362q-.1205658-.06631119-.24515046-.1004715-.12257523-.03416031-.24916932-.03416031-.2813202 0-.43604631.1808487-.15472611.17682984-.15472611.49833864t.15472611.50034807q.15472611.17682984.43604631.17682984.12659409 0 .24916932-.03215088.12257523-.03416031.24515046-.1004715v.26524476q-.1205658.05626404-.25117875.08439606-.12860352.02813202-.27328248.02813202-.39786714 0-.63096102-.24916932-.23510331-.24916932-.23510331-.67315905 0-.43001802.23510331-.67717791.23711274-.24715989.64904589-.24715989.13262238 0 .2612259.02813202.12659409.02813202.24515046.08238663zM192.75428748 48.45789138v1.06298847h-.28734849V48.4659291q0-.24916932-.09846207-.37375398-.09645264-.12458466-.29136735-.12458466-.23510331 0-.36973512.15070725-.13463181.14869782-.13463181.40590486v.99466785h-.28935792v-2.44145745h.28935792v.95648868q.10449036-.15673554.24314103-.23510331.1406601-.0803772.32552766-.0803772.3014145 0 .45815004.18888642.15472611.18687699.15472611.55058382zM194.13275646 48.63673065q-.34964082 0-.48427263.0803772t-.13463181.27127305q0 .15472611.1004715.24515046t.27529191.09042435q.2411316 0 .38581056-.17080155.14467896-.17080155.14467896-.45212175v-.06430176zm.57670641-.1205658v1.004715h-.28935792v-.26725419q-.09846207.1607544-.24515046.23711274-.14869782.07434891-.3616974.07434891-.26926362 0-.43001802-.15070725-.1607544-.15271668-.1607544-.40590486 0-.29739564.200943-.44810289.19893357-.15070725.59278185-.15070725h.40389543v-.02813202q0-.200943-.13061295-.30744279-.13061295-.11051865-.36772569-.11051865-.15070725 0-.29337678.03616974t-.27529191.10850922v-.26524476q.15874497-.0602829.30744279-.09042435.14869782-.03215088.29136735-.03215088.3817917 0 .56866869.19893357.18888642.19692414.18888642.59881014zM196.76711919 48.45789138v1.06298847h-.28734849V48.4659291q0-.24916932-.09645264-.37375398t-.29136735-.12458466q-.23510331 0-.36973512.15070725-.13463181.14869782-.13463181.40590486v.99466785h-.29337678V47.7626286h.29136735v.27127305q.10248093-.15673554.24314103-.23510331.1406601-.0803772.32552766-.0803772.3014145 0 .45815004.18888642.15472611.18687699.15472611.55058382zM198.50326671 48.62065521q0-.31347108-.13061295-.48628206-.12860352-.17281098-.3616974-.17281098t-.3616974.17281098q-.13061295.17281098-.13061295.48628206 0 .31146165.12860352.48427263.13061295.17281098.36370683.17281098.23309388 0 .3616974-.17281098.13061295-.17281098.13061295-.48427263zm.28935792.68119677q0 .44810289-.200943.66713076-.19692414.2210373-.60885729.2210373-.15271668 0-.28734849-.02411316-.13463181-.02210373-.2612259-.07033005v-.2813202q.12659409.07033005.24916932.10248093.12458466.03416031.25318818.03416031.28533906 0 .42599916-.15070725.1406601-.14668839.1406601-.44609346v-.14467896q-.08841492.15472611-.22907502.23108445-.1406601.07836777-.33356538.07836777-.32351823 0-.5224518-.24715989-.19692414-.24715989-.19692414-.65306475 0-.40791429.19692414-.65507418.19893357-.24715989.5224518-.24715989.19491471 0 .33356538.07836777.1406601.07635834.22907502.23108445v-.26323533h.28935792zM200.89247898 48.56841003v.1406601h-1.32823323q.01808487.29940507.17883927.45614061.1607544.15472611.44810289.15472611.16678269 0 .3215088-.0401886.15673554-.0401886.31146165-.1205658v.27127305q-.15472611.06631119-.31949937.1004715-.1607544.03416031-.32954652.03416031-.4219803 0-.66914019-.24515046-.24314103-.24515046-.24314103-.6631119 0-.43001802.23108445-.6832062.23510331-.25519761.63096102-.25519761.35365968 0 .55862154.23108445.20898072.22706559.20898072.61890444zm-.28935792-.08439606q-.00401886-.23711274-.13463181-.37777284-.12860352-.1406601-.3416031-.1406601-.2411316 0-.38781999.13463181-.14467896.13664124-.16678269.38581056zM202.52212671 48.02787336v-.94845096h.28935792v2.44346688h-.28935792v-.26524476q-.09042435.15673554-.23108445.23510331-.13664124.07434891-.33155595.07434891-.31949937 0-.52044237-.25318818-.19893357-.25519761-.19893357-.66914019t.200943-.66914019q.200943-.25519761.51843294-.25519761.19491471 0 .33155595.07836777.1406601.07434891.23108445.23108445zm-.9846207.61488558q0 .31748994.13061295.50034807.13262238.1808487.3616974.1808487t.3616974-.1808487q.13061295-.1808487.13061295-.5023575 0-.31748994-.13061295-.49833864-.13262238-.1808487-.3616974-.1808487t-.3616974.1808487q-.13061295.1808487-.13061295.50034807zM204.71642427 47.26228053v.50034807h.59479128v.22304673h-.59479128v.95447925q0 .21500901.05827347.27730134.0602829.0602829.2411316.0602829h.29538621v.2411316h-.29739564q-.33356538 0-.4621689-.12257523-.12659409-.12659409-.12659409-.45614061v-.95447925h-.20898072v-.22304673h.21099015v-.5023575zM207.19606089 48.56841003v.1406601h-1.3262238q.01808487.29940507.17682984.45614061.1607544.15472611.45011232.15472611.16477326 0 .3215088-.0401886t.30945222-.1205658v.27127305q-.15472611.06631119-.31748994.1004715t-.33155595.03416031q-.4219803 0-.66713076-.24515046-.24515046-.24515046-.24515046-.6631119 0-.43001802.23309388-.6832062.23309388-.25519761.62895159-.25519761.35566911 0 .56063097.23108445.20697129.22706559.20697129.61890444zm-.28935792-.08439606q-.00200943-.23711274-.13262238-.37777284-.12860352-.1406601-.3416031-.1406601-.2411316 0-.38781999.13463181-.14467896.13664124-.16678269.38581056zM209.07487794 47.7626286l-.63497988.85400775.66914019.9042435h-.3416031l-.51240465-.69124392-.51039522.69124392h-.3416031l.6832062-.92031894-.6229233-.83793231h.33959367l.46618776.62493273.46618776-.62493273zM209.8022916 47.26228053v.50034807h.59479128v.22304673h-.59479128v.95447925q0 .21500901.05827347.27730134.0602829.0602829.2411316.0602829h.29538621v.2411316h-.29739564q-.33356538 0-.4621689-.12257523-.12659409-.12659409-.12659409-.45614061v-.95447925h-.21099015v-.22304673h.21099015v-.5023575z"/>
		<path fill="#3261ff" d="M167.96 48.117a2.494 2.494 0 0 0 2.495 2.493 2.494 2.494 0 0 0 2.494-2.493 2.494 2.494 0 0 0-2.494-2.494 2.494 2.494 0 0 0-2.494 2.494z"/>
		<path fill="#fff" d="M168.95 48.115a1.512 1.512 0 0 0 1.513 1.511 1.512 1.512 0 0 0 1.511-1.511 1.512 1.512 0 0 0-1.511-1.512 1.512 1.512 0 0 0-1.512 1.512z"/>
		<path fill="#fff" stroke="#373635" stroke-linecap="round" stroke-linejoin="round" stroke-width=".35" d="M134.246 48.062a2.319 2.319 0 0 0 2.319 2.319 2.319 2.319 0 0 0 2.319-2.319 2.319 2.319 0 0 0-2.319-2.319 2.319 2.319 0 0 0-2.319 2.319z"/>
		<path d="M159.02722422 47.67886435v.27328248q-.1205658-.06229233-.25318818-.09444321-.13262238-.02813202-.27328248-.02813202-.21500901 0-.32351823.06631119-.10649979.06430176-.10649979.19692414 0 .1004715.07635834.15874497.07635834.05626404.30945222.10850922l.1004715.0200943q.30543336.06832062.43403688.18888642.13061295.1205658.13061295.33356538 0 .24515046-.19491471.38781999-.19290528.14266953-.53249895.14266953-.1406601 0-.29337678-.02813202-.15271668-.02612259-.3215088-.0803772v-.29940507q.1607544.08238663.31347108.12659409.15673554.0401886.30945222.0401886.20295243 0 .31347108-.07033005.11051865-.07033005.11051865-.19692414 0-.11855637-.0803772-.1808487t-.34763139-.1205658l-.1004715-.02411316q-.26926362-.05626404-.38781999-.17281098-.1205658-.11654694-.1205658-.3215088 0-.24715989.17682984-.3817917.17682984-.13664124.50034807-.13664124.1607544 0 .3014145.02411316.1406601.02411316.2612259.07033005zM161.04469194 48.32389138v1.06298847h-.28935792V48.3319291q0-.24916932-.09645264-.37375398t-.29136735-.12458466q-.23510331 0-.36973512.15070725-.13463181.15070725-.13463181.40791429v.99466785h-.29136735v-2.44346688h.29136735v.95648868q.10248093-.15673554.24314103-.23510331.1406601-.0803772.32552766-.0803772.3014145 0 .45815004.18888642.15472611.18687699.15472611.55058382zM162.30661398 47.8295716q-.23309388 0-.36772569.1808487t-.13463181.49833864q0 .31548051.13262238.49632921.13463181.1808487.36973512.1808487.22907502 0 .36571626-.1808487.13463181-.1808487.13463181-.49632921 0-.31347108-.13463181-.49431978-.13664124-.18486756-.36571626-.18486756zm0-.24515046q.37576341 0 .59077242.24515046.21500901.24515046.21500901.67918734 0 .43202745-.21500901.67717791-.21500901.24515046-.59077242.24515046-.37978227 0-.59479128-.24515046-.21299958-.24515046-.21299958-.67717791 0-.43403688.21299958-.67918734.21500901-.24515046.59479128-.24515046zM163.42184763 47.6286286h.28935792l.3616974 1.37043126.35767854-1.37043126h.3416031l.3616974 1.37043126.35767854-1.37043126h.28935792l-.46015947 1.75825125h-.3416031l-.37576341-1.44277074-.3817917 1.44277074h-.3416031z"/>
		<path d="M127.35682732 48.25289138v1.06298847h-.28935792V48.2609291q0-.24916932-.09645264-.37375398-.09846207-.12458466-.29337678-.12458466-.23309388 0-.36772569.15070725-.13463181.14869782-.13463181.40590486v.99466785h-.29337678v-2.44145745h.29136735v.95648868q.10248093-.15673554.2411316-.23510331.14266953-.0803772.32552766-.0803772.30342393 0 .45815004.18888642.15673554.18687699.15673554.55058382zM127.93554316 47.5576286h.28935792v1.75825125h-.28935792zm0-.68521563h.28935792v.36571626h-.28935792zM129.98516176 47.82287336v-.94845096h.28734849v2.44346688h-.28734849v-.26524476q-.09243378.15673554-.23108445.23510331-.13865067.07434891-.33356538.07434891-.31748994 0-.51843294-.25318818-.200943-.25519761-.200943-.66914019t.200943-.66914019q.200943-.25519761.51843294-.25519761.19491471 0 .33356538.07836777.1406601.07434891.23108445.23108445zm-.9846207.61488558q0 .31748994.13061295.50034807.13061295.1808487.3616974.1808487.22706559 0 .35968797-.1808487t.13262238-.5023575q0-.31748994-.13262238-.49833864t-.3616974-.1808487q-.22907502 0-.3616974.1808487-.12860352.1808487-.12860352.50034807zM132.3723646 48.36341003v.1406601h-1.32823323q.0200943.29940507.17883927.45614061.1607544.15472611.44810289.15472611.16678269 0 .3215088-.0401886.15874497-.0401886.31146165-.1205658v.27127305q-.15472611.06631119-.31748994.1004715-.16477326.03416031-.33155595.03416031-.4219803 0-.66713076-.24515046-.24515046-.24515046-.24515046-.6631119 0-.43001802.23309388-.6832062.23309388-.25519761.62895159-.25519761.35365968 0 .56063097.23108445.20697129.22706559.20697129.61890444zm-.28935792-.08439606q-.00200943-.23711274-.13262238-.37777284-.12860352-.1406601-.3416031-.1406601-.2411316 0-.38982942.13463181-.14266953.13664124-.16477326.38581056z"/>
		<path fill="#f1f1f1" d="M211.927 56.027H107.42v47.206h104.507z"/>
		<path fill="#3261ff" stroke="#3261ff" stroke-linecap="round" stroke-linejoin="round" stroke-width=".228" d="M210.836 56.137h-98.668v4.365h98.668z"/>
		<path fill="#3261ff" stroke="#3261ff" stroke-width=".759" d="M210.536 83.303V56.137"/>
		<path fill="#d8d8d8" d="M208.687 64.407h-50.129v-1.922h50.129zM184.651 67.903H134.86v-1.922h49.791zM208.609 78.075h-53.994v-1.923h53.994zM196.766 92.482h-49.791V90.56h49.791zM208.772 99.577h-49.791v-1.923h49.791z"/>
		<path fill="#ead97f" d="M156.655 65.066h-13.467v-3.589h13.467z"/>
		<path fill="#d8d8d8" d="M208.687 74.582h-11.68V72.66h11.68zM151.832 85.17h-12.245v-1.923h12.245zM126.98 85.17h-12.244v-1.923h12.245zM156.617 99.577h-12.245v-1.923h12.245zM208.687 92.482H198.55V90.56h10.136zM199.374 67.815h-12.246v-1.923h12.246z"/>
		<path fill="#ead97f" d="M143.188 65.066h-16.013v-3.589h16.013z"/>
		<path fill="#d8d8d8" d="M146.43 74.582h-12.246V72.66h12.246zM131.916 99.577H119.67v-1.923h12.246zM208.687 67.815h-7.512v-1.923h7.512zM171.23 71.199h-7.512v-1.923h7.512zM149.311 71.199h-7.512v-1.923h7.512zM129.245 71.199h-7.512v-1.923h7.512zM145.143 92.482h-7.511V90.56h7.511zM142.21 99.577h-7.51v-1.923h7.512zM135.882 92.482h-7.512V90.56h7.512zM178.021 95.975h-7.512v-1.923h7.512zM137.271 85.17h-7.512v-1.923h7.512zM208.687 81.568h-7.512v-1.923h7.512zM188.209 95.975h-7.512v-1.923h7.512zM199.161 81.568H164.96v-1.923h34.202zM152.7 78.075h-34.047v-1.923H152.7zM168.444 95.975h-33.12v-1.923h33.12zM133.714 95.975H113.56v-1.923h20.155zM144.828 81.568h-23.86v-1.923h23.86zM133.251 67.815h-13.826v-1.923h13.826zM139.387 71.199h-6.726v-1.923h6.726zM161.344 71.199h-9.35v-1.923h9.35zM208.687 71.199h-34.82v-1.923h34.82zM172.09 74.582h-22.779V72.66h22.78zM194.685 74.582h-19.847V72.66h19.847zM161.344 81.568h-12.9v-1.923h12.9zM208.687 85.17h-17.84v-1.923h17.84zM188.966 85.17H154.92v-1.923h34.047zM208.687 95.975H189.81v-1.923h18.876zM80.44 31.034H30.648v-2.64H80.44zM104.475 40.209h-11.68v-2.641h11.68zM95.162 30.913H82.917v-2.641h12.245zM104.475 30.913h-7.512v-2.641h7.512zM67.018 35.561h-7.512V32.92h7.512zM45.1 35.561h-7.512V32.92H45.1zM25.033 35.561h-7.511V32.92h7.511zM29.04 30.913H15.213v-2.641H29.04zM35.176 35.561h-6.727V32.92h6.727zM57.133 35.561h-9.35V32.92h9.35zM104.475 35.561H69.656V32.92h34.82zM67.879 40.209h-22.78v-2.641h22.78zM90.473 40.209H70.627v-2.641h19.846zM89.514 64.407H52.737v-1.922h36.777zM59.922 67.903H29.039v-1.922h30.883zM102.788 78.075H78.431v-1.923h24.357zM90.946 92.482H41.154V90.56h49.792zM64.517 99.577h-13.72v-1.923h13.72zM102.866 74.582h-11.68V72.66h11.68zM44.93 85.17H30.37v-1.923h14.56zM23.939 85.17H8.915v-1.923h15.024zM50.796 99.577H38.551v-1.923h12.245zM102.866 92.482H92.73V90.56h10.136zM95.354 67.815H81.308v-1.923h14.046zM40.609 74.582H28.364V72.66h12.245zM26.095 99.577H13.85v-1.923h12.245z"/>
		<path fill="#d8d8d8" d="M102.866 67.815h-7.512v-1.923h7.512zM69.428 71.199h-9.886v-1.923h9.886zM47.51 71.199h-9.925v-1.923h9.924zM27.443 71.199H19.93v-1.923h7.512zM39.323 92.482H31.81V90.56h7.512zM36.39 99.577h-7.512v-1.923h7.512zM30.061 92.482H22.55V90.56h7.511zM72.2 95.975h-7.51v-1.923h7.51zM30.37 85.17h-7.512v-1.923h7.512zM102.866 81.568h-7.512v-1.923h7.512zM82.388 95.975H72.201v-1.923h10.187zM93.495 81.568H71.873v-1.923h21.622zM76.438 78.075H54.585v-1.923h21.853zM39.47 95.975h-9.968v-1.923h9.968zM27.893 95.975H7.738v-1.923h20.155zM55.06 81.568H31.2v-1.923h23.86zM27.43 67.815H13.604v-1.923H27.43z"/>
		<path fill="#d8d8d8" d="M37.585 71.199H30.86v-1.923h6.726zM59.542 71.199h-9.35v-1.923h9.35zM102.866 71.199H82.325v-1.923h20.541zM66.27 74.582H43.49V72.66h22.78zM88.864 74.582H69.018V72.66h19.846zM69.647 81.568h-12.9v-1.923h12.9zM102.866 85.17h-19.72v-1.923h19.72zM83.146 85.17H70.708v-1.923h12.438zM102.866 95.975H83.99v-1.923h18.876zM102.86 64.322H91.182V62.4h11.68zM80.013 67.815h-9.886v-1.923h9.886zM70.127 67.815h-9.35v-1.923h9.35zM68.433 85.17h-12.9v-1.923h12.9zM53.986 85.17h-7.512v-1.923h7.512zM29.38 81.568H14.629v-1.923H29.38zM102.931 99.577H82.776v-1.923h20.155zM79.604 99.577H67.36v-1.923h12.245zM62.934 95.975H50.689v-1.923h12.245zM49.145 95.975h-7.512v-1.923h7.512z"/>
		<path fill="#9babc7" d="M102.706 61.249H53.21v-5.01h49.496z"/>
		<g>
			<path d="M95.5210478 57.5769509l-.53651781 1.45884618h1.07705448zm-.22304673-.38781999h.45011232l1.11523365 2.92974894h-.41193315l-.26725419-.75152682h-1.32019551l-.26725419.75152682h-.41796144z" font-size="2"/>
			<path d="M97.9926467 58.08734612l-.42800859 1.1654694h.86204547zm-.17682984-.31347108h.35767854l.89419635 2.34500481h-.32954652l-.21299958-.602829h-1.05696018l-.21299958.602829h-.33557481z" font-size="1.6"/>
			<path d="M100.00810499 58.42493036l-.35767854.97256412h.71736651zm-.14869782-.2612259h.30342393l.7434891 1.95517539h-.27529191l-.17883927-.5023575h-.88013034l-.17682984.5023575h-.27931077z" font-size="1.333"/>
			<path d="M88.71309896 58.32244943q.17883927 0 .27127305-.0803772.09243378-.07635834.09243378-.22907502t-.09243378-.23108445q-.09243378-.0803772-.27127305-.0803772h-.41796144v.62091387zm.02612259 1.28201634q.22706559 0 .3416031-.09645264.11453751-.09645264.11453751-.29136735 0-.18888642-.11252808-.28332963-.11453751-.09645264-.34361253-.09645264h-.44408403v.76760226zm.7033005-1.05495075q.2411316.07033005.37576341.2612259.13262238.19089585.13262238.46819719 0 .4219803-.28533906.63096102-.28734849.20898072-.87209262.20898072h-1.25388432v-2.92974894h1.13331852q.61086672 0 .8841492.18285813.27529191.18486756.27529191.59077242 0 .21500901-.1004715.36571626-.1004715.14869782-.29136735.2210373z"/>
			<path d="M82.5602243 57.18913091h.401886l-.57268755 2.92974894h-.39786714z"/>
		</g>
		<path fill="#f1f1f1" d="M1.923 56.117l.01 47.164-1.923.005L0 56.122z"/>
		<path fill="silver" d="M1.968 62.866l.01 7.036H.055l-.01-7.035z"/>
		<path fill="#f1f1f1" d="M109.332 56.064l.01 47.164-1.922.005-.01-47.164z"/>
		<path fill="silver" d="M109.378 62.813l.01 7.036h-1.923l-.01-7.035z"/>
		<g fill="silver" fill-rule="evenodd" stroke="#000">
			<path stroke-width=".42904200000000003" d="M53.8406263 75.4217749v3.3275627"/>
			<path stroke-width=".25282388" d="M53.28206336 75.38017648l1.11277328.00211412M53.28206336 78.82339398l1.11277328.00211412"/>
		</g>
		<path fill="#d8d8d8" d="M80.857 71.2h-9.476v-1.923h9.476z"/>
		<path fill="silver" d="M107.575 57.412l1.696-.003-.851-1.152zM.104 57.417l1.696-.003-.852-1.152zM107.557 101.926l1.696.003-.852 1.152zM.106 101.965l1.696.003-.852 1.151z"/>
		<g>
			<path d="M35.11935834 22.36440438h1.81652472v.32552766h-1.4266953v.84998889h1.3664124v.32753709h-1.3664124v1.04088474h1.46085561v.32753709h-1.8486756zM39.01363368 23.40729855v-1.1654694h.35365968v2.9940507h-.35365968v-.32351823q-.11051865.19089585-.2813202.28533906-.17080155.09243378-.40992372.09243378-.38982942 0-.63497988-.31146165t-.24515046-.81783801q0-.50838579.24515046-.81984744.24515046-.31146165.63497988-.31146165.2411316 0 .40791429.09444321.17281098.09243378.28332963.28332963zm-1.205658.75353625q0 .38982942.1607544.61287615.1607544.2210373.4420746.2210373t.4420746-.2210373q.1607544-.22304673.1607544-.61287615 0-.39183885-.1607544-.61287615-.1607544-.2210373-.4420746-.2210373t-.4420746.2210373q-.1607544.2210373-.1607544.61287615zM40.09671645 23.08177089h.35365968v2.15410896h-.35365968zm0-.83994174h.35365968v.44810289h-.35365968zM41.53948719 22.46889474v.61287615h.72741366v.27529191h-.72741366v1.16747883q0 .26323533.07033005.33959367.07233948.07434891.29337678.07434891h.36370683v.29739564h-.3616974q-.40992372 0-.56665926-.15271668-.15472611-.15472611-.15472611-.55862154V23.3570628h-.2612259v-.27529191h.2612259v-.61287615zM43.56901149 23.32893078q-.28332963 0-.45011232.22304673-.16477326.2210373-.16477326.60885729 0 .38581056.16276383.60885729.16678269.2210373.45212175.2210373.2813202 0 .44810289-.22304673.16678269-.22304673.16678269-.60684786 0-.3817917-.16678269-.60684786-.16477326-.22505616-.44810289-.22505616zm0-.3014145q.4621689 0 .72540423.3014145t.26323533.83190402q0 .52848009-.2612259.82989459-.26524476.3014145-.72741366.3014145-.4621689 0-.72540423-.3014145-.2612259-.3014145-.2612259-.82989459 0-.53249895.2612259-.83190402.2612259-.3014145.72540423-.3014145zM46.39025121 23.41131741q-.0602829-.03416031-.13061295-.05023575-.06832062-.01607544-.15271668-.01607544-.3014145 0-.4621689.19491471-.1607544.19491471-.1607544.56063097v1.13532795h-.35365968v-2.15410896h.35566911v.33356538q.11252808-.19491471.29136735-.28935792.17883927-.09645264.43403688-.09645264.03616974 0 .0803772.00602829l.1004715.01205658zM47.81292765 23.08177089h.35566911l.4420746 1.67988348.44006517-1.67988348h.41595201l.4420746 1.67988348.4420746-1.67988348h.35365968l-.5626404 2.15410896h-.41796144l-.4621689-1.76628897-.46618776 1.76628897h-.41796144zM51.24302466 23.08177089h.35365968v2.15410896h-.35365968zm0-.83994174h.35365968v.44810289h-.35365968zM52.6857954 22.46889474v.61287615h.72741366v.27529191h-.72741366v1.16747883q0 .26323533.07033005.33959367.07233948.07434891.29337678.07434891h.36370683v.29739564h-.3616974q-.40992372 0-.56665926-.15271668-.15472611-.15472611-.15472611-.55862154V23.3570628h-.2612259v-.27529191h.2612259v-.61287615zM55.67180838 23.93577864v1.30010121h-.35365968v-1.29005406q0-.30543336-.1205658-.45614061-.11855637-.15271668-.35767854-.15271668-.28533906 0-.45011232.1808487-.16678269.18486756-.16678269.50034807v1.21771458h-.35566911v-2.9940507h.35566911v1.17350712q.12659409-.19290528.29940507-.28935792.17281098-.09645264.39786714-.09645264.36973512 0 .5626404.23108445.18888642.22907502.18888642.67516848zM57.38183331 23.08177089h.37375398l.67315905 1.808487.67315905-1.808487h.37576341l-.80779086 2.15410896h-.4822632zM61.8086076 24.07041045v.17080155h-1.6276383q.02411316.36571626.2210373.55661211.19692414.19089585.54857439.19089585.20295243 0 .39384828-.05023575.19290528-.05023575.3817917-.15070725v.33557481q-.19089585.0803772-.39183885.12257523t-.40590486.04219803q-.51441408 0-.81582858-.29940507-.3014145-.3014145-.3014145-.81180972 0-.52848009.28533906-.83793231.28734849-.31146165.77162112-.31146165.43403688 0 .68521563.2813202.25519761.27730134.25519761.75956454zm-.35365968-.10449036q-.00401886-.29136735-.16477326-.4621689-.15673554-.17482041-.41796144-.17482041-.29739564 0-.47623491.16678269-.17682984.16879212-.20295243.47221605zM63.6371889 23.41131741q-.0602829-.03416031-.13061295-.05023575t-.15472611-.01607544q-.3014145 0-.4621689.19491471-.15874497.19491471-.15874497.56063097v1.13532795h-.35566911v-2.15410896h.35566911v.33356538q.11252808-.19491471.29136735-.28935792.17883927-.09645264.43403688-.09645264.03616974 0 .0803772.00602829l.09846207.01205658zM65.385393 23.14406322v.33557481q-.15070725-.07836777-.31146165-.11654694t-.33557481-.03817917q-.2612259 0-.39585771.0803772-.13061295.0803772-.13061295.24314103 0 .12257523.09444321.19491471.09444321.06832062.37777284.13262238l.1205658.02612259q.37777284.0803772.53651781.22907502.1607544.14668839.1607544.40992372 0 .3014145-.2411316.47422548-.23510331.17482041-.65105532.17482041-.17281098 0-.3616974-.03416031-.18687699-.03215088-.39384828-.1004715v-.36571626q.19692414.10248093.38581056.15472611.19089585.05023575.37777284.05023575.24916932 0 .38380113-.08439606.13463181-.08640549.13463181-.2411316 0-.14668839-.09645264-.2210373-.09645264-.0803772-.42599916-.15070725l-.12257523-.02813202q-.32954652-.06832062-.47623491-.21099015-.14467896-.14467896-.14467896-.39384828 0-.30543336.21500901-.47020662.21500901-.16477326.61086672-.16477326.19692414 0 .36973512.02813202.17281098.03014145.31949937.08640549zM66.06658977 23.08177089h.35365968v2.15410896h-.35365968zm0-.83994174h.35365968v.44810289h-.35365968zM67.99363314 23.32893078q-.28533906 0-.45011232.22304673-.16678269.2210373-.16678269.60885729 0 .38581056.16477326.60885729.16477326.2210373.45212175.2210373.2813202 0 .44810289-.22304673.16477326-.22304673.16477326-.60684786 0-.3817917-.16477326-.60684786-.16678269-.22505616-.44810289-.22505616zm0-.3014145q.4621689 0 .7233948.3014145.26323533.3014145.26323533.83190402 0 .52848009-.2612259.82989459-.26524476.3014145-.72540423.3014145-.46417833 0-.72741366-.3014145-.2612259-.3014145-.2612259-.82989459 0-.53249895.2612259-.83190402.2612259-.3014145.72741366-.3014145zM71.35540953 23.93577864v1.30010121h-.35365968v-1.29005406q0-.30543336-.11855637-.45614061-.1205658-.15271668-.35767854-.15271668-.28734849 0-.45212175.1808487-.16477326.18486756-.16477326.50034807v1.21771458h-.35566911v-2.15410896h.35566911v.33356538q.12659409-.19290528.29739564-.28935792.17281098-.09645264.39786714-.09645264.37174455 0 .5626404.23108445.18888642.22907502.18888642.67516848zM73.67027289 22.46889474v.61287615h.72741366v.27529191h-.72741366v1.16747883q0 .26323533.07033005.33959367.07233948.07434891.29538621.07434891h.3616974v.29739564h-.3616974q-.40992372 0-.56665926-.15271668-.15472611-.15472611-.15472611-.55862154V23.3570628h-.2612259v-.27529191h.2612259v-.61287615zM75.69979719 23.32893078q-.28332963 0-.45011232.22304673-.16477326.2210373-.16477326.60885729 0 .38581056.16276383.60885729.16678269.2210373.45212175.2210373.28332963 0 .44810289-.22304673.16678269-.22304673.16678269-.60684786 0-.3817917-.16678269-.60684786-.16477326-.22505616-.44810289-.22505616zm0-.3014145q.4621689 0 .72540423.3014145t.26323533.83190402q0 .52848009-.2612259.82989459-.26524476.3014145-.72741366.3014145-.4621689 0-.72540423-.3014145-.2612259-.3014145-.2612259-.82989459 0-.53249895.2612259-.83190402.2612259-.3014145.72540423-.3014145zM80.0743263 24.1608348q0-.39183885-.1607544-.61287615-.1607544-.2210373-.4420746-.2210373t-.4420746.2210373q-.1607544.2210373-.1607544.61287615 0 .38982942.1607544.61287615.1607544.2210373.4420746.2210373t.4420746-.2210373q.1607544-.22304673.1607544-.61287615zm-1.205658-.75353625q.11252808-.19089585.2813202-.28332963.17080155-.09444321.40791429-.09444321.39183885 0 .63698931.31146165t.24515046.81984744q0 .50637636-.24515046.81783801-.24515046.31146165-.63698931.31146165-.23711274 0-.40791429-.09243378-.16879212-.09444321-.2813202-.28533906v.3215088h-.35566911v-2.99003184h.35767854zM82.86944343 24.07041045v.17080155h-1.6276383q.02411316.36571626.2210373.55661211.19692414.19089585.54857439.19089585.20496186 0 .39585771-.05023575.19089585-.05023575.37978227-.15070725v.33557481q-.19089585.0803772-.38982942.12257523-.200943.04219803-.40590486.04219803-.51642351 0-.81783801-.29940507-.3014145-.3014145-.3014145-.81180972 0-.52848009.28533906-.83793231.28734849-.31146165.77162112-.31146165.43403688 0 .68722506.2813202.25318818.27730134.25318818.75956454zm-.35365968-.10449036q-.00401886-.29136735-.16276383-.4621689-.15874497-.17482041-.41997087-.17482041-.29538621 0-.47422548.16678269-.17682984.16879212-.20496186.47221605zM85.01551467 24.91236162v1.14135624h-.35566911v-2.9739564h.35566911v.32753709q.11051865-.19089585.2813202-.28332963.17080155-.09444321.40590486-.09444321.39384828 0 .63698931.31146165.24715989.31146165.24715989.81984744 0 .50637636-.24715989.81783801-.24314103.31146165-.63698931.31146165-.23510331 0-.40791429-.09243378-.16879212-.09444321-.2813202-.28533906zm1.20364857-.75152682q0-.39183885-.1607544-.61287615-.1607544-.2210373-.4420746-.2210373t-.4420746.2210373q-.1607544.2210373-.1607544.61287615 0 .38982942.1607544.61287615.1607544.2210373.4420746.2210373t.4420746-.2210373q.1607544-.22304673.1607544-.61287615zM87.13546332 24.38589096v-1.3061295h.35365968v1.29206349q0 .30543336.1205658.46015947.1205658.15070725.35767854.15070725.28533906 0 .45212175-.1808487.16678269-.18486756.16678269-.50034807v-1.21972401h.35365968v2.15410896h-.35365968v-.33155595q-.12860352.19692414-.3014145.29136735-.16879212.09444321-.39384828.09444321-.36973512 0-.5626404-.23108445-.19290528-.22907502-.19290528-.67315905zm.89017749-1.35636525zM91.21862508 24.1608348q0-.39183885-.1607544-.61287615-.1607544-.2210373-.4420746-.2210373t-.4420746.2210373q-.15874497.2210373-.15874497.61287615 0 .38982942.1607544.61287615.1607544.2210373.4420746.2210373t.44006517-.2210373q.1607544-.22304673.1607544-.61287615zm-1.20364857-.75353625q.11252808-.19089585.2813202-.28332963.17080155-.09444321.40791429-.09444321.39183885 0 .63497988.31146165.24715989.31146165.24715989.81984744 0 .50637636-.24715989.81783801-.24314103.31146165-.63497988.31146165-.23711274 0-.40791429-.09243378-.16879212-.09444321-.2813202-.28533906v.3215088h-.35566911v-2.99003184h.35566911zM92.1710949 22.24182915h.35566911v2.9940507h-.35365968zM93.26422482 23.08177089h.35365968v2.15410896h-.35365968zm0-.83994174h.35365968v.44810289h-.35365968zM95.72979543 23.14406322v.33557481q-.14869782-.07836777-.31146165-.11654694-.1607544-.03817917-.33356538-.03817917-.26323533 0-.39585771.0803772-.13061295.0803772-.13061295.24314103 0 .12257523.09243378.19491471.09444321.06832062.37978227.13262238l.1205658.02612259q.37777284.0803772.53450838.22907502.1607544.14668839.1607544.40992372 0 .3014145-.23912217.47422548-.23711274.17482041-.65105532.17482041-.17482041 0-.3616974-.03416031-.18687699-.03215088-.39585771-.1004715v-.36571626q.19692414.10248093.38781999.15472611.19089585.05023575.37576341.05023575.25117875 0 .38581056-.08439606.13463181-.08640549.13463181-.2411316 0-.14668839-.09846207-.2210373-.09645264-.0803772-.42398973-.15070725l-.12458466-.02813202q-.32753709-.06832062-.47422548-.21099015-.14668839-.14467896-.14668839-.39384828 0-.30543336.21500901-.47020662.21701844-.16477326.61287615-.16477326.19491471 0 .36772569.02813202.17482041.03014145.3215088.08640549zM98.20139433 23.93577864v1.30010121h-.35365968v-1.29005406q0-.30543336-.1205658-.45614061-.11855637-.15271668-.35566911-.15271668-.28734849 0-.45212175.1808487-.16678269.18486756-.16678269.50034807v1.21771458h-.35566911v-2.9940507h.35566911v1.17350712q.12860352-.19290528.29940507-.28935792.17281098-.09645264.39786714-.09645264.37174455 0 .5626404.23108445.18888642.22907502.18888642.67516848zM100.75337043 24.07041045v.17080155h-1.6276383q.02411316.36571626.2210373.55661211.19692414.19089585.54857439.19089585.20496186 0 .39384828-.05023575.19290528-.05023575.3817917-.15070725v.33557481q-.19089585.0803772-.38982942.12257523-.200943.04219803-.40590486.04219803-.51642351 0-.81783801-.29940507-.3014145-.3014145-.3014145-.81180972 0-.52848009.28533906-.83793231.28734849-.31146165.77162112-.31146165.43403688 0 .68722506.2813202.25318818.27730134.25318818.75956454zm-.35365968-.10449036q-.00401886-.29136735-.16276383-.4621689-.15874497-.17482041-.41997087-.17482041-.29538621 0-.47422548.16678269-.17682984.16879212-.20496186.47221605zM102.75074385 23.40729855v-1.1654694h.35566911v2.9940507h-.35566911v-.32351823q-.11051865.19089585-.2813202.28533906-.16879212.09243378-.40791429.09243378-.38982942 0-.63698931-.31146165-.24314103-.31146165-.24314103-.81783801 0-.50838579.24314103-.81984744.24715989-.31146165.63698931-.31146165.23912217 0 .40791429.09444321.17080155.09243378.2813202.28332963zm-1.205658.75353625q0 .38982942.1607544.61287615.1607544.2210373.4420746.2210373t.4420746-.2210373q.1607544-.22304673.1607544-.61287615 0-.39183885-.1607544-.61287615-.1607544-.2210373-.4420746-.2210373t-.4420746.2210373q-.1607544.2210373-.1607544.61287615z"/>
		</g>
		<g>
			<path d="M171.660848 22.681856v.439824q-.211288-.196196-.450604-.293216-.23716-.09702-.504504-.09702-.52822 0-.8085.3234t-.28028.933548q0 .607992.28028.931392t.8085.3234q.267344 0 .504504-.099176.239316-.09702.450604-.29106v.433356q-.217756.15092-.46354.224224-.243628.073304-.51744.073304-.698544 0-1.09956-.426888-.403172-.429044-.403172-1.168552 0-.74382.401016-1.170708.403172-.4312 1.101716-.4312.278124 0 .521752.07546.243628.073304.459228.219912zM173.187296 23.479576q-.303996 0-.482944.239316-.176792.23716-.176792.653268 0 .413952.174636.653268.178948.23716.4851.23716.30184 0 .480788-.239316t.178948-.651112q0-.40964-.178948-.651112-.176792-.241472-.480788-.241472zm0-.3234q.49588 0 .778316.3234t.282436.892584q0 .567028-.282436.890428t-.77616.3234q-.498036 0-.782628-.3234-.28028-.3234-.28028-.890428 0-.57134.28028-.892584.284592-.3234.780472-.3234zM176.79644 24.130688v1.394932h-.379456v-1.384152q0-.327712-.12936-.489412-.127204-.163856-.381612-.163856-.308308 0-.4851.19404-.178948.198352-.178948.536844v1.306536h-.381612v-2.311232h.381612v.357896q.137984-.206976.321244-.310464.185416-.103488.426888-.103488.39886 0 .60368.24794.202664.245784.202664.724416zM178.37032 22.31318h1.05644v3.21244h-.383768v-2.895508h-.67914q-.202664 0-.284592.081928-.077616.081928-.077616.297528v.20482h.62524v.295372h-.62524v2.01586h-.381612v-2.01586h-.364364v-.295372h.364364v-.1617q0-.385924.178948-.56056.178948-.178948.569184-.178948zM180.22448 23.214388h.379456v2.311232h-.379456zm0-.901208h.379456v.480788h-.379456zM183.05962 23.302784v.353584q-.1617-.08624-.3234-.12936-.1617-.047432-.327712-.047432-.368676 0-.573496.23716-.20482.230692-.20482.655424 0 .422576.20482.65758.20482.232848.573496.232848.166012 0 .325556-.04312.163856-.045276.3234-.133672v.349272q-.157388.07546-.327712.112112-.170324.036652-.362208.036652-.521752 0-.83006-.327712-.306152-.327712-.306152-.88396 0-.567028.308308-.890428.31262-.3234.853776-.3234.17248 0 .340648.036652.168168.034496.3234.1078zM184.098812 22.556808v.65758h.782628v.295372h-.782628v1.252636q0 .282436.07546.364364.079772.079772.316932.079772h.38808v.319088h-.38808q-.439824 0-.607992-.163856-.166012-.166012-.166012-.601524v-1.25048h-.28028v-.295372h.28028v-.65758zM185.381632 23.214388h.379456v2.311232h-.379456zm0-.901208h.379456v.480788h-.379456zM188.475492 24.130688v1.394932h-.381612v-1.384152q0-.327712-.12936-.489412-.127204-.163856-.383768-.163856-.306152 0-.482944.19404-.178948.198352-.178948.536844v1.306536h-.3773v-2.311232h.381612v.357896q.135828-.206976.321244-.310464.185416-.103488.426888-.103488.396704 0 .60368.24794.202664.245784.202664.724416zM190.75654 24.341976q0-.411796-.17248-.640332-.168168-.22638-.47432-.22638t-.476476.22638q-.170324.228536-.170324.640332 0 .40964.170324.638176.17248.22638.47432.22638.308308 0 .478632-.22638.17248-.22638.17248-.638176zm.379456.896896q0 .588588-.260876.875336-.263032.288904-.802032.288904-.200508 0-.379456-.030184-.176792-.030184-.34496-.090552v-.370832q.168168.092708.332024.135828.1617.04312.332024.04312.372988 0 .56056-.196196.18326-.19404.18326-.588588v-.187572q-.116424.20482-.30184.306152-.18326.101332-.437668.101332-.424732 0-.685608-.3234-.25872-.325556-.25872-.860244 0-.536844.25872-.860244t.685608-.3234q.254408 0 .439824.101332.18326.101332.30184.303996v-.349272h.3773zM194.9284 23.302784v.353584q-.1617-.08624-.3234-.12936-.1617-.047432-.327712-.047432-.368676 0-.573496.23716-.20482.230692-.20482.655424 0 .422576.20482.65758.20482.232848.573496.232848.166012 0 .325556-.04312.163856-.045276.3234-.133672v.349272q-.157388.07546-.329868.112112-.168168.036652-.360052.036652-.521752 0-.83006-.327712-.306152-.327712-.306152-.88396 0-.567028.308308-.890428.31262-.3234.85162-.3234.176792 0 .34496.036652.166012.034496.3234.1078zM197.513444 24.130688v1.394932h-.379456v-1.384152q0-.327712-.12936-.489412-.12936-.163856-.383768-.163856-.306152 0-.4851.19404-.176792.198352-.176792.536844v1.306536h-.381612v-3.21244h.381612v1.259104q.135828-.206976.319088-.310464.185416-.103488.426888-.103488.39886 0 .60368.24794.20482.245784.20482.724416zM199.324484 24.363536q-.459228 0-.638176.105644-.176792.103488-.176792.357896 0 .202664.131516.3234.133672.116424.364364.116424.314776 0 .504504-.222068.19404-.22638.19404-.597212v-.08624zm.756756-.157388v1.319472h-.379456v-.351428q-.12936.209132-.3234.310464-.19404.099176-.47432.099176-.35574 0-.567028-.198352-.206976-.198352-.206976-.532532 0-.390236.25872-.588588.263032-.198352.780472-.198352h.532532V24.0272q0-.263032-.17248-.405328-.17248-.144452-.482944-.144452-.198352 0-.38808.047432-.185416.047432-.360052.142296v-.351428q.209132-.079772.405328-.11858.19404-.04312.381612-.04312.500192 0 .748132.260876.24794.260876.24794.789096zM202.78702 24.130688v1.394932h-.379456v-1.384152q0-.327712-.12936-.489412-.127204-.163856-.383768-.163856-.306152 0-.482944.19404-.178948.198352-.178948.536844v1.306536h-.381612v-2.311232h.381612v.357896q.135828-.206976.321244-.310464.185416-.103488.426888-.103488.396704 0 .60368.24794.202664.245784.202664.724416zM205.068068 24.341976q0-.411796-.17248-.640332-.168168-.22638-.47432-.22638t-.476476.22638q-.170324.228536-.170324.640332 0 .40964.170324.638176.17248.22638.47432.22638.308308 0 .478632-.22638.17248-.22638.17248-.638176zm.379456.896896q0 .588588-.260876.875336-.263032.288904-.802032.288904-.200508 0-.379456-.030184-.176792-.030184-.34496-.090552v-.370832q.168168.092708.332024.135828.1617.04312.332024.04312.372988 0 .56056-.196196.18326-.19404.18326-.588588v-.187572q-.116424.20482-.30184.306152-.18326.101332-.437668.101332-.424732 0-.685608-.3234-.25872-.325556-.25872-.860244 0-.536844.25872-.860244t.685608-.3234q.254408 0 .439824.101332.18326.101332.30184.303996v-.349272h.3773zM208.207204 24.27514v.18326h-1.74636q.025872.392392.23716.597212.211288.20482.588588.20482.219912 0 .422576-.0539.206976-.0539.40964-.1617v.360052q-.20482.08624-.418264.131516-.2156.045276-.435512.045276-.554092 0-.877492-.321244-.3234-.3234-.3234-.871024 0-.567028.306152-.899052.308308-.33418.827904-.33418.465696 0 .737352.30184.271656.297528.271656.814968zm-.379456-.112112q-.004312-.31262-.174636-.49588-.170324-.187572-.45276-.187572-.314776 0-.50666.178948-.191884.181104-.219912.50666zM210.302836 23.281224v.360052q-.159544-.084084-.33418-.125048-.17248-.040964-.357896-.040964-.282436 0-.424732.08624-.14014.08624-.14014.260876 0 .131516.099176.209132.101332.073304.407484.142296l.12936.028028q.405328.08624.573496.245784.17248.157388.17248.439824 0 .3234-.256564.508816-.254408.187572-.698544.187572-.187572 0-.38808-.036652-.200508-.034496-.422576-.1078v-.392392q.209132.109956.413952.166012.20482.0539.403172.0539.2695 0 .413952-.090552.144452-.092708.144452-.25872 0-.157388-.105644-.23716-.103488-.08624-.454916-.1617l-.133672-.030184q-.351428-.073304-.508816-.22638-.157388-.155232-.157388-.422576 0-.327712.230692-.504504.232848-.176792.65758-.176792.209132 0 .394548.030184.187572.03234.34496.092708z"/>
		</g>
		<path fill="#a4c2cd" d="M205.378 37.9h-17.98v-3.446h17.98z"/>
		<path fill="#ead97f" d="M205.456 43.002h-13.45v-3.298h13.45z"/>
		<circle cx="-208.128" cy="35.986" r=".761" transform="scale(-1 1)"/>
		<circle cx="-208.128" cy="41.339" r=".761" transform="scale(-1 1)"/>
		<path fill="#d8d8d8" d="M209.555 31.57h-15.73v-2.88h15.73zM192.246 31.6h-7.209v-2.88h7.209zM183.21 31.602h-10.867v-2.88h10.867z"/>
		<path fill="#fff" d="M170.325 57.747h.46v1.439h-.46zm0-.56h.46v.375h-.46zM172.675 58.31v.876h-.462v-.671q0-.186-.01-.256-.007-.071-.028-.104-.027-.045-.073-.07-.046-.025-.105-.025-.144 0-.226.111-.082.11-.082.307v.708h-.46v-1.439h.46v.211q.104-.126.22-.185.117-.06.259-.06.249 0 .377.153.13.152.13.444zM175.007 58.225q0-.36-.068-.506-.067-.148-.226-.148-.16 0-.227.148-.068.147-.068.506 0 .364.068.513.068.149.227.149.158 0 .226-.15.068-.148.068-.512zm.495.004q0 .477-.206.736-.205.258-.583.258-.379 0-.584-.258-.206-.26-.206-.736 0-.478.206-.736.205-.26.584-.26.378 0 .583.26.206.258.206.736zM175.92 57.747h.464v.497h-.464zm0 .942h.464v.497h-.464zM177.889 58.225q0-.36-.068-.506-.067-.148-.226-.148-.16 0-.227.148-.069.147-.069.506 0 .364.069.513.068.149.227.149.158 0 .226-.15.068-.148.068-.512zm.494.004q0 .477-.205.736-.206.258-.583.258-.379 0-.584-.258-.206-.26-.206-.736 0-.478.206-.736.205-.26.584-.26.377 0 .583.26.205.258.205.736zM178.802 57.747h.464v.497h-.464zm0 .942h.464v.497h-.464zM180.77 58.225q0-.36-.067-.506-.067-.148-.226-.148-.16 0-.228.148-.068.147-.068.506 0 .364.068.513.068.149.228.149.158 0 .226-.15.068-.148.068-.512zm.495.004q0 .477-.205.736-.206.258-.583.258-.38 0-.585-.258-.205-.26-.205-.736 0-.478.205-.736.206-.26.585-.26.377 0 .583.26.205.258.205.736zM181.684 57.747h.463v.497h-.463zm0 .942h.463v.497h-.463zM183.653 58.225q0-.36-.068-.506-.067-.148-.227-.148-.159 0-.227.148-.068.147-.068.506 0 .364.068.513.068.149.227.149.158 0 .227-.15.068-.148.068-.512zm.494.004q0 .477-.205.736-.206.258-.583.258-.38 0-.585-.258-.205-.26-.205-.736 0-.478.205-.736.206-.26.585-.26.377 0 .583.26.205.258.205.736zM184.566 57.747h.463v.497h-.463zm0 .942h.463v.497h-.463zM186.534 58.225q0-.36-.068-.506-.066-.148-.226-.148-.159 0-.227.148-.068.147-.068.506 0 .364.068.513.068.149.227.149.158 0 .226-.15.068-.148.068-.512zm.495.004q0 .477-.206.736-.205.258-.583.258-.379 0-.584-.258-.205-.26-.205-.736 0-.478.205-.736.205-.26.584-.26.378 0 .583.26.206.258.206.736zM187.447 57.747h.464v.497h-.464zm0 .942h.464v.497h-.464zM189.416 58.225q0-.36-.068-.506-.067-.148-.226-.148-.16 0-.227.148-.068.147-.068.506 0 .364.068.513.068.149.227.149.158 0 .226-.15.068-.148.068-.512zm.495.004q0 .477-.206.736-.205.258-.583.258-.379 0-.584-.258-.206-.26-.206-.736 0-.478.206-.736.205-.26.584-.26.378 0 .583.26.206.258.206.736zM190.33 57.747h.463v.497h-.464zm0 .942h.463v.497h-.464zM192.298 58.225q0-.36-.068-.506-.067-.148-.226-.148-.16 0-.227.148-.068.147-.068.506 0 .364.068.513.068.149.227.149.158 0 .226-.15.068-.148.068-.512zm.494.004q0 .477-.205.736-.205.258-.583.258-.379 0-.584-.258-.206-.26-.206-.736 0-.478.206-.736.205-.26.584-.26.378 0 .583.26.205.258.205.736zM193.211 57.747h.464v.497h-.464zm0 .942h.464v.497h-.464zM194.278 58.844h.437v-1.24l-.448.093v-.336l.445-.093h.47v1.576h.437v.342h-1.34zM196.354 57.268v.713h-.305v-.713zM197.95 57.792v.35q-.148-.062-.285-.093-.138-.03-.26-.03-.13 0-.195.033-.063.032-.063.1 0 .055.048.085.049.03.173.043l.081.012q.353.045.475.148.122.102.122.322 0 .23-.17.345-.169.116-.505.116-.143 0-.296-.023-.151-.022-.312-.067v-.35q.138.067.282.1.145.034.294.034.134 0 .203-.037.068-.037.068-.11 0-.062-.048-.092-.046-.03-.186-.047l-.08-.01q-.308-.039-.431-.143-.123-.104-.123-.316 0-.229.156-.339.157-.11.48-.11.128 0 .268.019.14.02.304.06zM199.126 57.747h.46l.358.994.357-.994h.461l-.566 1.439h-.505zM202.459 58.463v.13h-1.075q.017.163.117.243.1.081.28.081.145 0 .296-.042.153-.044.314-.131v.354q-.163.062-.326.093-.163.032-.327.032-.39 0-.607-.198-.216-.199-.216-.557 0-.352.212-.554.213-.201.586-.201.339 0 .542.204.204.204.204.546zm-.473-.153q0-.131-.077-.21-.076-.082-.199-.082-.133 0-.217.076-.083.075-.104.216zM203.874 58.14q-.06-.03-.12-.042-.06-.014-.12-.014-.177 0-.274.114-.095.113-.095.325v.663h-.46v-1.439h.46v.237q.089-.142.203-.206.116-.065.276-.065l.05.002.079.008zM205.229 57.792v.35q-.148-.062-.285-.093-.138-.03-.26-.03-.13 0-.195.033-.063.032-.063.1 0 .055.048.085.049.03.173.043l.081.012q.353.045.475.148.122.102.122.322 0 .23-.17.345-.169.116-.505.116-.143 0-.296-.023-.151-.022-.312-.067v-.35q.138.067.282.1.145.034.294.034.135 0 .203-.037t.068-.11q0-.062-.048-.092-.046-.03-.186-.047l-.08-.01q-.308-.039-.431-.143-.123-.104-.123-.316 0-.229.156-.339.157-.11.48-.11.128 0 .268.019.14.02.304.06zM205.672 57.747h.46v1.439h-.46zm0-.56h.46v.375h-.46zM207.26 58.042q-.152 0-.233.11-.08.11-.08.316 0 .207.08.317.08.11.234.11.15 0 .23-.11.08-.11.08-.317 0-.207-.08-.316-.08-.11-.23-.11zm0-.33q.372 0 .58.201.21.2.21.555 0 .354-.21.555-.208.2-.58.2t-.582-.2q-.21-.2-.21-.555 0-.355.21-.555.21-.2.583-.2zM209.83 58.31v.876h-.462v-.671q0-.186-.009-.256-.008-.071-.028-.104-.027-.045-.073-.07-.047-.025-.106-.025-.144 0-.226.111-.082.11-.082.307v.708h-.46v-1.439h.46v.211q.104-.126.22-.185.118-.06.26-.06.248 0 .377.153.13.152.13.444z"/>
	</g>
</svg>
