<?xml version="1.0" encoding="UTF-8" standalone="no"?>
<svg xmlns="http://www.w3.org/2000/svg" width="720.891" height="173.924" viewBox="0 0 190.73563 46.017281" id="svg8681">
    <g id="layer1" transform="translate(-11.104 -17.74)">
        <g id="g9792" transform="matrix(-1.85061 0 0 1.85061 596.16 -.682)">
            <path d="M213.076 9.955h103.066V34.82H213.076z" id="rect4663-32-8-8-2" fill="#fdfcfd" stroke-width="1.015" stroke-linecap="round" stroke-linejoin="round"/>
            <path d="M215.212 19.953h100.93V34.82h-100.93z" id="rect4663-32-8-3-3" fill="#f1f1f1" stroke-width=".667" stroke-linecap="round" stroke-linejoin="round"/>
            <g transform="matrix(-1.9543 0 0 1.9543 239.348 .073)" style="line-height:1.25" id="flowRoot4530-4-1-3" font-weight="400" font-size="1.6" font-family="sans-serif" letter-spacing="0" word-spacing="0">
                <path d="M-.018 8.55v-.53h.143v.524q0 .124.049.186.048.062.145.062.117 0 .184-.074.068-.074.068-.202V8.02h.143v.875H.571V8.76q-.053.08-.122.119-.069.038-.16.038-.151 0-.23-.094-.077-.093-.077-.274zm.361-.552z" style="line-height:0" id="path10408"/>
                <path d="M1.74 8.366v.529h-.144V8.37q0-.124-.049-.186-.048-.062-.145-.062-.116 0-.184.075-.067.074-.067.202v.495h-.144V8.02h.144v.135q.052-.078.121-.117.07-.04.162-.04.15 0 .228.094.077.093.077.274z" style="line-height:0" id="path10410"/>
                <path d="M2.657 8.053v.134q-.06-.033-.122-.05-.061-.017-.124-.017-.14 0-.217.09-.077.088-.077.248t.077.249q.077.088.217.088.063 0 .124-.016.061-.017.122-.05v.132q-.06.028-.125.042-.064.014-.136.014-.198 0-.314-.124-.117-.124-.117-.335 0-.214.117-.337.118-.123.323-.123.066 0 .13.014.063.014.122.041z" style="line-height:0" id="path10412"/>
                <path d="M3.636 8.366v.529h-.143V8.37q0-.124-.049-.186-.048-.062-.145-.062-.117 0-.184.075-.067.074-.067.202v.495h-.144V7.679h.144v.476q.052-.078.121-.117.07-.04.162-.04.15 0 .228.094.077.093.077.274z" style="line-height:0" id="path10414"/>
                <path d="M4.322 8.455q-.174 0-.241.04t-.067.135q0 .077.05.122t.137.045q.12 0 .192-.085.072-.085.072-.225v-.032zm.287-.06v.5h-.144v-.133q-.049.08-.122.118-.074.037-.18.037-.134 0-.214-.075-.08-.076-.08-.202 0-.148.1-.223.099-.075.295-.075h.201v-.014q0-.1-.065-.153-.065-.055-.183-.055-.075 0-.146.018t-.137.054V8.06q.079-.03.153-.045.074-.016.145-.016.19 0 .283.099.094.098.094.298z" style="line-height:0" id="path10416"/>
                <path d="M5.633 8.366v.529H5.49V8.37q0-.124-.048-.186t-.145-.062q-.117 0-.184.075-.067.074-.067.202v.495H4.9V8.02h.145v.135q.051-.078.121-.117.07-.04.162-.04.15 0 .228.094.077.093.077.274z" style="line-height:0" id="path10418"/>
                <path d="M6.497 8.447q0-.156-.065-.242-.064-.086-.18-.086-.116 0-.18.086-.065.086-.065.242 0 .155.064.241.065.086.181.086.116 0 .18-.086.065-.086.065-.241zm.144.339q0 .223-.1.332-.098.11-.303.11-.076 0-.143-.012-.067-.011-.13-.035v-.14q.063.035.124.051.062.017.126.017.142 0 .212-.075.07-.073.07-.222V8.74q-.044.077-.114.115-.07.039-.166.039-.161 0-.26-.123-.098-.123-.098-.325 0-.203.098-.326.099-.123.26-.123.097 0 .166.039.07.038.114.115V8.02h.144z" style="line-height:0" id="path10420"/>
                <path d="M7.686 8.421v.07h-.661q.009.149.089.227.08.077.223.077.083 0 .16-.02.078-.02.155-.06v.135q-.077.033-.159.05-.08.017-.164.017-.21 0-.333-.122-.121-.122-.121-.33 0-.214.115-.34.117-.127.314-.127.176 0 .278.115.104.113.104.308zm-.144-.042q-.002-.118-.067-.188-.064-.07-.17-.07-.12 0-.193.067-.072.068-.083.192z" style="line-height:0" id="path10422"/>
                <path d="M8.497 8.152V7.68h.144v1.216h-.144v-.132q-.045.078-.115.117-.068.037-.165.037-.159 0-.259-.126-.099-.127-.099-.333 0-.206.1-.333.1-.127.258-.127.097 0 .165.039.07.037.115.115zm-.49.306q0 .158.065.249.066.09.18.09.114 0 .18-.09.065-.09.065-.25 0-.158-.065-.248-.066-.09-.18-.09-.114 0-.18.09-.065.09-.065.249z" style="line-height:0" id="path10424"/>
                <path d="M9.589 7.771v.249h.296v.111h-.296v.475q0 .107.029.138.03.03.12.03h.147v.12h-.148q-.166 0-.23-.061-.063-.063-.063-.227v-.475H9.34V8.02h.105V7.77z" style="line-height:0" id="path10426"/>
                <path d="M10.823 8.421v.07h-.66q.009.149.088.227.08.077.224.077.082 0 .16-.02t.154-.06v.135q-.077.033-.158.05t-.165.017q-.21 0-.332-.122-.122-.122-.122-.33 0-.214.116-.34.116-.127.313-.127.177 0 .279.115.103.113.103.308zm-.144-.042q-.001-.118-.066-.188-.064-.07-.17-.07-.12 0-.193.067-.072.068-.083.192z" style="line-height:0" id="path10428"/>
                <path d="M11.758 8.02l-.316.425.333.45h-.17l-.255-.344-.254.344h-.17l.34-.458-.31-.417h.169l.232.311.232-.311z" style="line-height:0" id="path10430"/>
                <path d="M12.12 7.771v.249h.296v.111h-.296v.475q0 .107.029.138.03.03.12.03h.147v.12h-.148q-.166 0-.23-.061-.063-.063-.063-.227v-.475h-.105V8.02h.105V7.77z" style="line-height:0" id="path10432"/>
            </g>
            <path d="M257.528 15.505a2.425 2.425 0 0 1-2.426 2.425 2.425 2.425 0 0 1-2.425-2.425 2.425 2.425 0 0 1 2.425-2.426 2.425 2.425 0 0 1 2.426 2.426z" id="path4586-9-1-6" fill="#3261ff" stroke-width=".568" stroke-linecap="round" stroke-linejoin="round"/>
            <path d="M256.565 15.503a1.47 1.47 0 0 1-1.47 1.47 1.47 1.47 0 0 1-1.47-1.47 1.47 1.47 0 0 1 1.47-1.47 1.47 1.47 0 0 1 1.47 1.47z" id="path4586-6-3" fill="#fff" stroke-width=".344" stroke-linecap="round" stroke-linejoin="round"/>
            <path d="M290.318 15.452a2.255 2.255 0 0 1-2.256 2.255 2.255 2.255 0 0 1-2.255-2.255 2.255 2.255 0 0 1 2.255-2.256 2.255 2.255 0 0 1 2.256 2.256z" id="path4586-6-0-0-9" fill="#fff" stroke="#373635" stroke-width=".34" stroke-linecap="round" stroke-linejoin="round"/>
            <g transform="matrix(-1.9543 0 0 1.9543 267.299 -.644)" style="line-height:1.25" id="flowRoot4530-4-6-2" font-weight="400" font-size="1.6" font-family="sans-serif" letter-spacing="0" word-spacing="0">
                <path d="M.554 8.045v.136q-.06-.031-.126-.047Q.362 8.12.292 8.12q-.107 0-.161.033-.053.032-.053.098 0 .05.038.079.038.028.154.054l.05.01q.152.034.216.094.065.06.065.166 0 .122-.097.193-.096.071-.265.071-.07 0-.146-.014-.076-.013-.16-.04v-.149q.08.041.156.063.078.02.154.02.101 0 .156-.035.055-.035.055-.098 0-.059-.04-.09t-.173-.06l-.05-.012q-.134-.028-.193-.086-.06-.058-.06-.16 0-.123.088-.19.088-.068.249-.068.08 0 .15.012.07.012.13.035z" style="line-height:0" id="path10390"/>
                <path d="M1.558 8.366v.529h-.144V8.37q0-.124-.048-.186t-.145-.062q-.117 0-.184.075Q.97 8.272.97 8.4v.495H.825V7.679H.97v.476q.051-.078.121-.117.07-.04.162-.04.15 0 .228.094.077.093.077.274z" style="line-height:0" id="path10392"/>
                <path d="M2.186 8.12q-.116 0-.183.09-.067.09-.067.248 0 .157.066.247.067.09.184.09.114 0 .182-.09.067-.09.067-.247 0-.156-.067-.246-.068-.092-.182-.092zm0-.122q.187 0 .294.122.107.122.107.338 0 .215-.107.337-.107.122-.294.122-.189 0-.296-.122-.106-.122-.106-.337 0-.216.106-.338.107-.122.296-.122z" style="line-height:0" id="path10394"/>
                <path d="M2.741 8.02h.144l.18.682.178-.682h.17l.18.682.178-.682h.144l-.229.875h-.17l-.187-.718-.19.718h-.17z" style="line-height:0" id="path10396"/>
            </g>
            <g transform="matrix(-1.9543 0 0 1.9543 298.433 -.712)" style="line-height:1.25" id="flowRoot4530-4-6-3-8" font-weight="400" font-size="1.6" font-family="sans-serif" letter-spacing="0" word-spacing="0">
                <path d="M.724 8.366v.529H.58V8.37q0-.124-.048-.186-.049-.062-.146-.062-.116 0-.183.075-.067.074-.067.202v.495H-.01V7.679h.145v.476q.051-.078.12-.117.071-.04.162-.04.151 0 .228.094.078.093.078.274z" style="line-height:0" id="path10381"/>
                <path d="M1.012 8.02h.144v.875h-.144zm0-.341h.144v.182h-.144z" style="line-height:0" id="path10383"/>
                <path d="M2.032 8.152V7.68h.143v1.216h-.143v-.132q-.046.078-.115.117-.069.037-.166.037-.158 0-.258-.126-.1-.127-.1-.333 0-.206.1-.333.1-.127.258-.127.097 0 .166.039.07.037.115.115zm-.49.306q0 .158.065.249.065.09.18.09.113 0 .179-.09.066-.09.066-.25 0-.158-.066-.248t-.18-.09q-.114 0-.18.09-.064.09-.064.249z" style="line-height:0" id="path10385"/>
                <path d="M3.22 8.421v.07h-.661q.01.149.089.227.08.077.223.077.083 0 .16-.02.079-.02.155-.06v.135q-.077.033-.158.05-.082.017-.165.017-.21 0-.332-.122-.122-.122-.122-.33 0-.214.116-.34.116-.127.313-.127.176 0 .279.115.103.113.103.308zm-.144-.042q-.001-.118-.066-.188-.064-.07-.17-.07-.12 0-.194.067-.071.068-.082.192z" style="line-height:0" id="path10387"/>
            </g>
            <path transform="scale(1 -1)" d="M216.46-30.508h49.162v1.898h-49.163z" id="rect4209-3-0-4-5-5-6-5-15-1" fill="#d8d8d8" stroke-width=".372" stroke-linecap="round"/>
            <path transform="scale(1 -1)" d="M267.955-30.508h12.091v1.898h-12.09z" id="rect4209-3-0-4-5-5-6-5-1-9-17-3" fill="#d8d8d8" stroke-width=".185" stroke-linecap="round"/>
            <path transform="scale(1 -1)" d="M292.345-30.508h12.09v1.898h-12.09z" id="rect4209-3-0-4-5-5-6-5-1-9-2-58" fill="#d8d8d8" stroke-width=".185" stroke-linecap="round"/>
            <path transform="scale(1 -1)" d="M282.18-30.508h7.417v1.898h-7.417z" id="rect4209-3-0-4-5-5-6-5-1-9-2-5-67-5" fill="#d8d8d8" stroke-width=".145" stroke-linecap="round"/>
            <path transform="scale(1 -1)" d="M246.822-26.952h7.417v1.899h-7.417z" id="rect4209-3-0-4-5-5-6-5-1-9-2-5-63-4" fill="#d8d8d8" stroke-width=".145" stroke-linecap="round"/>
            <path transform="scale(1 -1)" d="M236.763-26.952h7.417v1.899h-7.417z" id="rect4209-3-0-4-5-5-6-5-1-9-2-5-4-8" fill="#d8d8d8" stroke-width=".145" stroke-linecap="round"/>
            <path transform="scale(1 -1)" d="M256.278-26.952h32.702v1.899h-32.702z" id="rect4209-3-0-4-5-5-6-5-4-0-57" fill="#d8d8d8" stroke-width=".304" stroke-linecap="round"/>
            <path transform="scale(1 -1)" d="M290.569-26.952h19.9v1.899h-19.9z" id="rect4209-3-0-4-5-5-6-5-4-6-7" fill="#d8d8d8" stroke-width=".237" stroke-linecap="round"/>
            <path transform="scale(1 -1)" d="M216.544-26.952h18.637v1.899h-18.637z" id="rect4209-3-0-4-5-5-6-5-4-19-2" fill="#d8d8d8" stroke-width=".229" stroke-linecap="round"/>
            <path d="M316.104 25.7l.008 5.96h-1.629l-.008-5.96z" id="rect4209-3-0-4-5-5-6-5-4-9-0-9-4" fill="silver" stroke-width=".12" stroke-linecap="round"/>
            <path d="M314.577 21.124l1.437-.003-.721-.976z" id="path7050" fill="silver" stroke-width=".008" stroke-linecap="round" stroke-linejoin="round"/>
        </g>
        <path d="M142.809 49.624h16.563v-4.55H142.81z" id="rect4209-3-0-4-5-5-6-5-1-9" fill="#ead97f" stroke-width=".253" stroke-linecap="round"/>
        <path d="M199.045 36.579H17.635v6.628h181.41z" id="rect4851" fill="#3c7aeb" stroke="#3c7aeb" stroke-width=".387" stroke-linecap="round" stroke-linejoin="round"/>
        <path id="path4853" d="M198.805 64.414V36.3" fill="#3c7aeb" stroke="#3c7aeb" stroke-width="1.711"/>
        <path d="M140.224 39.075h.668v2.088h-.668zm0-.814h.668v.545h-.668z" style="line-height:0;-inkscape-font-specification:'sans-serif Bold'" id="path10491" font-weight="700" font-size="1.2" font-family="sans-serif" letter-spacing="0" word-spacing="0" fill="#fff" stroke-width="3.016"/>
        <path d="M143.637 39.891v1.272h-.671v-.973q0-.27-.014-.373-.011-.103-.04-.151-.04-.066-.107-.101-.067-.037-.153-.037-.209 0-.328.162-.12.16-.12.446v1.027h-.667v-2.088h.668v.305q.15-.182.32-.268.17-.088.375-.088.362 0 .548.222.189.222.189.645z" style="line-height:0;-inkscape-font-specification:'sans-serif Bold'" id="path10493" font-weight="700" font-size="1.2" font-family="sans-serif" letter-spacing="0" word-spacing="0" fill="#fff" stroke-width="3.016"/>
        <path d="M147.024 39.768q0-.522-.1-.734-.096-.215-.327-.215-.232 0-.33.215-.1.212-.1.734 0 .528.1.744.098.217.33.217.229 0 .328-.217.099-.216.099-.744zm.718.006q0 .692-.299 1.069-.298.374-.846.374-.55 0-.849-.374-.298-.377-.298-1.07 0-.693.298-1.068.299-.376.849-.376.548 0 .846.376.299.375.299 1.069z" style="line-height:0;-inkscape-font-specification:'sans-serif Bold'" id="path10495" font-weight="700" font-size="1.2" font-family="sans-serif" letter-spacing="0" word-spacing="0" fill="#fff" stroke-width="3.016"/>
        <path d="M148.35 39.075h.673v.721h-.673zm0 1.367h.673v.721h-.673z" style="line-height:0;-inkscape-font-specification:'sans-serif Bold'" id="path10497" font-weight="700" font-size="1.2" font-family="sans-serif" letter-spacing="0" word-spacing="0" fill="#fff" stroke-width="3.016"/>
        <path d="M151.209 39.768q0-.522-.1-.734-.096-.215-.327-.215-.232 0-.33.215-.1.212-.1.734 0 .528.1.744.098.217.33.217.229 0 .328-.217.099-.216.099-.744zm.718.006q0 .692-.299 1.069-.298.374-.846.374-.55 0-.849-.374-.298-.377-.298-1.07 0-.693.298-1.068.298-.376.849-.376.548 0 .846.376.299.375.299 1.069z" style="line-height:0;-inkscape-font-specification:'sans-serif Bold'" id="path10499" font-weight="700" font-size="1.2" font-family="sans-serif" letter-spacing="0" word-spacing="0" fill="#fff" stroke-width="3.016"/>
        <path d="M152.535 39.075h.673v.721h-.673zm0 1.367h.673v.721h-.673z" style="line-height:0;-inkscape-font-specification:'sans-serif Bold'" id="path10501" font-weight="700" font-size="1.2" font-family="sans-serif" letter-spacing="0" word-spacing="0" fill="#fff" stroke-width="3.016"/>
        <path d="M155.394 39.768q0-.522-.1-.734-.096-.215-.328-.215-.23 0-.33.215-.099.212-.099.734 0 .528.1.744.098.217.33.217.229 0 .328-.217.099-.216.099-.744zm.718.006q0 .692-.299 1.069-.298.374-.846.374-.55 0-.85-.374-.297-.377-.297-1.07 0-.693.298-1.068.298-.376.849-.376.548 0 .846.376.299.375.299 1.069z" style="line-height:0;-inkscape-font-specification:'sans-serif Bold'" id="path10503" font-weight="700" font-size="1.2" font-family="sans-serif" letter-spacing="0" word-spacing="0" fill="#fff" stroke-width="3.016"/>
        <path d="M156.72 39.075h.673v.721h-.673zm0 1.367h.673v.721h-.673z" style="line-height:0;-inkscape-font-specification:'sans-serif Bold'" id="path10505" font-weight="700" font-size="1.2" font-family="sans-serif" letter-spacing="0" word-spacing="0" fill="#fff" stroke-width="3.016"/>
        <path d="M159.578 39.768q0-.522-.098-.734-.098-.215-.329-.215-.23 0-.33.215-.099.212-.099.734 0 .528.1.744.098.217.33.217.229 0 .328-.217.098-.216.098-.744zm.718.006q0 .692-.298 1.069-.298.374-.847.374-.55 0-.848-.374-.299-.377-.299-1.07 0-.693.299-1.068.298-.376.848-.376.549 0 .847.376.298.375.298 1.069z" style="line-height:0;-inkscape-font-specification:'sans-serif Bold'" id="path10507" font-weight="700" font-size="1.2" font-family="sans-serif" letter-spacing="0" word-spacing="0" fill="#fff" stroke-width="3.016"/>
        <path d="M160.904 39.075h.674v.721h-.674zm0 1.367h.674v.721h-.674z" style="line-height:0;-inkscape-font-specification:'sans-serif Bold'" id="path10509" font-weight="700" font-size="1.2" font-family="sans-serif" letter-spacing="0" word-spacing="0" fill="#fff" stroke-width="3.016"/>
        <path d="M163.763 39.768q0-.522-.099-.734-.096-.215-.328-.215-.231 0-.33.215-.099.212-.099.734 0 .528.1.744.098.217.33.217.229 0 .327-.217.1-.216.1-.744zm.718.006q0 .692-.298 1.069-.298.374-.847.374-.55 0-.848-.374-.299-.377-.299-1.07 0-.693.299-1.068.298-.376.848-.376.549 0 .847.376.298.375.298 1.069z" style="line-height:0;-inkscape-font-specification:'sans-serif Bold'" id="path10511" font-weight="700" font-size="1.2" font-family="sans-serif" letter-spacing="0" word-spacing="0" fill="#fff" stroke-width="3.016"/>
        <path d="M165.09 39.075h.673v.721h-.674zm0 1.367h.673v.721h-.674z" style="line-height:0;-inkscape-font-specification:'sans-serif Bold'" id="path10513" font-weight="700" font-size="1.2" font-family="sans-serif" letter-spacing="0" word-spacing="0" fill="#fff" stroke-width="3.016"/>
        <path d="M167.948 39.768q0-.522-.099-.734-.097-.215-.328-.215t-.33.215q-.099.212-.099.734 0 .528.099.744.099.217.33.217.23 0 .328-.217.1-.216.1-.744zm.718.006q0 .692-.298 1.069-.299.374-.847.374-.55 0-.848-.374-.299-.377-.299-1.07 0-.693.299-1.068.298-.376.848-.376.548 0 .847.376.298.375.298 1.069z" style="line-height:0;-inkscape-font-specification:'sans-serif Bold'" id="path10515" font-weight="700" font-size="1.2" font-family="sans-serif" letter-spacing="0" word-spacing="0" fill="#fff" stroke-width="3.016"/>
        <path d="M169.274 39.075h.673v.721h-.673zm0 1.367h.673v.721h-.673z" style="line-height:0;-inkscape-font-specification:'sans-serif Bold'" id="path10517" font-weight="700" font-size="1.2" font-family="sans-serif" letter-spacing="0" word-spacing="0" fill="#fff" stroke-width="3.016"/>
        <path d="M172.133 39.768q0-.522-.099-.734-.097-.215-.328-.215t-.33.215q-.099.212-.099.734 0 .528.099.744.099.217.33.217.23 0 .328-.217.1-.216.1-.744zm.718.006q0 .692-.298 1.069-.299.374-.847.374-.55 0-.848-.374-.299-.377-.299-1.07 0-.693.299-1.068.298-.376.848-.376.548 0 .847.376.298.375.298 1.069z" style="line-height:0;-inkscape-font-specification:'sans-serif Bold'" id="path10519" font-weight="700" font-size="1.2" font-family="sans-serif" letter-spacing="0" word-spacing="0" fill="#fff" stroke-width="3.016"/>
        <path d="M173.46 39.075h.672v.721h-.673zm0 1.367h.672v.721h-.673z" style="line-height:0;-inkscape-font-specification:'sans-serif Bold'" id="path10521" font-weight="700" font-size="1.2" font-family="sans-serif" letter-spacing="0" word-spacing="0" fill="#fff" stroke-width="3.016"/>
        <path d="M175.009 40.667h.634v-1.8l-.65.135v-.489l.646-.134h.683v2.288h.634v.496h-1.947z" style="line-height:0;-inkscape-font-specification:'sans-serif Bold'" id="path10523" font-weight="700" font-size="1.2" font-family="sans-serif" letter-spacing="0" word-spacing="0" fill="#fff" stroke-width="3.016"/>
        <path d="M178.023 38.379v1.035h-.442v-1.035z" style="line-height:0;-inkscape-font-specification:'sans-serif Bold'" id="path10525" font-weight="700" font-size="1.2" font-family="sans-serif" letter-spacing="0" word-spacing="0" fill="#fff" stroke-width="3.016"/>
        <path d="M180.34 39.14v.507q-.214-.09-.413-.134-.2-.045-.377-.045-.19 0-.284.049-.09.046-.09.145 0 .08.068.123.071.043.252.063l.117.017q.513.066.69.215.177.149.177.468 0 .334-.246.502-.246.167-.734.167-.208 0-.43-.033-.22-.032-.453-.097v-.508q.2.097.409.146.21.048.427.048.196 0 .295-.054.098-.054.098-.16 0-.09-.069-.133-.067-.044-.27-.069l-.117-.015q-.446-.056-.625-.207-.18-.15-.18-.458 0-.332.228-.493.228-.16.698-.16.184 0 .388.028.203.028.442.088z" style="line-height:0;-inkscape-font-specification:'sans-serif Bold'" id="path10527" font-weight="700" font-size="1.2" font-family="sans-serif" letter-spacing="0" word-spacing="0" fill="#fff" stroke-width="3.016"/>
        <path d="M182.049 39.075h.668l.52 1.443.518-1.443h.67l-.823 2.088h-.732z" style="line-height:0;-inkscape-font-specification:'sans-serif Bold'" id="path10529" font-weight="700" font-size="1.2" font-family="sans-serif" letter-spacing="0" word-spacing="0" fill="#fff" stroke-width="3.016"/>
        <path d="M186.888 40.113v.19h-1.56q.024.236.17.353.145.118.406.118.21 0 .43-.062.223-.063.456-.19v.514q-.237.09-.474.135-.237.046-.474.046-.567 0-.882-.287-.313-.289-.313-.81 0-.51.308-.803.31-.293.85-.293.492 0 .787.297.296.296.296.792zm-.686-.222q0-.19-.112-.305-.11-.118-.289-.118-.194 0-.315.11-.121.108-.151.313z" style="line-height:0;-inkscape-font-specification:'sans-serif Bold'" id="path10531" font-weight="700" font-size="1.2" font-family="sans-serif" letter-spacing="0" word-spacing="0" fill="#fff" stroke-width="3.016"/>
        <path d="M188.944 39.643q-.088-.04-.176-.06-.086-.02-.173-.02-.257 0-.397.166-.138.164-.138.472v.962h-.668v-2.088h.668v.343q.128-.205.294-.299.168-.095.401-.095.034 0 .073.004.04.002.114.011z" style="line-height:0;-inkscape-font-specification:'sans-serif Bold'" id="path10533" font-weight="700" font-size="1.2" font-family="sans-serif" letter-spacing="0" word-spacing="0" fill="#fff" stroke-width="3.016"/>
        <path d="M190.911 39.14v.507q-.214-.09-.414-.134-.2-.045-.377-.045-.19 0-.283.049-.092.046-.092.145 0 .08.07.123t.251.063l.118.017q.512.066.69.215.177.149.177.468 0 .334-.246.502-.247.167-.735.167-.207 0-.43-.033-.22-.032-.452-.097v-.508q.2.097.408.146.21.048.427.048.196 0 .295-.054.099-.054.099-.16 0-.09-.07-.133-.066-.044-.27-.069l-.117-.015q-.446-.056-.625-.207-.179-.15-.179-.458 0-.332.228-.493.227-.16.697-.16.185 0 .388.028t.442.088z" style="line-height:0;-inkscape-font-specification:'sans-serif Bold'" id="path10535" font-weight="700" font-size="1.2" font-family="sans-serif" letter-spacing="0" word-spacing="0" fill="#fff" stroke-width="3.016"/>
        <path d="M191.555 39.075h.667v2.088h-.667zm0-.814h.667v.545h-.667z" style="line-height:0;-inkscape-font-specification:'sans-serif Bold'" id="path10537" font-weight="700" font-size="1.2" font-family="sans-serif" letter-spacing="0" word-spacing="0" fill="#fff" stroke-width="3.016"/>
        <path d="M193.861 39.502q-.222 0-.339.16-.116.159-.116.459 0 .3.116.46.117.159.34.159.218 0 .333-.159.116-.16.116-.46 0-.3-.116-.459-.115-.16-.334-.16zm0-.478q.54 0 .842.291.303.291.303.806 0 .515-.303.805-.303.291-.842.291-.54 0-.846-.29-.304-.291-.304-.806 0-.515.304-.806.306-.29.846-.29z" style="line-height:0;-inkscape-font-specification:'sans-serif Bold'" id="path10539" font-weight="700" font-size="1.2" font-family="sans-serif" letter-spacing="0" word-spacing="0" fill="#fff" stroke-width="3.016"/>
        <path d="M197.593 39.891v1.272h-.671v-.973q0-.27-.013-.373-.012-.103-.041-.151-.04-.066-.107-.101-.067-.037-.153-.037-.209 0-.328.162-.12.16-.12.446v1.027h-.667v-2.088h.668v.305q.15-.182.32-.268.17-.088.375-.088.362 0 .548.222.189.222.189.645z" style="line-height:0;-inkscape-font-specification:'sans-serif Bold'" id="path10541" font-weight="700" font-size="1.2" font-family="sans-serif" letter-spacing="0" word-spacing="0" fill="#fff" stroke-width="3.016"/>
    </g>
</svg>
