<?xml version="1.0" encoding="UTF-8"?>
<svg xmlns="http://www.w3.org/2000/svg" width="246.651" height="111.423" viewBox="0 0 65.25962 29.480644">
	<path fill="#fdfcfd" d="M-.00003065.00391025H65.2593655v29.4777867H-.00003065z"/>
	<path fill="#d8d8d8" d="M9.3623482 5.1774785h22.96539765V3.97666115H9.3623482zm18.47934885 2.1830772H47.1265864V6.15973835H27.84169705zM1.0733989 13.7124611H16.283752v-1.20081735H1.0733989zm7.39536135 8.99645115H39.5607502V21.5080949H8.46876025zm16.5029646 4.43047275h8.56807845v-1.20081735h-8.567454zM1.0246918 11.53125725h7.293576V10.3304399h-7.293576zM37.202827 18.1423094h9.091992v-1.20081735h-9.091992zm13.1084544 0h9.3817368v-1.20081735h-9.3817368zM33.5398033 27.139385h7.64639025v-1.20081735H33.5398033zM1.0246918 22.70891225H7.354117V21.5080949H1.0246918zM5.7155602 7.3056041h8.77164915V6.10478675H5.7155602zm34.18551525 4.22565315h7.6470147V10.3304399H39.900451zm9.0632673 15.60812775h7.6470147v-1.20081735h-7.6470147z"/>
	<path fill="#d8d8d8" d="M1.0246918 7.3056041h4.6908684V6.10478675H1.0246918zm20.88098355 2.11251435h6.17268825V8.21855h-6.17268825zm13.6866951 0h6.1970418V8.21855h-6.1970418zm12.53083815 0h4.69024395V8.21855H48.1232086zm-7.418466 13.2907938h4.6908684V21.5080949h-4.6908684zM42.53563 27.139385h4.6908684v-1.20081735H42.53563zm3.9527685-4.43047275h4.6896195V21.5080949h-4.6896195zm-26.314323 2.18120385h4.6908684v-1.20081735h-4.6908684zm26.1207435-6.7478067h4.6908684v-1.20081735H46.294819zM1.0246918 15.8930405h4.6908684v-1.20081735H1.0246918zm12.7874871 8.9970756h6.3618966v-1.20081735h-6.3618966zm-6.9351417-8.9970756h13.50123345v-1.20081735H6.8770372zm10.6506192-2.1805794h13.64610585v-1.20081735H17.5276564zm23.0846676 11.177655h6.2245176v-1.20081735H40.612324zm7.22925765 0H60.4273714v-1.20081735H47.84158165zM30.8771485 15.8930405h14.899377v-1.20081735h-14.899377zM48.130702 7.3056041h8.63427015V6.10478675H48.130702zm-6.34128975 2.11251435h4.2000507V8.21855h-4.2000507z"/>
	<path fill="#d8d8d8" d="M28.0783636 9.41811845h5.8386075V8.21855h-5.8386075zm-27.0536718 0h12.8274519V8.21855H1.0246918zm22.8523722 2.1131388h14.224971V10.3304399H23.877064zm-14.1088233 0h12.39345915V10.3304399H9.7682407zm12.0006801 4.36178325h8.055405v-1.20081735h-8.055405zm-20.744229 2.2492689h12.314154v-1.20081735H1.0246918zm12.31477845 0h7.76628465v-1.20081735h-7.76628465zM1.0246918 24.8901161H12.81181v-1.20081735H1.0246918zm.0037467-19.76571585h7.293576V3.9235829h-7.293576zM15.2958721 7.3056041h6.17268825V6.10478675H15.2958721z"/>
	<path fill="#d8d8d8" d="M21.46856035 7.3056041h5.8386075V6.10478675h-5.8386075zm1.05844275 10.8367053h8.055405v-1.20081735h-8.055405zm9.0208047 0h4.6908684v-1.20081735h-4.6908684zm15.3652167-2.2492689h9.21251085v-1.20081735H46.9130245zM.984727 27.139385h12.58578975v-1.20081735H.98410255zm14.5659207 0h7.64639025v-1.20081735H15.5506477zm10.4095815-2.2492689h7.6470147v-1.20081735h-7.6470147zm8.61054105 0h4.6908684v-1.20081735h-4.6908684z"/>
	<path fill="#9babc7" d="M1.1246038 3.20484095h30.90840165V.07634645H1.1246038z"/>
	<path d="M3.08974664.91245434l-.33628334.9109765h.67256667zm-.14053632-.2421742h.28107264l.69640765 1.82948173h-.25723166l-.16563209-.4705457H2.678176l-.16688688.46929091H2.2502931z"/>
	<path d="M4.63313657 1.23117063l-.26852475.72777737h.5383043zm-.11293097-.19574701h.22586194l.55712612 1.46433825h-.20578532l-.13300759-.37643657h-.66001878l-.13300759.37643657h-.20954969z"/>
	<path d="M5.89043471 1.44197511l-.22335236.60731767h.44795952zm-.09285435-.16312251h.18821828l.46427177 1.22090927H6.2769096l-.11167618-.31369714H5.615636l-.11042139.31369714h-.1744156z"/>
	<path d="M9.82294207 1.3779809q.11167618 0 .16939646-.05019155.05646548-.04768196.05646548-.1430459 0-.09536392-.05646548-.14430068-.05772028-.05019154-.16939646-.05019154h-.26099602v.38772967zm.01631225.8005551q.1417911 0 .21331406-.06022985.07152295-.06022985.07152295-.18194434 0-.11795013-.07152295-.17692519-.07026816-.06022985-.21331406-.06022985h-.27730827V2.178536zm.439176-.658764q.15057463.0439176.23464546.16312252.08281605.11920491.08281605.29236573 0 .2635056-.17943477.39400361-.17817998.13049801-.54332345.13049801h-.78298806V.67028015h.70770075q.38145572 0 .55210697.11418576.17065124.11544054.17065124.36890783 0 .13426238-.06273943.22837152-.06273942.09285436-.18068955.13802674z"/>
	<path d="M13.8131697.67028015h.24844814l-.35635995 1.82948172h-.25095772z"/>
	<path fill="#f1f1f1" d="M64.0591726.000788l-.0062445 29.4515598 1.2001929.00312225.0062445-29.4515598z"/>
	<path fill="silver" d="M64.0304479 4.21520105l-.0062445 4.39300575 1.20081735.00062445.0062445-4.3936302z"/>
	<g fill="silver" fill-rule="evenodd" stroke="#000">
		<path stroke-width=".267927" d="M31.6385864 12.05565469v2.07789652"/>
		<path stroke-width=".15788278" d="M31.98738103 12.02967855l-.69487127.00132017m.69487127 2.148797l-.69487127.00132016"/>
	</g>
	<path fill="#d8d8d8" d="M14.76821185 9.4187429h5.91791265V8.21855h-5.91791265z"/>
	<path fill="silver" d="M65.19504715.812573l-1.0590672-.00187335.53140695-.7193664zm-.0012489 27.81737415l-1.0590672.00187335.53140695.7193664z"/>
	<path fill="#fff" stroke="#242423" stroke-linecap="round" stroke-width=".36405435" d="M4.406713 8.02684385h53.16629745V21.8165732H4.406713z"/>
	<path fill="#3261ff" stroke="#3261ff" stroke-linecap="round" stroke-width=".2847492" d="M10.58939245 11.103509H44.1941692v2.6176944H10.58939245z" opacity=".486"/>
	<text x="142.765" y="306.786" font-family="sans-serif" font-size="40" font-weight="400" letter-spacing="0" style="line-height:1.25" transform="translate(-78.233 -178.492) scale(.62445)" word-spacing="0">
		<tspan x="142.765" y="306.786" font-size="3.333">The currently published version</tspan>
	</text>
	<path fill="#feeb5e" stroke="#feeb5e" stroke-linecap="round" stroke-width=".14799465" d="M10.52070295 15.16056065h8.60679435v2.75444895h-8.60679435z" opacity=".486"/>
	<text x="142.541" y="313.444" font-family="sans-serif" font-size="40" font-weight="400" letter-spacing="0" style="line-height:1.25" transform="translate(-78.233 -178.492) scale(.62445)" word-spacing="0">
		<tspan x="142.541" y="313.444" font-size="3.333">My text</tspan>
	</text>
	<g stroke-linecap="round" stroke-linejoin="round">
		<path fill="#3261ff" d="M10.0529899 12.51039485a1.5573783 1.5573783 0 0 1-1.5573783 1.5573783 1.5573783 1.5573783 0 0 1-1.55675385-1.5573783 1.5573783 1.5573783 0 0 1 1.55675385-1.5573783 1.5573783 1.5573783 0 0 1 1.5573783 1.5573783z"/>
		<path fill="#fff" d="M9.4347844 12.50914595a.9441684.9441684 0 0 1-.94354395.9441684.9441684.9441684 0 0 1-.9441684-.9441684.9441684.9441684 0 0 1 .9441684-.94354395.9441684.9441684 0 0 1 .94354395.94354395z"/>
	</g>
	<path fill="#fff" stroke="#373635" stroke-linecap="round" stroke-linejoin="round" stroke-width=".2185575" d="M10.0454965 16.6698563a1.44809955 1.44809955 0 0 1-1.44809955 1.44809955 1.44809955 1.44809955 0 0 1-1.44809955-1.448724 1.44809955 1.44809955 0 0 1 1.448724-1.4474751 1.44809955 1.44809955 0 0 1 1.4474751 1.44809955z"/>
	<path fill="#fff" stroke="#3261ff" stroke-linecap="round" stroke-width=".24978" d="M46.9130245 15.8930405h8.9221416v4.3374297h-8.9221416z"/>
	<text x="204.738" y="315.956" fill="#3261ff" font-family="sans-serif" font-size="40" font-weight="400" letter-spacing="0" style="line-height:1.25" transform="translate(-78.233 -178.492) scale(.62445)" word-spacing="0">
		<tspan x="204.738" y="315.956" font-size="3.333" font-weight="700" style="-inkscape-font-specification:'sans-serif Bold'">OK</tspan>
	</text>
</svg>
