<svg xmlns="http://www.w3.org/2000/svg" width="768.883" height="262.162" viewBox="0 0 203.43356 69.363754">
    <path d="M0 .014h107.153v69.35H0z" fill="#f1f1f1"/>
    <path d="M.802 30.27H101.94v3.55H.802z" fill="#fe8b00"/>
    <path d="M1.046 58.311v-28.04" fill="none" stroke="#fe8b00" stroke-width=".696"/>
    <path d="M1.654 31.504h.343v1.072h-.343zm0-.418h.343v.28h-.343zm1.752.837v.653H3.06v-.5q0-.139-.007-.191-.005-.053-.02-.078-.02-.033-.055-.052-.035-.019-.079-.019-.107 0-.168.084-.062.082-.062.228v.528h-.342v-1.072h.342v.157q.078-.094.165-.138.087-.045.193-.045.185 0 .28.114.098.114.098.331zm.86-.419h.343l.288.727.245-.727h.343l-.451 1.173q-.068.18-.159.25-.09.072-.238.072h-.199v-.225h.108q.087 0 .126-.028.04-.028.062-.1l.01-.029zm1.93.219q-.114 0-.174.082-.06.082-.06.236 0 .154.06.236.06.082.174.082.112 0 .171-.082.06-.082.06-.236 0-.154-.06-.236-.06-.082-.171-.082zm0-.245q.277 0 .432.15.156.149.156.413t-.156.413q-.155.15-.432.15-.278 0-.435-.15-.156-.15-.156-.413 0-.264.156-.414.157-.15.435-.15zm.826.68v-.654h.345v.107l-.001.22-.001.174q0 .13.006.187.007.056.023.082.021.034.055.052.034.018.078.018.108 0 .169-.082.061-.082.061-.229v-.53H8.1v1.073h-.343v-.155q-.077.094-.164.139-.087.044-.191.044-.186 0-.283-.114-.097-.114-.097-.332zm2.205-.362q-.045-.021-.09-.031-.044-.01-.089-.01-.132 0-.203.085-.071.084-.071.242v.494H8.43v-1.072h.343v.176q.066-.105.151-.153.086-.05.206-.05.017 0 .037.003.02 0 .059.006zm.719-.292h.343l.267.74.266-.74h.344l-.422 1.072h-.376zm2.484.533v.098h-.8q.012.12.086.18.075.06.209.06.108 0 .221-.03.114-.033.234-.098v.264q-.122.046-.244.069-.121.024-.243.024-.29 0-.452-.148-.161-.148-.161-.415 0-.263.158-.413.159-.15.436-.15.253 0 .404.152.152.152.152.407zm-.352-.114q0-.098-.057-.157-.057-.06-.149-.06-.1 0-.161.056-.063.056-.078.161zm1.407-.127q-.045-.021-.09-.031-.044-.01-.089-.01-.132 0-.204.085-.07.084-.07.242v.494h-.343v-1.072h.342v.176q.067-.105.152-.153.086-.05.206-.05.017 0 .037.003.02 0 .058.006zm1.01-.259v.26q-.11-.045-.212-.068-.103-.023-.194-.023-.097 0-.145.025-.047.023-.047.074 0 .041.035.063.037.022.13.033l.06.009q.263.033.354.11.09.076.09.24 0 .171-.125.257-.127.087-.378.087-.106 0-.22-.018-.113-.016-.232-.05v-.26q.102.05.21.075.107.025.218.025.101 0 .152-.028.05-.028.05-.082 0-.046-.035-.068-.034-.023-.139-.036l-.06-.007q-.229-.03-.32-.107-.093-.077-.093-.235 0-.17.117-.253.117-.082.358-.082.095 0 .2.014.104.015.226.045zm.33-.033h.343v1.072h-.343zm0-.418h.343v.28h-.343zm1.185.637q-.114 0-.175.082-.06.082-.06.236 0 .154.06.236.06.082.174.082.112 0 .172-.082.06-.082.06-.236 0-.154-.06-.236-.06-.082-.172-.082zm0-.245q.276 0 .431.15.156.149.156.413t-.156.413q-.155.15-.432.15t-.434-.15q-.156-.15-.156-.413 0-.264.156-.414.157-.15.434-.15zm1.915.445v.653h-.345v-.5q0-.139-.006-.191-.006-.053-.022-.078-.02-.033-.054-.052-.035-.019-.079-.019-.107 0-.168.084-.061.082-.061.228v.528h-.343v-1.072h.343v.157q.077-.094.164-.138.087-.045.193-.045.185 0 .281.114.097.114.097.331z" style="line-height:0;-inkscape-font-specification:'sans-serif Bold'" font-weight="700" font-size="1.2" font-family="sans-serif" letter-spacing="0" word-spacing="0" fill="#fff"/>
    <path d="M.862 1.4H102v3.55H.862z" fill="#3c7aeb"/>
    <path d="M1.106 29.441V1.401" fill="none" stroke="#3c7aeb" stroke-width=".696"/>
    <path d="M1.714 2.634h.342v1.072h-.342zm0-.418h.342v.28h-.342zm1.751.837v.653h-.344v-.5q0-.139-.007-.191-.006-.053-.02-.078-.021-.033-.055-.052-.035-.019-.079-.019-.107 0-.168.083-.062.083-.062.23v.527h-.342V2.634h.342v.157q.078-.094.165-.138.087-.045.192-.045.186 0 .282.114.096.114.096.33zm1.739-.063q0-.268-.051-.377-.05-.11-.168-.11-.12 0-.17.11-.05.109-.05.377 0 .27.05.382.05.11.17.11.117 0 .168-.11.05-.111.05-.382zm.368.003q0 .355-.153.548-.153.192-.434.192-.283 0-.436-.192-.153-.193-.153-.548 0-.357.153-.549.153-.193.436-.193.281 0 .434.193.153.192.153.549zm.312-.359h.346v.37h-.346zm0 .701h.346v.37h-.346zm1.468-.345q0-.268-.051-.377-.05-.11-.168-.11-.12 0-.17.11-.05.109-.05.377 0 .27.05.382.05.11.17.11.117 0 .168-.11.05-.111.05-.382zm.368.003q0 .355-.153.548-.153.192-.434.192-.283 0-.436-.192-.153-.193-.153-.548 0-.357.153-.549.153-.193.436-.193.281 0 .434.193.153.192.153.549zm.312-.359h.346v.37h-.346zm0 .701h.346v.37h-.346zM9.5 2.99q0-.268-.05-.377-.05-.11-.17-.11-.118 0-.169.11-.05.109-.05.377 0 .27.05.382.05.11.17.11.117 0 .168-.11.05-.111.05-.382zm.368.003q0 .355-.153.548-.153.192-.434.192-.283 0-.436-.192-.153-.193-.153-.548 0-.357.153-.549.153-.193.436-.193.281 0 .434.193.153.192.153.549zm.312-.359h.346v.37h-.346zm0 .701h.346v.37h-.346zm1.468-.345q0-.268-.05-.377-.05-.11-.17-.11-.118 0-.169.11-.05.109-.05.377 0 .27.05.382.05.11.17.11.117 0 .168-.11.05-.111.05-.382zm.368.003q0 .355-.153.548-.153.192-.434.192-.283 0-.436-.192-.153-.193-.153-.548 0-.357.153-.549.153-.193.436-.193.281 0 .434.193.153.192.153.549zm.312-.359h.346v.37h-.346zm0 .701h.346v.37h-.346zm1.468-.345q0-.268-.05-.377-.05-.11-.17-.11-.118 0-.169.11-.05.109-.05.377 0 .27.05.382.05.11.17.11.117 0 .168-.11.05-.111.05-.382zm.368.003q0 .355-.153.548-.153.192-.434.192-.283 0-.436-.192-.153-.193-.153-.548 0-.357.153-.549.153-.193.436-.193.281 0 .434.193.153.192.153.549zm.312-.359h.346v.37h-.346zm0 .701h.346v.37h-.346zm1.468-.345q0-.268-.05-.377-.05-.11-.17-.11-.118 0-.169.11-.05.109-.05.377 0 .27.05.382.051.11.17.11.117 0 .168-.11.05-.111.05-.382zm.368.003q0 .355-.153.548-.153.192-.434.192-.283 0-.436-.192-.153-.193-.153-.548 0-.357.153-.549.153-.193.436-.193.281 0 .434.193.153.192.153.549zm.312-.359h.346v.37h-.346zm0 .701h.346v.37h-.346zm1.468-.345q0-.268-.05-.377-.05-.11-.17-.11-.118 0-.169.11-.05.109-.05.377 0 .27.05.382.051.11.17.11.117 0 .168-.11.05-.111.05-.382zm.368.003q0 .355-.153.548-.153.192-.434.192-.283 0-.436-.192-.153-.193-.153-.548 0-.357.153-.549.153-.193.436-.193.281 0 .434.193.153.192.153.549zm.312-.359h.346v.37h-.346zm0 .701h.346v.37h-.346zm.796.116h.325v-.924l-.334.07v-.252l.332-.068h.35V3.45h.326v.255h-1zm1.547-1.174v.53h-.227v-.53zm1.19.39v.26q-.11-.045-.213-.068-.102-.023-.193-.023-.098 0-.146.024-.047.024-.047.075 0 .041.036.063t.129.033l.06.008q.264.034.354.11.091.077.091.24 0 .172-.126.258-.126.086-.377.086-.106 0-.22-.017-.113-.016-.233-.05v-.26q.103.05.21.075.108.025.219.025.1 0 .151-.028.051-.028.051-.082 0-.046-.035-.068-.035-.023-.14-.036l-.06-.008q-.228-.028-.32-.106-.092-.077-.092-.235 0-.17.117-.253.116-.082.358-.082.094 0 .199.014.104.014.227.045zm.876-.033h.343l.267.74.266-.74h.344l-.422 1.072h-.376zm2.484.533v.097h-.8q.012.121.086.181.075.06.21.06.107 0 .22-.031.114-.033.234-.098v.265q-.122.046-.243.069-.122.023-.244.023-.29 0-.452-.147-.161-.148-.161-.415 0-.263.158-.413.159-.15.436-.15.253 0 .404.152.152.152.152.407zm-.352-.114q0-.098-.057-.157-.057-.06-.149-.06-.1 0-.161.056-.063.056-.078.16zm1.407-.127q-.045-.022-.09-.031-.044-.01-.089-.01-.132 0-.204.085-.07.084-.07.242v.494h-.343V2.634h.343v.176q.066-.106.15-.153.087-.05.207-.05.017 0 .037.003.02 0 .058.005zm1.01-.259v.26q-.11-.045-.212-.068-.103-.023-.194-.023-.097 0-.145.024-.047.024-.047.075 0 .041.035.063.037.022.13.033l.06.008q.263.034.354.11.091.077.091.24 0 .172-.126.258-.127.086-.377.086-.107 0-.22-.017-.114-.016-.233-.05v-.26q.102.05.21.075.108.025.219.025.1 0 .15-.028.052-.028.052-.082 0-.046-.036-.068-.034-.023-.139-.036l-.06-.008q-.229-.028-.32-.106-.093-.077-.093-.235 0-.17.117-.253.117-.082.358-.082.095 0 .2.014.104.014.226.045zm.33-.033h.343v1.072h-.343zm0-.418h.343v.28h-.343zm1.185.637q-.114 0-.175.082-.059.081-.059.236 0 .154.06.236.06.081.174.081.112 0 .17-.081.06-.082.06-.236 0-.155-.06-.236-.058-.082-.17-.082zm0-.245q.276 0 .431.15.156.148.156.413 0 .264-.156.413-.155.15-.431.15-.278 0-.435-.15-.156-.15-.156-.413 0-.265.156-.414.157-.15.435-.15zm1.915.445v.653h-.345v-.5q0-.139-.006-.191-.006-.053-.021-.078-.02-.033-.055-.052-.034-.019-.078-.019-.108 0-.169.083-.061.083-.061.23v.527h-.343V2.634h.343v.157q.077-.094.164-.138.088-.045.193-.045.186 0 .281.114.097.114.097.33z" style="line-height:0;-inkscape-font-specification:'sans-serif Bold'" font-weight="700" font-size="1.2" font-family="sans-serif" letter-spacing="0" word-spacing="0" fill="#fff"/>
    <path d="M2.697 37.295h15.946V35.62H2.697zm20.917 3.042h43.333v-1.673H23.614zM2.765 49.19h46.989v-1.674H2.764zm26.962 12.537h26.676v-1.673H29.727zM2.622 67.902h43.333v-1.674H2.622z" fill="#d8d8d8"/>
    <path d="M21.313 37.868h25.358v-3.123H21.313z" fill="#ead97f"/>
    <path d="M2.697 46.15H12.86v-1.674H2.697zm49.479 9.213h10.657V53.69H52.176zm21.627 0H84.46V53.69H73.803zM48.012 67.902h10.656v-1.674H48.012zM2.697 61.727h8.82v-1.673h-8.82zm8.105-21.467h10.656v-1.673H10.802zm46.075 5.89h10.657v-1.674H56.877zm12.632 21.752h10.656v-1.674H69.51zM2.697 40.26h6.537v-1.673H2.697zm32.598 2.945h6.537v-1.673h-6.537zm19.075 0h6.537v-1.673H54.37zm17.463 0h6.537v-1.673h-6.537zM57.997 61.727h6.537v-1.673h-6.537zm2.553 6.175h6.537v-1.674h-6.538zm5.507-6.175h6.537v-1.673h-6.537zm-36.673 3.04h6.538v-1.673h-6.538zm35.464-9.404h6.537V53.69h-6.537zM2.697 52.229h6.537v-1.674H2.697zm17.821 12.538h6.538v-1.673h-6.538zm-9.531-12.538H40.75v-1.674H10.987zM51.42 49.19h29.63v-1.674H51.42zM37.719 64.767h28.824v-1.673H37.72zm30.224 0h17.54v-1.673h-17.54zm-9.671-12.538h20.764v-1.674H58.272zM68.346 40.26H80.38v-1.673H68.346zm-5.34 2.945h5.854v-1.673h-5.854zm-19.108 0h8.137v-1.673h-8.137zm-41.201 0h30.302v-1.673H2.697zm31.849 2.945H54.37v-1.674H34.546zm-19.664 0h17.272v-1.674H14.882zm29.016 6.079h11.227v-1.674H43.898zM2.697 55.363h15.525V53.69H2.697zm17.162 0h29.63V53.69H19.86zM2.697 64.767h16.427v-1.673H2.697zm79.509-24.468h19.824v-1.674H82.206zm.578 8.879h8.936v-1.673h-8.936zM13.148 61.697H27.56v-1.673H13.148zm68.898 6.186h14.412V66.21H82.046zM2.656 8.8h15.946V7.127H2.656zm20.917 3.043h43.333v-1.674H23.573zM2.724 20.695h46.99V19.02H2.723z" fill="#d8d8d8"/>
    <path d="M20.759 9.393h26.627V6.27H20.759z" fill="#a3c9d2"/>
    <path d="M2.656 17.655H12.82v-1.673H2.656zm49.479 9.214h10.657v-1.673H52.135zm21.627 0H84.42v-1.673H73.762zM10.76 11.766h10.658v-1.673H10.76zm46.077 5.889h10.656v-1.673H56.837zM2.656 11.766h6.537v-1.673H2.656zm32.598 2.944h6.537v-1.673h-6.537zm19.075 0h6.537v-1.673H54.33zm17.463 0h6.538v-1.673h-6.538zm-6.985 12.159h6.537v-1.673h-6.537zM2.656 23.734h6.537v-1.673H2.656zm8.29 0H40.71v-1.673H10.946zm40.434-3.039h29.63V19.02H51.38zm6.85 3.039h20.765v-1.673H58.231zm10.076-11.968h12.033v-1.673H68.306zm-5.34 2.944h5.853v-1.673h-5.853zm-19.109 0h8.138v-1.673h-8.138zm-41.201 0h30.302v-1.673H2.656zm31.849 2.945h19.824v-1.673H34.505zm-19.663 0h17.271v-1.673H14.842zm29.015 6.079h11.227v-1.673H43.857zM2.656 26.869h15.526v-1.673H2.656zm17.162 0h29.63v-1.673h-29.63zm62.347-15.065h19.824v-1.673H82.165zm.578 8.879h8.936V19.01h-8.936zM49.181 37.237h19.824v-1.674H49.181zm21.369 0h10.656v-1.674H70.55zM49.282 8.691h19.825V7.018H49.282zm21.368 0h10.658V7.018H70.65z" fill="#d8d8d8"/>
    <path d="M104.01 6.242l-.015 9.852h2.89l.015-9.851z" fill="silver"/>
    <path d="M33.876 43.897h46.337v-3.123H33.876z" opacity=".517" fill="#8fa1fd"/>
    <path d="M110.166.004h93.268v69.268h-93.268z" fill="#fdfcfd"/>
    <path d="M123.546 7.399h32.822V5.683h-32.822zm26.41 3.12h27.562V8.803h-27.562zM111.7 19.596h21.738V17.88H111.7zm10.569 12.858h44.436v-1.716H122.27zm23.586 6.331H158.1V37.07h-12.245zM111.63 16.48h10.424v-1.717H111.63zm51.705 9.448h12.995v-1.716h-12.995zm18.735 0h13.408v-1.716h-13.409zM158.1 38.785h10.929V37.07H158.1zm-46.47-6.331h9.046v-1.716h-9.045zm6.705-22.014h12.535V8.724h-12.535zm48.857 6.04h10.928v-1.717h-10.928zm12.953 22.305h10.928V37.07h-10.928zM111.63 10.44h6.705V8.724h-6.704zm29.843 3.02h8.822v-1.717h-8.822zm19.561 0h8.856v-1.717h-8.856zm17.908 0h6.704v-1.717h-6.704zM168.34 32.454h6.704v-1.716h-6.704zm2.617 6.331h6.704V37.07h-6.704zm5.648-6.331h6.704v-1.716h-6.704zm-37.607 3.117h6.704v-1.716h-6.704z" fill="#d8d8d8"/>
    <path d="M176.33 25.928h6.704v-1.716h-6.704zm-64.7-3.215h6.705v-1.716h-6.704zm18.276 12.858h9.092v-1.716h-9.092zm-9.912-12.858h19.296v-1.716h-19.296zm15.222-3.117h19.503V17.88h-19.503zm32.992 15.975h8.896v-1.716h-8.896zm10.332 0h17.988v-1.716H178.54zm-24.245-12.858h21.294v-1.716h-21.294zm24.658-12.273h12.34V8.724h-12.34zm-9.063 3.02h6.003v-1.717h-6.002zm-19.595 0h8.345v-1.717h-8.345zm-38.665 0h18.333v-1.717H111.63zm32.661 3.02h20.33v-1.717h-20.33zm-20.164 0h17.712v-1.717h-17.712zm17.15 6.233h11.513v-1.716h-11.513zm-29.647 3.215h17.6v-1.716h-17.6zm17.6 0h11.1v-1.716h-11.1zm-17.6 9.643h16.846v-1.716h-16.845zm.005-28.248h10.423V5.607h-10.423zm20.391 3.117h8.823V8.724h-8.823zm8.823 0h8.344V8.724h-8.344zm1.511 15.488h11.514v-1.716H142.36zm12.893 0h6.704v-1.716h-6.704zm21.96-3.215h13.166v-1.716h-13.166zm-65.64 16.072h17.987V37.07h-17.987zm20.817 0h10.929V37.07H132.39zm14.878-3.214h10.928v-1.716h-10.928zm12.306 0h6.704v-1.716h-6.704z" fill="#d8d8d8"/>
    <path d="M111.773 4.58h44.173V.107h-44.173z" fill="#9babc7"/>
    <g style="line-height:1.25" font-weight="400" font-size="8" font-family="sans-serif" letter-spacing="0" word-spacing="0">
        <path d="M114.58 1.305l-.48 1.3h.962zm-.2-.349h.401l.997 2.615h-.368l-.238-.671h-1.179l-.238.67h-.373z" style="line-height:0" font-size="2"/>
        <path d="M116.787 1.758l-.384 1.04h.769zm-.16-.279h.32l.798 2.092h-.294l-.19-.537h-.944l-.19.537h-.299z" font-size="1.6"/>
        <path d="M118.585 2.06l-.32.867h.64zm-.134-.232h.268l.664 1.743h-.245l-.159-.447h-.786l-.158.447h-.249z" font-size="1.333"/>
        <path d="M124.584 1.968q.16 0 .242-.07.082-.07.082-.206 0-.135-.082-.205-.082-.072-.242-.072h-.373v.553zm.023 1.144q.203 0 .305-.086.103-.086.103-.26 0-.169-.101-.253-.102-.086-.307-.086h-.396v.685zm.627-.94q.217.063.336.232.12.17.12.417 0 .378-.256.564-.256.186-.778.186h-1.119V.956h1.012q.545 0 .789.165.245.164.245.527 0 .19-.09.326-.089.133-.259.197z" style="-inkscape-font-specification:'sans-serif Bold'" font-weight="700" font-size="2"/>
        <path d="M130.287.956h.355l-.51 2.615h-.355z" style="-inkscape-font-specification:'sans-serif Italic'" font-style="italic" font-size="2"/>
    </g>
    <path d="M200.62 0l-.014 68.998 2.812.007.016-68.998z" fill="#f1f1f1"/>
    <path d="M200.555 9.873l-.015 10.293h2.813l.015-10.292z" fill="silver"/>
    <g fill="silver" stroke="#000" fill-rule="evenodd">
        <path d="M155.386 17.23v2.97" stroke-width=".383"/>
        <path d="M155.884 17.193l-.993.002m.993 3.071l-.993.002" stroke-width=".226"/>
    </g>
    <path d="M131.272 13.46h8.458v-1.716h-8.458z" fill="#d8d8d8"/>
    <path d="M203.282 1.901l-2.482-.004 1.246-1.685zm-.003 65.171l-2.481.004 1.245 1.685z" fill="silver"/>
    <path d="M133.225 45.203h44.652v-1.725h-44.652zm-21.485 9.121h48.42V52.6h-48.42zm-.07-3.132h10.474v-1.724H111.67zm50.986 9.494h10.982v-1.724h-10.982zm22.286 0h10.982v-1.724h-10.982zm-64.92-15.563h10.981V43.4h-10.981zm47.479 6.069h10.981v-1.724h-10.98zm-55.831-6.069h6.737V43.4h-6.737zm33.591 3.035h6.736v-1.725h-6.736zm19.656 0h6.736v-1.725h-6.736zm17.995 0h6.737v-1.725h-6.737zm-7.198 12.528h6.737v-1.724h-6.737zm-64.044-3.23h6.737v-1.724h-6.737zm8.543 0h30.67v-1.724h-30.67zm41.665-3.132h30.533V52.6h-30.533zm7.059 3.132h21.397v-1.724h-21.397zm10.383-12.333h12.399V43.4h-12.4zm-5.503 3.035h6.032v-1.725h-6.032zm-19.691 0h8.385v-1.725h-8.385zm-42.456 0h31.225v-1.725H111.67zm32.819 3.034h20.428v-1.724h-20.428zm-20.262 0h17.798v-1.724h-17.798zm29.899 6.264h11.57v-1.724h-11.57zm-42.456 3.23h15.999v-1.724H111.67zm17.685 0h30.533v-1.724h-30.533zM111.5 67.448h10.953v-1.803H111.5zm58.387 0h11.485v-1.803h-11.485zm-27.027-3.173h9.27V62.47h-9.27zm20.556 0h9.307V62.47h-9.307zm17.439 0h7.045V62.47h-7.045zm-8.132 0h6.308V62.47h-6.308z" fill="#d8d8d8"/>
    <path d="M152.13 64.275h8.77V62.47h-8.77zm-40.63 0h19.264V62.47h-19.265zm34.321 3.173h21.364v-1.803h-21.364zm-21.19 0h18.613v-1.803h-18.613zm7.509-3.173h8.888v-1.803h-8.888z" fill="#d8d8d8"/>
    <path d="M100.509 18.446a42.788 42.788 0 0 0-7.065.55c-12.377 2.008-23.566 9.303-33.946 19.759a2.31 2.31 0 1 0 3.278 3.254c9.967-10.04 20.347-16.66 31.408-18.455 10.81-1.755 22.47.988 35.657 10.184l-7.36 8.102 22.85 2.386-4.54-22.544-7.821 8.611c-10.526-7.438-20.558-11.184-30.06-11.766a41.707 41.707 0 0 0-2.401-.082z" style="line-height:normal;font-variant-ligatures:normal;font-variant-position:normal;font-variant-caps:normal;font-variant-numeric:normal;font-variant-alternates:normal;font-feature-settings:normal;text-indent:0;text-align:start;text-decoration-line:none;text-decoration-style:solid;text-decoration-color:#000;text-transform:none;text-orientation:mixed;shape-padding:0;isolation:auto;mix-blend-mode:normal" color="#000" font-weight="400" font-family="sans-serif" white-space="normal" overflow="visible" opacity=".53"/>
    <path d="M106.636 67.463l-2.481.004 1.246 1.685zm-.005-65.298l-2.48-.005 1.245-1.685z" fill="silver"/>
</svg>
