<?xml version="1.0" encoding="UTF-8"?>
<svg xmlns="http://www.w3.org/2000/svg" width="747.709" height="573.802" viewBox="0 0 197.83144 151.81839">
	<path fill="#f1f1f1" d="M-.00221275-.00094608h197.83292499v151.8215153H-.00221275z"/>
	<path fill="#fe8b00" d="M1.48017351 79.64312752h186.72596816v6.55313188H1.48017351z"/>
	<path fill="none" stroke="#fe8b00" stroke-width="1.2854641" d="M1.93145346 131.41177536V79.64312752"/>
	<g fill="#fff">
		<path d="M3.04857318 81.91830708h.63340013v1.98163754h-.63340013zm0-.76912873h.63340013v.51275249h-.63340013zM6.28494621 82.69346819v1.20647643H5.6485299v-.92295447q0-.25637624-.01206477-.35591055-.01206476-.09350192-.04222667-.14176098-.0361943-.06032382-.1025505-.09651811-.06032382-.0331781-.14477717-.0331781-.19605242 0-.31066768.15080955-.11159907.15382574-.11159907.42226675v.97724591H4.2912439v-1.98163754h.63340013v.28955434q.14176098-.17192289.3016191-.25336005.16287432-.08445335.35591055-.08445335.34384579 0 .52180106.21113338.17795527.21113337.17795527.61228679zM7.87447892 81.91830708h.63340012l.53084963 1.34522122.45242867-1.34522122h.63340012l-.83548493 2.16864139q-.12366383.33178102-.29257053.46147724-.16589051.1327124-.4403639.1327124h-.36495912v-.41623437h.19906861q.15985813 0 .23224671-.05127525.07540478-.05127524.11461527-.18398765l.01809714-.05429144zM11.43660059 82.32247669q-.21113338 0-.32273245.15080955-.10858288.15080955-.10858288.4373477 0 .28352197.10858288.43734771.11159907.15080956.32273245.15080956.20510099 0 .31670006-.15080956.10858288-.15080955.10858288-.4373477 0-.28352197-.10858288-.43433152-.11159907-.15080955-.31670006-.15080955zm0-.45242867q.51275248 0 .79627444.27748958.28955435.2744734.28955435.76309635t-.28955435.76309634q-.28653815.27748958-.79627444.27748958-.51275249 0-.80230683-.27748958-.28955435-.27447339-.28955435-.76309634t.28955435-.76309635q.28955434-.27748958.80230683-.27748958zM12.95977708 83.1308159v-1.21250882h.63641632v.92597066q0 .24129529.00904858.34686198.01206476.1025505.04222667.15080955.03921048.06032382.1025505.09651812.06032382.0301619.14477717.0301619.19605242 0 .31066768-.15080955.11159907-.15080955.11159907-.42226675v-.97724591h.63340013v1.98163754h-.63340013v-.28653815q-.14176098.1719229-.3016191.25637624-.15985813.08143716-.35289436.08143716-.34384579 0-.52180106-.21113338-.18097147-.21113337-.18097147-.61228679zM17.03163505 82.45820528q-.08143716-.03921048-.16589051-.05730763-.08143716-.01809714-.16287432-.01809714-.24431148 0-.37702389.15684193-.12969621.15684194-.12969621.44639628v.9139059h-.63340013v-1.98163754h.63340013v.32574864q.12064764-.19303623.27748958-.28352196.15985812-.09048574.38004007-.09048574l.0693724.00603238.10858288.00904858zM18.35875912 81.91830708h.63340013l.49465534 1.36935075.49163915-1.36935075h.63340012l-.7781773 1.98163754h-.69372395zM22.94638576 82.90460156v.18097147h-1.47793363q.02111334.22018195.15985813.33178102.13874479.11159907.38607246.11159907.1990686 0 .4071858-.06032382.21113337-.06032382.43131532-.17795528v.48862296q-.22319814.08445335-.44941247.12668002-.22319814.04524287-.44941247.04524287-.53688202 0-.83548493-.2714572-.29558673-.27748958-.29558673-.76912872 0-.48259058.28955434-.76309635.29558673-.27748958.80833921-.27748958.46449343 0 .7449992.28352196.28050577.28050578.28050577.75103158zm-.65149727-.21113337q0-.18097147-.10556669-.28955435-.1025505-.11159907-.2714572-.11159907-.18700384 0-.3016191.1025505-.11461527.1025505-.14176099.29860292zM24.8948452 82.45820528q-.08445335-.03921048-.1658905-.05730763t-.16589052-.01809714q-.24129528 0-.37702388.15684193-.12969622.15684194-.12969622.44639628v.9139059h-.63641632v-1.98163754h.63340013v.32574864q.12064764-.19303623.28050577-.28352196.15684194-.09048574.37702389-.09048574l.0693724.00603238q.03921048 0 .10858287.00904858zM26.7588513 81.9816471v.48259057q-.205101-.08746955-.39210485-.12969622-.19002004-.04222668-.35892674-.04222668-.18097146 0-.268441.04524287-.08445335.04524287-.08445335.1387448 0 .07540477.06334.11763144.0693724.03921049.2412953.06032382l.10858287.01508096q.48560677.06032382.65451347.2020848.1689067.14176098.1689067.4433801 0 .31670006-.2352629.47655818-.23224672.15985813-.69372395.15985813-.19605242 0-.4071858-.0331781-.21113338-.03016191-.43131532-.09048573v-.48259058q.19002003.09048574.38908865.1387448.1990686.04524286.4041696.04524286.18398766 0 .28050577-.05127525.09048573-.05127525.09048573-.15080955 0-.08445335-.06334-.12668003-.06334002-.04222667-.25637625-.0663562l-.11159907-.01206477q-.42226675-.05429144-.59117345-.19605242-.1719229-.14477717-.1719229-.43433151 0-.31670007.21716576-.46750962.21414957-.15080956.66356204-.15080956.1719229 0 .36495912.02412953.19303623.02714572.41925056.08445335zM27.3681219 81.91830708h.63340012v1.98163754h-.63340013zm0-.76912873h.63340012v.51275249h-.63340013zM29.55486043 82.32247669q-.21113338 0-.32273245.15080955-.10858288.15080955-.10858288.4373477 0 .28352197.10858288.43734771.11159907.15080956.32273245.15080956.205101 0 .31670006-.15080956.10858288-.15080955.10858288-.4373477 0-.28352197-.10858288-.43433152-.11159907-.15080955-.31670006-.15080955zm0-.45242867q.51275248 0 .79627444.27748958.28955435.2744734.28955435.76309635t-.28955435.76309634q-.28653815.27748958-.79627444.27748958-.51275249 0-.80230683-.27748958-.28955434-.27447339-.28955434-.76309634t.28955434-.76309635q.28955434-.27748958.80230683-.27748958zM33.08983638 82.69346819v1.20647643h-.63340013v-.92295447q0-.25637624-.01508095-.35591055-.00904858-.09651811-.03921049-.14176098-.0361943-.06032382-.0995343-.09651811-.06334002-.0331781-.14477718-.0331781-.1990686 0-.31066768.15080955-.11461526.15382574-.11461526.42226675v.97724591h-.63340013v-1.98163754h.63340013v.28955434q.14477717-.17192289.3046353-.25336005.15985813-.08445335.35591055-.08445335.34082959 0 .51878486.21113338.18097147.21113337.18097147.61228679z"/>
	</g>
	<path fill="#3c7aeb" d="M1.58957471 26.34012785H188.3182779v6.55313188H1.58957471z"/>
	<path fill="none" stroke="#3c7aeb" stroke-width="1.2854641" d="M2.04085466 78.11151072V26.34012785"/>
	<g fill="#fff">
		<path d="M3.16070941 28.61530741h.63340013v1.98163754H3.1607094zm0-.76912873h.63340013v.51275249H3.1607094zM6.39708244 29.39046852v1.20647643h-.63641631v-.92295447q0-.25637624-.01206477-.35591055-.01206476-.09350192-.04222667-.14176098-.0361943-.06032382-.1025505-.09651811-.06032382-.0331781-.14477717-.0331781-.19605242 0-.31066768.15080955-.11159907.15382574-.11159907.42226675v.97724591h-.63340013v-1.98163754h.63340013v.28955434q.14176098-.17192289.3016191-.25336005.16287432-.08445335.35591055-.08445335.34384579 0 .52180106.21113338.17795527.21113337.17795527.61228679zM9.60630976 29.27283707q0-.49465534-.09350193-.69372395-.09048573-.205101-.31066768-.205101t-.31368387.2020848q-.09350192.2020848-.09350192.69674015 0 .50068772.09048573.70578871.09651811.205101.31670006.205101.21716576 0 .31066768-.205101.09048574-.205101.09048574-.70578871zm.678643.00603238q0 .65451346-.28050578 1.0134402-.28352196.35591055-.80230683.35591055-.52180105 0-.80532302-.35591055-.28352196-.35892674-.28352196-1.0134402 0-.65752966.28352196-1.0134402.28352197-.35591055.80532302-.35591055.51878487 0 .80230683.35591054.28050577.35591055.28050577 1.0134402zM10.86406144 28.61530741h.63340013v.68467538h-.63340013zm0 1.29696217h.63340013v.68467537h-.63340013zM13.57260103 29.27283707q0-.49465534-.09350192-.69372395-.09048573-.205101-.31368387-.205101-.21716576 0-.31066768.2020848t-.09350193.69674015q0 .50068772.09048573.70578871.09651812.205101.31368388.205101.22018195 0 .31368387-.205101.09048573-.205101.09048573-.70578871zm.678643.00603238q0 .65451346-.28352196 1.0134402-.28050578.35591055-.80230683.35591055-.51878487 0-.80230683-.35591055-.28352196-.35892674-.28352196-1.0134402 0-.65752966.28352196-1.0134402.28352196-.35591055.80230683-.35591055.52180105 0 .80230683.35591054.28352196.35591055.28352196 1.0134402zM14.82733652 28.61530741h.63943251v.68467538h-.6394325zm0 1.29696217h.63943251v.68467537h-.6394325zM17.5388923 29.27283707q0-.49465534-.0965181-.69372395-.09048574-.205101-.31066769-.205101-.21716576 0-.31066768.2020848t-.09350192.69674015q0 .50068772.09048573.70578871.09651811.205101.31368387.205101t.31066768-.205101q.09651812-.205101.09651812-.70578871zm.678643.00603238q0 .65451346-.28352196 1.0134402-.28050577.35591055-.80230683.35591055-.52180105 0-.80230683-.35591055-.28352196-.35892674-.28352196-1.0134402 0-.65752966.28352196-1.0134402.28050578-.35591055.80230683-.35591055.52180106 0 .80230683.35591054.28352196.35591055.28352196 1.0134402zM18.796644 28.61530741h.63340012v.68467538h-.63340013zm0 1.29696217h.63340012v.68467537h-.63340013zM21.5021674 29.27283707q0-.49465534-.09048574-.69372395-.09350192-.205101-.31368387-.205101-.21716576 0-.31368387.2020848-.09048574.2020848-.09048574.69674015 0 .50068772.09048574.70578871.09651811.205101.31368387.205101t.31066768-.205101q.09350192-.205101.09350192-.70578871zm.68165918.00603238q0 .65451346-.28352196 1.0134402-.28352197.35591055-.80230683.35591055-.52180106 0-.80230683-.35591055-.28352196-.35892674-.28352196-1.0134402 0-.65752966.28352196-1.0134402.28050577-.35591055.80230683-.35591055.51878486 0 .80230683.35591054.28352196.35591055.28352196 1.0134402zM22.75991908 28.61530741h.63641631v.68467538h-.63641631zm0 1.29696217h.63641631v.68467537h-.63641631zM25.46845867 29.27283707q0-.49465534-.09048573-.69372395-.09350193-.205101-.31368388-.205101t-.31368387.2020848q-.09048573.2020848-.09048573.69674015 0 .50068772.09048573.70578871.09350192.205101.31368387.205101.21716576 0 .31066769-.205101t.09350192-.70578871zm.68165918.00603238q0 .65451346-.28352196 1.0134402-.28352196.35591055-.80230683.35591055-.52180105 0-.80532302-.35591055-.28050577-.35892674-.28050577-1.0134402 0-.65752966.28050577-1.0134402.28352197-.35591055.80532302-.35591055.51878487 0 .80230683.35591054.28352196.35591055.28352196 1.0134402zM26.72621035 28.61530741h.63641632v.68467538h-.63340013zm0 1.29696217h.63641632v.68467537h-.63340013zM29.43474994 29.27283707q0-.49465534-.09350192-.69372395-.09048573-.205101-.31066768-.205101t-.31368387.2020848q-.09048574.2020848-.09048574.69674015 0 .50068772.09048574.70578871.09350192.205101.31368387.205101.21716576 0 .31066768-.205101t.09350192-.70578871zm.68165919.00603238q0 .65451346-.28352196 1.0134402-.28352196.35591055-.80230683.35591055-.52180106 0-.80532302-.35591055-.28050577-.35892674-.28050577-1.0134402 0-.65752966.28050577-1.0134402.28352196-.35591055.80532302-.35591055.51878487 0 .80230683.35591054.28352196.35591055.28352196 1.0134402zM30.69250163 28.61530741h.63641631v.68467538h-.63641631zm0 1.29696217h.63641631v.68467537h-.63641631zM33.40104122 29.27283707q0-.49465534-.09350192-.69372395-.09048574-.205101-.31066769-.205101t-.31368387.2020848q-.09350192.2020848-.09350192.69674015 0 .50068772.09350192.70578871t.31368387.205101q.21716576 0 .31066769-.205101.09048573-.205101.09048573-.70578871zm.678643.00603238q0 .65451346-.28050578 1.0134402-.28352196.35591055-.80230683.35591055-.52180105 0-.80532302-.35591055-.28352196-.35892674-.28352196-1.0134402 0-.65752966.28352196-1.0134402.28352197-.35591055.80532302-.35591055.51878487 0 .80230683.35591054.28050577.35591055.28050577 1.0134402zM34.65577671 28.61530741h.63943251v.68467538h-.6394325zm0 1.29696217h.63943251v.68467537h-.6394325zM36.12466177 30.12641914h.60323822V28.419255l-.61831918.12668003v-.46147724l.6122868-.12668003h.64848108v2.1686414h.60323821v.4705258h-1.84892513zM38.98099473 27.95777775v.9802621h-.41925057v-.9802621zM41.17678183 28.67864742v.48259058q-.2020848-.08746955-.39210484-.12969622-.18700384-.04222668-.35591054-.04222668-.18097147 0-.26844101.04524287-.08746954.04524287-.08746954.1387448 0 .07540477.0663562.11763144.0663562.03921049.24129529.06032382l.10858288.01508096q.48560676.06032382.65451346.2020848.1689067.14176098.1689067.4433801 0 .31670006-.2352629.47655818-.23224672.15985813-.69372395.15985813-.19906861 0-.4071858-.0331781-.21113337-.03016191-.43131532-.09048573v-.48259058q.19002004.09048574.38908865.1387448.1990686.04524286.4041696.04524286.18398766 0 .27748958-.05127525t.09350193-.15080955q0-.08445335-.06334002-.12668003-.06334-.04222667-.25637624-.0663562l-.11159907-.01206477q-.42226675-.05429144-.59418964-.19605242-.16589051-.14477717-.16589051-.43433151 0-.31670007.21716576-.46750962.21414956-.15080956.66054584-.15080956.17493909 0 .36797532.02412953.19303623.02714572.41925056.08445335zM42.79647645 28.61530741h.63340012l.49465534 1.36935075.48862296-1.36935075h.63340012l-.7781773 1.98163754h-.69372394zM47.38410309 29.6016019v.18097146h-1.47793364q.02111334.22018195.15985813.33178102.1357286.11159907.38305627.11159907.2020848 0 .41020199-.06032382.21113337-.06032382.43131532-.17795528v.48862296q-.22621433.08445335-.45242866.12668002-.22018195.04524287-.44639628.04524287-.53688201 0-.83548493-.2714572-.29558673-.27748958-.29558673-.76912872 0-.48259058.28955435-.76309635.29257053-.27748958.80532302-.27748958.46750961 0 .74801538.28352196.28050578.28050578.28050578.75103158zm-.65149728-.21113338q0-.18097147-.10556669-.28955435-.10556668-.11159907-.2714572-.11159907-.18700384 0-.3016191.1025505-.11461526.1025505-.14176098.29860292zM49.33256253 29.15520561q-.08445336-.03921048-.1689067-.05730763-.08143716-.01809714-.16287432-.01809714-.2412953 0-.37702389.15684193-.12969622.15684194-.12969622.44639628v.9139059h-.63340012v-1.98163754h.63340012v.32574864q.12064765-.19303623.27748958-.28352196.15985813-.09048574.38004008-.09048574l.0693724.00603238.10858287.00904858zM51.19656862 28.67864742v.48259058q-.205101-.08746955-.39210485-.12969622-.19002003-.04222668-.35892673-.04222668-.18097147 0-.26844101.04524287-.08746954.04524287-.08746954.1387448 0 .07540477.0663562.11763144.0663562.03921049.24129529.06032382l.10858288.01508096q.48560676.06032382.65451346.2020848.1689067.14176098.1689067.4433801 0 .31670006-.2352629.47655818-.23224672.15985813-.69372395.15985813-.19906861 0-.4071858-.0331781-.21113337-.03016191-.43131532-.09048573v-.48259058q.19002004.09048574.38908865.1387448.1990686.04524286.4041696.04524286.18398766 0 .27748958-.05127525t.09350193-.15080955q0-.08445335-.06334002-.12668003-.06334-.04222667-.25637624-.0663562l-.11159907-.01206477q-.42226675-.05429144-.59117345-.19605242-.1719229-.14477717-.1719229-.43433151 0-.31670007.21716576-.46750962.21414957-.15080956.66054585-.15080956.17493909 0 .36797531.02412953.19303623.02714572.41925057.08445335zM51.80583921 28.61530741h.63340013v1.98163754h-.63340013zm0-.76912873h.63340013v.51275249h-.63340013zM53.99257775 29.01947702q-.21113338 0-.32273245.15080955-.10858287.15080955-.10858287.4373477 0 .28352197.10858287.43734771.11159907.15080956.32273245.15080956.205101 0 .31670006-.15080956.10858288-.15080955.10858288-.4373477 0-.28352197-.10858288-.43433152-.11159907-.15080955-.31670006-.15080955zm0-.45242867q.5097363 0 .79627445.27748958.28653815.2744734.28653815.76309635t-.28653815.76309634q-.28653816.27748958-.79627445.27748958-.51275248 0-.80230683-.27748958-.28955434-.27447339-.28955434-.76309634t.28955434-.76309635q.28955435-.27748958.80230683-.27748958zM57.5275537 29.39046852v1.20647643h-.63340013v-.92295447q0-.25637624-.01508095-.35591055-.00904858-.09651811-.03921049-.14176098-.03619429-.06032382-.0995343-.09651811-.06334002-.0331781-.14477717-.0331781-.19906862 0-.31066769.15080955-.11461526.15382574-.11461526.42226675v.97724591h-.63340012v-1.98163754h.63340012v.28955434q.14477717-.17192289.30161911-.25336005.16287432-.08445335.35892674-.08445335.3408296 0 .51878487.21113338.18097146.21113337.18097146.61228679z"/>
	</g>
	<path fill="#d8d8d8" d="M4.97827688 92.60990475H34.4181398v-3.0905839H4.97827688zM43.59690048 98.2303914h80.00236253v-3.0905839h-79.9996275zM5.10408826 114.57219565h86.7551516v-3.0905839H5.10408826zM54.88163426 137.71875454h49.25242024v-3.0905839H54.88163426zM4.84152538 149.11835958h79.9996275v-3.0905839H4.84152538z"/>
	<path fill="#ead97f" d="M39.34939889 93.66836136H86.1649074v-5.76544324H39.34939889z"/>
	<path fill="#d8d8d8" d="M4.97827688 108.95991409h18.76504083v-3.0905839H4.97827688zM96.32827888 125.96906566h19.67580582v-3.0905839H96.32827888zM136.25971688 125.96906566h19.67307079v-3.0905839h-19.67307079zM88.64010955 149.11835958h19.67580582v-3.0905839H88.64010955zM4.97827688 137.71875454H21.2626455v-3.0905839H4.97827688zM19.94162601 98.08543481h19.67580582v-3.0905839H19.94162601zM105.0092641 108.95991409h19.67580582v-3.0905839H105.0092641zM128.33086491 149.11835958h19.67307079v-3.0905839h-19.67307079zM4.97827688 98.08543481h12.06968739v-3.0905839H4.97827688zM65.159877 103.52267445h12.07242242v-3.0905839H65.159877zM100.37885831 103.52267445h12.06968739v-3.0905839h-12.06968739zM132.62212698 103.52267445h12.06968739v-3.0905839h-12.06968739zM107.07694678 137.71875454h12.06968739v-3.0905839h-12.06968739zM111.78940347 149.11835958h12.06968739v-3.0905839h-12.06968739zM121.95550998 137.71875454h12.06968739v-3.0905839h-12.06968739zM54.2471073 143.3310361h12.07242242v-3.0905839H54.24984233zM119.7237255 125.96906566h12.06968739v-3.0905839H119.7237255zM4.97827688 120.18174218h12.06968739v-3.0905839H4.97827688zM37.88068778 143.3310361h12.06968739v-3.0905839H37.88068778zM20.28350476 120.18174218h54.95222276v-3.0905839H20.28350476zM94.93341358 114.57219565h54.70607006v-3.0905839H94.93341358zM69.63712111 143.3310361h53.21821374v-3.0905839H69.63712111zM125.4399382 143.3310361h32.3827552v-3.0905839h-32.3827552zM107.58292733 120.18174218h38.33691551v-3.0905839h-38.33691551zM126.18386636 98.08543481h22.21664869v-3.0905839h-22.21664869zM116.32408321 103.52267445h10.80883856v-3.0905839h-10.80883856zM81.04493124 103.52267445h15.02351979v-3.0905839H81.04493124zM4.97827688 103.52267445h55.94503865v-3.0905839H4.97827688zM63.77868685 108.95991409h36.60017146v-3.0905839H63.77868685zM27.47663366 108.95991409h31.88771477v-3.0905839h-31.8904498zM81.04493124 120.18174218h20.72879237v-3.0905839H81.04493124zM4.97827688 125.96906566h28.6631144v-3.0905839H4.97827688zM36.66359943 125.96906566h54.70607006v-3.0905839H36.6608644zM4.97827688 143.3310361h30.32874767v-3.0905839H4.97554185zM151.77280704 98.15654559h36.60017146v-3.0905839h-36.60017146zM152.83946874 114.55031541h16.49770096v-3.0905839h-16.49770096zM24.2711785 137.66405394h26.6118419v-3.0905839H24.2711785zM151.4774238 149.08553922h26.60637184v-3.0905839H151.4774238zM4.90169604 40.0016027h29.43986292v-3.0905839H4.90169604zM43.52031964 45.61935432h80.00236253v-3.0905839h-79.9996275zM5.02750742 61.9638936h86.7551516v-3.0905839H5.02750742z"/>
	<path fill="#a3c9d2" d="M38.32376264 41.0956147h49.16216425v-5.76544324H38.32376264z"/>
	<path fill="#d8d8d8" d="M4.90169604 56.35161204H23.6694719v-3.0905839H4.90169604zM96.25443307 73.36076361h19.67307079v-3.0905839H96.25443307zM136.18313604 73.36076361h19.67580582v-3.0905839h-19.67580582zM19.8677802 45.47713276h19.67307079v-3.0905839H19.86504517zM104.93268326 56.35161204h19.67580582v-3.0905839h-19.67580582zM4.90169604 45.47713276h12.06968739v-3.0905839H4.90169604zM65.08603119 50.9143724h12.06968739v-3.0905839H65.08603119zM100.3050125 50.9143724h12.06968739v-3.0905839H100.3050125zM132.54554614 50.9143724h12.06968739v-3.0905839h-12.06968739zM119.64987969 73.36076361h12.06968739v-3.0905839h-12.06968739zM4.90169604 67.57344013h12.06968739v-3.0905839H4.90169604zM20.20692392 67.57344013h54.95495779v-3.0905839H20.20692392zM94.85956777 61.9638936h54.70607006v-3.0905839H94.85956777zM107.50634649 67.57344013H145.843262v-3.0905839h-38.33691551zM126.10728552 45.47713276h22.21664869v-3.0905839h-22.21664869zM116.2502374 50.9143724h10.80610353v-3.0905839H116.2502374zM80.9683504 50.9143724h15.02625482v-3.0905839H80.97108543zM4.90169604 50.9143724h55.94503865v-3.0905839H4.90169604zM63.70484104 56.35161204h36.60017146v-3.0905839H63.70484104zM27.40005282 56.35161204h31.8904498v-3.0905839h-31.8904498zM80.9683504 67.57344013h20.7315274v-3.0905839H80.9683504zM4.90169604 73.36076361h28.6631144v-3.0905839H4.90169604zM36.58701859 73.36076361h54.70607006v-3.0905839H36.58701859zM151.6962262 45.54824354h36.60017146v-3.0905839H151.6962262zM152.7628879 61.94201336h16.50043599v-3.0905839H152.7628879zM90.80078325 92.50323858h36.60017146v-3.0905839H90.80078325zM130.253591 92.50323858h19.67307079v-3.0905839h-19.67580582zM90.98676529 39.80194551h36.60017146v-3.0905839H90.98676529zM130.43957304 39.80194551h19.67307079v-3.0905839h-19.67307079zM4.78955981 11.35489848h79.9996275v-3.0905839H4.78955981zM88.58814398 11.35489848h19.67580582v-3.0905839H88.58814398zM128.27889934 11.35489848h19.67580582v-3.0905839h-19.67580582zM111.7374379 11.35489848h12.06968739v-3.0905839H111.7374379zM54.19787676 5.567575h12.06968739V2.4769911H54.19787676zM37.82872221 5.567575H49.8984096V2.4769911H37.82872221zM69.58515554 5.567575h53.21821374V2.4769911H69.58515554zM125.38797263 5.567575h32.3827552V2.4769911h-32.3827552zM4.92631131 5.567575h30.3314827V2.4769911H4.92631131zM151.42545823 11.31934309h26.60910687v-3.0905839h-26.60910687z"/>
	<path fill="silver" d="M192.03006055 35.2763127l-.02855508 18.1879495 5.3333085.00186666.02855508-18.1879495zM196.39097363 3.38003893l-3.17542475-.00555211 1.59357412-1.80281376zM196.21319668 149.15616207l-3.17542475.00555211 1.59357412 1.80281376z"/>
</svg>
