<?xml version="1.0" encoding="UTF-8"?>
<svg xmlns="http://www.w3.org/2000/svg" width="750.218" height="187.059" viewBox="0 0 198.49528 49.49279">
	<path fill="#fdfcfd" d="M.0000684.0000598h198.4948094v49.4937041H.0000684z"/>
	<path fill="#f1f1f1" d="M4.1137908 21.219626h194.381087v28.272212H4.1137908z"/>
	<path d="M3.86693395 14.75296416V12.7581574h.53822145v1.97222406q0 .4667095.18442553.70006426.18066174.23335476.54574902.23335476.440363 0 .6925367-.2785202.25593747-.27852019.25593747-.76028484V12.7581574h.53822145v3.29331307h-.53822145v-.50811116q-.19948068.30110291-.45918194.44789058-.25970126.14302388-.60220582.14302388-.56833174 0-.86567086-.35379592-.28981155-.35003213-.28981155-1.03127746zm1.35872687-2.07761007zm5.25800956 1.38507338v1.991043h-.54198523v-1.97598785q0-.46670951-.18442554-.70006427-.18066174-.23335475-.54574902-.23335475-.43659922 0-.6925367.28228397-.25217368.2785202-.25217368.76028485v1.86307425h-.54198524V12.7581574h.54198524v.50811116q.1957169-.29357534.45541815-.440363.26346505-.15055146.6097334-.15055146.56456795 0 .85814329.35379592.28981155.35003213.28981155 1.03127746zm3.45139211-1.17806513v.50434737q-.22582719-.12420495-.45918194-.18818932-.22959097-.06398437-.46670951-.06398437-.5269301 0-.81674164.33874078-.28981155.3312132-.28981155.93341902t.28981155.9371828q.28981155.3312132.81674164.3312132.23711854 0 .4667095-.06022058.22959098-.06398437.45918195-.18818932v.4968198q-.22582719.10538602-.4704733.15807903-.24088233.05269301-.51187495.05269301-.7452297 0-1.18182892-.4667095-.440363-.46670952-.440363-1.26086844 0-.80545029.440363-1.268396.4441268-.46294573 1.215703-.46294573.2484099 0 .48929223.052693.23711854.05269302.45918194.15431525zm3.68474685 1.17806513v1.991043h-.53822145v-1.97598785q0-.46670951-.18442553-.70006427-.18066175-.23335475-.54574903-.23335475-.440363 0-.69253669.28228397-.25217368.2785202-.25217368.76028485v1.86307425h-.54198524v-4.57300043h.54198524v1.7915623q.19571689-.29357533.45541815-.440363.26346504-.15055145.60973339-.15055145.56456795 0 .8581433.35379592.28981154.35003213.28981154 1.03127746zm2.58195746.33497699q-.65489884 0-.90707252.15055145t-.2521737.50811116q0 .28981155.18818933.45918194t.51563873.16937039q.45165436 0 .72264698-.31992184.27099262-.31992185.27099262-.84685194v-.12044116zm1.08020668-.22582718v1.88189318h-.54198524v-.50058359q-.18442553.30110291-.45918194.4441268-.27852019.1392601-.67748154.1392601-.50434738 0-.80545028-.28228399-.30110291-.28604776-.30110291-.76028484 0-.55704039.37637863-.83932436.37261485-.28228398 1.11031698-.28228398h.75652106v-.05269301q0-.37637864-.24464611-.57585932-.24464612-.20700825-.6887729-.20700825-.28228399 0-.54951282.06774816t-.51563873.20324446v-.4968198q.29733912-.11291359.57585931-.16937038.2785202-.06022059.54574903-.06022059.7151194 0 1.06515154.37261485.35379592.36885107.35379592 1.12160834zm3.85411724-.10914981v1.991043h-.53822145v-1.97598785q0-.46670951-.18066174-.70006427t-.54574903-.23335475q-.440363 0-.69253669.28228397-.25217369.2785202-.25217369.76028485v1.86307425h-.5495128V12.7581574h.54574902v.50811116q.1919531-.29357534.45541815-.440363.26346504-.15055146.60973339-.15055146.56456795 0 .8581433.35379592.28981154.35003213.28981154 1.03127746zm3.25191143.3048667q0-.58715068-.24464612-.9108363-.24088233-.32368563-.67748154-.32368563-.43659922 0-.67748155.32368563-.24464612.32368562-.24464612.9108363 0 .58338688.24088233.90707251.24464612.32368563.68124534.32368563.43659921 0 .67748154-.32368563.24464612-.32368563.24464612-.90707251zm.54198523 1.27592358q0 .83932436-.37637863 1.24957707-.36885107.4140165-1.14042727.4140165-.28604777 0-.53822145-.04516543-.2521737-.04140165-.48929223-.13173253v-.52693009q.23711854.13173252.4667095.1919531.23335476.06398437.47423709.06398437.53445766 0 .79792271-.28228397.26346505-.2747564.26346505-.83556058v-.27099262q-.1656066.28981155-.42907165.43283544-.26346505.14678766-.62478854.14678766-.6059696 0-.97858445-.46294572-.36885107-.46294572-.36885107-1.22323057 0-.76404863.36885107-1.22699436.37261485-.46294572.97858445-.46294572.36508728 0 .62478854.14678767.26346505.14302388.42907165.43283543v-.49305601h.54198523zm3.93315676-1.37378203v.26346505h-2.4878628q.03387409.56080417.334977.8543795.3011029.28981155.83932436.28981155.31239427 0 .60220582-.07527572.29357533-.07527573.58338688-.22582719v.50811116q-.28981155.12420495-.59844203.18818932-.3011029.06398437-.61726096.06398437-.79039514 0-1.25334087-.45918194-.45541815-.45918193-.45541815-1.2420495 0-.80545028.43283544-1.27968736.440363-.47800087 1.18182892-.47800087.6624264 0 1.0463326.43283543.39143379.42530786.39143379 1.1592462zm-.54198524-.15807903q-.00752757-.44412679-.25217368-.70759183-.24088233-.26346505-.63984369-.26346505-.45165436 0-.72641077.25217369-.27099262.25593747-.31239427.72264698zm3.59441599-.8543795v-1.77650717h.54198523v4.57676423h-.54198523v-.4968198q-.1693704.29357533-.43283544.440363-.25593747.1392601-.62102475.1392601-.59844203 0-.97482067-.47423708-.37261485-.47800087-.37261485-1.25334087 0-.77533999.37637864-1.25334086t.97105688-.47800087q.36508728 0 .62102475.14678767.26346505.1392601.43283544.43283543zm-1.84425533 1.15171863q0 .59467824.24464612.9371828.2484099.33874078.67748155.33874078.42907164 0 .67748154-.33874078.24464612-.33874077.24464612-.94094659 0-.59467825-.24464612-.93341902-.2484099-.33874077-.67748154-.33874077-.42907165 0-.67748155.33874077-.24464612.33874077-.24464612.9371828zm5.95431004-2.58572124v.9371828h1.11408077v.4177803H40.0256296v1.78779852q0 .40272514.1091498.51940252.1129136.11291359.45165437.11291359h.5532766v.45165436h-.55704039q-.62478853 0-.86567086-.22959096-.23711854-.23711855-.23711854-.85437951v-1.78779853h-.39143378v-.41778028h.39519756v-.9409466zm4.64451238 2.44646114v.26346505h-2.484099q.03387408.56080417.3312132.8543795.3011029.28981155.84308815.28981155.30863048 0 .60220581-.07527572t.5796231-.22582719v.50811116q-.28981154.12420495-.59467824.18818932t-.62102475.06398437q-.79039514 0-1.24957708-.45918194-.45918193-.45918193-.45918193-1.2420495 0-.80545028.43659922-1.27968736.43659921-.47800087 1.17806513-.47800087.66619019 0 1.0500964.43283543.38767.42530786.38767 1.1592462zm-.54198523-.15807903q-.0037638-.44412679-.2484099-.70759183-.24088233-.26346505-.63984369-.26346505-.45165436 0-.72641077.25217369-.27099262.25593747-.31239427.72264698zm4.06112549-1.3511993l-1.1893565 1.5996092 1.25334087 1.69370387h-.63984369l-.95976552-1.29474251-.95600174 1.29474251h-.63984368l1.27968736-1.72381416-1.16677377-1.56949891h.6360799l.87319843 1.17053756.87319844-1.17053756zm1.36249066-.93718281v.9371828h1.11408077v.4177803H49.5517729v1.78779852q0 .40272514.1091498.51940252.1129136.11291359.45165437.11291359h.5532766v.45165436h-.55704038q-.62478854 0-.86567087-.22959096-.23711854-.23711855-.23711854-.85437951v-1.78779853h-.39519757v-.41778028h.39519757v-.9409466z"/>
	<path fill="#3261ff" d="M85.6101752 12.2930795a4.6703075 4.6703075 0 0 1-4.6722334 4.6703075 4.6703075 4.6703075 0 0 1-4.6703075-4.6703075 4.6703075 4.6703075 0 0 1 4.6703075-4.6722334 4.6703075 4.6703075 0 0 1 4.6722334 4.6722334z"/>
	<path fill="#fff" d="M83.7555335 12.2892277a2.831073 2.831073 0 0 1-2.831073 2.831073 2.831073 2.831073 0 0 1-2.831073-2.831073 2.831073 2.831073 0 0 1 2.831073-2.831073 2.831073 2.831073 0 0 1 2.831073 2.831073z"/>
	<path fill="#fff" stroke="#373635" stroke-linecap="round" stroke-linejoin="round" stroke-width=".654806" d="M148.7604362 12.1910068a4.3429045 4.3429045 0 0 1-4.3448304 4.3429045 4.3429045 4.3429045 0 0 1-4.3429045-4.3429045 4.3429045 4.3429045 0 0 1 4.3429045-4.3448304 4.3429045 4.3429045 0 0 1 4.3448304 4.3448304z"/>
	<path d="M92.03243965 11.47138175v.51187494q-.22582718-.11667737-.47423708-.17689796-.2484099-.052693-.51187495-.052693-.40272514 0-.6059696.12420494-.19948068.12044117-.19948068.36885107 0 .18818932.14302388.29733912.14302388.10538602.5796231.20324447l.18818932.03763786q.57209553.12796874.81297785.35379592.24464612.22582718.24464612.62478854 0 .45918193-.36508728.72641077-.3613235.26722883-.99740339.26722883-.26346504 0-.5495128-.05269301-.28604777-.04892922-.60220583-.15055146v-.56080417q.30110291.15431525.58715068.23711855.29357533.07527572.5796231.07527572.38014242 0 .58715067-.13173252t.20700825-.36885106q0-.2220634-.15055145-.33874078t-.65113504-.22582718l-.18818932-.04516544q-.50434738-.10538601-.72641077-.32368562-.22582718-.21829961-.22582718-.60220582 0-.46294573.3312132-.71511941.3312132-.25593748.9371828-.25593748.30110291 0 .56456796.04516544.26346504.04516544.48929223.13173252zm3.77884151 1.20817542v1.991043h-.54198523v-1.97598785q0-.46670951-.18066175-.70006427t-.54574902-.23335475q-.440363 0-.6925367.28228397-.25217368.28228398-.25217368.76404864v1.86307425h-.54574902v-4.57676422h.54574902v1.7915623q.1919531-.29357533.45541815-.440363.26346505-.15055145.6097334-.15055145.56456795 0 .85814328.35379592.28981155.35003213.28981155 1.03127746zm2.36365784-.92589145q-.43659921 0-.6887729.33874078-.25217369.33874077-.25217369.93341902 0 .59091446.2484099.92965523.25217369.33874077.6925367.33874077.42907164 0 .68500911-.33874077.2521737-.33874077.2521737-.92965523 0-.58715068-.2521737-.92589145-.25593747-.34626835-.68500912-.34626835zm0-.45918193q.70382806 0 1.1065532.45918193.40272514.45918194.40272514 1.2721598 0 .80921407-.40272514 1.268396-.40272514.45918194-1.1065532.45918194-.71135562 0-1.11408076-.45918194-.39896136-.45918193-.39896136-1.268396 0-.81297786.39896136-1.2721598.40272514-.45918193 1.11408076-.45918193zm2.08890144.0828033h.54198524l.67748154 2.5669023.66995398-2.5669023h.63984368l.67748155 2.5669023.66995397-2.5669023h.54198524l-.86190708 3.29331307h-.63984368l-.70382805-2.70239861-.71511941 2.70239861h-.63984369z"/>
	<path d="M155.02907353 12.54859597v1.991043h-.54198524v-1.97598785q0-.46670951-.18066174-.70006427-.18442553-.23335475-.54951281-.23335475-.43659922 0-.6887729.28228397-.2521737.2785202-.2521737.76028485v1.86307425h-.5495128V9.96287474h.54574902v1.7915623q.1919531-.29357533.45165436-.440363.26722884-.15055145.6097334-.15055145.56833174 0 .85814329.35379592.29357534.35003213.29357534 1.03127746zm1.08397047-1.30227008h.54198524v3.29331307h-.54198523zm0-1.28345115h.54198524v.68500911h-.54198523zm3.8390621 1.78027095V9.96663852h.53822145v4.57676423h-.53822145v-.4968198q-.17313417.29357533-.43283543.440363-.25970126.1392601-.62478854.1392601-.59467824 0-.97105688-.47423708-.37637864-.47800087-.37637864-1.25334087 0-.77533999.37637864-1.25334086t.97105688-.47800087q.36508728 0 .62478854.14678767.26346505.1392601.43283543.43283543zm-1.84425532 1.15171863q0 .59467824.24464612.9371828.24464611.33874078.67748154.33874078.42530786 0 .67371776-.33874078.2484099-.33874077.2484099-.94094659 0-.59467825-.2484099-.93341902t-.67748154-.33874077q-.42907165 0-.67748155.33874077-.24088233.33874077-.24088233.9371828zm6.31563353-.1392601v.26346505h-2.48786279q.03763786.56080417.33497699.8543795.3011029.28981155.83932436.28981155.31239427 0 .60220582-.07527572.29733912-.07527573.58338688-.22582719v.50811116q-.28981155.12420495-.59467824.18818932-.30863048.06398437-.62102475.06398437-.79039514 0-1.24957708-.45918194-.45918193-.45918193-.45918193-1.2420495 0-.80545028.43659921-1.27968736.43659922-.47800087 1.17806514-.47800087.6624264 0 1.0500964.43283543.38767.42530786.38767 1.1592462zm-.54198524-.15807903q-.00376378-.44412679-.2484099-.70759183-.24088232-.26346505-.63984368-.26346505-.45165436 0-.73017455.25217369-.26722884.25593747-.30863049.72264698z"/>
	<path fill="#d8d8d8" d="M6.517314 41.1873572h94.6810958V37.531999H6.5153881zm99.1742205 0h23.2860569V37.531999h-23.284131zm46.972701 0h23.284131V37.531999h-23.284131zm-19.5767735 0h14.2844003V37.531999H133.087462zm-68.0959722-6.8485004h14.2844003v-3.6572841H64.9914898zm-19.3726281 0H59.903262v-3.6572841H45.6188617zm37.5839385 0h62.9807818v-3.6572841H83.2028002zm66.0410369 0h38.32541v-3.6572841h-38.32541zm-142.5647475 0h35.8929983v-3.6572841H6.6790896z"/>
	<path fill="silver" d="M195.5155105 32.2704402l-.0154072 11.0296293 3.0140335.0019259.0154072-11.0315552zm2.8252953-8.4681823l-2.657742-.0038518 1.3346487-1.8064942z"/>
	<path fill="#3c7aeb" stroke="#3c7aeb" stroke-linecap="round" stroke-linejoin="round" stroke-width=".387" d="M4.024 21.681h187.287v6.629H4.024z"/>
	<path fill="#3c7aeb" stroke="#3c7aeb" stroke-width="1.711" d="M4.264 49.516V21.402"/>
	<path fill="#ead97f" d="M63.914 34.679h16.564v-4.55H63.914z"/>
	<path fill="#fff" d="M5.266 24.056h.697v2.182h-.697zm0-.85h.697v.57h-.697zm3.566 1.703v1.33H8.13v-1.018q0-.283-.013-.39-.012-.108-.043-.159-.041-.068-.111-.105-.07-.039-.16-.039-.218 0-.343.17-.125.167-.125.466v1.073h-.697v-2.182h.697v.32q.158-.192.335-.281.178-.092.392-.092.378 0 .573.232.197.232.197.674zm3.539-.128q0-.546-.104-.768-.1-.224-.342-.224-.242 0-.345.224-.104.222-.104.768 0 .551.104.777.103.226.345.226.24 0 .342-.226.104-.226.104-.777zm.75.006q0 .723-.312 1.116-.312.392-.884.392-.575 0-.887-.392-.312-.393-.312-1.116 0-.725.312-1.117.312-.394.887-.394.572 0 .884.394.312.392.312 1.117zm.635-.731h.704v.754h-.704zm0 1.428h.704v.754h-.704zm2.988-.703q0-.546-.104-.768-.1-.224-.343-.224-.241 0-.344.224-.104.222-.104.768 0 .551.104.777.103.226.344.226.24 0 .343-.226.104-.226.104-.777zm.75.006q0 .723-.312 1.116-.312.392-.884.392-.575 0-.887-.392-.312-.393-.312-1.116 0-.725.312-1.117.312-.394.887-.394.572 0 .884.394.312.392.312 1.117zm.635-.731h.704v.754h-.704zm0 1.428h.704v.754h-.704zm2.988-.703q0-.546-.104-.768-.1-.224-.343-.224-.241 0-.344.224-.104.222-.104.768 0 .551.104.777.103.226.344.226.24 0 .343-.226.104-.226.104-.777zm.75.006q0 .723-.312 1.116-.312.392-.885.392-.574 0-.886-.392-.312-.393-.312-1.116 0-.725.312-1.117.312-.394.886-.394.573 0 .885.394.312.392.312 1.117zm.635-.731h.704v.754h-.704zm0 1.428h.704v.754h-.704zm2.988-.703q0-.546-.104-.768-.1-.224-.343-.224-.241 0-.344.224-.104.222-.104.768 0 .551.104.777.103.226.344.226.24 0 .343-.226.104-.226.104-.777zm.75.006q0 .723-.312 1.116-.312.392-.885.392-.574 0-.886-.392-.312-.393-.312-1.116 0-.725.312-1.117.312-.394.886-.394.573 0 .885.394.312.392.312 1.117zm.635-.731h.704v.754h-.704zm0 1.428h.704v.754h-.704zm2.988-.703q0-.546-.104-.768-.1-.224-.343-.224-.241 0-.344.224-.104.222-.104.768 0 .551.104.777.103.226.344.226.24 0 .343-.226.104-.226.104-.777zm.75.006q0 .723-.312 1.116-.312.392-.885.392-.574 0-.886-.392-.312-.393-.312-1.116 0-.725.312-1.117.312-.394.886-.394.573 0 .885.394.312.392.312 1.117zm.635-.731h.704v.754h-.704zm0 1.428h.704v.754h-.704zm2.988-.703q0-.546-.104-.768-.1-.224-.343-.224-.241 0-.345.224-.103.222-.103.768 0 .551.103.777.104.226.345.226.24 0 .343-.226.104-.226.104-.777zm.75.006q0 .723-.312 1.116-.312.392-.885.392-.574 0-.886-.392-.312-.393-.312-1.116 0-.725.312-1.117.312-.394.886-.394.573 0 .885.394.312.392.312 1.117zm.635-.731h.704v.754h-.704zm0 1.428h.704v.754h-.704zm2.988-.703q0-.546-.104-.768-.101-.224-.343-.224-.241 0-.344.224-.104.222-.104.768 0 .551.104.777.103.226.344.226.24 0 .343-.226.104-.226.104-.777zm.75.006q0 .723-.312 1.116-.312.392-.885.392-.574 0-.886-.392-.312-.393-.312-1.116 0-.725.312-1.117.312-.394.886-.394.573 0 .885.394.312.392.312 1.117zm.635-.731h.704v.754h-.704zm0 1.428h.704v.754h-.704zm1.62.235h.662v-1.88l-.68.14v-.51l.676-.14h.714v2.391h.662v.518h-2.034zm3.149-2.39v1.081h-.462v-1.081zm2.422.795v.53q-.224-.094-.433-.14-.208-.047-.393-.047-.199 0-.296.05-.096.05-.096.153 0 .083.072.128.074.045.263.066l.123.018q.536.068.721.224.185.156.185.49 0 .348-.257.523-.257.176-.768.176-.216 0-.448-.035-.23-.034-.474-.102v-.53q.209.102.427.152.22.05.446.05.205 0 .308-.056.104-.056.104-.167 0-.094-.072-.139-.07-.046-.283-.072l-.123-.015q-.466-.059-.653-.217t-.187-.48q0-.346.238-.514.238-.167.729-.167.193 0 .405.029.213.03.462.092zm1.785-.068h.698l.544 1.508.541-1.508h.7l-.86 2.182h-.765zm5.057 1.085v.199h-1.631q.025.245.177.368t.425.123q.22 0 .45-.064.232-.067.476-.199v.538q-.248.093-.495.14-.248.049-.495.049-.592 0-.922-.3-.327-.302-.327-.846 0-.534.321-.84.324-.306.889-.306.514 0 .822.31.31.31.31.828zm-.717-.232q0-.199-.117-.32-.115-.122-.302-.122-.203 0-.33.115-.126.113-.157.327zm2.864-.259q-.09-.043-.183-.062-.09-.022-.18-.022-.27 0-.416.174-.144.171-.144.493v1.005h-.698v-2.182h.698v.358q.134-.214.308-.312.175-.099.419-.099.035 0 .076.004.04.002.119.012zm2.057-.526v.53q-.225-.094-.433-.14-.209-.047-.394-.047-.198 0-.296.05-.095.05-.095.153 0 .083.072.128.074.045.263.066l.123.018q.535.068.72.224.186.156.186.49 0 .348-.258.523-.257.176-.767.176-.217 0-.449-.035-.23-.034-.473-.102v-.53q.208.102.427.152.22.05.446.05.205 0 .308-.056.103-.056.103-.167 0-.094-.072-.139-.07-.046-.282-.072l-.123-.015q-.466-.059-.653-.217t-.187-.48q0-.346.238-.514.237-.167.728-.167.193 0 .406.029.212.03.462.092zm.672-.068h.698v2.182h-.698zm0-.85h.698v.57h-.698zm2.411 1.296q-.232 0-.355.168-.121.165-.121.479 0 .314.12.481.124.166.356.166.227 0 .348-.166.121-.167.121-.481 0-.314-.12-.48-.122-.167-.35-.167zm0-.499q.563 0 .878.304.318.304.318.842t-.318.842q-.315.304-.878.304-.566 0-.885-.304-.318-.304-.318-.842t.318-.842q.32-.304.885-.304zm3.899.906v1.33h-.702v-1.018q0-.283-.013-.39-.012-.108-.043-.159-.04-.068-.111-.105-.07-.039-.16-.039-.218 0-.343.17-.125.167-.125.466v1.073h-.697v-2.182h.697v.32q.158-.192.336-.281.177-.092.391-.092.378 0 .573.232.197.232.197.674z"/>
</svg>
