<svg xmlns="http://www.w3.org/2000/svg" width="760.891" height="254.256" viewBox="0 0 201.31895 67.27198">
    <path d="M0 0h201.319v67.272H0z" fill="#fdfcfd"/>
    <path d="M4.172 45.846H201.32v21.426H4.172z" fill="#f1f1f1"/>
    <path d="M77.113 1.654h55.465v8.397H77.113z" fill="#feeb5e"/>
    <g style="line-height:1.25" font-weight="400" font-size="1.6" font-family="sans-serif" letter-spacing="0" word-spacing="0">
        <path d="M6.56 10.593v.519q-.232-.12-.482-.18-.25-.059-.52-.059-.408 0-.614.125-.202.125-.202.376 0 .19.146.301.146.108.587.206l.188.042q.585.125.83.355.247.226.247.635 0 .465-.37.736-.367.272-1.011.272-.269 0-.56-.054-.29-.05-.612-.155v-.567q.304.159.6.24.294.077.584.077.387 0 .596-.132.209-.134.209-.375 0-.224-.152-.343-.15-.12-.66-.23l-.19-.045q-.51-.107-.737-.328-.226-.223-.226-.611 0-.471.334-.728.334-.256.948-.256.304 0 .573.044.268.045.495.135zm3.833 1.225v2.016h-.549v-1.998q0-.474-.185-.71-.185-.235-.554-.235-.445 0-.701.283-.257.283-.257.773v1.887h-.551v-4.64h.551v1.82q.197-.302.463-.451.268-.15.617-.15.575 0 .87.359.296.354.296 1.046zm2.395-.939q-.442 0-.698.346-.257.343-.257.942 0 .6.254.946.256.343.7.343.44 0 .696-.346.256-.346.256-.943 0-.593-.256-.94-.257-.348-.695-.348zm0-.465q.715 0 1.124.465.409.465.409 1.288 0 .82-.409 1.289-.409.465-1.124.465-.719 0-1.128-.465-.405-.469-.405-1.289 0-.823.405-1.288.409-.465 1.128-.465zm2.12.08h.549l.686 2.607.683-2.607h.647l.686 2.607.683-2.607h.549l-.874 3.34h-.647l-.72-2.737-.72 2.737h-.648zm9.666.128v.513q-.233-.128-.468-.19-.233-.066-.472-.066-.534 0-.829.34-.295.337-.295.948 0 .612.295.952.295.337.83.337.238 0 .47-.063.236-.066.469-.194v.507q-.23.108-.477.161-.245.054-.522.054-.755 0-1.2-.474-.444-.475-.444-1.28 0-.817.448-1.285.45-.468 1.231-.468.254 0 .496.053.241.051.468.155zm3.736 1.196v2.016h-.548v-1.998q0-.474-.185-.71-.185-.235-.555-.235-.444 0-.7.283-.257.283-.257.773v1.887h-.552v-4.64h.552v1.82q.197-.302.462-.451.269-.15.617-.15.576 0 .871.359.296.354.296 1.046zm2.619.337q-.665 0-.922.152-.256.153-.256.52 0 .292.19.465.195.17.526.17.456 0 .73-.322.278-.326.278-.862v-.123zm1.094-.226v1.905h-.548v-.507q-.188.305-.468.45-.28.144-.686.144-.513 0-.818-.286-.3-.29-.3-.773 0-.563.375-.85.379-.286 1.127-.286h.77v-.054q0-.379-.25-.584-.248-.21-.699-.21-.286 0-.557.07-.272.068-.522.205v-.507q.301-.116.584-.173.284-.06.552-.06.725 0 1.083.376.357.376.357 1.14zm3.91-.111v2.016h-.548v-1.998q0-.474-.185-.71-.185-.235-.555-.235-.444 0-.7.283-.257.283-.257.773v1.887h-.552v-3.34h.552v.52q.196-.302.462-.451.268-.15.617-.15.576 0 .871.359.295.354.295 1.046zm3.299.308q0-.597-.248-.925-.244-.328-.689-.328-.441 0-.689.328-.244.328-.244.925 0 .593.244.921.248.328.69.328.444 0 .688-.328.248-.328.248-.921zm.548 1.294q0 .853-.378 1.267-.38.418-1.16.418-.29 0-.546-.045-.257-.042-.498-.131v-.534q.241.131.477.194t.48.063q.54 0 .808-.284.269-.28.269-.85v-.271q-.17.295-.436.441-.265.146-.635.146-.614 0-.99-.468t-.376-1.24q0-.776.376-1.244.376-.468.99-.468.37 0 .635.146.266.146.436.441v-.507h.548zm3.988-1.393v.269h-2.523q.035.566.34.864.307.296.853.296.316 0 .611-.078.298-.077.59-.233v.52q-.295.125-.605.19-.31.066-.63.066-.798 0-1.267-.465-.465-.466-.465-1.259 0-.82.441-1.3.445-.483 1.196-.483.674 0 1.065.435.394.433.394 1.178zm-.549-.16q-.006-.451-.254-.72-.244-.268-.65-.268-.459 0-.736.26-.275.259-.316.73zm3.579-1.274v.519q-.233-.12-.483-.18-.25-.059-.52-.059-.408 0-.614.125-.202.125-.202.376 0 .19.146.301.146.108.587.206l.188.042q.585.125.83.355.247.226.247.635 0 .465-.37.736-.367.272-1.011.272-.269 0-.56-.054-.29-.05-.612-.155v-.567q.304.159.6.24.295.077.584.077.387 0 .596-.132.209-.134.209-.375 0-.224-.152-.343-.15-.12-.66-.23l-.19-.045q-.51-.107-.737-.328-.226-.223-.226-.611 0-.471.334-.728.334-.256.948-.256.304 0 .573.044.268.045.495.135z" style="line-height:0"/>
    </g>
    <g style="line-height:1.25" font-weight="400" font-size="1.6" font-family="sans-serif" letter-spacing="0" word-spacing="0">
        <path d="M3.92 32.035v-2.022h.549v2q0 .475.185.714.185.235.555.235.444 0 .7-.283.26-.284.26-.773v-1.893h.549v3.34h-.55v-.513q-.199.304-.464.453-.263.146-.612.146-.575 0-.874-.358-.298-.357-.298-1.046zm1.381-2.103zm5.329 1.405v2.016h-.548v-1.998q0-.475-.185-.71-.185-.236-.555-.236-.444 0-.7.284-.257.283-.257.772v1.888h-.552v-3.34h.552v.519q.197-.302.462-.45.268-.15.617-.15.576 0 .871.358.295.355.295 1.047zm3.505-1.197v.514q-.233-.128-.469-.191-.232-.066-.47-.066-.535 0-.83.34-.295.337-.295.949 0 .611.295.951.295.337.83.337.238 0 .47-.063.236-.065.469-.193v.507q-.23.107-.478.16-.244.054-.522.054-.754 0-1.198-.474-.445-.474-.445-1.28 0-.816.448-1.285.45-.468 1.231-.468.254 0 .495.054.242.05.469.155zm3.736 1.197v2.016h-.548v-1.998q0-.475-.185-.71-.185-.236-.555-.236-.444 0-.7.284-.257.283-.257.772v1.888h-.552v-4.64h.552v1.819q.197-.302.462-.45.268-.15.617-.15.576 0 .871.358.295.355.295 1.047zm2.619.337q-.665 0-.922.152-.256.152-.256.519 0 .292.19.465.194.17.526.17.456 0 .73-.322.278-.325.278-.862v-.122zm1.094-.227v1.906h-.548v-.507q-.188.304-.469.45-.28.143-.686.143-.513 0-.817-.286-.301-.29-.301-.772 0-.564.376-.85.379-.287 1.127-.287h.77v-.053q0-.38-.251-.585-.248-.209-.698-.209-.286 0-.558.069-.27.069-.521.206v-.507q.3-.117.584-.173.283-.06.552-.06.725 0 1.082.376.358.376.358 1.14zm3.91-.11v2.016h-.549v-1.998q0-.475-.185-.71-.184-.236-.554-.236-.445 0-.701.284-.257.283-.257.772v1.888h-.551v-3.34h.551v.519q.197-.302.463-.45.268-.15.617-.15.576 0 .87.358.296.355.296 1.047zm3.298.307q0-.596-.247-.925-.245-.328-.689-.328-.441 0-.689.328-.244.329-.244.925 0 .593.244.921.248.329.689.329.444 0 .689-.329.247-.328.247-.921zm.55 1.294q0 .853-.38 1.268-.378.417-1.16.417-.289 0-.545-.044-.257-.042-.498-.132v-.534q.241.132.477.194.235.063.48.063.54 0 .808-.283.268-.28.268-.85v-.272q-.17.296-.435.442-.265.146-.635.146-.615 0-.99-.468-.376-.469-.376-1.241 0-.775.376-1.244.375-.468.99-.468.37 0 .635.146t.435.442v-.507h.55zm3.987-1.392v.268h-2.523q.035.567.34.865.307.295.852.295.317 0 .612-.077.298-.078.59-.233v.519q-.295.125-.605.19-.31.066-.63.066-.799 0-1.267-.465-.465-.465-.465-1.258 0-.82.441-1.3.445-.484 1.196-.484.674 0 1.065.436.394.432.394 1.178zm-.55-.161q-.005-.45-.253-.72-.244-.268-.65-.268-.46 0-.736.26-.275.26-.317.73zm3.648-.865v-1.808h.549v4.64h-.549v-.5q-.173.298-.438.444-.263.143-.633.143-.605 0-.987-.483-.378-.483-.378-1.27 0-.788.378-1.27.382-.484.987-.484.37 0 .633.146.265.143.438.442zm-1.87 1.166q0 .605.248.951.25.343.686.343.435 0 .686-.343.25-.346.25-.951 0-.606-.25-.949-.25-.346-.686-.346-.436 0-.686.346-.248.343-.248.949zm6.036-2.622v.949h1.13v.426h-1.13v1.813q0 .409.11.525.114.117.457.117h.564v.459h-.564q-.635 0-.877-.236-.241-.238-.241-.865V30.44h-.403v-.426h.403v-.949zm4.712 2.482v.268h-2.523q.036.567.34.865.308.295.853.295.316 0 .612-.077.298-.078.59-.233v.519q-.295.125-.605.19-.31.066-.63.066-.799 0-1.267-.465-.465-.465-.465-1.258 0-.82.441-1.3.445-.484 1.196-.484.674 0 1.065.436.393.432.393 1.178zm-.548-.161q-.006-.45-.254-.72-.244-.268-.65-.268-.46 0-.737.26-.274.26-.316.73zm4.118-1.372l-1.208 1.625 1.27 1.715h-.646l-.973-1.312-.972 1.312H45.7l1.297-1.748-1.187-1.592h.648l.885 1.19.886-1.19zm1.381-.949v.949h1.13v.426h-1.13v1.813q0 .409.11.525.114.117.457.117h.563v.459h-.563q-.636 0-.877-.236-.242-.238-.242-.865V30.44h-.402v-.426h.402v-.949z" style="line-height:0"/>
    </g>
    <path d="M140.96 1.654h55.465v8.397h-55.464z" fill="#feeb5e"/>
    <path d="M77.113 10.051h55.465v8.398H77.113z" fill="#aad9e3"/>
    <path d="M86.723 10.051a4.738 4.738 0 0 1-4.737 4.738 4.738 4.738 0 0 1-4.738-4.738 4.738 4.738 0 0 1 4.738-4.738 4.738 4.738 0 0 1 4.737 4.738z" fill="#3261ff"/>
    <path d="M84.843 10.048a2.872 2.872 0 0 1-2.872 2.871 2.872 2.872 0 0 1-2.872-2.871 2.872 2.872 0 0 1 2.872-2.872 2.872 2.872 0 0 1 2.872 2.872z" fill="#fff"/>
    <path d="M86.827 29.542a4.738 4.738 0 0 1-4.738 4.737 4.738 4.738 0 0 1-4.737-4.737 4.738 4.738 0 0 1 4.737-4.738 4.738 4.738 0 0 1 4.738 4.738z" fill="#3261ff"/>
    <path d="M84.946 29.538a2.872 2.872 0 0 1-2.871 2.872 2.872 2.872 0 0 1-2.872-2.872 2.872 2.872 0 0 1 2.872-2.871 2.872 2.872 0 0 1 2.871 2.871z" fill="#fff"/>
    <path d="M140.96 10.051h55.465v8.398h-55.464z" fill="#feeb5e"/>
    <path d="M150.866 10.06a4.405 4.405 0 0 1-4.405 4.406 4.405 4.405 0 0 1-4.406-4.406 4.405 4.405 0 0 1 4.406-4.405 4.405 4.405 0 0 1 4.405 4.405zm.009 19.378a4.405 4.405 0 0 1-4.405 4.405 4.405 4.405 0 0 1-4.405-4.405 4.405 4.405 0 0 1 4.405-4.405 4.405 4.405 0 0 1 4.405 4.405z" fill="#fff" stroke="#373635" stroke-width=".664" stroke-linecap="round" stroke-linejoin="round"/>
    <g style="line-height:1.25" font-weight="400" font-size="1.6" font-family="sans-serif" letter-spacing="0" word-spacing="0">
        <path d="M93.34 28.71v.52q-.232-.12-.482-.18-.25-.06-.52-.06-.408 0-.614.126-.202.125-.202.376 0 .19.146.301.146.107.587.206l.188.042q.585.125.83.354.247.227.247.636 0 .465-.37.736-.367.272-1.011.272-.269 0-.56-.054-.29-.05-.612-.155v-.567q.304.158.6.239.294.077.584.077.387 0 .596-.13.209-.135.209-.377 0-.223-.152-.343-.15-.119-.66-.23l-.19-.044q-.51-.107-.737-.328-.226-.224-.226-.611 0-.472.334-.728t.948-.256q.304 0 .573.044.268.045.495.134zm3.833 1.226v2.016h-.549v-1.998q0-.474-.185-.71-.185-.235-.554-.235-.445 0-.701.283-.257.283-.257.772v1.888h-.551v-4.64h.551v1.819q.197-.301.463-.45.268-.15.617-.15.575 0 .87.358.296.355.296 1.047zm2.395-.939q-.442 0-.698.346-.257.343-.257.942 0 .6.254.945.256.343.7.343.44 0 .696-.345.256-.346.256-.943 0-.593-.256-.94-.257-.348-.695-.348zm0-.465q.715 0 1.124.465.409.465.409 1.288 0 .82-.409 1.288-.409.466-1.124.466-.719 0-1.128-.466-.405-.468-.405-1.288 0-.823.405-1.288.409-.465 1.128-.465zm2.12.08h.549l.686 2.607.683-2.607h.647l.686 2.607.683-2.607h.549l-.874 3.34h-.647l-.72-2.738-.72 2.738h-.648z" style="line-height:0"/>
    </g>
    <g style="line-height:1.25" font-weight="400" font-size="1.6" font-family="sans-serif" letter-spacing="0" word-spacing="0">
        <path d="M157.233 29.802v2.016h-.549V29.82q0-.474-.185-.71-.185-.235-.555-.235-.444 0-.7.283-.257.284-.257.773v1.887h-.552v-4.64h.552v1.82q.197-.302.462-.451.269-.15.618-.15.575 0 .87.359.296.355.296 1.046zm1.1-1.324h.549v3.34h-.549zm0-1.3h.549v.695h-.549zm3.892 1.807v-1.807h.549v4.64h-.549v-.5q-.173.298-.438.444-.263.143-.633.143-.605 0-.987-.483-.378-.483-.378-1.27 0-.788.378-1.271.382-.483.987-.483.37 0 .633.146.265.143.438.441zm-1.87 1.166q0 .606.248.952.25.343.686.343.435 0 .686-.343.25-.346.25-.952 0-.605-.25-.948-.25-.346-.686-.346-.436 0-.686.346-.248.343-.248.948zm6.406-.14v.269h-2.523q.036.566.34.864.307.296.853.296.316 0 .611-.078.299-.077.59-.232v.518q-.294.126-.604.191-.31.066-.63.066-.799 0-1.267-.465-.465-.466-.465-1.259 0-.82.44-1.3.445-.483 1.197-.483.674 0 1.065.435.393.433.393 1.178zm-.549-.16q-.006-.451-.253-.72-.245-.268-.65-.268-.46 0-.737.26-.274.259-.316.73z" style="line-height:0"/>
    </g>
    <g style="line-height:1.25" font-weight="400" font-size="1.6" font-family="sans-serif" letter-spacing="0" word-spacing="0">
        <path d="M93.274 10.66q0-.604-.25-.947-.248-.346-.684-.346-.435 0-.685.346-.248.343-.248.948t.248.951q.25.343.685.343.436 0 .683-.343.25-.346.25-.951zm-1.867-1.165q.173-.298.435-.442.266-.146.633-.146.608 0 .987.483.382.484.382 1.27 0 .788-.382 1.271-.379.484-.987.484-.367 0-.633-.144-.262-.146-.435-.444v.501h-.552v-4.64h.552zm4.64-.122q-.441 0-.697.346-.257.342-.257.942 0 .6.254.945.256.343.7.343.439 0 .695-.346.257-.346.257-.942 0-.594-.257-.94-.256-.348-.695-.348zm0-.466q.716 0 1.125.466.408.465.408 1.288 0 .82-.408 1.288-.409.466-1.125.466-.718 0-1.127-.466-.405-.468-.405-1.288 0-.823.405-1.288.409-.466 1.127-.466zm2.983-.867v.948h1.13v.426h-1.13v1.814q0 .408.11.524.113.117.456.117h.564v.459h-.564q-.635 0-.876-.236-.242-.238-.242-.864V9.414h-.403v-.426h.403v-.949zm4.631 2.272v2.016h-.549V10.33q0-.474-.184-.71-.185-.236-.555-.236-.445 0-.701.284-.256.283-.256.772v1.888h-.552v-4.64h.552v1.819q.196-.301.462-.45.268-.15.617-.15.576 0 .871.358.295.355.295 1.047z" style="line-height:0"/>
    </g>
    <g style="line-height:1.25" font-weight="400" font-size="1.6" font-family="sans-serif" letter-spacing="0" word-spacing="0">
        <path d="M157.099 9.525q.206-.37.492-.545.286-.176.674-.176.522 0 .805.366.284.364.284 1.038v2.016h-.552v-1.998q0-.48-.17-.713-.17-.232-.519-.232-.426 0-.674.283-.248.283-.248.773v1.887h-.551v-1.998q0-.483-.17-.713-.17-.232-.525-.232-.42 0-.668.286-.248.283-.248.77v1.887h-.551v-3.34h.551v.52q.188-.308.45-.454.263-.146.624-.146.364 0 .617.185.257.184.379.536zm3.352-.641H161v3.34h-.549zm0-1.3H161v.695h-.549zm4.471 2.624v2.016h-.55v-1.998q0-.474-.184-.71-.185-.235-.555-.235-.444 0-.7.283-.257.283-.257.773v1.887h-.552v-3.34h.552v.52q.197-.302.462-.451.269-.15.617-.15.576 0 .871.359.296.354.296 1.046zm3.957.209v.268h-2.523q.036.567.34.865.307.296.853.296.316 0 .611-.078.299-.077.59-.233v.52q-.294.125-.605.19-.31.066-.629.066-.8 0-1.267-.465-.466-.466-.466-1.259 0-.82.442-1.3.444-.483 1.196-.483.674 0 1.064.435.394.433.394 1.178zm-.549-.161q-.006-.45-.253-.719-.245-.268-.65-.268-.46 0-.737.26-.274.259-.316.73z" style="line-height:0"/>
    </g>
    <path d="M6.608 58.848h96.029v-3.709H6.608zm100.588 0h23.616v-3.709h-23.616zm47.639 0h23.617v-3.709h-23.617zm-19.855 0h14.487v-3.709H134.98zm-69.065-6.947h14.488v-3.708H65.915zm-19.647 0h14.487v-3.708H46.268zm38.118 0h63.877v-3.708H84.386zm66.981 0h38.871v-3.708h-38.871zm-144.594 0h36.405v-3.708H6.773z" fill="#d8d8d8"/>
    <path d="M199.143 50.574l-2.92-.005 1.467-1.658z" fill="silver"/>
</svg>
