<?xml version="1.0" encoding="UTF-8"?>
<svg xmlns="http://www.w3.org/2000/svg" width="684.417" height="525.23" viewBox="0 0 181.08531 138.96719">
	<path fill="#f1f1f1" d="M181.085796-.00136672H-.00131616v138.9703952H181.085796z"/>
	<path fill="#fe8b00" d="M179.72888816 72.90113568H8.80857072v5.99843392h170.92031744z"/>
	<path fill="none" stroke="#fe8b00" stroke-width="1.1766544" d="M179.31580736 120.28776224V72.90113568"/>
	<path fill="#fff" d="M150.79182406 74.98372985h.57978519v1.81389938h-.57978519zm0-.70402487h.57978519v.46934991h-.57978519zm2.96242624 1.41357151v1.10435274h-.58254608v-.84482985q0-.23467496-.01104353-.32578406-.01104353-.08558734-.03865234-.12976145-.03313059-.05521763-.09386999-.08834821-.05521763-.0303697-.13252233-.0303697-.17945732 0-.28437083.13804409-.10215263.14080497-.10215263.38652346v.89452572h-.57978519v-1.81389938h.5797852v.26504466q.12976144-.15737027.27608818-.23191408.14908762-.07730469.32578406-.07730469.31474053 0 .47763256.19326173.16289203.19326173.16289203.56045902zm1.45498473-.70954664h.57978519l.4859152 1.2313533.41413228-1.2313533h.5797852l-.76476428 1.98507405q-.11319616.303697-.26780554.42241493-.1518485.1214788-.40308875.1214788h-.3340667v-.3810017h.1822182q.14632674 0 .2125879-.04693499.06902205-.04693499.10491351-.1684138l.0165653-.04969586zm3.26060147.36995817q-.19326173 0-.29541436.1380441-.09939174.13804408-.09939174.40032786 0 .2595229.09939174.40032787.10215263.1380441.29541436.1380441.18773997 0 .2898926-.1380441.09939174-.1380441.09939174-.40032787 0-.2595229-.09939174-.39756699-.10215263-.13804409-.2898926-.13804409zm0-.41413228q.46934992 0 .72887281.25400113.26504466.25124025.26504466.69850311t-.26504466.69850311q-.26228378.25400113-.7288728.25400113-.46934992 0-.73439458-.25400113-.26504466-.25124025-.26504466-.69850311t.26504466-.6985031q.26504466-.25400114.73439457-.25400114zm1.39424534 1.15404862v-1.10987451h.58254607v.84759073q0 .22087055.00828265.31750141.01104352.09386999.03865234.1380441.03589147.05521763.09386998.08834822.05521764.02760881.13252233.02760881.17945732 0 .28437084-.13804409.10215262-.1380441.10215262-.38652346v-.89452572h.5797852v1.81389938h-.5797852v-.26228378q-.12976144.15737027-.27608818.23467496-.14632674.07454381-.32302318.07454381-.31474053 0-.47763256-.19326173-.16565291-.19326173-.16565291-.56045902zm3.7271905-.61567666q-.0745438-.03589146-.1518485-.05245675-.0745438-.0165653-.14908762-.0165653-.22363143 0-.34511023.14356586-.11871792.14356586-.11871792.40861052v.8365472h-.57978519v-1.81389938h.57978519v.29817524q.11043527-.17669644.25400113-.2595229.14632674-.08282645.34787111-.08282645l.06350029.00552176.09939174.00828265zm1.21478802-.49419785h.5797852l.45278461 1.25344036.45002375-1.25344036h.57978519l-.71230752 1.81389938h-.63500283zm4.1993013.90280837v.1656529h-1.3528321q.01932617.20154438.14632673.30369701.12700057.10215263.35339288.10215263.1822182 0 .37271905-.05521764.19326173-.05521763.3948061-.16289203v.44726286q-.20430525.0773047-.41137139.11595704-.20430526.04141323-.4113714.04141323-.49143697 0-.76476427-.24847937-.27056642-.25400113-.27056642-.70402487 0-.4417411.26504466-.6985031.27056642-.25400114.73991633-.25400114.4251758 0 .68193782.2595229.25676201.256762.25676201.68745958zm-.59635048-.19326173q0-.16565291-.09663086-.26504466-.09386999-.10215263-.24847937-.10215263-.17117467 0-.27608818.09386998-.10491352.09386999-.12976145.2733273zm2.37988016-.21534879q-.07730469-.03589146-.1518485-.05245675t-.1518485-.0165653q-.22087055 0-.34511023.14356586-.11871792.14356586-.11871792.40861052v.8365472h-.58254607v-1.81389938h.57978518v.29817524q.11043528-.17669644.25676202-.2595229.14356585-.08282645.34511023-.08282645l.06350028.00552176q.03589147 0 .09939175.00828265zm1.70622499-.43621933v.4417411q-.18773997-.08006558-.35891464-.11871792-.17393556-.03865235-.32854494-.03865235-.16565291 0-.24571849.04141323-.07730469.04141323-.07730469.12700056 0 .06902205.05797852.1076744.06350028.03589146.22087055.05521763l.09939174.01380441q.44450198.05521764.59911137.18497909.15460938.12976144.15460938.40584963 0 .2898926-.21534878.43621933-.2125879.14632674-.63500283.14632674-.17945732 0-.37271905-.0303697-.19326173-.02760882-.3948061-.08282646v-.4417411q.17393555.08282646.35615375.12700057.1822182.04141323.36995817.04141323.1684138 0 .25676201-.046935.08282646-.04693498.08282646-.13804408 0-.0773047-.05797852-.11595704-.05797852-.03865235-.23467496-.0607394l-.10215263-.01104353q-.38652345-.04969587-.54113284-.17945732-.15737026-.13252233-.15737026-.39756699 0-.2898926.19878349-.42793669.19602261-.13804409.607394-.13804409.15737027 0 .33406671.02208706.17669644.02484793.38376258.07730469zm.55769813-.05797852h.5797852v1.81389938h-.5797852zm0-.70402487h.5797852v.46934991h-.5797852zm2.00163935 1.07398304q-.19326173 0-.29541436.1380441-.09939175.13804408-.09939175.40032786 0 .2595229.09939175.40032787.10215263.1380441.29541436.1380441.18773997 0 .2898926-.1380441.09939174-.1380441.09939174-.40032787 0-.2595229-.09939174-.39756699-.10215263-.13804409-.2898926-.13804409zm0-.41413228q.46934992 0 .72887281.25400113.26504466.25124025.26504466.69850311t-.26504466.69850311q-.26228378.25400113-.72887281.25400113-.46934992 0-.73439457-.25400113-.26504466-.25124025-.26504466-.69850311t.26504466-.6985031q.26504465-.25400114.73439457-.25400114zm3.23575354.75372075v1.10435274h-.5797852v-.84482985q0-.23467496-.0138044-.32578406-.00828265-.08834822-.03589147-.12976145-.03313058-.05521763-.0911091-.08834821-.05797852-.0303697-.13252233-.0303697-.1822182 0-.28437083.13804409-.10491351.14080497-.10491351.38652346v.89452572h-.57978519v-1.81389938h.57978519v.26504466q.13252233-.15737027.27884907-.23191408.14632674-.07730469.32578406-.07730469.31197965 0 .47487168.19326173.1656529.19326173.1656529.56045902z"/>
	<path fill="#3c7aeb" d="M179.62874736 24.1100344H8.7059264v5.99843392h170.92282096z"/>
	<path fill="none" stroke="#3c7aeb" stroke-width="1.1766544" d="M179.21566656 71.49916448V24.1100344"/>
	<path fill="#fff" d="M128.42537638 26.19262857h.57978519v1.81389938h-.57978519zm0-.70402487h.57978519v.46934991h-.57978519zm2.96242623 1.4135715v1.10435275h-.58254607v-.84482985q0-.23467496-.01104353-.32578406-.01104353-.08558734-.03865234-.12976145-.03313059-.05521763-.09386999-.08834821-.05521763-.0303697-.13252233-.0303697-.17945732 0-.28437083.13804409-.10215263.14080497-.10215263.38652346v.89452572h-.57978519v-1.81389938h.5797852v.26504466q.12976144-.15737027.27608818-.23191408.14908762-.07730469.32578406-.07730469.31474053 0 .47763256.19326173.16289203.19326173.16289203.56045902zm2.93757829-.10767439q0-.45278462-.08558733-.63500282-.08282646-.18773997-.28437083-.18773997t-.28713172.18497909q-.08558733.18497908-.08558733.6377637 0 .4583064.08282645.64604636.08834822.18773996.2898926.18773996.1987835 0 .28437083-.18773996.08282645-.18773997.08282645-.64604636zm.62119842.00552177q0 .59911136-.256762.9276563-.2595229.32578406-.73439458.32578406-.47763256 0-.73715546-.32578406-.2595229-.32854494-.2595229-.9276563 0-.60187225.2595229-.9276563.2595229-.32578406.73715546-.32578406.47487168 0 .73439457.32578405.25676201.32578406.25676201.9276563zm.53008932-.60739401h.57978519v.62672018h-.57978519zm0 1.1871792h.57978519v.62672018h-.57978519zm2.47927191-.58530696q0-.45278462-.08558734-.63500282-.08282646-.18773997-.28713171-.18773997-.1987835 0-.28437084.18497909t-.08558733.6377637q0 .4583064.08282645.64604636.08834822.18773996.28713172.18773996.20154437 0 .2871317-.18773996.08282646-.18773997.08282646-.64604636zm.62119841.00552177q0 .59911136-.25952289.9276563-.25676201.32578406-.73439457.32578406-.47487168 0-.73439458-.32578406-.2595229-.32854494-.2595229-.9276563 0-.60187225.2595229-.9276563.2595229-.32578406.73439458-.32578406.47763256 0 .73439457.32578405.2595229.32578406.2595229.9276563zm.52732844-.60739401h.58530695v.62672018h-.58530695zm0 1.1871792h.58530695v.62672018h-.58530695zm2.48203279-.58530696q0-.45278462-.08834822-.63500282-.08282646-.18773997-.28437083-.18773997-.1987835 0-.28437083.18497909t-.08558734.6377637q0 .4583064.08282645.64604636.08834822.18773996.28713172.18773996t.28437083-.18773996q.08834822-.18773997.08834822-.64604636zm.62119841.00552177q0 .59911136-.25952289.9276563-.25676201.32578406-.73439457.32578406t-.73439458-.32578406q-.2595229-.32854494-.2595229-.9276563 0-.60187225.2595229-.9276563.25676202-.32578406.73439458-.32578406.47763256 0 .73439457.32578405.2595229.32578406.2595229.9276563zm.53008932-.60739401h.5797852v.62672018h-.5797852zm0 1.1871792h.5797852v.62672018h-.5797852zm2.47651103-.58530696q0-.45278462-.08282646-.63500282-.08558734-.18773997-.28713171-.18773997-.1987835 0-.28713172.18497909-.08282645.18497908-.08282645.6377637 0 .4583064.08282645.64604636.08834822.18773996.28713172.18773996t.28437083-.18773996q.08558734-.18773997.08558734-.64604636zm.6239593.00552177q0 .59911136-.2595229.9276563-.2595229.32578406-.73439457.32578406-.47763256 0-.73439458-.32578406-.2595229-.32854494-.2595229-.9276563 0-.60187225.2595229-.9276563.25676202-.32578406.73439458-.32578406.47487168 0 .73439457.32578405.2595229.32578406.2595229.9276563zm.52732843-.60739401h.58254607v.62672018h-.58254607zm0 1.1871792h.58254607v.62672018h-.58254607zm2.47927191-.58530696q0-.45278462-.08282646-.63500282-.08558734-.18773997-.28713171-.18773997t-.28713171.18497909q-.08282646.18497908-.08282646.6377637 0 .4583064.08282646.64604636.08558733.18773996.2871317.18773996.1987835 0 .28437084-.18773996t.08558734-.64604636zm.6239593.00552177q0 .59911136-.2595229.9276563-.2595229.32578406-.73439457.32578406-.47763256 0-.73715546-.32578406-.25676201-.32854494-.25676201-.9276563 0-.60187225.25676201-.9276563.2595229-.32578406.73715546-.32578406.47487168 0 .73439457.32578405.2595229.32578406.2595229.9276563zm.52732843-.60739401h.58254607v.62672018h-.57978519zm0 1.1871792h.58254607v.62672018h-.57978519zm2.47927191-.58530696q0-.45278462-.08558734-.63500282-.08282646-.18773997-.28437083-.18773997t-.28713171.18497909q-.08282646.18497908-.08282646.6377637 0 .4583064.08282646.64604636.08558733.18773996.2871317.18773996.1987835 0 .28437084-.18773996t.08558734-.64604636zm.6239593.00552177q0 .59911136-.2595229.9276563-.2595229.32578406-.73439457.32578406-.47763256 0-.73715546-.32578406-.256762-.32854494-.256762-.9276563 0-.60187225.256762-.9276563.2595229-.32578406.73715546-.32578406.47487168 0 .73439457.32578405.2595229.32578406.2595229.9276563zm.52732843-.60739401h.58254607v.62672018h-.58254607zm0 1.1871792h.58254607v.62672018h-.58254607zm2.47927191-.58530696q0-.45278462-.08558734-.63500282-.08282646-.18773997-.28437083-.18773997t-.28713171.18497909q-.08558734.18497908-.08558734.6377637 0 .4583064.08558734.64604636t.2871317.18773996q.1987835 0 .28437084-.18773996.08282646-.18773997.08282646-.64604636zm.62119842.00552177q0 .59911136-.25676202.9276563-.2595229.32578406-.73439457.32578406-.47763256 0-.73715546-.32578406-.2595229-.32854494-.2595229-.9276563 0-.60187225.2595229-.9276563.2595229-.32578406.73715546-.32578406.47487168 0 .73439457.32578405.25676202.32578406.25676202.9276563zm.52732843-.60739401h.58530695v.62672018h-.58530695zm0 1.1871792h.58530695v.62672018h-.58530695zm1.34454946.19602261h.55217638v-1.56265913l-.56598079.11595704v-.42241493l.56045902-.11595703h.5935896v1.98507405h.55217637v.43069757h-1.69242058zm2.61455512-1.98507405v.8972866h-.38376258v-.8972866zm2.009922.65985076v.4417411q-.1849791-.08006558-.35891465-.11871792-.17117467-.03865235-.32578406-.03865235-.1656529 0-.24571848.04141323t-.08006558.12700056q0 .06902205.0607394.1076744.0607394.03589146.22087055.05521763l.09939175.01380441q.44450198.05521764.59911136.18497909.15460939.12976144.15460939.40584963 0 .2898926-.21534879.43621933-.2125879.14632674-.63500283.14632674-.1822182 0-.37271905-.0303697-.19326173-.02760882-.3948061-.08282646v-.4417411q.17393556.08282646.35615376.12700057.1822182.04141323.36995817.04141323.16841379 0 .25400113-.046935t.08558734-.13804408q0-.0773047-.05797852-.11595704-.05797852-.03865235-.23467496-.0607394l-.10215263-.01104353q-.38652346-.04969587-.54389373-.17945732-.1518485-.13252233-.1518485-.39756699 0-.2898926.1987835-.42793669.1960226-.13804409.60463312-.13804409.16013115 0 .33682759.02208706.17669644.02484793.38376258.07730469zm1.48259355-.05797852h.57978519l.45278462 1.25344036.44726286-1.25344036h.5797852l-.71230752 1.81389938h-.63500283zm4.1993013.90280837v.1656529h-1.3528321q.01932617.20154438.14632673.30369701.12423968.10215263.350632.10215263.18497908 0 .37547993-.05521764.19326173-.05521763.3948061-.16289203v.44726286q-.20706613.0773047-.41413227.11595704-.20154438.04141323-.40861052.04141323-.49143697 0-.76476427-.24847937-.27056642-.25400113-.27056642-.70402487 0-.4417411.26504465-.6985031.26780554-.25400114.73715546-.25400114.42793669 0 .6846987.2595229.25676201.256762.25676201.68745958zm-.59635048-.19326173q0-.16565291-.09663086-.26504466-.09663087-.10215263-.24847937-.10215263-.17117468 0-.27608819.09386998-.1049135.09386999-.12976144.2733273zm2.37988016-.21534879q-.0773047-.03589146-.15460938-.05245675-.07454381-.0165653-.14908762-.0165653-.22087055 0-.34511023.14356586-.11871792.14356586-.11871792.40861052v.8365472h-.5797852v-1.81389938h.5797852v.29817524q.11043527-.17669644.25400113-.2595229.14632673-.08282645.34787111-.08282645l.06350028.00552176.09939175.00828265zm1.70622499-.43621933v.4417411q-.18773997-.08006558-.35891464-.11871792-.17393556-.03865235-.32854494-.03865235-.16565292 0-.24571849.04141323t-.08006557.12700056q0 .06902205.0607394.1076744.0607394.03589146.22087055.05521763l.09939174.01380441q.44450198.05521764.59911137.18497909.15460938.12976144.15460938.40584963 0 .2898926-.21534878.43621933-.2125879.14632674-.63500283.14632674-.1822182 0-.37271905-.0303697-.19326173-.02760882-.3948061-.08282646v-.4417411q.17393555.08282646.35615375.12700057.1822182.04141323.36995817.04141323.1684138 0 .25400113-.046935t.08558734-.13804408q0-.0773047-.05797852-.11595704-.05797852-.03865235-.23467496-.0607394l-.10215263-.01104353q-.38652346-.04969587-.54113284-.17945732-.15737027-.13252233-.15737027-.39756699 0-.2898926.1987835-.42793669.1960226-.13804409.60463312-.13804409.16013115 0 .33682759.02208706.17669644.02484793.38376258.07730469zm.55769813-.05797852h.5797852v1.81389938h-.5797852zm0-.70402487h.5797852v.46934991h-.5797852zm2.00163935 1.07398304q-.19326173 0-.29541436.1380441-.09939175.13804408-.09939175.40032786 0 .2595229.09939175.40032787.10215263.1380441.29541436.1380441.18773997 0 .2898926-.1380441.09939174-.1380441.09939174-.40032787 0-.2595229-.09939175-.39756699-.10215262-.13804409-.2898926-.13804409zm0-.41413228q.46658903 0 .7288728.25400113.26228379.25124025.26228379.69850311t-.26228378.69850311q-.26228378.25400113-.72887281.25400113-.46934992 0-.73439457-.25400113-.26504466-.25124025-.26504466-.69850311t.26504466-.6985031q.26504465-.25400114.73439457-.25400114zm3.23575353.75372074v1.10435275h-.57978519v-.84482985q0-.23467496-.0138044-.32578406-.00828265-.08834822-.03589147-.12976145-.03313058-.05521763-.0911091-.08834821-.05797852-.0303697-.13252233-.0303697-.1822182 0-.28437083.13804409-.10491351.14080497-.10491351.38652346v.89452572h-.5797852v-1.81389938h.5797852v.26504466q.13252233-.15737027.27608818-.23191408.14908762-.07730469.32854495-.07730469.31197965 0 .47487167.19326173.16565292.19326173.16565292.56045902z"/>
	<path fill="#d8d8d8" d="M176.52688608 84.770324H149.5789968v-2.8289776h26.94788928zm-35.3497024 5.1447336H67.94672016V87.08608h73.22796zm35.23454048 14.958532h-79.4116544v-2.8289776h79.4116544zm-45.564064 21.18728976H85.764272v-2.8289776h45.08338816zm45.80440192 10.43467136h-73.22796v-2.8289776h73.22796z"/>
	<path fill="#ead97f" d="M145.06515024 85.73918624H102.2123984v-5.27742016h42.85275184z"/>
	<path fill="#d8d8d8" d="M176.52688608 99.73636656h-17.17665072v-2.8289776h17.17665072zm-83.617568 15.56939088H74.8989952v-2.8289776h18.01032288zm-36.551392 0H38.35010672v-2.8289776h18.00781936zm43.58878672 21.18979328H81.93638992v-2.8289776H99.9467128zm76.58017328-10.43467136H161.620928v-2.8289776h14.90595808zm-13.69675792-36.27850832h-18.01032288v-2.8289776h18.01032288zM84.9631456 99.73636656H66.95282272v-2.8289776H84.9631456zm-21.34751504 36.75918416H45.6078112v-2.8289776h18.00781936zm112.91125552-46.71317968h-11.04803376v-2.8289776h11.04803376zM121.439432 94.7593688h-11.05053728v-2.8289776H121.439432zm-32.23782704 0H78.1535712v-2.8289776h11.04803376zm-29.51399728 0H48.63957392v-2.8289776h11.04803376zm23.3828768 31.30151056H72.02245072v-2.8289776h11.04803376zm-4.31356496 10.43467136H67.70888576v-2.8289776h11.04803376zm-9.30558384-10.43467136H58.40330192v-2.8289776h11.04803376zm61.97714112 5.13722304h-11.05053728v-2.8289776h11.04803376zM71.494208 115.30575744H60.44617424v-2.8289776H71.494208zm105.03267808-5.29744832h-11.04803376v-2.8289776h11.04803376zm-30.1173456 21.18979328h-11.04803376v-2.8289776h11.04803376zm16.10764768-21.18979328h-50.30072384v-2.8289776h50.30072384zm-68.33107488-5.13471952H44.11070624v-2.8289776h50.07540704zm23.15505648 26.3245128H68.6276776v-2.8289776h48.71349216zm-51.07931856 0H36.6201744v-2.8289776h29.6416768zm16.34548208-21.18979328H47.51549344v-2.8289776h35.09183984zM65.58089376 89.78237104H45.2448008v-2.8289776h20.33609296zm9.0251896 4.97699776h-9.89391104v-2.8289776h9.89391104zm32.29290448 0H93.14715248v-2.8289776h13.75183536zm69.62789824 0h-51.2095016v-2.8289776h51.2095016zm-53.82317648 4.97699776H89.20160496v-2.8289776h33.50210464zm33.22922096 0h-29.18853968v-2.8289776h29.1910432zm-49.03394272 10.27194256H87.92480976v-2.8289776h18.97417808zm69.62789824 5.29744832h-26.2368896v-2.8289776h26.2368896zm-29.0032792 0H97.44819984v-2.8289776h50.07791056zm29.0032792 15.89234496H148.7653528v-2.8289776h27.7640368zM42.15796064 89.84746256H8.655856v-2.8289776h33.50210464zm-.9763728 15.00609888H26.0803552v-2.8289776h15.10123264zM158.867056 126.01080896h-24.3592496v-2.8289776h24.3592496zM42.4283408 136.46550848H18.07409824v-2.8289776H42.4283408zM176.59698464 36.6151168h-26.94788928v-2.8289776h26.94788928zm-35.3497024 5.14223008H68.01681872v-2.8289776h73.22796zm35.23454048 14.96103552h-79.4116544v-2.8289776h79.4116544z"/>
	<path fill="#a3c9d2" d="M146.00397024 37.6165248h-45.000772v-5.27742016h45.000772z"/>
	<path fill="#d8d8d8" d="M176.59698464 51.58115936H159.4178304v-2.8289776h17.17915424zM92.97691312 67.15055024H74.96909376v-2.8289776h18.00781936zm-36.54888848 0H38.41770176v-2.8289776h18.01032288zm106.46969856-25.5233864h-18.00781936v-2.8289776h18.01032288zm-77.86447904 9.95399552H67.02292128v-2.8289776h18.01032288zm91.56374048-9.95399552h-11.04803376v-2.8289776h11.04803376zm-55.0899576 4.97699776h-11.04803376V43.775184h11.04803376zm-32.23782704 0H78.22116624V43.775184H89.2692zm-29.51149376 0H48.70967248V43.775184h11.04803376zm11.8040968 20.54638864H60.51376928v-2.8289776h11.04803376zm105.0351816-5.29744832h-11.04803376v-2.8289776h11.04803376zm-14.00969792 0h-50.30322736v-2.8289776h50.30322736zm-68.3335784-5.13471952H44.17830128v-2.8289776h50.07540704zm-11.57627648 5.13471952H47.585592v-2.8289776h35.09183984zM65.65099232 41.62716384H45.31489936v-2.8289776h20.33609296zm9.02268608 4.97699776h-9.89140752V43.775184h9.89140752zm32.295408 0H93.21474752V43.775184h13.75183536zm69.62789824 0h-51.2095016V43.775184h51.2095016zm-53.82568 4.97699776H89.2692v-2.8289776h33.50210464zm33.23172448 0h-29.1910432v-2.8289776h29.1910432zM106.9690864 61.85310192H87.9924048v-2.8289776h18.9766816zm69.62789824 5.29744832h-26.2368896v-2.8289776h26.2368896zm-29.0032792 0H97.5182984v-2.8289776h50.07540704zM42.2280592 41.69225536H8.72595456v-2.8289776H42.2280592zm-.9763728 15.00609888H26.14795024v-2.8289776H41.2516864zM97.968932 84.67268672H64.46682736v-2.8289776H97.968932zm-36.113276 0H43.84783664v-2.8289776h18.01032288zm35.94303664-48.24032688H64.296588v-2.8289776h33.50210464zm-36.113276 0H43.67759728v-2.8289776h18.00781936zm115.01421232-26.03911152h-73.22796v-2.8289776h73.22796zm-76.70534928 0H81.9839568v-2.8289776h18.01032288zm-36.33108224 0H45.65287456v-2.8289776h18.01032288zm15.14128896 0H67.75645264v-2.8289776H78.8044864zM131.47354016 5.0958H120.4255064V2.2668224h11.04803376zm14.9835672 0H135.4090736V2.2668224h11.04803376zm-29.06837072 0H68.67524448V2.2668224h48.71349216zm-51.07931856 0h-29.6416768V2.2668224h29.6416768zm110.26503488 0h-27.7640368V2.2668224h27.7640368zM42.47590768 10.36070256H18.1191616v-2.8289776h24.35674608z"/>
	<path fill="silver" d="M5.30833219 32.28980482l.026138 16.648408-4.881864.00170866-.026138-16.648408zM1.316554 3.09343063l2.90663698-.00508215-1.45868406-1.65021235zm.1627288 133.43672274l2.90663698.00508215-1.45868406 1.65021235z"/>
</svg>
