<?xml version="1.0" encoding="UTF-8"?>
<svg xmlns="http://www.w3.org/2000/svg" width="720.891" height="173.924" viewBox="0 0 190.73563 46.017281">
	<path fill="#fdfcfd" d="M190.73542364.00082255H.00045338V46.0162402h190.73497026z"/>
	<path fill="#f1f1f1" d="M186.78252068 18.50322133H.00045338V46.0162402h186.7820673z"/>
	<path d="M142.05109807 12.63542743v-1.91682297h.51718054v1.89512309q0 .44846424.1772157.67269636.17359907.22423213.52441384.22423213.42314772 0 .66546307-.2676319.245932-.26763188.245932-.73056271v-1.79385697h.51718055v3.16456623h-.51718054v-.48824736q-.1916823.28933177-.44123095.430381-.24954865.1374326-.57866354.1374326-.54611372 0-.83182884-.33996483-.27848183-.33634819-.27848183-.99096132zm1.30560961-1.99638921zm5.05245603 1.33092614v1.91320633h-.52079718v-1.89873974q0-.44846424-.17721571-.67269637-.17359906-.22423212-.52441383-.22423212-.41953107 0-.66546307.27124854-.24231536.26763188-.24231536.73056272v1.79024032h-.52079719v-3.16094958h.52079719v.48824736q.18806565-.28209848.4376143-.42314772.2531653-.14466588.58589683-.14466588.54249707 0 .82459555.33996483.27848183.33634818.27848183.99096131zm3.31646542-1.13201055v.48463072q-.21699883-.11934936-.44123095-.18083236-.22061548-.061483-.44846425-.061483-.5063306 0-.78481242.32549824-.27848183.31826495-.27848183.89692849t.27848183.90054513q.27848183.31826495.78481242.31826495.22784877 0 .44846425-.05786636.22061547-.061483.44123095-.18083235v.47739742q-.21699883.10126612-.4520809.15189918-.23146541.05063306-.491864.05063306-.71609613 0-1.1356272-.44846425-.42314771-.44846424-.42314771-1.21157678 0-.77396249.42314771-1.21881008.42676436-.4448476 1.16817702-.4448476.23869871 0 .47016413.05063306.22784877.05063306.44123095.14828253zm3.54069753 1.13201055v1.91320633h-.51718054v-1.89873974q0-.44846424-.1772157-.67269637-.17359907-.22423212-.52441384-.22423212-.42314771 0-.66546307.27124854-.24231536.26763188-.24231536.73056272v1.79024032h-.52079718V9.4853278h.52079718v1.72152403q.18806565-.28209848.4376143-.42314772.2531653-.14466588.58589684-.14466588.54249707 0 .82459554.33996483.27848183.33634818.27848183.99096131zm2.48101993.32188159q-.6292966 0-.87161196.14466589t-.24231536.48824736q0 .27848183.18083236.44123095t.49548065.16274912q.43399766 0 .69439625-.307415.2603986-.30741501.2603986-.8137456v-.11573272zm1.03797772-.21699882v1.80832356h-.52079719v-.48101407q-.1772157.28933177-.44123094.42676436-.2676319.13381595-.65099649.13381595-.48463071 0-.77396248-.27124854-.28933177-.27486518-.28933177-.73056272 0-.53526377.36166471-.8065123.35804807-.27124854 1.0669109-.27124854h.72694607v-.05063306q0-.36166471-.23508206-.553347-.23508206-.1989156-.66184642-.1989156-.27124854 0-.52803048.06509965t-.49548066.19529894v-.47739742q.28571512-.10849941.55334701-.16274912.26763189-.05786635.52441383-.05786635.68716296 0 1.02351114.35804806.33996483.35443142.33996483 1.07776084zm3.70344665-.10488277v1.91320633h-.51718053v-1.89873974q0-.44846424-.17359907-.67269637t-.52441383-.22423212q-.42314771 0-.66546307.27124854-.24231536.26763188-.24231536.73056272v1.79024032h-.52803048v-3.16094958h.52441384v.48824736q.184449-.28209848.4376143-.42314772.2531653-.14466588.58589683-.14466588.54249707 0 .82459555.33996483.27848182.33634818.27848182.99096131zm3.12478312.29294842q0-.56419695-.23508206-.8752286-.23146542-.31103166-.65099649-.31103166-.41953106 0-.65099648.31103165-.23508206.31103166-.23508206.8752286 0 .56058031.23146541.87161196.23508207.31103166.65461313.31103166.41953107 0 .65099649-.31103166.23508206-.31103165.23508206-.87161195zm.52079718 1.22604337q0 .80651231-.3616647 1.20072685-.35443143.39783118-1.09584409.39783118-.27486518 0-.51718054-.04339976-.24231535-.03978312-.47016412-.12658265v-.5063306q.22784877.12658265.44846424.184449.22423212.061483.45569754.061483.5135639 0 .76672919-.27124853.2531653-.26401524.2531653-.80289566v-.2603986q-.15913248.27848183-.41229777.41591442-.2531653.14104924-.60036343.14104924-.58228018 0-.94032825-.4448476-.35443142-.44484759-.35443142-1.1754103 0-.73417938.35443142-1.17902697.35804807-.4448476.94032825-.4448476.35081477 0 .60036343.14104924.2531653.1374326.41229777.41591442v-.47378077h.52079718zm3.77939624-1.3200762v.2531653h-2.39060374q.03254982.53888042.3218816.8209789.28933176.27848183.8065123.27848183.30018171 0 .57866354-.07233295.28209848-.07233294.5605803-.21699882v.48824736q-.27848182.11934935-.57504689.18083235-.28933177.061483-.59313013.061483-.7594959 0-1.20434349-.44123094-.4376143-.44123095-.4376143-1.19349355 0-.77396249.41591442-1.22966003.42314771-.45931418 1.1356272-.45931418.63652989 0 1.0054279.41591442.3761313.40868112.3761313 1.11392731zm-.52079718-.15189918q-.0072333-.42676436-.24231536-.67992966-.23146541-.2531653-.61483-.2531653-.43399766 0-.6980129.24231536-.2603986.245932-.30018171.69439625zm3.453898-.82097889V9.48894443h.52079719v4.3978429h-.52079719v-.47739741q-.16274912.28209847-.41591442.4231477-.245932.13381595-.59674677.13381595-.5750469 0-.9367116-.45569753-.35804807-.45931419-.35804807-1.2043435 0-.7450293.36166471-1.20434349.36166471-.45931418.93309496-.45931418.35081477 0 .59674677.14104923.2531653.13381595.41591442.41591442zm-1.77215709 1.10669402q0 .57143024.23508207.90054513.2386987.32549824.65099648.32549824.41229777 0 .65099648-.32549824.23508206-.32549824.23508206-.90416178 0-.57143025-.23508206-.89692849-.2386987-.32549824-.65099648-.32549824-.41229777 0-.65099648.32549824-.23508207.32549824-.23508207.90054514zm5.72153575-2.48463658v.90054514h1.07052755v.40144783h-1.07052755v1.71790738q0 .38698124.10488277.4990973.10849941.10849942.43399765.10849942h.53164713v.43399765h-.53526377q-.60036343 0-.83182884-.22061547-.22784877-.22784877-.22784877-.8209789V11.1200523h-.3761313v-.40144783h.37974795v-.90416178zm4.46294255 2.35082063v.2531653h-2.3869871q.03254983.53888042.31826495.8209789.28933177.27848183.81012895.27848183.29656507 0 .57866354-.07233295t.55696366-.21699882v.48824736q-.27848183.11934935-.57143025.18083235t-.59674677.061483q-.7594959 0-1.20072685-.44123094-.44123094-.44123095-.44123094-1.19349355 0-.77396249.41953106-1.22966003.41953107-.45931418 1.13201055-.45931418.64014654 0 1.00904455.41591442.37251465.40868112.37251465 1.11392731zm-.52079718-.15189918q-.00361665-.42676436-.23869871-.67992966-.23146542-.2531653-.61483001-.2531653-.43399766 0-.6980129.24231536-.2603986.245932-.30018171.69439625zm3.90236225-1.29837631l-1.1428605 1.53707502 1.2043435 1.6274912h-.61483002l-.92224501-1.2441266-.91862837 1.2441266h-.61483001l1.22966002-1.65642437-1.12116061-1.50814185h.61121336l.83906214 1.12477725.83906213-1.12477725zm1.30922625-.90054514v.90054514h1.07052755v.40144783h-1.07052755v1.71790738q0 .38698124.10488277.4990973.10849941.10849942.43399765.10849942h.53164713v.43399765h-.53526378q-.60036342 0-.83182883-.22061547-.22784877-.22784877-.22784877-.8209789V11.1200523h-.37974795v-.40144783h.37974795v-.90416178z"/>
	<path fill="#3261ff" d="M108.47210792 10.27170805a4.48772925 4.48772925 0 0 0 4.48957986 4.48772925 4.48772925 4.48772925 0 0 0 4.48772925-4.48772925 4.48772925 4.48772925 0 0 0-4.48772925-4.48957986 4.48772925 4.48772925 0 0 0-4.48957986 4.48957986z"/>
	<path fill="#fff" d="M110.25424535 10.26800683a2.7203967 2.7203967 0 0 0 2.7203967 2.7203967 2.7203967 2.7203967 0 0 0 2.7203967-2.7203967 2.7203967 2.7203967 0 0 0-2.7203967-2.7203967 2.7203967 2.7203967 0 0 0-2.7203967 2.7203967z"/>
	<path fill="#fff" stroke="#373635" stroke-linecap="round" stroke-linejoin="round" stroke-width=".6292074" d="M47.79060602 10.17362572a4.17312555 4.17312555 0 0 0 4.17497616 4.17312555 4.17312555 4.17312555 0 0 0 4.17312555-4.17312555 4.17312555 4.17312555 0 0 0-4.17312555-4.17497616 4.17312555 4.17312555 0 0 0-4.17497616 4.17497616z"/>
	<path d="M92.39342012 9.48213326v.49186401q-.21699883-.11211606-.45569754-.16998241-.23869871-.05063306-.49186401-.05063306-.38698124 0-.58228019.11934935-.1916823.11573271-.1916823.35443142 0 .18083236.1374326.28571512.13743259.10126612.55696365.19529895l.18083236.03616647q.54973036.122966.78119578.33996483.23508206.21699883.23508206.60036342 0 .44123095-.35081477.6980129-.34719812.25678194-.95841149.25678194-.2531653 0-.52803048-.05063306-.27486518-.0470164-.57866354-.14466588v-.53888042q.28933177.14828253.56419695.22784877.28209848.07233294.55696366.07233294.36528136 0 .56419695-.12658265.1989156-.12658265.1989156-.35443142 0-.21338218-.1446659-.32549824t-.62567994-.21699883l-.18083236-.04339976q-.48463071-.10126612-.6980129-.31103166-.21699882-.20976553-.21699882-.57866354 0-.4448476.31826495-.68716295.31826494-.245932.90054513-.245932.28933177 0 .54249707.04339976.2531653.04339977.47016412.12658265zm3.63111371 1.16094374v1.91320632h-.52079719v-1.89873974q0-.44846424-.17359906-.67269637t-.52441383-.22423212q-.42314772 0-.66546307.27124854-.24231536.27124853-.24231536.73417936v1.79024033h-.52441383v-4.3978429h.52441383v1.72152403q.184449-.28209848.4376143-.42314772.2531653-.14466588.58589684-.14466588.54249706 0 .82459554.33996483.27848183.33634818.27848183.99096131zm2.27125439-.8896952q-.41953107 0-.66184642.32549824-.24231536.32549824-.24231536.89692849 0 .5678136.23869871.89331184.24231536.32549824.66546307.32549824.41229777 0 .65822978-.32549824.24231535-.32549825.24231535-.89331184 0-.56419695-.24231535-.8896952-.245932-.33273153-.65822978-.33273153zm0-.44123095q.67631301 0 1.06329426.44123095.38698124.44123095.38698124 1.22242673 0 .77757913-.38698124 1.21881008-.38698125.44123095-1.06329426.44123095-.6835463 0-1.07052755-.44123095-.3833646-.44123095-.3833646-1.21881008 0-.78119578.3833646-1.22242673.38698124-.44123095 1.07052755-.44123095zm2.00723915.07956624h.52079719l.65099648 2.46655333.64376319-2.46655333h.61483001l.65099648 2.46655333.6437632-2.46655333h.52079718l-.8282122 3.16456623h-.61483l-.67631302-2.59675264-.68716295 2.59675264h-.61483001z"/>
	<path d="M35.39135839 10.51723551v1.91320633h-.52079719V10.5317021q0-.44846424-.17359906-.67269637-.17721571-.22423212-.52803048-.22423212-.41953107 0-.66184642.27124854-.24231536.26763188-.24231536.73056272v1.79024032h-.52803048V8.03259894h.52441383v1.72152403q.184449-.28209848.43399766-.42314772.25678194-.14466588.58589683-.14466588.54611372 0 .82459554.33996483.28209848.33634818.28209848.99096131zm1.04159437-1.25135991h.52079718v3.16456624h-.52079718zm0-1.23327666h.52079718v.65822977h-.52079718zm3.68898006 1.71067409V8.03621558h.51718054v4.3978429h-.51718054v-.47739741q-.16636576.28209847-.41591442.4231477-.24954865.13381595-.60036342.13381595-.57143024 0-.93309496-.45569753-.3616647-.45931419-.3616647-1.2043435 0-.7450293.3616647-1.20434349.36166472-.45931418.93309496-.45931418.35081477 0 .60036342.14104923.2531653.13381595.41591442.41591442zm-1.77215709 1.10669402q0 .57143024.23508207.90054513.23508206.32549824.65099648.32549824.40868112 0 .64737983-.32549824.23869871-.32549824.23869871-.90416178 0-.57143025-.2386987-.89692849t-.65099649-.32549824q-.41229777 0-.65099648.32549824-.23146542.32549824-.23146542.90054514zm6.06873387-.13381595v.2531653h-2.39060374q.03616647.53888042.3218816.8209789.28933176.27848183.8065123.27848183.30018171 0 .57866354-.07233295.28571512-.07233294.5605803-.21699882v.48824736q-.27848182.11934935-.57143024.18083235-.29656507.061483-.59674678.061483-.7594959 0-1.20072684-.44123094-.44123095-.44123095-.44123095-1.19349355 0-.77396249.41953107-1.22966003.41953106-.45931418 1.13201055-.45931418.63652989 0 1.00904454.41591442.37251466.40868112.37251466 1.11392731zm-.52079718-.15189918q-.00361665-.42676436-.23869871-.67992966-.23146542-.2531653-.61483001-.2531653-.43399766 0-.70162954.24231536-.25678195.245932-.29656507.69439625z"/>
	<path fill="#d8d8d8" d="M184.4729594 38.03640988H93.49327058V34.5239521h90.98153943zm-95.29716195 0H66.80007194V34.5239521h22.3738749zm-45.1363779 0h-22.3738749V34.5239521h22.3738749zm18.81145065 0H49.12489583V34.5239521H62.8508702zm65.43386838-6.58076916h-13.72597437v-3.51430839h13.72597437zm18.61528599 0H133.1740502v-3.51430839h13.72597437zm-36.11465415 0H50.2667222v-3.51430839h60.51864822zm-63.45926751 0h-36.827139v-3.51430839h36.827139zm136.99140525 0h-34.48981857v-3.51430839h34.48981857z"/>
	<path fill="silver" d="M.07077656 29.138677L.05597168 40.1683126h3.01464369l.01480488-11.0296356zm2.82588147-8.46839136l-2.65932657-.00555183 1.33428981-1.80619536z"/>
	<path fill="#ead97f" d="M131.705 31.884h16.563v-4.55h-16.562z"/>
	<path fill="#3c7aeb" stroke="#3c7aeb" stroke-linecap="round" stroke-linejoin="round" stroke-width=".387" d="M187.941 18.839H6.531v6.628h181.41z"/>
	<path fill="#3c7aeb" stroke="#3c7aeb" stroke-width="1.711" d="M187.701 46.674V18.56"/>
	<path fill="#fff" d="M129.12 21.335h.668v2.088h-.668zm0-.814h.668v.545h-.668zm3.413 1.63v1.272h-.671v-.973q0-.27-.014-.373-.011-.103-.04-.151-.04-.066-.107-.101-.067-.037-.153-.037-.209 0-.328.162-.12.16-.12.446v1.027h-.667v-2.088h.668v.305q.15-.182.32-.268.17-.088.375-.088.362 0 .548.222.189.222.189.645zm3.387-.123q0-.522-.1-.734-.096-.215-.327-.215-.232 0-.33.215-.1.212-.1.734 0 .528.1.744.098.217.33.217.229 0 .328-.217.099-.216.099-.744zm.718.006q0 .692-.299 1.069-.298.374-.846.374-.55 0-.849-.374-.298-.377-.298-1.07 0-.693.298-1.068.299-.376.849-.376.548 0 .846.376.299.375.299 1.069zm.608-.699h.673v.721h-.673zm0 1.367h.673v.721h-.673zm2.859-.674q0-.522-.1-.734-.096-.215-.327-.215-.232 0-.33.215-.1.212-.1.734 0 .528.1.744.098.217.33.217.229 0 .328-.217.099-.216.099-.744zm.718.006q0 .692-.299 1.069-.298.374-.846.374-.55 0-.849-.374-.298-.377-.298-1.07 0-.693.298-1.068.298-.376.849-.376.548 0 .846.376.299.375.299 1.069zm.608-.699h.673v.721h-.673zm0 1.367h.673v.721h-.673zm2.859-.674q0-.522-.1-.734-.096-.215-.328-.215-.23 0-.33.215-.099.212-.099.734 0 .528.1.744.098.217.33.217.229 0 .328-.217.099-.216.099-.744zm.718.006q0 .692-.299 1.069-.298.374-.846.374-.55 0-.85-.374-.297-.377-.297-1.07 0-.693.298-1.068.298-.376.849-.376.548 0 .846.376.299.375.299 1.069zm.608-.699h.673v.721h-.673zm0 1.367h.673v.721h-.673zm2.858-.674q0-.522-.098-.734-.098-.215-.329-.215-.23 0-.33.215-.099.212-.099.734 0 .528.1.744.098.217.33.217.229 0 .328-.217.098-.216.098-.744zm.718.006q0 .692-.298 1.069-.298.374-.847.374-.55 0-.848-.374-.299-.377-.299-1.07 0-.693.299-1.068.298-.376.848-.376.549 0 .847.376.298.375.298 1.069zm.608-.699h.674v.721h-.674zm0 1.367h.674v.721h-.674zm2.859-.674q0-.522-.099-.734-.096-.215-.328-.215-.231 0-.33.215-.099.212-.099.734 0 .528.1.744.098.217.33.217.229 0 .327-.217.1-.216.1-.744zm.718.006q0 .692-.298 1.069-.298.374-.847.374-.55 0-.848-.374-.299-.377-.299-1.07 0-.693.299-1.068.298-.376.848-.376.549 0 .847.376.298.375.298 1.069zm.609-.699h.673v.721h-.674zm0 1.367h.673v.721h-.674zm2.858-.674q0-.522-.099-.734-.097-.215-.328-.215t-.33.215q-.099.212-.099.734 0 .528.099.744.099.217.33.217.23 0 .328-.217.1-.216.1-.744zm.718.006q0 .692-.298 1.069-.299.374-.847.374-.55 0-.848-.374-.299-.377-.299-1.07 0-.693.299-1.068.298-.376.848-.376.548 0 .847.376.298.375.298 1.069zm.608-.699h.673v.721h-.673zm0 1.367h.673v.721h-.673zm2.859-.674q0-.522-.099-.734-.097-.215-.328-.215t-.33.215q-.099.212-.099.734 0 .528.099.744.099.217.33.217.23 0 .328-.217.1-.216.1-.744zm.718.006q0 .692-.298 1.069-.299.374-.847.374-.55 0-.848-.374-.299-.377-.299-1.07 0-.693.299-1.068.298-.376.848-.376.548 0 .847.376.298.375.298 1.069zm.609-.699h.672v.721h-.673zm0 1.367h.672v.721h-.673zm1.549.225h.634v-1.8l-.65.135v-.489l.646-.134h.683v2.288h.634v.496h-1.947zm3.014-2.288v1.035h-.442v-1.035zm2.317.761v.507q-.214-.09-.413-.134-.2-.045-.377-.045-.19 0-.284.049-.09.046-.09.145 0 .08.068.123.071.043.252.063l.117.017q.513.066.69.215.177.149.177.468 0 .334-.246.502-.246.167-.734.167-.208 0-.43-.033-.22-.032-.453-.097v-.508q.2.097.409.146.21.048.427.048.196 0 .295-.054.098-.054.098-.16 0-.09-.069-.133-.067-.044-.27-.069l-.117-.015q-.446-.056-.625-.207-.18-.15-.18-.458 0-.332.228-.493.228-.16.698-.16.184 0 .388.028.203.028.442.088zm1.709-.065h.668l.52 1.443.518-1.443h.67l-.823 2.088h-.732zm4.839 1.038v.19h-1.56q.024.236.17.353.145.118.406.118.21 0 .43-.062.223-.063.456-.19v.514q-.237.09-.474.135-.237.046-.474.046-.567 0-.882-.287-.313-.289-.313-.81 0-.51.308-.803.31-.293.85-.293.492 0 .787.297.296.296.296.792zm-.686-.222q0-.19-.112-.305-.11-.118-.289-.118-.194 0-.315.11-.121.108-.151.313zm2.742-.248q-.088-.04-.176-.06-.086-.02-.173-.02-.257 0-.397.166-.138.164-.138.472v.962h-.668v-2.088h.668v.343q.128-.205.294-.299.168-.095.401-.095.034 0 .073.004.04.002.114.011zm1.967-.503v.507q-.214-.09-.414-.134-.2-.045-.377-.045-.19 0-.283.049-.092.046-.092.145 0 .08.07.123t.251.063l.118.017q.512.066.69.215.177.149.177.468 0 .334-.246.502-.247.167-.735.167-.207 0-.43-.033-.22-.032-.452-.097v-.508q.2.097.408.146.21.048.427.048.196 0 .295-.054.099-.054.099-.16 0-.09-.07-.133-.066-.044-.27-.069l-.117-.015q-.446-.056-.625-.207-.179-.15-.179-.458 0-.332.228-.493.227-.16.697-.16.185 0 .388.028t.442.088zm.644-.065h.667v2.088h-.667zm0-.814h.667v.545h-.667zm2.306 1.241q-.222 0-.339.16-.116.159-.116.459 0 .3.116.46.117.159.34.159.218 0 .333-.159.116-.16.116-.46 0-.3-.116-.459-.115-.16-.334-.16zm0-.478q.54 0 .842.291.303.291.303.806 0 .515-.303.805-.303.291-.842.291-.54 0-.846-.29-.304-.291-.304-.806 0-.515.304-.806.306-.29.846-.29zm3.732.867v1.272h-.671v-.973q0-.27-.013-.373-.012-.103-.041-.151-.04-.066-.107-.101-.067-.037-.153-.037-.209 0-.328.162-.12.16-.12.446v1.027h-.667v-2.088h.668v.305q.15-.182.32-.268.17-.088.375-.088.362 0 .548.222.189.222.189.645z"/>
</svg>
