<?xml version="1.0" encoding="UTF-8"?>
<svg xmlns="http://www.w3.org/2000/svg" width="757.642" height="311.329" viewBox="0 0 200.45932 82.372337">
	<g transform="translate(-5.982 -5.777)">
		<g transform="translate(6.672 -14.594) scale(.94216)">
			<path fill="#fdfcfd" stroke-linecap="round" stroke-linejoin="round" stroke-width="1.409" d="M107.42 56.122h104.507v47.206H107.42z"/>
			<g transform="translate(.683 7.38) scale(2.00943)">
				<path d="M1.108 7.576v.204q-.098-.091-.209-.136-.11-.045-.234-.045-.245 0-.375.15t-.13.433q0 .282.13.432.13.15.375.15.124 0 .234-.046.111-.045.209-.135v.201q-.101.07-.215.104-.113.034-.24.034-.324 0-.51-.198-.187-.199-.187-.542 0-.345.186-.543.187-.2.511-.2.129 0 .242.035.113.034.213.102z"/>
				<path d="M1.816 7.946q-.141 0-.224.111-.082.11-.082.303 0 .192.081.303.083.11.225.11.14 0 .223-.111.083-.111.083-.302 0-.19-.083-.302-.082-.112-.223-.112zm0-.15q.23 0 .361.15.131.15.131.414 0 .263-.131.413-.131.15-.36.15-.231 0-.363-.15-.13-.15-.13-.413 0-.265.13-.414.132-.15.362-.15z"/>
				<path d="M3.49 8.248v.647h-.176v-.642q0-.152-.06-.227-.059-.076-.177-.076-.143 0-.225.09-.083.092-.083.249v.606h-.177V7.823h.177v.166q.064-.096.149-.144.086-.048.198-.048.185 0 .28.115.094.114.094.336z"/>
				<path d="M4.22 7.405h.49v1.49h-.178V7.552h-.315q-.094 0-.132.038-.036.038-.036.138v.095h.29v.137h-.29v.935h-.177V7.96h-.169v-.137h.169v-.075q0-.179.083-.26.083-.083.264-.083z"/>
				<path d="M5.08 7.823h.176v1.072H5.08zm0-.418h.176v.223H5.08z"/>
				<path d="M6.395 7.864v.164q-.075-.04-.15-.06-.075-.022-.152-.022-.171 0-.266.11-.095.107-.095.304 0 .196.095.305.095.108.266.108.077 0 .151-.02.076-.021.15-.062v.162q-.073.035-.152.052-.079.017-.168.017-.242 0-.385-.152-.142-.152-.142-.41 0-.263.143-.413.145-.15.396-.15.08 0 .158.017.078.016.15.05z"/>
				<path d="M6.877 7.518v.305h.363v.137h-.363v.581q0 .131.035.169.037.037.147.037h.18v.148h-.18q-.204 0-.282-.076Q6.7 8.742 6.7 8.54v-.58h-.13v-.137h.13v-.305z"/>
				<path d="M7.472 7.823h.176v1.072h-.176zm0-.418h.176v.223h-.176z"/>
				<path d="M8.907 8.248v.647H8.73v-.642q0-.152-.06-.227-.059-.076-.178-.076-.142 0-.224.09-.083.092-.083.249v.606H8.01V7.823h.177v.166q.063-.096.149-.144.086-.048.198-.048.184 0 .28.115.094.114.094.336z"/>
				<path d="M9.965 8.346q0-.191-.08-.297-.078-.105-.22-.105-.142 0-.221.105-.079.106-.079.297 0 .19.079.296.08.105.22.105.143 0 .222-.105.08-.105.08-.296zm.176.416q0 .273-.121.406-.122.134-.372.134-.093 0-.176-.014-.082-.014-.16-.042v-.172q.078.043.154.063.075.02.154.02.173 0 .26-.091.085-.09.085-.273v-.087q-.054.095-.14.142-.085.047-.203.047-.197 0-.318-.15-.12-.151-.12-.399 0-.249.12-.399.12-.15.318-.15.118 0 .204.047.085.047.14.141v-.162h.175z"/>
				<path d="M11.9 7.864v.164q-.075-.04-.15-.06-.075-.022-.152-.022-.171 0-.266.11-.095.107-.095.304 0 .196.095.305.095.108.266.108.077 0 .151-.02.076-.021.15-.062v.162q-.073.035-.153.052-.078.017-.167.017-.242 0-.385-.152-.142-.152-.142-.41 0-.263.143-.413.145-.15.395-.15.082 0 .16.017.077.016.15.05z"/>
				<path d="M13.099 8.248v.647h-.176v-.642q0-.152-.06-.227-.06-.076-.178-.076-.142 0-.225.09-.082.092-.082.249v.606h-.177v-1.49h.177v.584q.063-.096.148-.144.086-.048.198-.048.185 0 .28.115.095.114.095.336z"/>
				<path d="M13.939 8.356q-.213 0-.296.049-.082.048-.082.166 0 .094.061.15.062.054.169.054.146 0 .234-.103.09-.105.09-.277v-.04zm.351-.073v.612h-.176v-.163q-.06.097-.15.144-.09.046-.22.046-.165 0-.263-.092-.096-.092-.096-.247 0-.181.12-.273.122-.092.362-.092h.247V8.2q0-.122-.08-.188-.08-.067-.224-.067-.092 0-.18.022-.086.022-.167.066V7.87q.097-.037.188-.055.09-.02.177-.02.232 0 .347.121.115.121.115.366z"/>
				<path d="M15.545 8.248v.647h-.176v-.642q0-.152-.06-.227-.059-.076-.178-.076-.142 0-.224.09-.083.092-.083.249v.606h-.177V7.823h.177v.166q.063-.096.149-.144.086-.048.198-.048.184 0 .28.115.094.114.094.336z"/>
				<path d="M16.603 8.346q0-.191-.08-.297-.078-.105-.22-.105-.142 0-.221.105-.079.106-.079.297 0 .19.079.296.08.105.22.105.143 0 .222-.105.08-.105.08-.296zm.176.416q0 .273-.121.406-.122.134-.372.134-.093 0-.176-.014-.082-.014-.16-.042v-.172q.078.043.154.063.075.02.154.02.173 0 .26-.091.085-.09.085-.273v-.087q-.054.095-.14.142-.085.047-.203.047-.197 0-.318-.15-.12-.151-.12-.399 0-.249.12-.399.12-.15.318-.15.118 0 .204.047.085.047.14.141v-.162h.175z"/>
				<path d="M18.059 8.315V8.4h-.81q.012.182.11.277.098.095.273.095.102 0 .196-.025.096-.025.19-.075v.167q-.095.04-.194.061-.1.021-.202.021-.257 0-.407-.149-.15-.15-.15-.404 0-.263.142-.417.143-.155.384-.155.216 0 .342.14.126.138.126.378zm-.176-.052q-.002-.145-.081-.23-.079-.087-.21-.087-.146 0-.235.083-.089.084-.102.235z"/>
				<path d="M19.031 7.854v.167q-.074-.039-.155-.058-.08-.019-.166-.019-.131 0-.197.04-.065.04-.065.121 0 .061.046.097.047.034.189.066l.06.013q.188.04.266.114.08.073.08.204 0 .15-.119.236-.118.087-.324.087-.087 0-.18-.017-.093-.016-.196-.05v-.182q.097.051.192.077.095.025.187.025.125 0 .192-.042.067-.043.067-.12 0-.073-.049-.11-.048-.04-.211-.075l-.062-.014q-.163-.034-.236-.105-.073-.072-.073-.196 0-.152.107-.234.108-.082.305-.082.097 0 .183.014.087.015.16.043z"/>
			</g>
			<g transform="translate(1.485 31.647) scale(2.00943)">
				<path d="M-.018 8.55v-.53h.143v.524q0 .124.049.186.048.062.145.062.117 0 .184-.074.068-.074.068-.202V8.02h.143v.875H.571V8.76q-.053.08-.122.119-.069.038-.16.038-.151 0-.23-.094-.077-.093-.077-.274zm.361-.552z"/>
				<path d="M1.74 8.366v.529h-.144V8.37q0-.124-.049-.186-.048-.062-.145-.062-.116 0-.184.075-.067.074-.067.202v.495h-.144V8.02h.144v.135q.052-.078.121-.117.07-.04.162-.04.15 0 .228.094.077.093.077.274z"/>
				<path d="M2.657 8.053v.134q-.06-.033-.122-.05-.061-.017-.124-.017-.14 0-.217.09-.077.088-.077.248t.077.249q.077.088.217.088.063 0 .124-.016.061-.017.122-.05v.132q-.06.028-.125.042-.064.014-.136.014-.198 0-.314-.124-.117-.124-.117-.335 0-.214.117-.337.118-.123.323-.123.066 0 .13.014.063.014.122.041z"/>
				<path d="M3.636 8.366v.529h-.143V8.37q0-.124-.049-.186-.048-.062-.145-.062-.117 0-.184.075-.067.074-.067.202v.495h-.144V7.679h.144v.476q.052-.078.121-.117.07-.04.162-.04.15 0 .228.094.077.093.077.274z"/>
				<path d="M4.322 8.455q-.174 0-.241.04t-.067.135q0 .077.05.122t.137.045q.12 0 .192-.085.072-.085.072-.225v-.032zm.287-.06v.5h-.144v-.133q-.049.08-.122.118-.074.037-.18.037-.134 0-.214-.075-.08-.076-.08-.202 0-.148.1-.223.099-.075.295-.075h.201v-.014q0-.1-.065-.153-.065-.055-.183-.055-.075 0-.146.018t-.137.054V8.06q.079-.03.153-.045.074-.016.145-.016.19 0 .283.099.094.098.094.298z"/>
				<path d="M5.633 8.366v.529H5.49V8.37q0-.124-.048-.186t-.145-.062q-.117 0-.184.075-.067.074-.067.202v.495H4.9V8.02h.145v.135q.051-.078.121-.117.07-.04.162-.04.15 0 .228.094.077.093.077.274z"/>
				<path d="M6.497 8.447q0-.156-.065-.242-.064-.086-.18-.086-.116 0-.18.086-.065.086-.065.242 0 .155.064.241.065.086.181.086.116 0 .18-.086.065-.086.065-.241zm.144.339q0 .223-.1.332-.098.11-.303.11-.076 0-.143-.012-.067-.011-.13-.035v-.14q.063.035.124.051.062.017.126.017.142 0 .212-.075.07-.073.07-.222V8.74q-.044.077-.114.115-.07.039-.166.039-.161 0-.26-.123-.098-.123-.098-.325 0-.203.098-.326.099-.123.26-.123.097 0 .166.039.07.038.114.115V8.02h.144z"/>
				<path d="M7.686 8.421v.07h-.661q.009.149.089.227.08.077.223.077.083 0 .16-.02.078-.02.155-.06v.135q-.077.033-.159.05-.08.017-.164.017-.21 0-.333-.122-.121-.122-.121-.33 0-.214.115-.34.117-.127.314-.127.176 0 .278.115.104.113.104.308zm-.144-.042q-.002-.118-.067-.188-.064-.07-.17-.07-.12 0-.193.067-.072.068-.083.192z"/>
				<path d="M8.497 8.152V7.68h.144v1.216h-.144v-.132q-.045.078-.115.117-.068.037-.165.037-.159 0-.259-.126-.099-.127-.099-.333 0-.206.1-.333.1-.127.258-.127.097 0 .165.039.07.037.115.115zm-.49.306q0 .158.065.249.066.09.18.09.114 0 .18-.09.065-.09.065-.25 0-.158-.065-.248-.066-.09-.18-.09-.114 0-.18.09-.065.09-.065.249z"/>
				<path d="M9.589 7.771v.249h.296v.111h-.296v.475q0 .107.029.138.03.03.12.03h.147v.12h-.148q-.166 0-.23-.061-.063-.063-.063-.227v-.475H9.34V8.02h.105v-.25z"/>
				<path d="M10.823 8.421v.07h-.66q.009.149.088.227.08.077.224.077.082 0 .16-.02t.154-.06v.135q-.077.033-.158.05t-.165.017q-.21 0-.332-.122-.122-.122-.122-.33 0-.214.116-.34.116-.127.313-.127.177 0 .279.115.103.113.103.308zm-.144-.042q-.001-.118-.066-.188-.064-.07-.17-.07-.12 0-.193.067-.072.068-.083.192z"/>
				<path d="M11.758 8.02l-.316.425.333.45h-.17l-.255-.344-.254.344h-.17l.34-.458-.31-.417h.169l.232.311.232-.311z"/>
				<path d="M12.12 7.771v.249h.296v.111h-.296v.475q0 .107.029.138.03.03.12.03h.147v.12h-.148q-.166 0-.23-.061-.063-.063-.063-.227v-.475h-.105V8.02h.105v-.25z"/>
			</g>
			<path fill="#3261ff" stroke-linecap="round" stroke-linejoin="round" stroke-width=".584" d="M43.966 48.076a2.494 2.494 0 0 1-2.494 2.494 2.494 2.494 0 0 1-2.493-2.494 2.494 2.494 0 0 1 2.493-2.494 2.494 2.494 0 0 1 2.494 2.494z"/>
			<path fill="#fff" stroke-linecap="round" stroke-linejoin="round" stroke-width=".354" d="M42.976 48.074a1.512 1.512 0 0 1-1.511 1.512 1.512 1.512 0 0 1-1.512-1.512 1.512 1.512 0 0 1 1.512-1.512 1.512 1.512 0 0 1 1.511 1.512z"/>
			<path fill="#fff" stroke="#373635" stroke-linecap="round" stroke-linejoin="round" stroke-width=".35" d="M77.681 48.021a2.319 2.319 0 0 1-2.319 2.319 2.319 2.319 0 0 1-2.319-2.319 2.319 2.319 0 0 1 2.32-2.319 2.319 2.319 0 0 1 2.318 2.319z"/>
			<g transform="translate(46.281 31.472) scale(2.00943)">
				<path d="M.554 8.045v.136q-.06-.031-.126-.047Q.362 8.12.292 8.12q-.107 0-.161.033-.053.032-.053.098 0 .05.038.079.038.028.154.054l.05.01q.152.034.216.094.065.06.065.166 0 .122-.097.193-.096.071-.265.071-.07 0-.146-.014-.076-.013-.16-.04v-.149q.08.041.156.063.078.02.154.02.101 0 .156-.035.055-.035.055-.098 0-.059-.04-.09t-.173-.06l-.05-.012q-.134-.028-.193-.086-.06-.058-.06-.16 0-.123.088-.19.088-.068.249-.068.08 0 .15.012.07.012.13.035z"/>
				<path d="M1.558 8.366v.529h-.144V8.37q0-.124-.048-.186t-.145-.062q-.117 0-.184.075Q.97 8.272.97 8.4v.495H.825V7.679H.97v.476q.051-.078.121-.117.07-.04.162-.04.15 0 .228.094.077.093.077.274z"/>
				<path d="M2.186 8.12q-.116 0-.183.09-.067.09-.067.248 0 .157.066.247.067.09.184.09.114 0 .182-.09.067-.09.067-.247 0-.156-.067-.246-.068-.092-.182-.092zm0-.122q.187 0 .294.122.107.122.107.338 0 .215-.107.337-.107.122-.294.122-.189 0-.296-.122-.106-.122-.106-.337 0-.216.106-.338.107-.122.296-.122z"/>
				<path d="M2.741 8.02h.144l.18.682.178-.682h.17l.18.682.178-.682h.144l-.229.875h-.17l-.187-.718-.19.718h-.17z"/>
			</g>
			<g transform="translate(79.573 31.401) scale(2.00943)">
				<path d="M.724 8.366v.529H.58V8.37q0-.124-.048-.186-.049-.062-.146-.062-.116 0-.183.075-.067.074-.067.202v.495H-.01V7.679h.145v.476q.051-.078.12-.117.071-.04.162-.04.151 0 .228.094.078.093.078.274z"/>
				<path d="M1.012 8.02h.144v.875h-.144zm0-.341h.144v.182h-.144z"/>
				<path d="M2.032 8.152V7.68h.143v1.216h-.143v-.132q-.046.078-.115.117-.069.037-.166.037-.158 0-.258-.126-.1-.127-.1-.333 0-.206.1-.333.1-.127.258-.127.097 0 .166.039.07.037.115.115zm-.49.306q0 .158.065.249.065.09.18.09.113 0 .179-.09.066-.09.066-.25 0-.158-.066-.248t-.18-.09q-.114 0-.18.09-.064.09-.064.249z"/>
				<path d="M3.22 8.421v.07h-.661q.01.149.089.227.08.077.223.077.083 0 .16-.02.079-.02.155-.06v.135q-.077.033-.158.05-.082.017-.165.017-.21 0-.332-.122-.122-.122-.122-.33 0-.214.116-.34.116-.127.313-.127.176 0 .279.115.103.113.103.308zm-.144-.042q-.001-.118-.066-.188-.064-.07-.17-.07-.12 0-.194.067-.071.068-.082.192z"/>
			</g>
			<g transform="translate(107.996 7.362) scale(2.00943)">
				<path d="M.038 7.466h.904v.162h-.71v.423h.68v.163h-.68v.518h.727v.163h-.92z"/>
				<path d="M1.976 7.985v-.58h.176v1.49h-.176v-.161q-.055.095-.14.142-.085.046-.204.046-.194 0-.316-.155t-.122-.407q0-.253.122-.408.122-.155.316-.155.12 0 .203.047.086.046.141.141zm-.6.375q0 .194.08.305.08.11.22.11t.22-.11q.08-.111.08-.305 0-.195-.08-.305-.08-.11-.22-.11t-.22.11q-.08.11-.08.305z"/>
				<path d="M2.515 7.823h.176v1.072h-.176zm0-.418h.176v.223h-.176z"/>
				<path d="M3.233 7.518v.305h.362v.137h-.362v.581q0 .131.035.169.036.037.146.037h.181v.148h-.18q-.204 0-.282-.076-.077-.077-.077-.278V7.96h-.13v-.137h.13v-.305z"/>
				<path d="M4.243 7.946q-.141 0-.224.111-.082.11-.082.303 0 .192.081.303.083.11.225.11.14 0 .223-.111.083-.111.083-.302 0-.19-.083-.302-.082-.112-.223-.112zm0-.15q.23 0 .361.15.131.15.131.414 0 .263-.13.413-.132.15-.362.15-.23 0-.361-.15-.13-.15-.13-.413 0-.265.13-.414.13-.15.361-.15z"/>
				<path d="M5.647 7.987q-.03-.017-.065-.025-.034-.008-.076-.008-.15 0-.23.097-.08.097-.08.279v.565H5.02V7.823h.177v.166q.056-.097.145-.144.089-.048.216-.048.018 0 .04.003l.05.006z"/>
				<path d="M6.355 7.823h.177l.22.836.219-.836h.207l.22.836.22-.836h.176l-.28 1.072h-.208l-.23-.879-.232.879h-.208z"/>
				<path d="M8.062 7.823h.176v1.072h-.176zm0-.418h.176v.223h-.176z"/>
				<path d="M8.78 7.518v.305h.362v.137H8.78v.581q0 .131.035.169.036.037.146.037h.181v.148h-.18q-.204 0-.282-.076-.077-.077-.077-.278V7.96h-.13v-.137h.13v-.305z"/>
				<path d="M10.266 8.248v.647h-.176v-.642q0-.152-.06-.227-.059-.076-.178-.076-.142 0-.224.09-.083.092-.083.249v.606h-.177v-1.49h.177v.584q.063-.096.149-.144.086-.048.198-.048.184 0 .28.115.094.114.094.336z"/>
				<path d="M11.117 7.823h.186l.335.9.335-.9h.187l-.402 1.072h-.24z"/>
				<path d="M13.32 8.315V8.4h-.81q.012.182.11.277.098.095.273.095.101 0 .196-.025.096-.025.19-.075v.167q-.095.04-.195.061-.1.021-.202.021-.256 0-.406-.149-.15-.15-.15-.404 0-.263.142-.417.143-.155.384-.155.216 0 .341.14.127.138.127.378zm-.176-.052q-.002-.145-.082-.23-.078-.087-.208-.087-.148 0-.237.083-.088.084-.101.235z"/>
				<path d="M14.23 7.987q-.03-.017-.065-.025t-.077-.008q-.15 0-.23.097-.079.097-.079.279v.565h-.177V7.823h.177v.166q.056-.097.145-.144.089-.048.216-.048.018 0 .04.003l.049.006z"/>
				<path d="M15.1 7.854v.167q-.075-.039-.155-.058-.08-.019-.167-.019-.13 0-.197.04-.065.04-.065.121 0 .061.047.097.047.034.188.066l.06.013q.188.04.267.114.08.073.08.204 0 .15-.12.236-.117.087-.324.087-.086 0-.18-.017-.093-.016-.196-.05v-.182q.098.051.192.077.095.025.188.025.124 0 .191-.042.067-.043.067-.12 0-.073-.048-.11-.048-.04-.212-.075l-.061-.014q-.164-.034-.237-.105-.072-.072-.072-.196 0-.152.107-.234.107-.082.304-.082.098 0 .184.014.086.015.159.043z"/>
				<path d="M15.439 7.823h.176v1.072h-.176zm0-.418h.176v.223h-.176z"/>
				<path d="M16.398 7.946q-.142 0-.224.111-.083.11-.083.303 0 .192.082.303.082.11.225.11.14 0 .223-.111.082-.111.082-.302 0-.19-.082-.302-.083-.112-.223-.112zm0-.15q.23 0 .36.15.131.15.131.414 0 .263-.13.413-.132.15-.361.15-.231 0-.362-.15-.13-.15-.13-.413 0-.265.13-.414.13-.15.362-.15z"/>
				<path d="M18.071 8.248v.647h-.176v-.642q0-.152-.059-.227-.06-.076-.178-.076-.143 0-.225.09-.082.092-.082.249v.606h-.177V7.823h.177v.166q.063-.096.148-.144.086-.048.198-.048.185 0 .28.115.094.114.094.336z"/>
				<path d="M19.223 7.518v.305h.362v.137h-.362v.581q0 .131.035.169.036.037.147.037h.18v.148h-.18q-.204 0-.282-.076-.077-.077-.077-.278V7.96h-.13v-.137h.13v-.305z"/>
				<path d="M20.233 7.946q-.141 0-.224.111-.082.11-.082.303 0 .192.081.303.083.11.225.11.141 0 .223-.111.083-.111.083-.302 0-.19-.083-.302-.082-.112-.223-.112zm0-.15q.23 0 .361.15.131.15.131.414 0 .263-.13.413-.132.15-.362.15-.23 0-.361-.15-.13-.15-.13-.413 0-.265.13-.414.13-.15.361-.15z"/>
				<path d="M22.41 8.36q0-.195-.08-.305-.08-.11-.22-.11t-.22.11q-.08.11-.08.305 0 .194.08.305.08.11.22.11t.22-.11q.08-.111.08-.305zm-.6-.375q.056-.095.14-.141.085-.047.203-.047.195 0 .317.155t.122.408q0 .252-.122.407-.122.155-.317.155-.118 0-.203-.046-.084-.047-.14-.142v.16h-.177V7.406h.178z"/>
				<path d="M23.801 8.315V8.4h-.81q.012.182.11.277.098.095.273.095.102 0 .197-.025.095-.025.189-.075v.167q-.095.04-.194.061-.1.021-.202.021-.257 0-.407-.149-.15-.15-.15-.404 0-.263.142-.417.143-.155.384-.155.216 0 .342.14.126.138.126.378zm-.176-.052q-.002-.145-.081-.23-.079-.087-.209-.087-.147 0-.236.083-.088.084-.102.235z"/>
				<path d="M24.912 8.734v.568h-.177v-1.48h.177v.163q.056-.095.14-.141.085-.047.203-.047.195 0 .317.155t.122.408q0 .252-.122.407-.122.155-.317.155-.118 0-.203-.046-.084-.047-.14-.142zm.6-.374q0-.195-.081-.305-.08-.11-.22-.11-.139 0-.22.11-.079.11-.079.305 0 .194.08.305.08.11.22.11t.219-.11q.08-.111.08-.305z"/>
				<path d="M25.968 8.472v-.65h.176v.643q0 .152.06.229.059.075.177.075.143 0 .225-.09.083-.092.083-.249v-.607h.177v1.072h-.177V8.73q-.064.098-.149.145-.084.047-.196.047-.185 0-.28-.115-.096-.114-.096-.335zm.443-.675z"/>
				<path d="M28 8.36q0-.195-.08-.305-.08-.11-.22-.11t-.22.11q-.08.11-.08.305 0 .194.08.305.08.11.22.11t.22-.11q.08-.111.08-.305zm-.6-.375q.056-.095.14-.141.085-.047.203-.047.195 0 .317.155t.122.408q0 .252-.122.407-.122.155-.317.155-.118 0-.203-.046-.084-.047-.14-.142v.16h-.177V7.406h.177z"/>
				<path d="M28.474 7.405h.176v1.49h-.176z"/>
				<path d="M29.018 7.823h.176v1.072h-.176zm0-.418h.176v.223h-.176z"/>
				<path d="M30.245 7.854v.167q-.075-.039-.155-.058-.08-.019-.167-.019-.13 0-.197.04-.065.04-.065.121 0 .061.047.097.047.034.188.066l.06.013q.188.04.267.114.08.073.08.204 0 .15-.12.236-.117.087-.324.087-.086 0-.18-.017-.093-.016-.196-.05v-.182q.098.051.192.077.095.025.188.025.124 0 .191-.042.067-.043.067-.12 0-.073-.048-.11-.048-.04-.212-.075l-.061-.014q-.164-.034-.237-.105-.072-.072-.072-.196 0-.152.107-.234.107-.082.304-.082.098 0 .184.014.086.015.159.043z"/>
				<path d="M31.475 8.248v.647h-.177v-.642q0-.152-.059-.227-.06-.076-.178-.076-.142 0-.225.09-.082.092-.082.249v.606h-.177v-1.49h.177v.584q.063-.096.148-.144.086-.048.198-.048.185 0 .28.115.095.114.095.336z"/>
				<path d="M32.745 8.315V8.4h-.81q.011.182.109.277.099.095.274.095.101 0 .196-.025.096-.025.19-.075v.167q-.095.04-.195.061-.1.021-.202.021-.256 0-.407-.149-.149-.15-.149-.404 0-.263.142-.417.142-.155.384-.155.216 0 .341.14.127.138.127.378zm-.177-.052q-.001-.145-.08-.23-.08-.087-.21-.087-.147 0-.236.083-.088.084-.101.235z"/>
				<path d="M33.739 7.985v-.58h.176v1.49h-.176v-.161q-.056.095-.14.142-.085.046-.204.046-.194 0-.316-.155t-.122-.407q0-.253.122-.408.122-.155.316-.155.119 0 .203.047.085.046.14.141zm-.6.375q0 .194.08.305.08.11.22.11t.22-.11q.08-.111.08-.305 0-.195-.08-.305-.08-.11-.22-.11t-.22.11q-.08.11-.08.305z"/>
			</g>
			<path fill="#f1f1f1" stroke-linecap="round" stroke-linejoin="round" stroke-width="1.409" d="M0 56.027h104.507v47.206H0z"/>
			<path fill="#3c7aeb" stroke="#3c7aeb" stroke-linecap="round" stroke-linejoin="round" stroke-width=".228" d="M1.091 56.137H99.76v4.365H1.09z"/>
			<path fill="#3c7aeb" stroke="#3c7aeb" stroke-width=".759" d="M1.392 83.303V56.137"/>
			<g fill="#fff" stroke-width="1.593" transform="translate(2.246 41.1) scale(2.00943)">
				<path d="M-.126 8.302h.213v.667h-.213zm0-.26h.213v.174h-.213z"/>
				<path d="M.964 8.563v.406H.75v-.311q0-.086-.005-.12-.003-.032-.013-.048-.012-.02-.034-.032-.021-.012-.048-.012-.067 0-.105.052-.038.051-.038.143v.328H.293v-.667h.214v.097q.048-.058.102-.085.054-.028.12-.028.115 0 .175.07.06.071.06.207z"/>
				<path d="M2.046 8.523q0-.167-.032-.234-.03-.069-.105-.069-.074 0-.105.069-.032.067-.032.234 0 .169.032.238.031.069.105.069t.105-.07q.032-.068.032-.237zm.229.002q0 .221-.095.341-.096.12-.27.12-.176 0-.272-.12-.095-.12-.095-.341 0-.222.095-.341.096-.12.271-.12.175 0 .27.12.096.12.096.341z"/>
				<path d="M2.47 8.302h.214v.23H2.47zm0 .436h.214v.23H2.47z"/>
				<path d="M3.382 8.523q0-.167-.031-.234-.031-.069-.105-.069t-.106.069q-.031.067-.031.234 0 .169.031.238.032.069.106.069.073 0 .105-.07.031-.068.031-.237zm.23.002q0 .221-.096.341-.095.12-.27.12-.176 0-.271-.12-.095-.12-.095-.341 0-.222.095-.341.095-.12.27-.12.176 0 .271.12.096.12.096.341z"/>
				<path d="M3.806 8.302h.215v.23h-.215zm0 .436h.215v.23h-.215z"/>
				<path d="M4.719 8.523q0-.167-.032-.234-.03-.069-.104-.069t-.106.069q-.031.067-.031.234 0 .169.031.238.032.069.106.069.073 0 .104-.07.032-.068.032-.237zm.23.002q0 .221-.096.341-.095.12-.27.12-.176 0-.271-.12-.096-.12-.096-.341 0-.222.096-.341.095-.12.27-.12.176 0 .271.12.095.12.095.341z"/>
				<path d="M5.142 8.302h.216v.23h-.216zm0 .436h.216v.23h-.216z"/>
				<path d="M6.056 8.523q0-.167-.032-.234-.03-.069-.105-.069-.074 0-.105.069-.032.067-.032.234 0 .169.032.238.031.069.105.069.073 0 .105-.07.032-.068.032-.237zm.229.002q0 .221-.095.341-.096.12-.27.12-.176 0-.272-.12-.095-.12-.095-.341 0-.222.095-.341.096-.12.271-.12.175 0 .27.12.096.12.096.341z"/>
				<path d="M6.48 8.302h.214v.23H6.48zm0 .436h.214v.23H6.48z"/>
				<path d="M7.392 8.523q0-.167-.031-.234-.031-.069-.105-.069t-.106.069q-.031.067-.031.234 0 .169.031.238.032.069.106.069.073 0 .105-.07.031-.068.031-.237zm.23.002q0 .221-.096.341-.095.12-.27.12-.176 0-.271-.12-.095-.12-.095-.341 0-.222.095-.341.095-.12.27-.12.176 0 .271.12.096.12.096.341z"/>
				<path d="M7.816 8.302h.215v.23h-.215zm0 .436h.215v.23h-.215z"/>
				<path d="M8.729 8.523q0-.167-.032-.234-.03-.069-.104-.069t-.106.069q-.031.067-.031.234 0 .169.031.238.032.069.106.069.073 0 .104-.07.032-.068.032-.237zm.23.002q0 .221-.096.341-.095.12-.27.12-.176 0-.271-.12-.096-.12-.096-.341 0-.222.096-.341.095-.12.27-.12.176 0 .271.12.095.12.095.341z"/>
				<path d="M9.152 8.302h.215v.23h-.215zm0 .436h.215v.23h-.215z"/>
				<path d="M10.066 8.523q0-.167-.032-.234-.031-.069-.105-.069t-.105.069q-.032.067-.032.234 0 .169.032.238.031.069.105.069.073 0 .105-.07.032-.068.032-.237zm.229.002q0 .221-.095.341-.096.12-.27.12-.177 0-.272-.12-.095-.12-.095-.341 0-.222.095-.341.095-.12.271-.12.175 0 .27.12.096.12.096.341z"/>
				<path d="M10.49 8.302h.214v.23h-.215zm0 .436h.214v.23h-.215z"/>
				<path d="M10.984 8.81h.203v-.574l-.208.042v-.156l.206-.043h.218v.731h.203v.159h-.622z"/>
				<path d="M11.947 8.08v.33h-.141v-.33z"/>
				<path d="M12.687 8.323v.162q-.068-.03-.132-.043-.064-.015-.12-.015-.061 0-.091.016-.03.015-.03.046 0 .026.023.04.022.013.08.02l.038.005q.164.021.22.069.057.047.057.15 0 .106-.079.16-.079.053-.235.053-.066 0-.137-.01-.07-.01-.144-.032v-.162q.063.031.13.047.067.015.137.015.062 0 .094-.017.031-.017.031-.051 0-.029-.022-.043-.021-.014-.086-.022l-.038-.004q-.142-.018-.2-.066-.056-.049-.056-.147 0-.106.072-.157.073-.051.223-.051.059 0 .124.008.065.01.141.028z"/>
				<path d="M13.233 8.302h.213l.166.46.166-.46h.214l-.263.667h-.234z"/>
				<path d="M14.778 8.633v.061h-.498q.008.075.054.113.047.037.13.037.067 0 .138-.02.07-.02.145-.06v.164q-.076.029-.151.043-.076.015-.152.015-.18 0-.281-.092-.1-.092-.1-.258 0-.163.098-.257.099-.093.271-.093.158 0 .252.094.094.095.094.253zm-.219-.07q0-.061-.036-.098-.035-.038-.092-.038-.062 0-.1.035-.04.035-.049.1z"/>
				<path d="M15.435 8.483q-.028-.013-.056-.019t-.056-.006q-.082 0-.126.053-.045.052-.045.15v.308h-.213v-.667h.214v.11q.04-.066.094-.096.053-.03.128-.03h.023l.036.004z"/>
				<path d="M16.063 8.323v.162q-.068-.03-.132-.043-.064-.015-.12-.015-.061 0-.09.016-.03.015-.03.046 0 .026.022.04.023.013.08.02l.038.005q.164.021.22.069.057.047.057.15 0 .106-.079.16-.078.053-.234.053-.067 0-.137-.01t-.145-.032v-.162q.064.031.13.047.068.015.137.015.062 0 .094-.017.031-.017.031-.051 0-.029-.022-.043-.021-.014-.086-.022l-.038-.004q-.142-.018-.2-.066-.056-.049-.056-.147 0-.106.072-.157.073-.051.223-.051.06 0 .124.008.065.01.141.028z"/>
				<path d="M16.269 8.302h.213v.667h-.213zm0-.26h.213v.174h-.213z"/>
				<path d="M17.006 8.438q-.071 0-.109.051-.037.05-.037.147 0 .096.037.147.038.05.109.05.07 0 .106-.05.037-.051.037-.147t-.037-.147q-.037-.05-.106-.05zm0-.152q.172 0 .268.093.097.092.097.257 0 .164-.097.257-.096.093-.268.093-.173 0-.27-.093-.098-.093-.098-.257 0-.165.097-.257.098-.093.27-.093z"/>
				<path d="M18.197 8.563v.406h-.214v-.311q0-.086-.004-.12-.004-.032-.013-.048-.013-.02-.034-.032-.022-.012-.049-.012-.067 0-.105.052-.038.051-.038.143v.328h-.213v-.667h.213v.097q.048-.058.103-.085.054-.028.12-.028.115 0 .174.07.06.071.06.207z"/>
			</g>
			<g fill="#d8d8d8" stroke-linecap="round">
				<path stroke-width=".379" d="M3.24 64.407h50.13v-1.922H3.24z"/>
				<path stroke-width=".377" d="M27.276 67.903h49.792v-1.922H27.276z"/>
				<path stroke-width=".393" d="M3.318 78.075h53.994v-1.923H3.318z"/>
				<path stroke-width=".377" d="M15.16 92.482h49.792V90.56H15.161z"/>
				<path stroke-width=".377" d="M3.155 99.577h49.791v-1.923H3.155z"/>
				<path fill="#ead97f" stroke-width=".268" d="M55.272 65.066h13.467v-3.589H55.272z"/>
				<path stroke-width=".183" d="M3.24 74.582h11.68V72.66H3.24z"/>
				<path stroke-width=".187" d="M60.095 85.17H72.34v-1.923H60.095z"/>
				<path stroke-width=".187" d="M84.946 85.17h12.246v-1.923H84.946z"/>
				<path stroke-width=".187" d="M55.31 99.577h12.245v-1.923H55.31z"/>
				<path stroke-width=".17" d="M3.24 92.482h10.136V90.56H3.241z"/>
				<path stroke-width=".187" d="M12.554 67.815h12.245v-1.923H12.554z"/>
				<path fill="#ead97f" stroke-width=".292" d="M68.739 65.066h16.013v-3.589H68.739z"/>
				<path stroke-width=".187" d="M65.498 74.582h12.245V72.66H65.498z"/>
				<path stroke-width=".187" d="M80.012 99.577h12.245v-1.923H80.012z"/>
				<path stroke-width=".147" d="M3.24 67.815h7.512v-1.923H3.241z"/>
				<path stroke-width=".147" d="M40.698 71.199h7.512v-1.923h-7.512z"/>
				<path stroke-width=".147" d="M62.616 71.199h7.512v-1.923h-7.512z"/>
				<path stroke-width=".147" d="M82.682 71.199h7.512v-1.923h-7.512z"/>
				<path stroke-width=".147" d="M66.784 92.482h7.512V90.56h-7.512z"/>
				<path stroke-width=".147" d="M69.717 99.577h7.511v-1.923h-7.511z"/>
				<path stroke-width=".147" d="M76.045 92.482h7.512V90.56h-7.512z"/>
				<path stroke-width=".147" d="M33.906 95.975h7.512v-1.923h-7.512z"/>
				<path stroke-width=".147" d="M74.656 85.17h7.512v-1.923h-7.512z"/>
				<path stroke-width=".147" d="M3.24 81.568h7.512v-1.923H3.241z"/>
				<path stroke-width=".147" d="M23.719 95.975h7.511v-1.923h-7.51z"/>
				<path stroke-width=".313" d="M12.766 81.568h34.202v-1.923H12.766z"/>
				<path stroke-width=".312" d="M59.227 78.075h34.048v-1.923H59.227z"/>
				<path stroke-width=".308" d="M43.483 95.975h33.121v-1.923H43.483z"/>
				<path stroke-width=".24" d="M78.213 95.975h20.155v-1.923H78.213z"/>
				<path stroke-width=".261" d="M67.1 81.568h23.86v-1.923H67.1z"/>
				<path stroke-width=".199" d="M78.676 67.815h13.827v-1.923H78.676z"/>
				<path stroke-width=".139" d="M72.54 71.199h6.726v-1.923H72.54z"/>
				<path stroke-width=".163" d="M50.583 71.199h9.35v-1.923h-9.35z"/>
				<path stroke-width=".315" d="M3.24 71.199h34.82v-1.923H3.24z"/>
				<path stroke-width=".255" d="M39.837 74.582h22.78V72.66h-22.78z"/>
				<path stroke-width=".238" d="M17.242 74.582H37.09V72.66H17.242z"/>
				<path stroke-width=".192" d="M50.583 81.568h12.9v-1.923h-12.9z"/>
				<path stroke-width=".226" d="M3.24 85.17h17.84v-1.923H3.24z"/>
				<path stroke-width=".312" d="M22.96 85.17h34.048v-1.923H22.961z"/>
				<path stroke-width=".232" d="M3.24 95.975h18.876v-1.923H3.241z"/>
				<path fill="#a4c2cd" stroke-width=".345" d="M5.3 36.787h16.757v-3.212H5.3z"/>
				<path fill="#ead97f" stroke-width=".208" d="M5.227 41.542h12.535v-3.074H5.227z"/>
				<path stroke-width=".442" d="M131.487 31.034h49.792v-2.64h-49.792z"/>
				<path stroke-width=".214" d="M107.452 40.209h11.68v-2.641h-11.68z"/>
				<path stroke-width=".219" d="M116.765 30.913h12.245v-2.641h-12.245z"/>
				<path stroke-width=".172" d="M107.452 30.913h7.512v-2.641h-7.512z"/>
				<path stroke-width=".172" d="M144.909 35.561h7.512V32.92h-7.512z"/>
				<path stroke-width=".172" d="M166.828 35.561h7.511V32.92h-7.511z"/>
				<path stroke-width=".172" d="M186.894 35.561h7.512V32.92h-7.512z"/>
				<path stroke-width=".233" d="M182.887 30.913h13.827v-2.641h-13.827z"/>
				<path stroke-width=".163" d="M176.752 35.561h6.726V32.92h-6.726z"/>
				<path stroke-width=".192" d="M154.795 35.561h9.35V32.92h-9.35z"/>
				<path stroke-width=".37" d="M107.452 35.561h34.819V32.92h-34.82z"/>
				<path stroke-width=".299" d="M144.048 40.209h22.78v-2.641h-22.78z"/>
				<path stroke-width=".279" d="M121.454 40.209H141.3v-2.641h-19.846z"/>
				<path stroke-width=".324" d="M122.413 64.407h36.777v-1.922h-36.777z"/>
				<path stroke-width=".297" d="M152.005 67.903h30.883v-1.922h-30.883z"/>
				<path stroke-width=".264" d="M109.14 78.075h24.357v-1.923h-24.358z"/>
				<path stroke-width=".377" d="M120.982 92.482h49.791V90.56h-49.791z"/>
				<path stroke-width=".198" d="M147.41 99.577h13.72v-1.923h-13.72z"/>
				<path stroke-width=".183" d="M109.061 74.582h11.68V72.66h-11.68z"/>
				<path stroke-width=".204" d="M166.996 85.17h14.561v-1.923h-14.56z"/>
				<path stroke-width=".207" d="M187.989 85.17h15.023v-1.923H187.99z"/>
				<path stroke-width=".187" d="M161.13 99.577h12.246v-1.923h-12.245z"/>
				<path stroke-width=".17" d="M109.061 92.482h10.136V90.56h-10.136z"/>
				<path stroke-width=".2" d="M116.573 67.815h14.047v-1.923h-14.047z"/>
				<path stroke-width=".187" d="M171.318 74.582h12.246V72.66h-12.246z"/>
				<path stroke-width=".187" d="M185.832 99.577h12.246v-1.923h-12.246z"/>
				<path stroke-width=".147" d="M109.061 67.815h7.512v-1.923h-7.512z"/>
				<path stroke-width=".168" d="M142.5 71.199h9.885v-1.923H142.5z"/>
				<path stroke-width=".168" d="M164.418 71.199h9.924v-1.923h-9.924z"/>
				<path stroke-width=".147" d="M184.484 71.199h7.512v-1.923h-7.512z"/>
				<path stroke-width=".147" d="M172.605 92.482h7.511V90.56h-7.511z"/>
				<path stroke-width=".147" d="M175.537 99.577h7.512v-1.923h-7.512z"/>
				<path stroke-width=".147" d="M181.866 92.482h7.512V90.56h-7.512z"/>
				<path stroke-width=".147" d="M139.727 95.975h7.512v-1.923h-7.512z"/>
				<path stroke-width=".147" d="M181.557 85.17h7.512v-1.923h-7.512z"/>
				<path stroke-width=".147" d="M109.061 81.568h7.512v-1.923h-7.512z"/>
				<path stroke-width=".171" d="M129.54 95.975h10.187v-1.923h-10.188z"/>
				<path stroke-width=".249" d="M118.433 81.568h21.621v-1.923h-21.621z"/>
				<path stroke-width=".25" d="M135.489 78.075h21.853v-1.923h-21.853z"/>
				<path stroke-width=".169" d="M172.457 95.975h9.968v-1.923h-9.968z"/>
				<path stroke-width=".24" d="M184.034 95.975h20.155v-1.923h-20.155z"/>
				<path stroke-width=".261" d="M156.867 81.568h23.86v-1.923h-23.86z"/>
				<path stroke-width=".199" d="M184.497 67.815h13.826v-1.923h-13.826z"/>
				<path stroke-width=".139" d="M174.342 71.199h6.726v-1.923h-6.726z"/>
				<path stroke-width=".163" d="M152.385 71.199h9.35v-1.923h-9.35z"/>
				<path stroke-width=".242" d="M109.061 71.199h20.541v-1.923h-20.54z"/>
				<path stroke-width=".255" d="M145.658 74.582h22.779V72.66h-22.78z"/>
				<path stroke-width=".238" d="M123.063 74.582h19.847V72.66h-19.847z"/>
				<path stroke-width=".192" d="M142.28 81.568h12.901v-1.923h-12.9z"/>
				<path stroke-width=".237" d="M109.061 85.17h19.72v-1.923h-19.72z"/>
				<path stroke-width=".189" d="M128.781 85.17h12.438v-1.923H128.78z"/>
				<path stroke-width=".232" d="M109.061 95.975h18.876v-1.923h-18.876z"/>
				<path stroke-width=".183" d="M109.066 64.322h11.68V62.4h-11.68z"/>
				<path stroke-width=".168" d="M131.915 67.815h9.885v-1.923h-9.885z"/>
				<path stroke-width=".163" d="M141.8 67.815h9.35v-1.923h-9.35z"/>
				<path stroke-width=".192" d="M143.495 85.17h12.9v-1.923h-12.9z"/>
				<path stroke-width=".147" d="M157.94 85.17h7.513v-1.923h-7.512z"/>
				<path stroke-width=".205" d="M182.547 81.568h14.752v-1.923h-14.752z"/>
				<path stroke-width=".24" d="M108.996 99.577h20.155v-1.923h-20.155z"/>
				<path stroke-width=".187" d="M132.323 99.577h12.245v-1.923h-12.245z"/>
				<path stroke-width=".187" d="M148.993 95.975h12.245v-1.923h-12.245z"/>
				<path stroke-width=".147" d="M162.782 95.975h7.512v-1.923h-7.512z"/>
				<path fill="#9babc7" stroke-width=".607" d="M109.22 61.249h49.497v-5.01h-49.496z"/>
			</g>
			<g transform="translate(111.302 42.245) scale(2.00943)">
				<path d="M.53 7.63l-.268.726h.536zm-.112-.193h.224l.555 1.458H.992L.86 8.52H.202l-.133.374h-.208z"/>
				<path d="M1.76 7.884l-.214.58h.429zm-.09-.156h.18l.444 1.167H2.13l-.106-.3h-.526l-.106.3h-.167z"/>
				<path d="M2.762 8.052l-.178.484h.357zm-.074-.13h.15l.37.973H3.07l-.089-.25h-.438l-.088.25h-.139z"/>
				<path d="M5.896 8.001q.089 0 .135-.04.045-.038.045-.114 0-.076-.045-.115-.046-.04-.135-.04h-.208v.309zm.013.638q.113 0 .17-.048.057-.048.057-.145 0-.094-.057-.141-.056-.048-.17-.048h-.221v.382zm.35-.525q.12.035.187.13.066.095.066.233 0 .21-.143.314-.142.104-.433.104h-.624V7.437h.564q.304 0 .44.091.136.092.136.294 0 .107-.05.182-.05.074-.144.11z"/>
				<path d="M9.076 7.437h.198L8.99 8.895h-.2z"/>
			</g>
			<path fill="#f1f1f1" stroke-linecap="round" stroke-width=".367" d="M210.004 56.117l-.01 47.164 1.923.005.01-47.164z"/>
			<path fill="silver" stroke-linecap="round" stroke-width=".142" d="M209.96 62.866l-.011 7.036h1.923l.01-7.035z"/>
			<path fill="#f1f1f1" stroke-linecap="round" stroke-width=".367" d="M102.595 56.064l-.01 47.164 1.922.005.01-47.164z"/>
			<path fill="silver" stroke-linecap="round" stroke-width=".142" d="M102.55 62.813l-.01 7.036h1.922l.01-7.035z"/>
			<g fill="silver" fill-rule="evenodd" stroke="#000" transform="translate(86.736 47.142) scale(.06218)">
				<path stroke-width="6.9" d="M1147.465 454.805v53.515"/>
				<path stroke-width="4.066" d="M1156.448 454.136l-17.896.034"/>
				<path stroke-width="4.066" d="M1156.448 509.511l-17.896.034"/>
			</g>
			<g stroke-linecap="round">
				<path fill="#d8d8d8" stroke-width=".165" d="M131.07 71.2h9.476v-1.923h-9.476z"/>
				<path fill="silver" stroke-linejoin="round" stroke-width=".01" d="M104.352 57.412l-1.696-.003.852-1.152z"/>
				<path fill="silver" stroke-linejoin="round" stroke-width=".01" d="M211.823 57.417l-1.696-.003.852-1.152z"/>
				<path fill="silver" stroke-linejoin="round" stroke-width=".01" d="M104.37 101.926l-1.696.003.852 1.152z"/>
				<path fill="silver" stroke-linejoin="round" stroke-width=".01" d="M211.821 101.965l-1.696.003.852 1.151z"/>
				<circle cx="2.736" cy="35.003" r=".709" stroke-width="1.816"/>
				<circle cx="2.736" cy="39.992" r=".709" stroke-width="1.816"/>
				<path fill="#d8d8d8" stroke-width=".178" d="M1.406 30.887h14.662v-2.685H1.406z"/>
				<path fill="#d8d8d8" stroke-width=".178" d="M17.539 30.915h6.718V28.23H17.54z"/>
				<path fill="#d8d8d8" stroke-width=".178" d="M25.96 30.917h10.13v-2.685H25.961z"/>
			</g>
		</g>
	</g>
</svg>
