<?xml version="1.0" encoding="UTF-8" standalone="no"?>
<svg xmlns="http://www.w3.org/2000/svg" width="768.883" height="262.162" viewBox="0 0 203.43356 69.363754">
	<path fill="#f1f1f1" d="M.0014452.01346624h107.15213504V69.3623472H.0014452z"/>
	<path fill="#fe8b00" d="M.8023616 30.27014168H101.942384v3.5479848H.8023616z"/>
	<path fill="none" stroke="#fe8b00" stroke-width=".6961236" d="M1.04787616 58.30970088v-28.0395592"/>
	<path fill="#fff" d="M1.65428428 31.50202934H1.997356v1.07332437h-.34307172zm0-.41658709H1.997356v.27772473h-.34307172zm1.7529331.83644152v.65346994H3.062512v-.4999045q0-.13886236-.0065347-.19277363-.0065347-.05064392-.02287145-.07678272-.0196041-.0326735-.05554494-.0522776-.0326735-.01797042-.0784164-.01797042-.10618886 0-.1682685.08168374-.06044597.08331742-.06044597.22871448v.52931065h-.34307172v-1.07332437h.34307172v.15683278q.07678272-.09311946.16336748-.13722868.08821845-.0457429.19277363-.0457429.18623894 0 .28262575.11435724.09638682.11435724.09638682.331636zm.86094664-.41985443h.34307172l.28752677.72861898.24505123-.72861898h.34307172l-.45252794 1.1746122q-.06698066.17970424-.15846646.24995226-.08985211.0718817-.23851652.0718817h-.19767466v-.22544714h.10782254q.08658477 0 .12579296-.02777247.04084188-.02777247.06207965-.09965416l.00980205-.02940615zm1.92936999.21891243q-.11435724 0-.1748032.08168374-.0588123.08168374-.0588123.23688285 0 .15356544.0588123.23688285.06044596.08168375.1748032.08168375.11108989 0 .17153586-.08168375.0588123-.08168374.0588123-.23688285 0-.15356543-.0588123-.23524918-.06044597-.08168374-.17153586-.08168374zm0-.24505123q.27772472 0 .43129016.15029809.15683278.1486644.15683278.41331973t-.15683278.41331974q-.15519911.15029808-.43129016.15029808-.27772472 0-.4345575-.15029808-.1568328-.14866441-.1568328-.41331974t.1568328-.41331973q.15683278-.15029809.4345575-.15029809zm.82500579.68287608v-.65673728h.3447054v.50153817q0 .130694.00490102.18787261.0065347.05554495.02287145.08168374.02123777.0326735.05554494.0522776.0326735.01633675.0784164.01633675.10618886 0 .1682685-.08168375.06044597-.08168374.06044597-.22871447v-.52931065h.34307172v1.07332437h-.34307172v-.15519911q-.07678271.09311946-.16336748.13886236-.08658477.04410922-.19113996.04410922-.18623893 0-.28262574-.11435724-.0980205-.11435724-.0980205-.33163599zm2.20546104-.36430948q-.04410922-.02123778-.08985212-.03103983-.04410922-.00980205-.08821844-.00980205-.13232766 0-.20420935.0849511-.07024802.08495109-.07024802.24178387v.49500348h-.34307172v-1.07332437h.34307172v.17643688q.065347-.10455519.15029808-.15356543.08658477-.04901025.20584303-.04901025l.03757453.00326735.0588123.00490103zm.71881693-.2924278h.34307172l.26792267.74168838.266289-.74168838h.34307172l-.42148811 1.07332437h-.37574522zm2.48481943.53421167v.0980205h-.80050067q.01143573.11925826.08658477.17970422.07514904.06044597.20911038.06044597.10782254 0 .2205461-.0326735.11435724-.03267349.2336155-.0963868v.26465532q-.12089193.0457429-.24341755.06861434-.12089194.02450512-.24341755.02450512-.29079412 0-.45252793-.14703073-.16010013-.15029809-.16010013-.41658709 0-.26138797.15683278-.41331973.16010013-.15029809.43782486-.15029809.25158592 0 .40351768.15356544.15193176.15193176.15193176.40678503zm-.35287376-.11435724q0-.09802049-.05717862-.15683278-.05554495-.06044597-.14703074-.06044597-.10128784 0-.16336748.05554494-.06207965.05554495-.07678272.16173381zm1.40822771-.12742663q-.0457429-.02123778-.08985212-.03103983t-.08985211-.00980205q-.13069399 0-.20420936.0849511-.07024802.08495109-.07024802.24178387v.49500348h-.34470539v-1.07332437h.34307172v.17643688q.065347-.10455519.15193176-.15356543.0849511-.04901025.20420936-.04901025l.03757452.00326735q.02123777 0 .0588123.00490103zm1.00961105-.25812063v.26138797q-.11108989-.04737657-.21237773-.07024801-.10292151-.02287145-.1944073-.02287145-.0980205 0-.14539706.02450512-.0457429.02450512-.0457429.07514904 0 .04084188.03430717.06371332.03757452.02123778.13069399.0326735l.0588123.00816837q.26302164.0326735.35450743.10945622.0914858.07678272.0914858.2401502 0 .17153586-.12742664.25812062-.12579297.08658477-.37574522.08658477-.10618886 0-.2205461-.01797042-.11435724-.01633675-.2336155-.04901025v-.26138797q.10292151.04901024.21074405.07514904.10782254.02450512.21891243.02450512.09965417 0 .15193176-.02777247.04901025-.02777247.04901025-.08168374 0-.0457429-.03430717-.06861434-.03430718-.02287145-.13886237-.03594085l-.06044597-.0065347q-.22871447-.02940615-.32020026-.10618886-.09311947-.0784164-.09311947-.23524918 0-.17153586.11762459-.2532196.11599091-.08168374.35940846-.08168374.09311947 0 .19767466.0130694.10455519.01470307.2270808.04574289zm.33000232-.03430717h.34307172v1.07332437h-.34307172zm0-.41658709h.34307172v.27772473h-.34307172zm1.18441426.63549952q-.11435724 0-.1748032.08168374-.0588123.08168374-.0588123.23688285 0 .15356544.0588123.23688285.06044596.08168375.1748032.08168375.11108989 0 .17153586-.08168375.0588123-.08168374.0588123-.23688285 0-.15356543-.0588123-.23524918-.06044597-.08168374-.17153586-.08168374zm0-.24505123q.27772472 0 .43129016.15029809.15683278.1486644.15683278.41331973t-.15683278.41331974q-.15519911.15029808-.43129016.15029808-.27772472 0-.4345575-.15029808-.1568328-.14866441-.1568328-.41331974t.1568328-.41331973q.15683278-.15029809.4345575-.15029809zm1.91466692.44599323v.65346994h-.34307172v-.4999045q0-.13886236-.00816838-.19277363-.00490102-.0522776-.02123777-.07678272-.0196041-.0326735-.05391127-.0522776-.03430717-.01797042-.0784164-.01797042-.10782253 0-.1682685.08168374-.06207965.08331742-.06207965.22871448v.52931065h-.34307171v-1.07332437h.34307171v.15683278q.0784164-.09311946.16500116-.13722868.08658477-.0457429.19277363-.0457429.18460526 0 .28099208.11435724.09802049.11435724.09802049.331636z"/>
	<path fill="#3c7aeb" d="M.8622432 1.39972528h101.1400224v3.5479848H.8622432z"/>
	<path fill="none" stroke="#3c7aeb" stroke-width=".6961236" d="M1.10775776 29.44078152V1.39972528"/>
	<path fill="#fff" d="M1.71416588 2.63161294h.34307172V3.7049373h-.34307172zm0-.41658709h.34307172v.27772473h-.34307172zm1.7529331.83644152v.65346994H3.1223936v-.4999045q0-.13886236-.0065347-.19277363-.0065347-.05064392-.02287145-.07678272-.0196041-.0326735-.05554494-.0522776-.0326735-.01797042-.0784164-.01797042-.10618886 0-.1682685.08168374-.06044597.08331742-.06044597.22871448v.52931065h-.34307172V2.63161294h.34307172v.15683278q.07678272-.09311946.16336748-.13722868.08821845-.0457429.19277363-.0457429.18623894 0 .28262575.11435724.09638682.11435724.09638682.331636zm1.73823003-.06371332q0-.26792267-.05064392-.37574521-.04901024-.11108989-.1682685-.11108989t-.16990219.10945622q-.05064392.10945621-.05064392.37737888 0 .27119003.04901025.38227992.0522776.11108989.17153585.11108989.1176246 0 .16826851-.1110899.04901025-.11108988.04901025-.3822799zm.36757684.00326735q0 .35450744-.15193176.54891475-.15356543.19277363-.4345575.19277363-.28262575 0-.43619119-.19277363-.15356543-.1944073-.15356543-.54891475 0-.35614111.15356543-.54891474.15356544-.19277363.43619118-.19277363.28099208 0 .43455751.19277363.15193176.19277363.15193176.54891474zm.31366557-.35940846h.34307172v.37084419h-.34307172zm0 .70248018h.34307172v.37084419h-.34307172zm1.46704001-.34633907q0-.26792267-.05064392-.37574521-.04901025-.11108989-.16990218-.11108989-.1176246 0-.16826851.10945622t-.05064392.37737888q0 .27119003.04901024.38227992.0522776.11108989.16990219.11108989.11925826 0 .16990218-.1110899.04901024-.11108988.04901024-.3822799zm.36757684.00326735q0 .35450744-.15356544.54891475-.15193176.19277363-.4345575.19277363-.28099208 0-.43455751-.19277363-.15356544-.1944073-.15356544-.54891475 0-.35614111.15356544-.54891474.15356543-.19277363.4345575-.19277363.28262575 0 .43455751.19277363.15356544.19277363.15356544.54891474zm.31203189-.35940846h.34633907v.37084419h-.34633907zm0 .70248018h.34633907v.37084419h-.34633907zm1.46867368-.34633907q0-.26792267-.05227759-.37574521-.04901025-.11108989-.1682685-.11108989-.1176246 0-.16826852.10945622t-.05064392.37737888q0 .27119003.04901025.38227992.0522776.11108989.16990218.11108989t.16826851-.1110899q.0522776-.11108988.0522776-.3822799zm.36757684.00326735q0 .35450744-.15356543.54891475-.15193176.19277363-.4345575.19277363-.28262576 0-.43455752-.19277363-.15356543-.1944073-.15356543-.54891475 0-.35614111.15356543-.54891474.15193176-.19277363.43455751-.19277363t.4345575.19277363q.15356544.19277363.15356544.54891474zm.31366557-.35940846h.34307172v.37084419h-.34307172zm0 .70248018h.34307172v.37084419h-.34307172zm1.46540634-.34633907q0-.26792267-.04901025-.37574521-.05064392-.11108989-.16990218-.11108989-.1176246 0-.16990219.10945622-.04901024.10945621-.04901024.37737888 0 .27119003.04901024.38227992.0522776.11108989.16990219.11108989t.1682685-.1110899q.05064393-.11108988.05064393-.3822799zm.36921051.00326735q0 .35450744-.15356544.54891475-.15356543.19277363-.4345575.19277363-.28262575 0-.43455751-.19277363-.15356544-.1944073-.15356544-.54891475 0-.35614111.15356544-.54891474.15193176-.19277363.4345575-.19277363.28099208 0 .43455751.19277363.15356544.19277363.15356544.54891474zm.3120319-.35940846h.34470539v.37084419h-.3447054zm0 .70248018h.34470539v.37084419h-.3447054zm1.46704-.34633907q0-.26792267-.04901024-.37574521-.05064392-.11108989-.16990219-.11108989t-.16990218.10945622q-.04901025.10945621-.04901025.37737888 0 .27119003.04901025.38227992.05064392.11108989.16990218.11108989.1176246 0 .16826851-.1110899t.05064392-.3822799zm.36921052.00326735q0 .35450744-.15356544.54891475-.15356543.19277363-.4345575.19277363-.28262575 0-.43619119-.19277363-.15193176-.1944073-.15193176-.54891475 0-.35614111.15193176-.54891474.15356544-.19277363.43619118-.19277363.28099208 0 .43455751.19277363.15356544.19277363.15356544.54891474zm.31203189-.35940846h.3447054v.37084419h-.34307173zm0 .70248018h.3447054v.37084419h-.34307173zm1.46704001-.34633907q0-.26792267-.05064392-.37574521-.04901025-.11108989-.16826851-.11108989t-.16990219.10945622q-.04901024.10945621-.04901024.37737888 0 .27119003.04901024.38227992.05064392.11108989.16990219.11108989.11762459 0 .1682685-.1110899t.05064393-.3822799zm.36921051.00326735q0 .35450744-.15356543.54891475-.15356544.19277363-.43455751.19277363-.28262575 0-.43619118-.19277363-.15193176-.1944073-.15193176-.54891475 0-.35614111.15193176-.54891474.15356543-.19277363.43619118-.19277363.28099207 0 .4345575.19277363.15356544.19277363.15356544.54891474zm.3120319-.35940846h.34470539v.37084419h-.3447054zm0 .70248018h.34470539v.37084419h-.3447054zm1.46704-.34633907q0-.26792267-.05064392-.37574521-.04901024-.11108989-.1682685-.11108989t-.16990219.10945622q-.05064392.10945621-.05064392.37737888 0 .27119003.05064392.38227992t.16990218.11108989q.1176246 0 .16826851-.1110899.04901025-.11108988.04901025-.3822799zm.36757684.00326735q0 .35450744-.15193176.54891475-.15356543.19277363-.4345575.19277363-.28262575 0-.43619119-.19277363-.15356543-.1944073-.15356543-.54891475 0-.35614111.15356543-.54891474.15356544-.19277363.43619118-.19277363.28099208 0 .43455751.19277363.15193176.19277363.15193176.54891474zm.3120319-.35940846h.34633906v.37084419h-.34633906zm0 .70248018h.34633906v.37084419h-.34633906zm.79559964.11599091h.32673497v-.92465996l-.33490334.06861435v-.24995225l.331636-.06861435h.35124008v1.17461221h.32673497v.25485328h-1.00144268zm1.54709008-1.17461221v.53094433h-.2270808v-.53094433zm1.18931528.39044829v.26138797q-.10945621-.04737657-.21237773-.07024801-.10128784-.02287145-.19277363-.02287145-.09802049 0-.14539706.02450512-.04737657.02450512-.04737657.07514904 0 .04084188.03594085.06371332.03594084.02123778.13069398.0326735l.0588123.00816837q.26302165.0326735.35450744.10945622.09148579.07678272.09148579.2401502 0 .17153586-.12742664.25812062-.12579296.08658477-.37574521.08658477-.10782254 0-.2205461-.01797042-.11435724-.01633675-.2336155-.04901025v-.26138797q.1029215.04901024.21074405.07514904.10782254.02450512.21891243.02450512.09965416 0 .15029808-.02777247t.05064392-.08168374q0-.0457429-.03430717-.06861434-.03430717-.02287145-.13886236-.03594085l-.06044597-.0065347q-.22871448-.02940615-.32183394-.10618886-.08985212-.0784164-.08985212-.23524918 0-.17153586.11762459-.2532196.11599091-.08168374.35777479-.08168374.09475314 0 .19930833.0130694.10455519.01470307.2270808.04574289zm.87728339-.03430717h.34307172l.26792267.74168838.26465533-.74168838h.34307171l-.4214881 1.07332437h-.37574522zm2.48481944.53421167v.0980205h-.80050068q.01143573.11925826.08658477.17970422.07351537.06044597.2074767.06044597.10945622 0 .22217978-.0326735.11435724-.03267349.2336155-.0963868v.26465532q-.1225256.0457429-.24505122.06861434-.11925827.02450512-.24178388.02450512-.29079412 0-.45252793-.14703073-.16010013-.15029809-.16010013-.41658709 0-.26138797.15683278-.41331973.15846646-.15029809.43619118-.15029809.2532196 0 .40515136.15356544.15193176.15193176.15193176.40678503zm-.35287377-.11435724q0-.09802049-.05717862-.15683278-.05717862-.06044597-.14703074-.06044597-.10128784 0-.16336748.05554494-.06207964.05554495-.07678272.16173381zm1.40822771-.12742663q-.0457429-.02123778-.09148579-.03103983-.04410922-.00980205-.08821844-.00980205-.13069399 0-.20420936.0849511-.07024801.08495109-.07024801.24178387v.49500348h-.34307172V2.63161294h.34307172v.17643688q.06534699-.10455519.15029808-.15356543.08658477-.04901025.20584303-.04901025l.03757452.00326735.0588123.00490103zm1.00961106-.25812063v.26138797q-.1110899-.04737657-.21237774-.07024801-.10292151-.02287145-.1944073-.02287145-.0980205 0-.14539706.02450512-.04737657.02450512-.04737657.07514904 0 .04084188.03594084.06371332.03594085.02123778.13069399.0326735l.0588123.00816837q.26302164.0326735.35450744.10945622.09148579.07678272.09148579.2401502 0 .17153586-.12742664.25812062-.12579296.08658477-.37574521.08658477-.10782254 0-.2205461-.01797042-.11435725-.01633675-.23361551-.04901025v-.26138797q.10292151.04901024.21074405.07514904.10782254.02450512.21891243.02450512.09965417 0 .15029809-.02777247t.05064392-.08168374q0-.0457429-.03430717-.06861434-.03430718-.02287145-.13886237-.03594085l-.06044596-.0065347q-.22871448-.02940615-.32020027-.10618886-.09311947-.0784164-.09311947-.23524918 0-.17153586.11762459-.2532196.11599091-.08168374.35777479-.08168374.09475314 0 .19930833.0130694.10455519.01470307.2270808.04574289zm.33000231-.03430717h.34307172V3.7049373h-.34307172zm0-.41658709h.34307172v.27772473h-.34307172zm1.18441426.63549952q-.11435724 0-.1748032.08168374-.0588123.08168374-.0588123.23688285 0 .15356544.0588123.23688285.06044596.08168375.1748032.08168375.11108989 0 .17153586-.08168375.0588123-.08168374.0588123-.23688285 0-.15356543-.0588123-.23524918-.06044597-.08168374-.17153586-.08168374zm0-.24505123q.27609105 0 .43129016.15029809.1551991.1486644.1551991.41331973t-.1551991.41331974q-.15519911.15029808-.43129016.15029808-.27772472 0-.4345575-.15029808-.1568328-.14866441-.1568328-.41331974t.1568328-.41331973q.15683278-.15029809.4345575-.15029809zm1.91466691.44599323v.65346994h-.34307171v-.4999045q0-.13886236-.00816838-.19277363-.00490102-.0522776-.02123777-.07678272-.0196041-.0326735-.05391127-.0522776-.03430717-.01797042-.0784164-.01797042-.10782253 0-.1682685.08168374-.06207964.08331742-.06207964.22871448v.52931065h-.34307172V2.63161294h.34307172v.15683278q.07841639-.09311946.16336748-.13722868.08821844-.0457429.1944073-.0457429.18460526 0 .28099208.11435724.09802049.11435724.09802049.331636z"/>
	<path fill="#d8d8d8" d="M2.69761424 37.29425336h15.94647008v-1.67369072H2.69761424zm20.91813992 3.04198528h43.3318228v-1.67369072H23.6172512zM2.76647808 49.18823616H49.7555696v-1.67369072H2.76647808zm26.9616904 12.53920704h26.6772528v-1.67369072h-26.6772528zm-27.1039092 6.17379296h43.3318228v-1.67369072H2.62425928z"/>
	<path fill="#ead97f" d="M21.31480368 37.86612264H46.6716672V34.7432972H21.31480368z"/>
	<path fill="#d8d8d8" d="M2.69761424 46.14924496h10.1649016v-1.67369072H2.69761424zm49.48016608 9.21278416h10.65593072v-1.67219368H52.17778032zm21.62773688 0h10.65593072v-1.67219368H73.8055172zM48.01301504 67.90123616H58.6704428v-1.67369072H48.01301504zM2.69761424 61.7274432h8.82205672v-1.67369072H2.69761424zm8.10497456-21.4675536h10.65742776v-1.67369072H10.8025888zm46.07589712 5.88935536h10.65742776v-1.67369072H56.87848592zm12.63202352 21.7519912h10.65593072v-1.67369072H69.51050944zM2.69761424 40.2598896h6.53757368v-1.67369072H2.69761424zm32.598046 2.94467768h6.53757368v-1.67369072h-6.53757368zm19.07528368 0h6.53757368v-1.67369072h-6.53757368zm17.46446864 0h6.53607664v-1.67369072h-6.53607664zM57.99827184 61.7274432h6.53757368v-1.67369072h-6.53757368zm2.5524532 6.17379296h6.53757368v-1.67369072h-6.53757368zm5.50761016-6.17379296h6.53757368v-1.67369072H66.0583352zm-36.67298888 3.0389912H35.92292v-1.67369072h-6.53757368zm35.46338056-9.40440528h6.53757368v-1.67219368h-6.53757368zM2.69761424 52.22722736h6.53757368v-1.67219368H2.69761424zM20.5183784 64.7664344h6.53907072v-1.67369072h-6.53757368zm-9.53015664-12.53920704h29.76414928v-1.67219368H10.98822176zm40.43355336-3.0389912h29.63091272v-1.67369072H51.42177512zM37.719368 64.7664344h28.8255052v-1.67369072H37.72086504zm30.2252376 0h17.54081768v-1.67369072H67.9446056zm-9.6708784-12.53920704H79.037672v-1.67219368H58.2737272zM68.3488064 40.2598896h12.03171048v-1.67369072H68.3488064zm-5.34143872 2.94467768h5.8534264v-1.67369072h-5.8534264zm-19.10821856 0h8.13790944v-1.67369072h-8.13790944zm-41.20153488 0h30.30308368v-1.67369072H2.69761424zm31.849526 2.94467768h19.82380368v-1.67369072H34.54714024zm-19.6636204 0h17.27284752v-1.67369072H14.88351984zm29.01562928 6.0779824h11.2278v-1.67219368h-11.2278zM2.69761424 55.36202912h15.52580184v-1.67219368H2.69911128zm17.16206656 0h29.63091272v-1.67219368H19.8596808zM2.69761424 64.7664344H19.1261312v-1.67369072H2.69761424zm79.50929144-24.4691188h19.82530072v-1.67219368H82.20690568zm.57935448 8.88044128h8.93583176v-1.67369072h-8.9373288zM13.14994752 61.6975024H27.5619516v-1.67518776H13.14994752zm68.89677488 6.18427224h14.41350112v-1.67219368H82.04821944zM2.6586912 8.799594h15.943476V7.12590328H2.6586912zm20.91664288 3.04198528h43.3318228v-1.67369072h-43.3318228zM2.72456096 20.6935768h46.99058856v-1.67369072H2.72456096z"/>
	<path fill="#a3c9d2" d="M20.76089888 9.3909248h26.62635344V6.2695964H20.76089888z"/>
	<path fill="#d8d8d8" d="M2.6586912 17.6545856h10.16340456v-1.67369072H2.65719416zm49.477172 9.21278416H62.794788v-1.67219368H52.1358632zm21.62773688 0h10.65742776v-1.67219368H73.76360008zM10.76216872 11.76523024h10.65742776v-1.67369072H10.76216872zm46.07589712 5.88935536H67.4954936v-1.67369072H56.83806584zM2.6586912 11.76523024h6.53607664v-1.67369072H2.65719416zm32.59654896 2.94467768h6.53757368V13.0362172h-6.53757368zm19.07528368 0h6.53757368V13.0362172h-6.53757368zm17.4629716 0h6.53757368V13.0362172h-6.53757368zM64.8083068 26.86736976h6.53757368v-1.67219368H64.8083068zM2.6586912 23.732568h6.53607664v-1.67219368H2.65719416zm8.28911048 0h29.76414928v-1.67219368H10.94780168zm40.43355336-3.0389912h29.63091272v-1.67369072H51.38135504zm6.85045504 3.0389912h20.7639448v-1.67219368h-20.7639448zm10.0750792-11.96733776H80.3400968v-1.67369072H68.30688928zm-5.33994168 2.94467768h5.8534264V13.0362172h-5.8534264zm-19.10821856 0h8.13790944V13.0362172H43.857232zm-41.20003784 0h30.3000896V13.0362172H2.6586912zm31.84802896 2.94467768h19.82380368v-1.67369072H34.50672016zm-19.6636204 0h17.27135048v-1.67369072H14.8445968zm29.01562928 6.0779824h11.2278v-1.67219368h-11.2278zM2.6586912 26.86736976H18.182996v-1.67219368H2.6586912zm17.16056952 0h29.63091272v-1.67219368H19.81926072zM82.1664856 11.80265624h19.82380368v-1.67219368H82.1664856zm.57785744 8.88044128h8.9373288V19.0094068h-8.9373288zM49.18220328 37.2358688H69.007504v-1.67369072H49.18220328zm21.36874896 0H81.20838v-1.67369072H70.55095224zM49.284002 8.69031008h19.82380368V7.01661936H49.284002zm21.36874896 0h10.65593072V7.01661936H70.654248z"/>
	<path fill="silver" d="M104.01180693 6.23923867l-.01546532 9.8505232 2.8892872.00101125.01546532-9.8505232z"/>
	<path fill="#8fa1fd" d="M33.87796336 43.89619976h46.33638208v-3.12282544H33.87796336z" opacity=".517"/>
	<path fill="#fdfcfd" d="M110.16712176.004484h93.26858608v69.2680408h-93.26858608z"/>
	<path fill="#d8d8d8" d="M123.54766528 7.39686752h32.822602V5.68125968h-32.822602zm26.41077968 3.1213284h27.5605064V8.80109104h-27.5605064zm-38.25536016 9.07655352h21.7370208V17.8791416h-21.7370208zM122.27069016 32.452826h44.43663832v-1.71560784H122.2721872zm23.5858652 6.3324792h12.2457872v-1.71710488h-12.2457872zm-34.22383144-22.30739304h10.42239248v-1.71560784h-10.42239248zm51.70327048 9.44931648h12.99580424v-1.71710488h-12.9943072zm18.7354556 0h13.40749024v-1.71710488H182.07145zM158.10234256 38.7853052h10.928392v-1.71710488h-10.928392zm-46.46961864-6.3324792h9.04511568v-1.71560784h-9.04511568zm6.70374512-22.0139732H130.872682V8.72324496h-12.53621296zm48.85739744 6.03905936h10.928392v-1.71560784h-10.928392zM180.1477536 38.7853052h10.928392v-1.71710488h-10.928392zm-68.51502968-28.3464524h6.70374512V8.72324496h-6.70374512zm29.84199536 3.01952968h8.82205672v-1.71560784h-8.82205672zm19.56032464 0h8.85798568v-1.71560784h-8.85798568zm17.90908952 0h6.70374512v-1.71560784h-6.70374512zM168.34209616 32.452826h6.70374512v-1.71560784h-6.70374512zm2.61682592 6.3324792h6.70374512v-1.71710488h-6.70374512zm5.64833192-6.3324792h6.70374512v-1.71560784H176.607254zm-37.60714184 3.11683728h6.70374512v-1.71560784h-6.70374512z"/>
	<path fill="#d8d8d8" d="M176.3303016 25.92722864h6.7067392v-1.71710488h-6.70524216zm-64.69757768-3.21564192h6.70374512v-1.71560784h-6.70374512zm18.27436728 12.85807656h9.09302096v-1.71560784h-9.09152392zm-9.9104048-12.85807656h19.29534856v-1.71560784h-19.2968456zm15.22040568-3.11683728h19.50343712V17.8791416h-19.50343712zm32.99326456 15.97491384h8.89541168v-1.71560784h-8.89541168zm10.33107304 0h17.98843264v-1.71560784h-17.98843264zm-24.2445628-12.85807656h21.29389696v-1.71560784h-21.29389696zm24.65774584-12.27273392h12.34010072V8.72324496h-12.34010072zm-9.06158312 3.01952968h6.0031304v-1.71560784h-6.0031304zm-19.5962536 0h8.34450096v-1.71560784H150.296776zm-38.66405208 0h18.3312548v-1.71560784h-18.3312548zm32.66092168 3.01952968h20.3298032v-1.71560784h-20.3298032zm-20.1651288 0h17.71148024v-1.71560784H124.1285168zm17.15009024 6.23367456h11.5122376v-1.71560784h-11.5122376zm-29.64588312 3.21564192h17.59920224v-1.71710488h-17.59920224zm17.59920224 0h11.09905456v-1.71710488h-11.09905456zm-17.59920224 9.64243464h16.84619112v-1.71560784h-16.84619112zm.00449112-28.24764776h10.42239248V5.60640768h-10.42239248zm20.39118184 3.11683728h8.82205672V8.72324496h-8.82205672zm8.82205672 0h8.34450096V8.72324496h-8.34450096zm1.5120104 15.48837584h11.5122376v-1.71710488H142.362464zm12.89250848 0h6.70374512v-1.71710488h-6.70374512zm21.95858272-3.21564192h13.16796384v-1.71560784h-13.1664668zM111.57433936 38.7853052h17.9869356v-1.71710488h-17.9869356zm20.81783824 0h10.928392v-1.71710488h-10.928392zm14.87758352-3.21564192h10.928392v-1.71560784h-10.928392zm12.3056688 0h6.70374512v-1.71560784h-6.70374512z"/>
	<path fill="#9babc7" d="M111.77494272 4.5779412H155.948102V.1092768h-44.17315928z"/>
	<path d="M114.58323646 1.3026117l-.48061355 1.3019606h.9612271zm-.20085342-.3461135h.40170685l.99530046 2.6146812h-.3676335l-.23672012-.6725003h-1.18001387l-.23851344.67070697h-.3730135z"/>
	<path d="M116.78903748 1.75811857l-.38377351 1.04013381h.76934035zm-.16140008-.27976013h.32280015l.79624037 2.09282096h-.2941068l-.19009343-.53800024h-.94329376l-.19009342.53800024h-.2994868z"/>
	<path d="M118.5859583 2.05939871l-.31921348.86797373h.6402203zm-.13270673-.23313344h.26900013l.66353364 1.74491413h-.24748012l-.15960674-.44833353h-.78548036l-.1578134.44833353h-.24927345z"/>
	<path d="M124.58645439 1.96793867q.15960674 0 .24210011-.07173337.08249337-.0681467.08249337-.2044401 0-.13629339-.08249337-.20623342-.08249337-.07173337-.24210011-.07173337h-.3730135v.55414026zm.02331334 1.1441472q.20264676 0 .30486681-.08608005.10222005-.08608004.10222005-.26003345 0-.16857341-.10042672-.25286012-.10222004-.08608004-.30666014-.08608004h-.39632684v.68505365zm.62766696-.94150044q.2152001.0627667.33535349.23313344.11836005.17036674.11836005.41784686 0 .37660017-.25465345.56310692-.25644678.18650675-.77830702.18650675h-1.11904052V.9564982h1.0132338q.54338025 0 .7872737.16319341.24568678.16498674.24568678.52724024 0 .19188676-.08966671.32638682-.08966671.13270673-.26003346.19726676z"/>
	<path d="M130.289257.9564982h.35508017l-.5093069 2.6146812h-.35508016z"/>
	<path fill="#f1f1f1" d="M200.62437112-.00095666l-.01517968 68.9985736 2.8144352.00714866.01518001-69.00007064z"/>
	<path fill="silver" d="M200.55748185 9.87302246l-.01502654 10.29215 2.81293816.00106892.01502654-10.29215z"/>
	<g fill="silver" fill-rule="evenodd" stroke="#000">
		<path stroke-width=".38295" d="M155.38750176 17.22885939v2.96982952"/>
		<path stroke-width=".225663" d="M155.8860158 17.19173305l-.9931434.00188684m.9931434 3.07116389l-.9931434.00188684"/>
	</g>
	<path fill="#d8d8d8" d="M131.27388872 13.45987952h8.458276v-1.71710488h-8.458276z"/>
	<path fill="silver" d="M203.28351306 1.89949214l-2.4811946-.00432779 1.2454842-1.68560973zm-.00299408 65.17262836l-2.4811946.00432779 1.2454842 1.68560973z"/>
	<path fill="#d8d8d8" d="M133.22602888 45.20161864h44.65221208v-1.72459008h-44.65221208zm-21.48402104 9.12146472h48.42026176v-1.72459008h-48.42026176zm-.06886384-3.13180768h10.47329184V49.4666856h-10.47478888zm50.98469128 9.49422768h10.98228544v-1.72459008h-10.98228544zm22.28643448 0h10.9807884v-1.72459008h-10.9807884zm-64.92063664-15.56322784h10.9807884v-1.72459008h-10.9807884zm47.4786236 6.06900016h10.98228544V49.4666856h-10.98228544zM111.673144 45.12227552h6.73668v-1.72459008h-6.73668zm33.58908648 3.03450008h6.73668v-1.72459008h-6.73668zm19.6561352 0h6.73668v-1.72459008h-6.73668zm17.99591784 0h6.73668v-1.72459008h-6.73668zm-7.19776832 12.52872776h6.73668v-1.72459008h-6.73668zm-64.0433712-3.23061232h6.73668v-1.72459008h-6.73668zm8.5406132 0h30.67135552v-1.72459008H120.2137572zm41.66561728-3.13180768h30.53362784v-1.72459008h-30.53362784zm7.06004064 3.13180768h21.39719272v-1.72459008h-21.39719272zm10.3819724-12.33261552h12.39998232v-1.72459008h-12.39998232zm-5.50311904 3.03450008h6.0330712v-1.72459008h-6.0330712zm-19.68907008 0h8.383424v-1.72459008h-8.383424zm-42.4560544 0h31.22376328v-1.72459008H111.673144zm32.81811088 3.03450008h20.4271108V49.4666856h-20.4271108zm-20.2624364 0h17.79830856V49.4666856h-17.7998056zm29.90037992 6.26361536h11.56762808v-1.72459008h-11.56912512zm-42.4560544 3.23061232h15.99736944v-1.72459008h-15.99886648zm17.68303648 0h30.53362784v-1.72459008h-30.53362784zM111.5009844 67.446136h10.95384168v-1.80243616H111.5009844zm58.38755408 0h11.48529088v-1.80243616h-11.48529088zm-27.02756016-3.1737248h9.27116872v-1.80243616h-9.27116872zm20.55735328 0h9.30709768v-1.80243616h-9.30709768zm17.43901896 0h7.04507024v-1.80243616h-7.04507024zm-8.13192128 0h6.30852656v-1.80243616h-6.30852656zm-20.59328224 0h8.76966032v-1.80243616h-8.76966032zm-40.63116264 0h19.26540776v-1.80243616H111.5009844zm34.32263608 3.1737248h21.3627608v-1.80243616h-21.3627608zm-21.1906012 0h18.61269832v-1.80243616h-18.61269832zm7.50915264-3.17222776h8.88792648v-1.80243616h-8.88792648z"/>
	<path d="M100.50971672 18.44502272a42.78839728 42.78839728 0 0 0-7.06303472.54941368c-12.37752672 2.00902768-23.56640368 9.3041036-33.94687904 19.760928a2.30993272 2.30993272 0 1 0 3.2785176 3.25306792c9.96579528-10.03915024 20.34627064-16.66055816 31.4078992-18.45550912 10.8086288-1.75453088 22.4705704.9880464 35.65649872 10.18436312l-7.35944864 8.10198048 22.85081856 2.38478472-4.54052232-22.54242832-7.822034 8.61097408c-10.52568824-7.43879176-20.55735328-11.1828888-30.0605632-11.7667344a41.7075344 41.7075344 0 0 0-2.40125216-.08084016z" color="#000" font-family="sans-serif" font-weight="400" opacity=".53" overflow="visible"/>
	<path fill="silver" d="M106.63760474 67.4613509l-2.4811946.00432779 1.2454842 1.68560973zm-.00449112-65.29837972l-2.4811946-.00432779 1.2454842-1.68560973z"/>
</svg>
