<?xml version="1.0" encoding="UTF-8" standalone="no"?>
<svg xmlns="http://www.w3.org/2000/svg" width="684.417" height="525.23" viewBox="0 0 181.08531 138.96719" id="svg7707">
    <g id="layer1" transform="translate(-16.897 -12.826)">
        <g id="g9897" transform="matrix(-2.50352 0 0 2.50352 503.6 11.663)">
            <path d="M122.075.464h72.333v55.51h-72.333z" id="rect4663-32-8-3" fill="#f1f1f1" stroke-width="1.271" stroke-linecap="round" stroke-linejoin="round"/>
            <path d="M122.617 29.584h68.272v2.396h-68.272z" id="rect4851-5" fill="#fe8b00" stroke-width=".14" stroke-linecap="round" stroke-linejoin="round"/>
            <path id="path4853-7" d="M122.782 48.512V29.584" fill="none" stroke="#fe8b00" stroke-width=".47"/>
            <g transform="matrix(-1.1028 0 0 1.1028 134.116 21.331)" style="line-height:1.25" id="flowRoot4530-4-6-0-2" font-weight="700" font-size="1.2" font-family="sans-serif" letter-spacing="0" word-spacing="0" fill="#fff">
                <path d="M-.054 8.238h.21v.657h-.21zm0-.255h.21v.17h-.21z" style="line-height:0;-inkscape-font-specification:'sans-serif Bold'" id="path10463"/>
                <path d="M1.019 8.495v.4H.808v-.306q0-.085-.004-.118Q.8 8.44.79 8.424q-.012-.02-.034-.032-.02-.011-.048-.011-.065 0-.103.05-.037.051-.037.14v.324h-.21v-.657h.21v.096q.047-.057.1-.084.054-.028.118-.028.114 0 .173.07.059.07.059.203z" style="line-height:0;-inkscape-font-specification:'sans-serif Bold'" id="path10465"/>
                <path d="M1.546 8.238h.21l.176.446.15-.446h.21l-.277.719q-.041.11-.097.153-.055.044-.146.044h-.121v-.138h.066q.053 0 .077-.017.025-.017.038-.061l.006-.018z" style="line-height:0;-inkscape-font-specification:'sans-serif Bold'" id="path10467"/>
                <path d="M2.727 8.372q-.07 0-.107.05-.036.05-.036.145 0 .094.036.145.037.05.107.05.068 0 .105-.05.036-.05.036-.145 0-.094-.036-.144-.037-.05-.105-.05zm0-.15q.17 0 .264.092.096.091.096.253t-.096.253q-.095.092-.264.092-.17 0-.266-.092-.096-.091-.096-.253t.096-.253q.096-.092.266-.092z" style="line-height:0;-inkscape-font-specification:'sans-serif Bold'" id="path10469"/>
                <path d="M3.232 8.64v-.402h.211v.307q0 .08.003.115.004.034.014.05.013.02.034.032.02.01.048.01.065 0 .103-.05.037-.05.037-.14v-.324h.21v.657h-.21V8.8q-.047.057-.1.085-.053.027-.117.027-.114 0-.173-.07-.06-.07-.06-.203z" style="line-height:0;-inkscape-font-specification:'sans-serif Bold'" id="path10471"/>
                <path d="M4.582 8.417q-.027-.013-.055-.019-.027-.006-.054-.006-.081 0-.125.052-.043.052-.043.148v.303h-.21v-.657h.21v.108q.04-.064.092-.094.053-.03.126-.03l.023.002.036.003z" style="line-height:0;-inkscape-font-specification:'sans-serif Bold'" id="path10473"/>
                <path d="M5.022 8.238h.21l.164.454.163-.454h.21l-.258.657h-.23z" style="line-height:0;-inkscape-font-specification:'sans-serif Bold'" id="path10475"/>
                <path d="M6.543 8.565v.06h-.49q.007.073.053.11.046.037.128.037.066 0 .135-.02.07-.02.143-.059v.162q-.074.028-.149.042-.074.015-.149.015-.178 0-.277-.09-.098-.092-.098-.255 0-.16.096-.253.098-.092.268-.092.154 0 .247.094.093.093.093.249zm-.216-.07q0-.06-.035-.096-.034-.037-.09-.037-.062 0-.1.034-.038.034-.047.099z" style="line-height:0;-inkscape-font-specification:'sans-serif Bold'" id="path10477"/>
                <path d="M7.189 8.417q-.028-.013-.055-.019t-.055-.006q-.08 0-.125.052-.043.052-.043.148v.303H6.7v-.657h.21v.108q.04-.064.093-.094.052-.03.125-.03l.023.002q.013 0 .036.003z" style="line-height:0;-inkscape-font-specification:'sans-serif Bold'" id="path10479"/>
                <path d="M7.807 8.259v.16q-.068-.029-.13-.043-.063-.014-.119-.014-.06 0-.089.015-.028.015-.028.046 0 .025.021.039.023.013.08.02l.036.005q.161.02.217.067.056.047.056.147 0 .105-.078.158-.077.053-.23.053-.065 0-.135-.011-.07-.01-.143-.03v-.16q.063.03.129.046.066.015.134.015.061 0 .093-.017.03-.017.03-.05 0-.028-.021-.042-.021-.014-.085-.022l-.037-.004q-.14-.018-.196-.065-.057-.048-.057-.144 0-.105.072-.155.071-.05.22-.05.057 0 .121.008.064.009.139.028z" style="line-height:0;-inkscape-font-specification:'sans-serif Bold'" id="path10481"/>
                <path d="M8.009 8.238h.21v.657h-.21zm0-.255h.21v.17h-.21z" style="line-height:0;-inkscape-font-specification:'sans-serif Bold'" id="path10483"/>
                <path d="M8.734 8.372q-.07 0-.107.05-.036.05-.036.145 0 .094.036.145.037.05.107.05.068 0 .105-.05.036-.05.036-.145 0-.094-.036-.144-.037-.05-.105-.05zm0-.15q.17 0 .264.092.096.091.096.253t-.096.253q-.095.092-.264.092-.17 0-.266-.092-.096-.091-.096-.253t.096-.253q.096-.092.266-.092z" style="line-height:0;-inkscape-font-specification:'sans-serif Bold'" id="path10485"/>
                <path d="M9.906 8.495v.4h-.21v-.306q0-.085-.005-.118-.003-.032-.013-.047-.012-.02-.033-.032-.021-.011-.048-.011-.066 0-.103.05-.038.051-.038.14v.324h-.21v-.657h.21v.096q.048-.057.101-.084.053-.028.118-.028.113 0 .172.07.06.07.06.203z" style="line-height:0;-inkscape-font-specification:'sans-serif Bold'" id="path10487"/>
            </g>
            <path d="M122.657 10.095h68.273v2.396h-68.273z" id="rect4851-5-4" fill="#3c7aeb" stroke-width=".14" stroke-linecap="round" stroke-linejoin="round"/>
            <path id="path4853-7-0" d="M122.822 29.024V10.095" fill="none" stroke="#3c7aeb" stroke-width=".47"/>
            <g transform="matrix(-1.1028 0 0 1.1028 143.05 1.842)" style="line-height:1.25" id="flowRoot4530-4-6-0-2-7" font-weight="700" font-size="1.2" font-family="sans-serif" letter-spacing="0" word-spacing="0" fill="#fff">
                <path d="M-.054 8.238h.21v.657h-.21zm0-.255h.21v.17h-.21z" style="line-height:0;-inkscape-font-specification:'sans-serif Bold'" id="path10491"/>
                <path d="M1.019 8.495v.4H.808v-.306q0-.085-.004-.118Q.8 8.44.79 8.424q-.012-.02-.034-.032-.02-.011-.048-.011-.065 0-.103.05-.037.051-.037.14v.324h-.21v-.657h.21v.096q.047-.057.1-.084.054-.028.118-.028.114 0 .173.07.059.07.059.203z" style="line-height:0;-inkscape-font-specification:'sans-serif Bold'" id="path10493"/>
                <path d="M2.083 8.456q0-.164-.031-.23-.03-.068-.103-.068t-.104.067q-.031.067-.031.231 0 .166.03.234.032.068.105.068.072 0 .103-.068.03-.068.03-.234zm.225.002q0 .217-.093.336-.094.118-.266.118-.173 0-.267-.118-.094-.119-.094-.336 0-.218.094-.336.094-.118.267-.118.172 0 .266.118.093.118.093.336z" style="line-height:0;-inkscape-font-specification:'sans-serif Bold'" id="path10495"/>
                <path d="M2.5 8.238h.21v.227H2.5zm0 .43h.21v.227H2.5z" style="line-height:0;-inkscape-font-specification:'sans-serif Bold'" id="path10497"/>
                <path d="M3.398 8.456q0-.164-.031-.23-.03-.068-.104-.068-.072 0-.103.067t-.031.231q0 .166.03.234.032.068.104.068.073 0 .104-.068.03-.068.03-.234zm.225.002q0 .217-.094.336-.093.118-.266.118-.172 0-.266-.118-.094-.119-.094-.336 0-.218.094-.336.094-.118.266-.118.173 0 .266.118.094.118.094.336z" style="line-height:0;-inkscape-font-specification:'sans-serif Bold'" id="path10499"/>
                <path d="M3.814 8.238h.212v.227h-.212zm0 .43h.212v.227h-.212z" style="line-height:0;-inkscape-font-specification:'sans-serif Bold'" id="path10501"/>
                <path d="M4.713 8.456q0-.164-.032-.23-.03-.068-.103-.068-.072 0-.103.067t-.031.231q0 .166.03.234.032.068.104.068t.103-.068q.032-.068.032-.234zm.225.002q0 .217-.094.336-.093.118-.266.118-.173 0-.266-.118-.094-.119-.094-.336 0-.218.094-.336.093-.118.266-.118.173 0 .266.118.094.118.094.336z" style="line-height:0;-inkscape-font-specification:'sans-serif Bold'" id="path10503"/>
                <path d="M5.13 8.238h.21v.227h-.21zm0 .43h.21v.227h-.21z" style="line-height:0;-inkscape-font-specification:'sans-serif Bold'" id="path10505"/>
                <path d="M6.027 8.456q0-.164-.03-.23-.031-.068-.104-.068-.072 0-.104.067-.03.067-.03.231 0 .166.03.234.032.068.104.068t.103-.068q.031-.068.031-.234zm.226.002q0 .217-.094.336-.094.118-.266.118-.173 0-.266-.118-.094-.119-.094-.336 0-.218.094-.336.093-.118.266-.118.172 0 .266.118.094.118.094.336z" style="line-height:0;-inkscape-font-specification:'sans-serif Bold'" id="path10507"/>
                <path d="M6.444 8.238h.211v.227h-.211zm0 .43h.211v.227h-.211z" style="line-height:0;-inkscape-font-specification:'sans-serif Bold'" id="path10509"/>
                <path d="M7.342 8.456q0-.164-.03-.23-.031-.068-.104-.068t-.104.067q-.03.067-.03.231 0 .166.03.234.031.068.104.068.072 0 .103-.068t.031-.234zm.226.002q0 .217-.094.336-.094.118-.266.118-.173 0-.267-.118-.093-.119-.093-.336 0-.218.093-.336.094-.118.267-.118.172 0 .266.118.094.118.094.336z" style="line-height:0;-inkscape-font-specification:'sans-serif Bold'" id="path10511"/>
                <path d="M7.759 8.238h.211v.227H7.76zm0 .43h.211v.227H7.76z" style="line-height:0;-inkscape-font-specification:'sans-serif Bold'" id="path10513"/>
                <path d="M8.657 8.456q0-.164-.031-.23-.03-.068-.103-.068t-.104.067q-.03.067-.03.231 0 .166.03.234.031.068.104.068.072 0 .103-.068t.031-.234zm.226.002q0 .217-.094.336-.094.118-.266.118-.173 0-.267-.118-.093-.119-.093-.336 0-.218.093-.336.094-.118.267-.118.172 0 .266.118.094.118.094.336z" style="line-height:0;-inkscape-font-specification:'sans-serif Bold'" id="path10515"/>
                <path d="M9.074 8.238h.211v.227h-.211zm0 .43h.211v.227h-.211z" style="line-height:0;-inkscape-font-specification:'sans-serif Bold'" id="path10517"/>
                <path d="M9.972 8.456q0-.164-.031-.23-.03-.068-.103-.068t-.104.067q-.031.067-.031.231 0 .166.031.234t.104.068q.072 0 .103-.068.03-.068.03-.234zm.225.002q0 .217-.093.336-.094.118-.266.118-.173 0-.267-.118-.094-.119-.094-.336 0-.218.094-.336.094-.118.267-.118.172 0 .266.118.093.118.093.336z" style="line-height:0;-inkscape-font-specification:'sans-serif Bold'" id="path10519"/>
                <path d="M10.388 8.238h.212v.227h-.212zm0 .43h.212v.227h-.212z" style="line-height:0;-inkscape-font-specification:'sans-serif Bold'" id="path10521"/>
                <path d="M10.875 8.739h.2v-.566l-.205.042v-.153l.203-.042h.215v.719h.2v.156h-.613z" style="line-height:0;-inkscape-font-specification:'sans-serif Bold'" id="path10523"/>
                <path d="M11.822 8.02v.325h-.139V8.02z" style="line-height:0;-inkscape-font-specification:'sans-serif Bold'" id="path10525"/>
                <path d="M12.55 8.259v.16q-.067-.029-.13-.043-.062-.014-.118-.014-.06 0-.089.015-.029.015-.029.046 0 .025.022.039.022.013.08.02l.036.005q.161.02.217.067.056.047.056.147 0 .105-.078.158-.077.053-.23.053-.066 0-.135-.011-.07-.01-.143-.03v-.16q.063.03.129.046.066.015.134.015.061 0 .092-.017t.031-.05q0-.028-.021-.042-.021-.014-.085-.022l-.037-.004q-.14-.018-.197-.065Q12 8.524 12 8.428q0-.105.072-.155.071-.05.219-.05.058 0 .122.008.064.009.139.028z" style="line-height:0;-inkscape-font-specification:'sans-serif Bold'" id="path10527"/>
                <path d="M13.087 8.238h.21l.164.454.162-.454h.21l-.258.657h-.23z" style="line-height:0;-inkscape-font-specification:'sans-serif Bold'" id="path10529"/>
                <path d="M14.608 8.565v.06h-.49q.007.073.053.11.045.037.127.037.067 0 .136-.02.07-.02.143-.059v.162q-.075.028-.15.042-.073.015-.148.015-.178 0-.277-.09-.098-.092-.098-.255 0-.16.096-.253.097-.092.267-.092.155 0 .248.094.093.093.093.249zm-.216-.07q0-.06-.035-.096-.035-.037-.09-.037-.062 0-.1.034-.038.034-.047.099z" style="line-height:0;-inkscape-font-specification:'sans-serif Bold'" id="path10531"/>
                <path d="M15.254 8.417q-.028-.013-.056-.019-.027-.006-.054-.006-.08 0-.125.052-.043.052-.043.148v.303h-.21v-.657h.21v.108q.04-.064.092-.094.053-.03.126-.03l.023.002.036.003z" style="line-height:0;-inkscape-font-specification:'sans-serif Bold'" id="path10533"/>
                <path d="M15.872 8.259v.16q-.068-.029-.13-.043-.063-.014-.119-.014-.06 0-.089.015-.029.015-.029.046 0 .025.022.039.022.013.08.02l.036.005q.161.02.217.067.056.047.056.147 0 .105-.078.158-.077.053-.23.053-.066 0-.135-.011-.07-.01-.143-.03v-.16q.063.03.129.046.066.015.134.015.061 0 .092-.017t.031-.05q0-.028-.021-.042-.021-.014-.085-.022l-.037-.004q-.14-.018-.196-.065-.057-.048-.057-.144 0-.105.072-.155.071-.05.219-.05.058 0 .122.008.064.009.139.028z" style="line-height:0;-inkscape-font-specification:'sans-serif Bold'" id="path10535"/>
                <path d="M16.074 8.238h.21v.657h-.21zm0-.255h.21v.17h-.21z" style="line-height:0;-inkscape-font-specification:'sans-serif Bold'" id="path10537"/>
                <path d="M16.799 8.372q-.07 0-.107.05-.036.05-.036.145 0 .094.036.145.037.05.107.05.068 0 .105-.05.036-.05.036-.145 0-.094-.036-.144-.037-.05-.105-.05zm0-.15q.169 0 .264.092.095.091.095.253t-.095.253q-.095.092-.264.092-.17 0-.266-.092-.096-.091-.096-.253t.096-.253q.096-.092.266-.092z" style="line-height:0;-inkscape-font-specification:'sans-serif Bold'" id="path10539"/>
                <path d="M17.971 8.495v.4h-.21v-.306q0-.085-.005-.118-.003-.032-.013-.047-.012-.02-.033-.032-.021-.011-.048-.011-.066 0-.103.05-.038.051-.038.14v.324h-.21v-.657h.21v.096q.048-.057.1-.084.054-.028.119-.028.113 0 .172.07.06.07.06.203z" style="line-height:0;-inkscape-font-specification:'sans-serif Bold'" id="path10541"/>
            </g>
            <path transform="scale(1 -1)" d="M123.896-34.325h10.764v1.13h-10.764z" id="rect4209-3-0-4-5-5-6-5-5" fill="#d8d8d8" stroke-width=".134" stroke-linecap="round"/>
            <path transform="scale(1 -1)" d="M138.016-36.38h29.251v1.13h-29.25z" id="rect4209-3-0-4-5-5-6-5-1-3" fill="#d8d8d8" stroke-width=".222" stroke-linecap="round"/>
            <path transform="scale(1 -1)" d="M123.942-42.355h31.72v1.13h-31.72z" id="rect4209-3-0-4-5-5-6-5-8-60" fill="#d8d8d8" stroke-width=".231" stroke-linecap="round"/>
            <path transform="scale(1 -1)" d="M142.142-50.818h18.008v1.13h-18.008z" id="rect4209-3-0-4-5-5-6-5-4-7" fill="#d8d8d8" stroke-width=".174" stroke-linecap="round"/>
            <path transform="scale(1 -1)" d="M123.846-54.986h29.25v1.13h-29.25z" id="rect4209-3-0-4-5-5-6-5-15-8" fill="#d8d8d8" stroke-width=".222" stroke-linecap="round"/>
            <path transform="scale(1 -1)" d="M136.463-34.712h17.117v2.108h-17.117z" id="rect4209-3-0-4-5-5-6-5-1-9-9" fill="#ead97f" stroke-width=".232" stroke-linecap="round"/>
            <path transform="scale(1 -1)" d="M123.896-40.303h6.861v1.13h-6.861z" id="rect4209-3-0-4-5-5-6-5-1-9-8-7" fill="#d8d8d8" stroke-width=".107" stroke-linecap="round"/>
            <path transform="scale(1 -1)" d="M157.296-46.522h7.194v1.13h-7.194z" id="rect4209-3-0-4-5-5-6-5-1-9-0-1" fill="#d8d8d8" stroke-width=".11" stroke-linecap="round"/>
            <path transform="scale(1 -1)" d="M171.896-46.522h7.193v1.13h-7.193z" id="rect4209-3-0-4-5-5-6-5-1-9-1-9" fill="#d8d8d8" stroke-width=".11" stroke-linecap="round"/>
            <path transform="scale(1 -1)" d="M154.485-54.986h7.194v1.13h-7.194z" id="rect4209-3-0-4-5-5-6-5-1-9-17-0" fill="#d8d8d8" stroke-width=".11" stroke-linecap="round"/>
            <path transform="scale(1 -1)" d="M123.896-50.818h5.954v1.13h-5.954z" id="rect4209-3-0-4-5-5-6-5-1-9-4-2" fill="#d8d8d8" stroke-width=".1" stroke-linecap="round"/>
            <path transform="scale(1 -1)" d="M129.367-36.327h7.194v1.13h-7.194z" id="rect4209-3-0-4-5-5-6-5-1-9-3-9" fill="#d8d8d8" stroke-width=".11" stroke-linecap="round"/>
            <path transform="scale(1 -1)" d="M160.47-40.303h7.194v1.13h-7.194z" id="rect4209-3-0-4-5-5-6-5-1-9-5-4" fill="#d8d8d8" stroke-width=".11" stroke-linecap="round"/>
            <path transform="scale(1 -1)" d="M168.997-54.986h7.193v1.13h-7.193z" id="rect4209-3-0-4-5-5-6-5-1-9-2-0" fill="#d8d8d8" stroke-width=".11" stroke-linecap="round"/>
            <path transform="scale(1 -1)" d="M123.896-36.327h4.413v1.13h-4.413z" id="rect4209-3-0-4-5-5-6-5-1-9-2-5-44" fill="#d8d8d8" stroke-width=".086" stroke-linecap="round"/>
            <path transform="scale(1 -1)" d="M145.9-38.315h4.414v1.13H145.9z" id="rect4209-3-0-4-5-5-6-5-1-9-2-5-8-2" fill="#d8d8d8" stroke-width=".086" stroke-linecap="round"/>
            <path transform="scale(1 -1)" d="M158.777-38.315h4.413v1.13h-4.413z" id="rect4209-3-0-4-5-5-6-5-1-9-2-5-6-1" fill="#d8d8d8" stroke-width=".086" stroke-linecap="round"/>
            <path transform="scale(1 -1)" d="M170.566-38.315h4.413v1.13h-4.413z" id="rect4209-3-0-4-5-5-6-5-1-9-2-5-3-75" fill="#d8d8d8" stroke-width=".086" stroke-linecap="round"/>
            <path transform="scale(1 -1)" d="M161.226-50.818h4.413v1.13h-4.413z" id="rect4209-3-0-4-5-5-6-5-1-9-2-5-1-01" fill="#d8d8d8" stroke-width=".086" stroke-linecap="round"/>
            <path transform="scale(1 -1)" d="M162.949-54.986h4.413v1.13h-4.413z" id="rect4209-3-0-4-5-5-6-5-1-9-2-5-67-4" fill="#d8d8d8" stroke-width=".086" stroke-linecap="round"/>
            <path transform="scale(1 -1)" d="M166.666-50.818h4.413v1.13h-4.413z" id="rect4209-3-0-4-5-5-6-5-1-9-2-5-84-2" fill="#d8d8d8" stroke-width=".086" stroke-linecap="round"/>
            <path transform="scale(1 -1)" d="M141.91-52.87h4.414v1.13h-4.413z" id="rect4209-3-0-4-5-5-6-5-1-9-2-5-63-0" fill="#d8d8d8" stroke-width=".086" stroke-linecap="round"/>
            <path transform="scale(1 -1)" d="M165.85-46.522h4.413v1.13h-4.413z" id="rect4209-3-0-4-5-5-6-5-1-9-2-5-7-1" fill="#d8d8d8" stroke-width=".086" stroke-linecap="round"/>
            <path transform="scale(1 -1)" d="M123.896-44.406h4.413v1.13h-4.413z" id="rect4209-3-0-4-5-5-6-5-1-9-2-5-0-5" fill="#d8d8d8" stroke-width=".086" stroke-linecap="round"/>
            <path transform="scale(1 -1)" d="M135.926-52.87h4.413v1.13h-4.413z" id="rect4209-3-0-4-5-5-6-5-1-9-2-5-4-76" fill="#d8d8d8" stroke-width=".086" stroke-linecap="round"/>
            <path transform="scale(1 -1)" d="M129.492-44.406h20.092v1.13h-20.092z" id="rect4209-3-0-4-5-5-6-5-4-1-6" fill="#d8d8d8" stroke-width=".184" stroke-linecap="round"/>
            <path transform="scale(1 -1)" d="M156.786-42.355h20.002v1.13h-20.002z" id="rect4209-3-0-4-5-5-6-5-4-2-9" fill="#d8d8d8" stroke-width=".183" stroke-linecap="round"/>
            <path transform="scale(1 -1)" d="M147.537-52.87h19.458v1.13h-19.458z" id="rect4209-3-0-4-5-5-6-5-4-0-6" fill="#d8d8d8" stroke-width=".181" stroke-linecap="round"/>
            <path transform="scale(1 -1)" d="M167.94-52.87h11.84v1.13h-11.84z" id="rect4209-3-0-4-5-5-6-5-4-6-6" fill="#d8d8d8" stroke-width=".141" stroke-linecap="round"/>
            <path transform="scale(1 -1)" d="M161.411-44.406h14.017v1.13h-14.017z" id="rect4209-3-0-4-5-5-6-5-4-24-9" fill="#d8d8d8" stroke-width=".153" stroke-linecap="round"/>
            <path transform="scale(1 -1)" d="M168.212-36.327h8.123v1.13h-8.123z" id="rect4209-3-0-4-5-5-6-5-4-9-3" fill="#d8d8d8" stroke-width=".117" stroke-linecap="round"/>
            <path transform="scale(1 -1)" d="M164.607-38.315h3.952v1.13h-3.952z" id="rect4209-3-0-4-5-5-6-5-4-18-69" fill="#d8d8d8" stroke-width=".081" stroke-linecap="round"/>
            <path transform="scale(1 -1)" d="M151.708-38.315h5.493v1.13h-5.493z" id="rect4209-3-0-4-5-5-6-5-4-5-2" fill="#d8d8d8" stroke-width=".096" stroke-linecap="round"/>
            <path transform="scale(1 -1)" d="M123.896-38.315h20.455v1.13h-20.455z" id="rect4209-3-0-4-5-5-6-5-4-51-1" fill="#d8d8d8" stroke-width=".185" stroke-linecap="round"/>
            <path transform="scale(1 -1)" d="M145.395-40.303h13.382v1.13h-13.382z" id="rect4209-3-0-4-5-5-6-5-4-98-9" fill="#d8d8d8" stroke-width=".15" stroke-linecap="round"/>
            <path transform="scale(1 -1)" d="M132.122-40.303h11.659v1.13h-11.66z" id="rect4209-3-0-4-5-5-6-5-4-90-1" fill="#d8d8d8" stroke-width=".14" stroke-linecap="round"/>
            <path transform="scale(1 -1)" d="M151.708-44.406h7.579v1.13h-7.579z" id="rect4209-3-0-4-5-5-6-5-4-988-2" fill="#d8d8d8" stroke-width=".113" stroke-linecap="round"/>
            <path transform="scale(1 -1)" d="M123.896-46.522h10.48v1.13h-10.48z" id="rect4209-3-0-4-5-5-6-5-4-63-2" fill="#d8d8d8" stroke-width=".133" stroke-linecap="round"/>
            <path transform="scale(1 -1)" d="M135.481-46.522h20.002v1.13H135.48z" id="rect4209-3-0-4-5-5-6-5-4-8-5" fill="#d8d8d8" stroke-width=".183" stroke-linecap="round"/>
            <path transform="scale(1 -1)" d="M123.896-52.87h11.089v1.13h-11.09z" id="rect4209-3-0-4-5-5-6-5-4-19-1" fill="#d8d8d8" stroke-width=".136" stroke-linecap="round"/>
            <path transform="scale(1 -1)" d="M177.568-36.353h13.382v1.13h-13.382z" id="rect4209-3-0-4-5-5-6-5-4-98-9-5" fill="#d8d8d8" stroke-width=".15" stroke-linecap="round"/>
            <path transform="scale(1 -1)" d="M177.958-42.347h6.032v1.13h-6.032z" id="rect4209-3-0-4-5-5-6-5-4-24-9-6" fill="#d8d8d8" stroke-width=".101" stroke-linecap="round"/>
            <path transform="scale(1 -1)" d="M130.95-50.798h9.73v1.13h-9.73z" id="rect4209-3-0-4-5-5-6-5-1-9-2-0-1" fill="#d8d8d8" stroke-width=".128" stroke-linecap="round"/>
            <path transform="scale(1 -1)" d="M177.46-54.974h9.728v1.13h-9.728z" id="rect4209-3-0-4-5-5-6-5-1-9-2-0-1-9" fill="#d8d8d8" stroke-width=".128" stroke-linecap="round"/>
            <path transform="scale(1 -1)" d="M123.868-15.09h10.764v1.13h-10.764z" id="rect4209-3-0-4-5-5-6-5-5-7" fill="#d8d8d8" stroke-width=".134" stroke-linecap="round"/>
            <path transform="scale(1 -1)" d="M137.988-17.144h29.251v1.13h-29.25z" id="rect4209-3-0-4-5-5-6-5-1-3-7" fill="#d8d8d8" stroke-width=".222" stroke-linecap="round"/>
            <path transform="scale(1 -1)" d="M123.914-23.12h31.72v1.13h-31.72z" id="rect4209-3-0-4-5-5-6-5-8-60-1" fill="#d8d8d8" stroke-width=".231" stroke-linecap="round"/>
            <path transform="scale(1 -1)" d="M136.088-15.49h17.975v2.108h-17.975z" id="rect4209-3-0-4-5-5-6-5-1-9-9-6" fill="#a3c9d2" stroke-width=".237" stroke-linecap="round"/>
            <path transform="scale(1 -1)" d="M123.868-21.068h6.862v1.13h-6.862z" id="rect4209-3-0-4-5-5-6-5-1-9-8-7-2" fill="#d8d8d8" stroke-width=".107" stroke-linecap="round"/>
            <path transform="scale(1 -1)" d="M157.269-27.287h7.193v1.13h-7.193z" id="rect4209-3-0-4-5-5-6-5-1-9-0-1-9" fill="#d8d8d8" stroke-width=".11" stroke-linecap="round"/>
            <path transform="scale(1 -1)" d="M171.868-27.287h7.194v1.13h-7.194z" id="rect4209-3-0-4-5-5-6-5-1-9-1-9-5" fill="#d8d8d8" stroke-width=".11" stroke-linecap="round"/>
            <path transform="scale(1 -1)" d="M129.34-17.092h7.193v1.13h-7.194z" id="rect4209-3-0-4-5-5-6-5-1-9-3-9-7" fill="#d8d8d8" stroke-width=".11" stroke-linecap="round"/>
            <path transform="scale(1 -1)" d="M160.442-21.068h7.194v1.13h-7.194z" id="rect4209-3-0-4-5-5-6-5-1-9-5-4-1" fill="#d8d8d8" stroke-width=".11" stroke-linecap="round"/>
            <path transform="scale(1 -1)" d="M123.868-17.092h4.413v1.13h-4.413z" id="rect4209-3-0-4-5-5-6-5-1-9-2-5-44-3" fill="#d8d8d8" stroke-width=".086" stroke-linecap="round"/>
            <path transform="scale(1 -1)" d="M145.873-19.08h4.413v1.13h-4.413z" id="rect4209-3-0-4-5-5-6-5-1-9-2-5-8-2-2" fill="#d8d8d8" stroke-width=".086" stroke-linecap="round"/>
            <path transform="scale(1 -1)" d="M158.75-19.08h4.413v1.13h-4.413z" id="rect4209-3-0-4-5-5-6-5-1-9-2-5-6-1-6" fill="#d8d8d8" stroke-width=".086" stroke-linecap="round"/>
            <path transform="scale(1 -1)" d="M170.538-19.08h4.413v1.13h-4.413z" id="rect4209-3-0-4-5-5-6-5-1-9-2-5-3-75-8" fill="#d8d8d8" stroke-width=".086" stroke-linecap="round"/>
            <path transform="scale(1 -1)" d="M165.823-27.287h4.413v1.13h-4.413z" id="rect4209-3-0-4-5-5-6-5-1-9-2-5-7-1-3" fill="#d8d8d8" stroke-width=".086" stroke-linecap="round"/>
            <path transform="scale(1 -1)" d="M123.868-25.171h4.413v1.13h-4.413z" id="rect4209-3-0-4-5-5-6-5-1-9-2-5-0-5-2" fill="#d8d8d8" stroke-width=".086" stroke-linecap="round"/>
            <path transform="scale(1 -1)" d="M129.464-25.171h20.093v1.13h-20.093z" id="rect4209-3-0-4-5-5-6-5-4-1-6-9" fill="#d8d8d8" stroke-width=".184" stroke-linecap="round"/>
            <path transform="scale(1 -1)" d="M156.759-23.12h20.002v1.13h-20.002z" id="rect4209-3-0-4-5-5-6-5-4-2-9-6" fill="#d8d8d8" stroke-width=".183" stroke-linecap="round"/>
            <path transform="scale(1 -1)" d="M161.383-25.171H175.4v1.13h-14.017z" id="rect4209-3-0-4-5-5-6-5-4-24-9-0" fill="#d8d8d8" stroke-width=".153" stroke-linecap="round"/>
            <path transform="scale(1 -1)" d="M168.184-17.092h8.123v1.13h-8.123z" id="rect4209-3-0-4-5-5-6-5-4-9-3-2" fill="#d8d8d8" stroke-width=".117" stroke-linecap="round"/>
            <path transform="scale(1 -1)" d="M164.58-19.08h3.951v1.13h-3.951z" id="rect4209-3-0-4-5-5-6-5-4-18-69-0" fill="#d8d8d8" stroke-width=".081" stroke-linecap="round"/>
            <path transform="scale(1 -1)" d="M151.68-19.08h5.494v1.13h-5.493z" id="rect4209-3-0-4-5-5-6-5-4-5-2-8" fill="#d8d8d8" stroke-width=".096" stroke-linecap="round"/>
            <path transform="scale(1 -1)" d="M123.868-19.08h20.455v1.13h-20.455z" id="rect4209-3-0-4-5-5-6-5-4-51-1-8" fill="#d8d8d8" stroke-width=".185" stroke-linecap="round"/>
            <path transform="scale(1 -1)" d="M145.368-21.068h13.382v1.13h-13.382z" id="rect4209-3-0-4-5-5-6-5-4-98-9-6" fill="#d8d8d8" stroke-width=".15" stroke-linecap="round"/>
            <path transform="scale(1 -1)" d="M132.094-21.068h11.66v1.13h-11.66z" id="rect4209-3-0-4-5-5-6-5-4-90-1-6" fill="#d8d8d8" stroke-width=".14" stroke-linecap="round"/>
            <path transform="scale(1 -1)" d="M151.68-25.171h7.58v1.13h-7.58z" id="rect4209-3-0-4-5-5-6-5-4-988-2-2" fill="#d8d8d8" stroke-width=".113" stroke-linecap="round"/>
            <path transform="scale(1 -1)" d="M123.868-27.287h10.48v1.13h-10.48z" id="rect4209-3-0-4-5-5-6-5-4-63-2-1" fill="#d8d8d8" stroke-width=".133" stroke-linecap="round"/>
            <path transform="scale(1 -1)" d="M135.453-27.287h20.002v1.13h-20.002z" id="rect4209-3-0-4-5-5-6-5-4-8-5-7" fill="#d8d8d8" stroke-width=".183" stroke-linecap="round"/>
            <path transform="scale(1 -1)" d="M177.54-17.118h13.382v1.13H177.54z" id="rect4209-3-0-4-5-5-6-5-4-98-9-5-3" fill="#d8d8d8" stroke-width=".15" stroke-linecap="round"/>
            <path transform="scale(1 -1)" d="M177.93-23.112h6.033v1.13h-6.033z" id="rect4209-3-0-4-5-5-6-5-4-24-9-6-3" fill="#d8d8d8" stroke-width=".101" stroke-linecap="round"/>
            <path transform="scale(1 -1)" d="M155.275-34.286h13.382v1.13h-13.382z" id="rect4209-3-0-4-5-5-6-5-4-98-9-5-9" fill="#d8d8d8" stroke-width=".15" stroke-linecap="round"/>
            <path transform="scale(1 -1)" d="M169.7-34.286h7.193v1.13h-7.194z" id="rect4209-3-0-4-5-5-6-5-1-9-5-4-7" fill="#d8d8d8" stroke-width=".11" stroke-linecap="round"/>
            <path transform="scale(1 -1)" d="M155.343-15.017h13.382v1.13h-13.382z" id="rect4209-3-0-4-5-5-6-5-4-98-9-5-9-9" fill="#d8d8d8" stroke-width=".15" stroke-linecap="round"/>
            <path transform="scale(1 -1)" d="M169.768-15.017h7.193v1.13h-7.193z" id="rect4209-3-0-4-5-5-6-5-1-9-5-4-7-5" fill="#d8d8d8" stroke-width=".11" stroke-linecap="round"/>
            <path transform="scale(1 -1)" d="M123.827-4.616h29.25v1.13h-29.25z" id="rect4209-3-0-4-5-5-6-5-15-8-4" fill="#d8d8d8" stroke-width=".222" stroke-linecap="round"/>
            <path transform="scale(1 -1)" d="M154.466-4.616h7.194v1.13h-7.194z" id="rect4209-3-0-4-5-5-6-5-1-9-17-0-4" fill="#d8d8d8" stroke-width=".11" stroke-linecap="round"/>
            <path transform="scale(1 -1)" d="M168.978-4.616h7.194v1.13h-7.194z" id="rect4209-3-0-4-5-5-6-5-1-9-2-0-2" fill="#d8d8d8" stroke-width=".11" stroke-linecap="round"/>
            <path transform="scale(1 -1)" d="M162.93-4.616h4.413v1.13h-4.413z" id="rect4209-3-0-4-5-5-6-5-1-9-2-5-67-4-9" fill="#d8d8d8" stroke-width=".086" stroke-linecap="round"/>
            <path transform="scale(1 -1)" d="M141.892-2.5h4.413v1.13h-4.413z" id="rect4209-3-0-4-5-5-6-5-1-9-2-5-63-0-8" fill="#d8d8d8" stroke-width=".086" stroke-linecap="round"/>
            <path transform="scale(1 -1)" d="M135.907-2.5h4.413v1.13h-4.413z" id="rect4209-3-0-4-5-5-6-5-1-9-2-5-4-76-7" fill="#d8d8d8" stroke-width=".086" stroke-linecap="round"/>
            <path transform="scale(1 -1)" d="M147.518-2.5h19.458v1.13h-19.458z" id="rect4209-3-0-4-5-5-6-5-4-0-6-9" fill="#d8d8d8" stroke-width=".181" stroke-linecap="round"/>
            <path transform="scale(1 -1)" d="M167.921-2.5h11.84v1.13h-11.84z" id="rect4209-3-0-4-5-5-6-5-4-6-6-9" fill="#d8d8d8" stroke-width=".141" stroke-linecap="round"/>
            <path transform="scale(1 -1)" d="M123.877-2.5h11.09v1.13h-11.09z" id="rect4209-3-0-4-5-5-6-5-4-19-1-9" fill="#d8d8d8" stroke-width=".136" stroke-linecap="round"/>
            <path transform="scale(1 -1)" d="M177.441-4.603h9.729v1.13h-9.729z" id="rect4209-3-0-4-5-5-6-5-1-9-2-0-1-9-5" fill="#d8d8d8" stroke-width=".128" stroke-linecap="round"/>
            <path transform="matrix(-.00157 1 1 .00035 0 0)" d="M13.295 192.308h6.65v1.95h-6.65z" id="rect4209-3-0-4-5-5-6-5-4-9-0-9-4-5" fill="silver" stroke-width=".139" stroke-linecap="round"/>
            <path transform="matrix(.01995 -.00195 .00298 .0131 192.299 2.098)" d="M82.04-18.156l-56.908-8.626 35.923-44.97z" id="path7050-5-2" fill="silver" stroke-width=".378" stroke-linecap="round" stroke-linejoin="round"/>
            <path transform="matrix(.01995 .00195 .00298 -.0131 192.234 54.602)" d="M82.04-18.156l-56.908-8.626 35.923-44.97z" id="path7050-5-2-2" fill="silver" stroke-width=".378" stroke-linecap="round" stroke-linejoin="round"/>
        </g>
    </g>
</svg>
