<svg xmlns="http://www.w3.org/2000/svg" width="684.417" height="525.23" viewBox="0 0 181.08531 138.96719">
    <path d="M181.086-.001H-.001v138.97h181.087z" fill="#f1f1f1"/>
    <path d="M179.729 72.901H8.809V78.9h170.92z" fill="#fe8b00"/>
    <path d="M179.316 120.288V72.9" fill="none" stroke="#fe8b00" stroke-width="1.177"/>
    <g style="line-height:1.25" font-weight="700" font-size="1.2" font-family="sans-serif" letter-spacing="0" word-spacing="0" fill="#fff">
        <path d="M150.792 74.984h.58v1.814h-.58zm0-.704h.58v.47h-.58zm2.962 1.413v1.105h-.582v-.845q0-.235-.011-.326-.011-.086-.039-.13-.033-.055-.094-.088-.055-.03-.132-.03-.18 0-.285.138-.102.14-.102.386v.895h-.58v-1.814h.58v.265q.13-.158.276-.232.15-.077.326-.077.315 0 .478.193.162.193.162.56zm1.456-.709h.579l.486 1.231.414-1.231h.58l-.765 1.985q-.113.304-.268.422-.152.122-.403.122h-.334v-.381h.182q.147 0 .213-.047.069-.047.105-.169l.016-.05zm3.26.37q-.193 0-.296.138-.099.138-.099.4 0 .26.1.4.102.138.295.138.188 0 .29-.138.1-.138.1-.4 0-.26-.1-.398-.102-.138-.29-.138zm0-.414q.47 0 .729.254.265.25.265.698t-.265.699q-.263.254-.73.254-.469 0-.734-.254-.265-.252-.265-.699t.265-.698q.265-.254.735-.254zm1.394 1.154v-1.11h.583v.847q0 .221.008.318.011.094.039.138.035.055.093.088.056.028.133.028.18 0 .284-.138.102-.138.102-.387v-.894h.58v1.814h-.58v-.263q-.13.158-.276.235-.146.075-.323.075-.314 0-.477-.194-.166-.193-.166-.56zm3.727-.616q-.074-.036-.152-.053-.074-.016-.149-.016-.223 0-.345.143-.118.144-.118.41v.836h-.58v-1.814h.58v.298q.11-.177.254-.26.146-.082.347-.082l.064.005.1.008zm1.215-.494h.58l.453 1.253.45-1.253h.58l-.713 1.814h-.635zm4.199.903v.165h-1.352q.019.202.146.304.127.102.353.102.182 0 .373-.055.193-.055.395-.163v.447q-.205.077-.412.116-.204.042-.411.042-.491 0-.765-.249-.27-.254-.27-.704 0-.442.265-.698.27-.254.74-.254.425 0 .682.26.256.256.256.687zm-.596-.194q0-.165-.097-.265-.093-.102-.248-.102-.171 0-.276.094-.105.094-.13.273zm2.38-.215q-.077-.036-.152-.053t-.152-.016q-.22 0-.345.143-.119.144-.119.41v.836h-.582v-1.814h.58v.298q.11-.177.256-.26.144-.082.345-.082l.064.005q.036 0 .1.008zm1.706-.436v.441q-.188-.08-.359-.118-.174-.039-.328-.039-.166 0-.246.041-.077.042-.077.127 0 .07.058.108.063.036.22.055l.1.014q.444.055.599.185.155.13.155.406 0 .29-.216.436-.212.147-.635.147-.18 0-.372-.03-.194-.028-.395-.084v-.441q.174.082.356.127.182.041.37.041.168 0 .257-.047.082-.047.082-.138 0-.077-.058-.116-.058-.039-.234-.06l-.102-.012q-.387-.05-.542-.18-.157-.132-.157-.397 0-.29.199-.428.196-.138.607-.138.158 0 .334.022.177.025.384.078zm.558-.058h.58v1.814h-.58zm0-.704h.58v.47h-.58zm2.001 1.074q-.193 0-.295.138-.1.138-.1.4 0 .26.1.4.102.138.295.138.188 0 .29-.138.1-.138.1-.4 0-.26-.1-.398-.102-.138-.29-.138zm0-.414q.47 0 .73.254.264.25.264.698t-.265.699q-.262.254-.729.254-.469 0-.734-.254-.265-.252-.265-.699t.265-.698q.265-.254.734-.254zm3.236.753v1.105h-.58v-.845q0-.235-.013-.326-.009-.088-.036-.13-.033-.055-.091-.088-.058-.03-.133-.03-.182 0-.284.138-.105.14-.105.386v.895h-.58v-1.814h.58v.265q.132-.158.279-.232.146-.077.325-.077.312 0 .475.193.166.193.166.56z" style="line-height:0;-inkscape-font-specification:'sans-serif Bold'"/>
    </g>
    <path d="M179.629 24.11H8.706v5.998h170.923z" fill="#3c7aeb"/>
    <path d="M179.216 71.5V24.11" fill="none" stroke="#3c7aeb" stroke-width="1.177"/>
    <g style="line-height:1.25" font-weight="700" font-size="1.2" font-family="sans-serif" letter-spacing="0" word-spacing="0" fill="#fff">
        <path d="M128.425 26.193h.58v1.814h-.58zm0-.704h.58v.469h-.58zm2.963 1.413v1.105h-.583v-.845q0-.235-.01-.326-.012-.086-.04-.13-.033-.055-.093-.088-.056-.03-.133-.03-.18 0-.284.137-.102.141-.102.387v.895h-.58v-1.814h.58v.265q.13-.158.276-.232.149-.078.326-.078.314 0 .477.194.163.193.163.56zm2.937-.107q0-.453-.085-.636-.083-.187-.285-.187t-.287.185q-.085.185-.085.638 0 .458.083.646.088.187.29.187.198 0 .284-.187.083-.188.083-.646zm.622.005q0 .6-.257.928-.26.325-.735.325-.477 0-.737-.325-.26-.329-.26-.928 0-.602.26-.928.26-.325.737-.325.475 0 .735.325.257.326.257.928zm.53-.607h.58v.626h-.58zm0 1.187h.58v.627h-.58zm2.479-.585q0-.453-.086-.636-.082-.187-.287-.187-.199 0-.284.185t-.086.638q0 .458.083.646.088.187.287.187.202 0 .287-.187.083-.188.083-.646zm.621.005q0 .6-.26.928-.256.325-.734.325-.475 0-.734-.325-.26-.329-.26-.928 0-.602.26-.928.26-.325.734-.325.478 0 .735.325.26.326.26.928zm.527-.607h.586v.626h-.586zm0 1.187h.586v.627h-.586zm2.483-.585q0-.453-.089-.636-.083-.187-.284-.187-.199 0-.285.185t-.085.638q0 .458.083.646.088.187.287.187t.284-.187q.089-.188.089-.646zm.62.005q0 .6-.259.928-.257.325-.734.325-.478 0-.735-.325-.26-.329-.26-.928 0-.602.26-.928.257-.325.735-.325.477 0 .734.325.26.326.26.928zm.531-.607h.58v.626h-.58zm0 1.187h.58v.627h-.58zm2.476-.585q0-.453-.083-.636-.085-.187-.287-.187-.198 0-.287.185-.083.185-.083.638 0 .458.083.646.089.187.287.187t.285-.187q.085-.188.085-.646zm.624.005q0 .6-.26.928-.259.325-.734.325-.477 0-.734-.325-.26-.329-.26-.928 0-.602.26-.928.257-.325.734-.325.475 0 .735.325.26.326.26.928zm.528-.607h.582v.626h-.582zm0 1.187h.582v.627h-.582zm2.479-.585q0-.453-.083-.636-.086-.187-.287-.187t-.287.185q-.083.185-.083.638 0 .458.083.646.085.187.287.187.199 0 .284-.187t.086-.646zm.624.005q0 .6-.26.928-.26.325-.734.325-.478 0-.737-.325-.257-.329-.257-.928 0-.602.257-.928.26-.325.737-.325.475 0 .734.325.26.326.26.928zm.527-.607h.583v.626h-.58zm0 1.187h.583v.627h-.58zm2.479-.585q0-.453-.085-.636-.083-.187-.285-.187t-.287.185q-.082.185-.082.638 0 .458.082.646.086.187.287.187.2 0 .285-.187t.085-.646zm.624.005q0 .6-.26.928-.259.325-.734.325-.477 0-.737-.325-.256-.329-.256-.928 0-.602.256-.928.26-.325.737-.325.475 0 .735.325.26.326.26.928zm.528-.607h.582v.626h-.582zm0 1.187h.582v.627h-.582zm2.479-.585q0-.453-.086-.636-.082-.187-.284-.187t-.287.185q-.086.185-.086.638 0 .458.086.646t.287.187q.199 0 .284-.187.083-.188.083-.646zm.621.005q0 .6-.257.928-.26.325-.734.325-.478 0-.737-.325-.26-.329-.26-.928 0-.602.26-.928.26-.325.737-.325.475 0 .734.325.257.326.257.928zm.528-.607h.585v.626h-.585zm0 1.187h.585v.627h-.585zm1.345.196h.551v-1.563l-.566.116v-.422l.56-.116h.594v1.985h.552v.43H158.6zm2.614-1.986v.898h-.384v-.897zm2.01.66v.442q-.185-.08-.36-.118-.17-.039-.325-.039-.166 0-.246.041-.08.042-.08.127 0 .07.06.108.062.036.222.055l.1.014q.444.055.598.185.155.13.155.406 0 .29-.216.436-.212.146-.635.146-.182 0-.372-.03-.194-.028-.395-.083v-.44q.174.082.356.127.182.04.37.04.168 0 .254-.046t.086-.138q0-.077-.058-.116-.058-.039-.235-.06l-.102-.012q-.387-.05-.544-.18-.152-.132-.152-.397 0-.29.199-.428.196-.138.604-.138.16 0 .337.022.177.025.384.078zm1.482-.057h.58l.453 1.253.447-1.253h.58l-.713 1.814h-.635zm4.199.902v.166h-1.352q.019.202.146.304.124.102.35.102.186 0 .376-.055.193-.055.395-.163v.447q-.207.077-.414.116-.202.041-.409.041-.491 0-.765-.248-.27-.254-.27-.704 0-.442.265-.699.268-.254.737-.254.428 0 .685.26.256.257.256.687zm-.596-.193q0-.165-.097-.265-.096-.102-.248-.102-.171 0-.276.094-.105.094-.13.273zm2.38-.215q-.077-.036-.155-.053-.074-.016-.149-.016-.22 0-.345.143-.119.144-.119.409v.837h-.58v-1.814h.58v.298q.11-.177.254-.26.147-.083.348-.083l.064.006.1.008zm1.706-.437v.442q-.188-.08-.359-.118-.174-.039-.328-.039-.166 0-.246.041-.08.042-.08.127 0 .07.06.108.061.036.222.055l.099.014q.444.055.6.185.154.13.154.406 0 .29-.216.436-.212.146-.635.146-.182 0-.372-.03-.194-.028-.395-.083v-.44q.174.082.356.127.182.04.37.04.168 0 .254-.046t.085-.138q0-.077-.057-.116-.058-.039-.235-.06l-.102-.012q-.387-.05-.541-.18-.158-.132-.158-.397 0-.29.199-.428.196-.138.605-.138.16 0 .336.022.177.025.384.078zm.558-.057h.58v1.814h-.58zm0-.704h.58v.469h-.58zm2.002 1.074q-.194 0-.296.138-.1.138-.1.4 0 .26.1.4.102.138.296.138.187 0 .29-.138.099-.138.099-.4 0-.26-.1-.398-.102-.138-.29-.138zm0-.415q.466 0 .728.254.263.252.263.699t-.263.698q-.262.254-.728.254-.47 0-.735-.254-.265-.25-.265-.698t.265-.699q.265-.254.735-.254zm3.235.754v1.105h-.58v-.845q0-.235-.013-.326-.009-.088-.036-.13-.033-.055-.091-.088-.058-.03-.133-.03-.182 0-.284.137-.105.141-.105.387v.895h-.58v-1.814h.58v.265q.132-.158.276-.232.15-.078.329-.078.311 0 .474.194.166.193.166.56z" style="line-height:0;-inkscape-font-specification:'sans-serif Bold'"/>
    </g>
    <path d="M176.527 84.77h-26.948v-2.829h26.948zm-35.35 5.145h-73.23v-2.829h73.228zm35.235 14.959H97v-2.83h79.412zm-45.564 21.186H85.764v-2.828h45.084zm45.804 10.436h-73.228v-2.83h73.228z" fill="#d8d8d8"/>
    <path d="M145.065 85.74h-42.853v-5.278h42.853z" fill="#ead97f"/>
    <path d="M176.527 99.736H159.35v-2.829h17.177zm-83.617 15.57H74.898v-2.83h18.01zm-36.552 0H38.35v-2.83h18.008zm43.589 21.19h-18.01v-2.83h18.01zm76.58-10.436H161.62v-2.828h14.906zM162.83 89.782h-18.01v-2.829h18.01zm-77.867 9.954h-18.01v-2.829h18.01zm-21.347 36.76H45.608v-2.83h18.008zm112.911-46.714h-11.048v-2.829h11.048zM121.44 94.76h-11.051v-2.83h11.05zm-32.238 0H78.154v-2.83h11.048zm-29.514 0H48.64v-2.83h11.048zm23.382 31.3H72.022v-2.828H83.07zm-4.313 10.436H67.709v-2.83h11.048zm-9.306-10.436H58.403v-2.828h11.048zm61.977 5.138h-11.05v-2.829h11.048zm-59.934-15.892H60.446v-2.83h11.048zm105.033-5.298h-11.048v-2.829h11.048zm-30.117 21.19h-11.048v-2.829h11.048zm16.107-21.19h-50.3v-2.829h50.3zm-68.331-5.134H44.111v-2.83h50.075zm23.155 26.324H68.628v-2.829h48.713zm-51.079 0H36.62v-2.829h29.642zm16.345-21.19H47.515v-2.829h35.092zM65.58 89.782H45.246v-2.829H65.58zm9.026 4.978h-9.894v-2.83h9.894zm32.293 0H93.147v-2.83H106.9zm69.628 0h-51.21v-2.83h51.21zm-53.823 4.976H89.202v-2.829h33.502zm33.229 0h-29.189v-2.829h29.191zm-49.034 10.272H87.925v-2.829h18.974zm69.628 5.298H150.29v-2.83h26.237zm-29.003 0H97.448v-2.83h50.078zm29.003 15.892h-27.762v-2.829h27.764zM42.158 89.847H8.656v-2.829h33.502zm-.976 15.007H26.08v-2.83h15.102zm117.685 21.156h-24.36v-2.828h24.36zM42.428 136.466H18.074v-2.83h24.354zm134.169-99.851h-26.948v-2.829h26.948zm-35.35 5.142h-73.23v-2.829h73.228zm35.235 14.961H97.07V53.89h79.412z" fill="#d8d8d8"/>
    <path d="M146.004 37.617h-45v-5.278h45z" fill="#a3c9d2"/>
    <path d="M176.597 51.581h-17.18v-2.829h17.18zM92.977 67.15H74.969v-2.828h18.008zm-36.549 0h-18.01v-2.828h18.01zm106.47-25.523H144.89v-2.829h18.01zm-77.865 9.954h-18.01v-2.829h18.01zm91.564-9.954h-11.048v-2.829h11.048zm-55.09 4.977h-11.048v-2.829h11.048zm-32.237 0H78.22v-2.829h11.05zm-29.512 0H48.71v-2.829h11.048zM71.562 67.15H60.514v-2.828h11.048zm105.035-5.297h-11.048v-2.829h11.048zm-14.01 0h-50.303v-2.829h50.303zm-68.333-5.135H44.178V53.89h50.076zm-11.577 5.135H47.586v-2.829h35.091zM65.651 41.627H45.315v-2.829H65.65zm9.023 4.977h-9.892v-2.829h9.892zm32.296 0H93.214v-2.829h13.752zm69.627 0h-51.21v-2.829h51.21zm-53.826 4.977H89.27v-2.829h33.502zm33.232 0h-29.191v-2.829h29.191zM106.97 61.853H87.991v-2.829h18.977zm69.627 5.297H150.36v-2.828h26.237zm-29.003 0H97.518v-2.828h50.076zM42.228 41.692H8.726v-2.829h33.502zm-.976 15.006H26.148V53.87h15.104zm56.717 27.975H64.467v-2.83h33.502zm-36.113 0H43.848v-2.83h18.01zm35.943-48.241H64.297v-2.829h33.502zm-36.114 0H43.678v-2.829h18.007zM176.7 10.393h-73.228V7.564H176.7zm-76.706 0h-18.01V7.564h18.01zm-36.331 0h-18.01V7.564h18.01zm15.141 0H67.756V7.564h11.048zm52.67-5.297h-11.048v-2.83h11.048zm14.983 0H135.41v-2.83h11.048zm-29.068 0H68.675v-2.83h48.714zm-51.079 0H36.667v-2.83h29.641zm110.264 0H148.81v-2.83h27.764zM42.476 10.36H18.119V7.533h24.357z" fill="#d8d8d8"/>
    <path d="M5.308 32.29l.026 16.648-4.881.002-.027-16.648zM1.317 3.093l2.906-.005-1.458-1.65zM1.48 136.53l2.906.005-1.459 1.65z" fill="silver"/>
</svg>
