<?xml version="1.0" encoding="UTF-8" standalone="no"?>
<svg xmlns="http://www.w3.org/2000/svg" width="750.218" height="187.059" viewBox="0 0 198.49528 49.49279" id="svg15787">
    <g id="layer1" transform="translate(-5.056 -9.751)">
        <g id="g9792" transform="matrix(1.9259 0 0 1.9259 -405.307 -7.817)">
            <path d="M213.076 9.122h103.066v25.699H213.076z" id="rect4663-32-8-8-2" fill="#fdfcfd" stroke-width="1.032" stroke-linecap="round" stroke-linejoin="round"/>
            <path d="M215.212 20.14h100.93v14.68h-100.93z" id="rect4663-32-8-3-3" fill="#f1f1f1" stroke-width=".731" stroke-linecap="round" stroke-linejoin="round"/>
            <g transform="translate(215.119 .073) scale(1.9543)" style="line-height:1.25" id="flowRoot4530-4-1-3" font-weight="400" font-size="1.6" font-family="sans-serif" letter-spacing="0" word-spacing="0">
                <path d="M-.018 8.55v-.53h.143v.524q0 .124.049.186.048.062.145.062.117 0 .184-.074.068-.074.068-.202V8.02h.143v.875H.571V8.76q-.053.08-.122.119-.069.038-.16.038-.151 0-.23-.094-.077-.093-.077-.274zm.361-.552z" style="line-height:0" id="path10408"/>
                <path d="M1.74 8.366v.529h-.144V8.37q0-.124-.049-.186-.048-.062-.145-.062-.116 0-.184.075-.067.074-.067.202v.495h-.144V8.02h.144v.135q.052-.078.121-.117.07-.04.162-.04.15 0 .228.094.077.093.077.274z" style="line-height:0" id="path10410"/>
                <path d="M2.657 8.053v.134q-.06-.033-.122-.05-.061-.017-.124-.017-.14 0-.217.09-.077.088-.077.248t.077.249q.077.088.217.088.063 0 .124-.016.061-.017.122-.05v.132q-.06.028-.125.042-.064.014-.136.014-.198 0-.314-.124-.117-.124-.117-.335 0-.214.117-.337.118-.123.323-.123.066 0 .13.014.063.014.122.041z" style="line-height:0" id="path10412"/>
                <path d="M3.636 8.366v.529h-.143V8.37q0-.124-.049-.186-.048-.062-.145-.062-.117 0-.184.075-.067.074-.067.202v.495h-.144V7.679h.144v.476q.052-.078.121-.117.07-.04.162-.04.15 0 .228.094.077.093.077.274z" style="line-height:0" id="path10414"/>
                <path d="M4.322 8.455q-.174 0-.241.04t-.067.135q0 .077.05.122t.137.045q.12 0 .192-.085.072-.085.072-.225v-.032zm.287-.06v.5h-.144v-.133q-.049.08-.122.118-.074.037-.18.037-.134 0-.214-.075-.08-.076-.08-.202 0-.148.1-.223.099-.075.295-.075h.201v-.014q0-.1-.065-.153-.065-.055-.183-.055-.075 0-.146.018t-.137.054V8.06q.079-.03.153-.045.074-.016.145-.016.19 0 .283.099.094.098.094.298z" style="line-height:0" id="path10416"/>
                <path d="M5.633 8.366v.529H5.49V8.37q0-.124-.048-.186t-.145-.062q-.117 0-.184.075-.067.074-.067.202v.495H4.9V8.02h.145v.135q.051-.078.121-.117.07-.04.162-.04.15 0 .228.094.077.093.077.274z" style="line-height:0" id="path10418"/>
                <path d="M6.497 8.447q0-.156-.065-.242-.064-.086-.18-.086-.116 0-.18.086-.065.086-.065.242 0 .155.064.241.065.086.181.086.116 0 .18-.086.065-.086.065-.241zm.144.339q0 .223-.1.332-.098.11-.303.11-.076 0-.143-.012-.067-.011-.13-.035v-.14q.063.035.124.051.062.017.126.017.142 0 .212-.075.07-.073.07-.222V8.74q-.044.077-.114.115-.07.039-.166.039-.161 0-.26-.123-.098-.123-.098-.325 0-.203.098-.326.099-.123.26-.123.097 0 .166.039.07.038.114.115V8.02h.144z" style="line-height:0" id="path10420"/>
                <path d="M7.686 8.421v.07h-.661q.009.149.089.227.08.077.223.077.083 0 .16-.02.078-.02.155-.06v.135q-.077.033-.159.05-.08.017-.164.017-.21 0-.333-.122-.121-.122-.121-.33 0-.214.115-.34.117-.127.314-.127.176 0 .278.115.104.113.104.308zm-.144-.042q-.002-.118-.067-.188-.064-.07-.17-.07-.12 0-.193.067-.072.068-.083.192z" style="line-height:0" id="path10422"/>
                <path d="M8.497 8.152V7.68h.144v1.216h-.144v-.132q-.045.078-.115.117-.068.037-.165.037-.159 0-.259-.126-.099-.127-.099-.333 0-.206.1-.333.1-.127.258-.127.097 0 .165.039.07.037.115.115zm-.49.306q0 .158.065.249.066.09.18.09.114 0 .18-.09.065-.09.065-.25 0-.158-.065-.248-.066-.09-.18-.09-.114 0-.18.09-.065.09-.065.249z" style="line-height:0" id="path10424"/>
                <path d="M9.589 7.771v.249h.296v.111h-.296v.475q0 .107.029.138.03.03.12.03h.147v.12h-.148q-.166 0-.23-.061-.063-.063-.063-.227v-.475H9.34V8.02h.105V7.77z" style="line-height:0" id="path10426"/>
                <path d="M10.823 8.421v.07h-.66q.009.149.088.227.08.077.224.077.082 0 .16-.02t.154-.06v.135q-.077.033-.158.05t-.165.017q-.21 0-.332-.122-.122-.122-.122-.33 0-.214.116-.34.116-.127.313-.127.177 0 .279.115.103.113.103.308zm-.144-.042q-.001-.118-.066-.188-.064-.07-.17-.07-.12 0-.193.067-.072.068-.083.192z" style="line-height:0" id="path10428"/>
                <path d="M11.758 8.02l-.316.425.333.45h-.17l-.255-.344-.254.344h-.17l.34-.458-.31-.417h.169l.232.311.232-.311z" style="line-height:0" id="path10430"/>
                <path d="M12.12 7.771v.249h.296v.111h-.296v.475q0 .107.029.138.03.03.12.03h.147v.12h-.148q-.166 0-.23-.061-.063-.063-.063-.227v-.475h-.105V8.02h.105V7.77z" style="line-height:0" id="path10432"/>
            </g>
            <path d="M257.528 15.505a2.425 2.425 0 0 1-2.426 2.425 2.425 2.425 0 0 1-2.425-2.425 2.425 2.425 0 0 1 2.425-2.426 2.425 2.425 0 0 1 2.426 2.426z" id="path4586-9-1-6" fill="#3261ff" stroke-width=".568" stroke-linecap="round" stroke-linejoin="round"/>
            <path d="M256.565 15.503a1.47 1.47 0 0 1-1.47 1.47 1.47 1.47 0 0 1-1.47-1.47 1.47 1.47 0 0 1 1.47-1.47 1.47 1.47 0 0 1 1.47 1.47z" id="path4586-6-3" fill="#fff" stroke-width=".344" stroke-linecap="round" stroke-linejoin="round"/>
            <path d="M290.318 15.452a2.255 2.255 0 0 1-2.256 2.255 2.255 2.255 0 0 1-2.255-2.255 2.255 2.255 0 0 1 2.255-2.256 2.255 2.255 0 0 1 2.256 2.256z" id="path4586-6-0-0-9" fill="#fff" stroke="#373635" stroke-width=".34" stroke-linecap="round" stroke-linejoin="round"/>
            <g transform="translate(259.78 -.644) scale(1.9543)" style="line-height:1.25" id="flowRoot4530-4-6-2" font-weight="400" font-size="1.6" font-family="sans-serif" letter-spacing="0" word-spacing="0">
                <path d="M.554 8.045v.136q-.06-.031-.126-.047Q.362 8.12.292 8.12q-.107 0-.161.033-.053.032-.053.098 0 .05.038.079.038.028.154.054l.05.01q.152.034.216.094.065.06.065.166 0 .122-.097.193-.096.071-.265.071-.07 0-.146-.014-.076-.013-.16-.04v-.149q.08.041.156.063.078.02.154.02.101 0 .156-.035.055-.035.055-.098 0-.059-.04-.09t-.173-.06l-.05-.012q-.134-.028-.193-.086-.06-.058-.06-.16 0-.123.088-.19.088-.068.249-.068.08 0 .15.012.07.012.13.035z" style="line-height:0" id="path10390"/>
                <path d="M1.558 8.366v.529h-.144V8.37q0-.124-.048-.186t-.145-.062q-.117 0-.184.075Q.97 8.272.97 8.4v.495H.825V7.679H.97v.476q.051-.078.121-.117.07-.04.162-.04.15 0 .228.094.077.093.077.274z" style="line-height:0" id="path10392"/>
                <path d="M2.186 8.12q-.116 0-.183.09-.067.09-.067.248 0 .157.066.247.067.09.184.09.114 0 .182-.09.067-.09.067-.247 0-.156-.067-.246-.068-.092-.182-.092zm0-.122q.187 0 .294.122.107.122.107.338 0 .215-.107.337-.107.122-.294.122-.189 0-.296-.122-.106-.122-.106-.337 0-.216.106-.338.107-.122.296-.122z" style="line-height:0" id="path10394"/>
                <path d="M2.741 8.02h.144l.18.682.178-.682h.17l.18.682.178-.682h.144l-.229.875h-.17l-.187-.718-.19.718h-.17z" style="line-height:0" id="path10396"/>
            </g>
            <g transform="translate(292.158 -.712) scale(1.9543)" style="line-height:1.25" id="flowRoot4530-4-6-3-8" font-weight="400" font-size="1.6" font-family="sans-serif" letter-spacing="0" word-spacing="0">
                <path d="M.724 8.366v.529H.58V8.37q0-.124-.048-.186-.049-.062-.146-.062-.116 0-.183.075-.067.074-.067.202v.495H-.01V7.679h.145v.476q.051-.078.12-.117.071-.04.162-.04.151 0 .228.094.078.093.078.274z" style="line-height:0" id="path10381"/>
                <path d="M1.012 8.02h.144v.875h-.144zm0-.341h.144v.182h-.144z" style="line-height:0" id="path10383"/>
                <path d="M2.032 8.152V7.68h.143v1.216h-.143v-.132q-.046.078-.115.117-.069.037-.166.037-.158 0-.258-.126-.1-.127-.1-.333 0-.206.1-.333.1-.127.258-.127.097 0 .166.039.07.037.115.115zm-.49.306q0 .158.065.249.065.09.18.09.113 0 .179-.09.066-.09.066-.25 0-.158-.066-.248t-.18-.09q-.114 0-.18.09-.064.09-.064.249z" style="line-height:0" id="path10385"/>
                <path d="M3.22 8.421v.07h-.661q.01.149.089.227.08.077.223.077.083 0 .16-.02.079-.02.155-.06v.135q-.077.033-.158.05-.082.017-.165.017-.21 0-.332-.122-.122-.122-.122-.33 0-.214.116-.34.116-.127.313-.127.176 0 .279.115.103.113.103.308zm-.144-.042q-.001-.118-.066-.188-.064-.07-.17-.07-.12 0-.194.067-.071.068-.082.192z" style="line-height:0" id="path10387"/>
            </g>
            <path transform="scale(1 -1)" d="M216.46-30.508h49.162v1.898h-49.163z" id="rect4209-3-0-4-5-5-6-5-15-1" fill="#d8d8d8" stroke-width=".372" stroke-linecap="round"/>
            <path transform="scale(1 -1)" d="M267.955-30.508h12.091v1.898h-12.09z" id="rect4209-3-0-4-5-5-6-5-1-9-17-3" fill="#d8d8d8" stroke-width=".185" stroke-linecap="round"/>
            <path transform="scale(1 -1)" d="M292.345-30.508h12.09v1.898h-12.09z" id="rect4209-3-0-4-5-5-6-5-1-9-2-58" fill="#d8d8d8" stroke-width=".185" stroke-linecap="round"/>
            <path transform="scale(1 -1)" d="M282.18-30.508h7.417v1.898h-7.417z" id="rect4209-3-0-4-5-5-6-5-1-9-2-5-67-5" fill="#d8d8d8" stroke-width=".145" stroke-linecap="round"/>
            <path transform="scale(1 -1)" d="M246.822-26.952h7.417v1.899h-7.417z" id="rect4209-3-0-4-5-5-6-5-1-9-2-5-63-4" fill="#d8d8d8" stroke-width=".145" stroke-linecap="round"/>
            <path transform="scale(1 -1)" d="M236.763-26.952h7.417v1.899h-7.417z" id="rect4209-3-0-4-5-5-6-5-1-9-2-5-4-8" fill="#d8d8d8" stroke-width=".145" stroke-linecap="round"/>
            <path transform="scale(1 -1)" d="M256.278-26.952h32.702v1.899h-32.702z" id="rect4209-3-0-4-5-5-6-5-4-0-57" fill="#d8d8d8" stroke-width=".304" stroke-linecap="round"/>
            <path transform="scale(1 -1)" d="M290.569-26.952h19.9v1.899h-19.9z" id="rect4209-3-0-4-5-5-6-5-4-6-7" fill="#d8d8d8" stroke-width=".237" stroke-linecap="round"/>
            <path transform="scale(1 -1)" d="M216.544-26.952h18.637v1.899h-18.637z" id="rect4209-3-0-4-5-5-6-5-4-19-2" fill="#d8d8d8" stroke-width=".229" stroke-linecap="round"/>
            <path d="M314.595 25.878l-.008 5.727 1.565.001.008-5.728z" id="rect4209-3-0-4-5-5-6-5-4-9-0-9-4" fill="silver" stroke-width=".115" stroke-linecap="round"/>
            <path d="M316.062 21.481l-1.38-.002.693-.938z" id="path7050" fill="silver" stroke-width=".008" stroke-linecap="round" stroke-linejoin="round"/>
        </g>
        <path d="M9.08 31.432h187.287v6.629H9.08z" id="rect4851" fill="#3c7aeb" stroke="#3c7aeb" stroke-width=".387" stroke-linecap="round" stroke-linejoin="round"/>
        <path id="path4853" d="M9.32 59.267V31.153" fill="#3c7aeb" stroke="#3c7aeb" stroke-width="1.711"/>
        <path d="M68.97 44.43h16.564v-4.55H68.97z" id="rect4209-3-0-4-5-5-6-5-1-9" fill="#ead97f" stroke-width=".253" stroke-linecap="round"/>
        <path d="M10.322 33.807h.697v2.182h-.697zm0-.85h.697v.57h-.697z" style="line-height:0;-inkscape-font-specification:'sans-serif Bold'" id="path10491" font-weight="700" font-size="1.2" font-family="sans-serif" letter-spacing="0" word-spacing="0" fill="#fff" stroke-width="3.016"/>
        <path d="M13.888 34.66v1.33h-.702V34.972q0-.283-.013-.39-.012-.108-.043-.159-.041-.068-.111-.105-.07-.039-.16-.039-.218 0-.343.17-.125.167-.125.466v1.073h-.697v-2.182h.697v.32q.158-.192.335-.281.178-.092.392-.092.378 0 .573.232.197.232.197.674z" style="line-height:0;-inkscape-font-specification:'sans-serif Bold'" id="path10493" font-weight="700" font-size="1.2" font-family="sans-serif" letter-spacing="0" word-spacing="0" fill="#fff" stroke-width="3.016"/>
        <path d="M17.427 34.532q0-.546-.104-.768-.1-.224-.342-.224-.242 0-.345.224-.104.222-.104.768 0 .551.104.777.103.226.345.226.24 0 .342-.226.104-.226.104-.777zm.75.006q0 .723-.312 1.116-.312.392-.884.392-.575 0-.887-.392-.312-.393-.312-1.116 0-.725.312-1.117.312-.394.887-.394.572 0 .884.394.312.392.312 1.117z" style="line-height:0;-inkscape-font-specification:'sans-serif Bold'" id="path10495" font-weight="700" font-size="1.2" font-family="sans-serif" letter-spacing="0" word-spacing="0" fill="#fff" stroke-width="3.016"/>
        <path d="M18.812 33.807h.704v.754h-.704zm0 1.428h.704v.754h-.704z" style="line-height:0;-inkscape-font-specification:'sans-serif Bold'" id="path10497" font-weight="700" font-size="1.2" font-family="sans-serif" letter-spacing="0" word-spacing="0" fill="#fff" stroke-width="3.016"/>
        <path d="M21.8 34.532q0-.546-.104-.768-.1-.224-.343-.224-.241 0-.344.224-.104.222-.104.768 0 .551.104.777.103.226.344.226.24 0 .343-.226.104-.226.104-.777zm.75.006q0 .723-.312 1.116-.312.392-.884.392-.575 0-.887-.392-.312-.393-.312-1.116 0-.725.312-1.117.312-.394.887-.394.572 0 .884.394.312.392.312 1.117z" style="line-height:0;-inkscape-font-specification:'sans-serif Bold'" id="path10499" font-weight="700" font-size="1.2" font-family="sans-serif" letter-spacing="0" word-spacing="0" fill="#fff" stroke-width="3.016"/>
        <path d="M23.185 33.807h.704v.754h-.704zm0 1.428h.704v.754h-.704z" style="line-height:0;-inkscape-font-specification:'sans-serif Bold'" id="path10501" font-weight="700" font-size="1.2" font-family="sans-serif" letter-spacing="0" word-spacing="0" fill="#fff" stroke-width="3.016"/>
        <path d="M26.173 34.532q0-.546-.104-.768-.1-.224-.343-.224-.241 0-.344.224-.104.222-.104.768 0 .551.104.777.103.226.344.226.24 0 .343-.226.104-.226.104-.777zm.75.006q0 .723-.312 1.116-.312.392-.885.392-.574 0-.886-.392-.312-.393-.312-1.116 0-.725.312-1.117.312-.394.886-.394.573 0 .885.394.312.392.312 1.117z" style="line-height:0;-inkscape-font-specification:'sans-serif Bold'" id="path10503" font-weight="700" font-size="1.2" font-family="sans-serif" letter-spacing="0" word-spacing="0" fill="#fff" stroke-width="3.016"/>
        <path d="M27.558 33.807h.704v.754h-.704zm0 1.428h.704v.754h-.704z" style="line-height:0;-inkscape-font-specification:'sans-serif Bold'" id="path10505" font-weight="700" font-size="1.2" font-family="sans-serif" letter-spacing="0" word-spacing="0" fill="#fff" stroke-width="3.016"/>
        <path d="M30.546 34.532q0-.546-.104-.768-.1-.224-.343-.224-.241 0-.344.224-.104.222-.104.768 0 .551.104.777.103.226.344.226.24 0 .343-.226.104-.226.104-.777zm.75.006q0 .723-.312 1.116-.312.392-.885.392-.574 0-.886-.392-.312-.393-.312-1.116 0-.725.312-1.117.312-.394.886-.394.573 0 .885.394.312.392.312 1.117z" style="line-height:0;-inkscape-font-specification:'sans-serif Bold'" id="path10507" font-weight="700" font-size="1.2" font-family="sans-serif" letter-spacing="0" word-spacing="0" fill="#fff" stroke-width="3.016"/>
        <path d="M31.931 33.807h.704v.754h-.704zm0 1.428h.704v.754h-.704z" style="line-height:0;-inkscape-font-specification:'sans-serif Bold'" id="path10509" font-weight="700" font-size="1.2" font-family="sans-serif" letter-spacing="0" word-spacing="0" fill="#fff" stroke-width="3.016"/>
        <path d="M34.919 34.532q0-.546-.104-.768-.1-.224-.343-.224-.241 0-.344.224-.104.222-.104.768 0 .551.104.777.103.226.344.226.24 0 .343-.226.104-.226.104-.777zm.75.006q0 .723-.312 1.116-.312.392-.885.392-.574 0-.886-.392-.312-.393-.312-1.116 0-.725.312-1.117.312-.394.886-.394.573 0 .885.394.312.392.312 1.117z" style="line-height:0;-inkscape-font-specification:'sans-serif Bold'" id="path10511" font-weight="700" font-size="1.2" font-family="sans-serif" letter-spacing="0" word-spacing="0" fill="#fff" stroke-width="3.016"/>
        <path d="M36.304 33.807h.704v.754h-.704zm0 1.428h.704v.754h-.704z" style="line-height:0;-inkscape-font-specification:'sans-serif Bold'" id="path10513" font-weight="700" font-size="1.2" font-family="sans-serif" letter-spacing="0" word-spacing="0" fill="#fff" stroke-width="3.016"/>
        <path d="M39.292 34.532q0-.546-.104-.768-.1-.224-.343-.224-.241 0-.345.224-.103.222-.103.768 0 .551.103.777.104.226.345.226.24 0 .343-.226.104-.226.104-.777zm.75.006q0 .723-.312 1.116-.312.392-.885.392-.574 0-.886-.392-.312-.393-.312-1.116 0-.725.312-1.117.312-.394.886-.394.573 0 .885.394.312.392.312 1.117z" style="line-height:0;-inkscape-font-specification:'sans-serif Bold'" id="path10515" font-weight="700" font-size="1.2" font-family="sans-serif" letter-spacing="0" word-spacing="0" fill="#fff" stroke-width="3.016"/>
        <path d="M40.677 33.807h.704v.754h-.704zm0 1.428h.704v.754h-.704z" style="line-height:0;-inkscape-font-specification:'sans-serif Bold'" id="path10517" font-weight="700" font-size="1.2" font-family="sans-serif" letter-spacing="0" word-spacing="0" fill="#fff" stroke-width="3.016"/>
        <path d="M43.665 34.532q0-.546-.104-.768-.101-.224-.343-.224-.241 0-.344.224-.104.222-.104.768 0 .551.104.777.103.226.344.226.24 0 .343-.226.104-.226.104-.777zm.75.006q0 .723-.312 1.116-.312.392-.885.392-.574 0-.886-.392-.312-.393-.312-1.116 0-.725.312-1.117.312-.394.886-.394.573 0 .885.394.312.392.312 1.117z" style="line-height:0;-inkscape-font-specification:'sans-serif Bold'" id="path10519" font-weight="700" font-size="1.2" font-family="sans-serif" letter-spacing="0" word-spacing="0" fill="#fff" stroke-width="3.016"/>
        <path d="M45.05 33.807h.704v.754h-.704zm0 1.428h.704v.754h-.704z" style="line-height:0;-inkscape-font-specification:'sans-serif Bold'" id="path10521" font-weight="700" font-size="1.2" font-family="sans-serif" letter-spacing="0" word-spacing="0" fill="#fff" stroke-width="3.016"/>
        <path d="M46.67 35.47h.662v-1.88l-.68.14v-.51l.676-.14h.714v2.391h.662v.518H46.67z" style="line-height:0;-inkscape-font-specification:'sans-serif Bold'" id="path10523" font-weight="700" font-size="1.2" font-family="sans-serif" letter-spacing="0" word-spacing="0" fill="#fff" stroke-width="3.016"/>
        <path d="M49.819 33.08v1.081h-.462V33.08z" style="line-height:0;-inkscape-font-specification:'sans-serif Bold'" id="path10525" font-weight="700" font-size="1.2" font-family="sans-serif" letter-spacing="0" word-spacing="0" fill="#fff" stroke-width="3.016"/>
        <path d="M52.241 33.875v.53q-.224-.094-.433-.14-.208-.047-.393-.047-.199 0-.296.05-.096.05-.096.153 0 .083.072.128.074.045.263.066l.123.018q.536.068.721.224.185.156.185.49 0 .348-.257.523-.257.176-.768.176-.216 0-.448-.035-.23-.034-.474-.102v-.53q.209.102.427.152.22.05.446.05.205 0 .308-.056.104-.056.104-.167 0-.094-.072-.139-.07-.046-.283-.072l-.123-.015q-.466-.059-.653-.217t-.187-.48q0-.346.238-.514.238-.167.729-.167.193 0 .405.029.213.03.462.092z" style="line-height:0;-inkscape-font-specification:'sans-serif Bold'" id="path10527" font-weight="700" font-size="1.2" font-family="sans-serif" letter-spacing="0" word-spacing="0" fill="#fff" stroke-width="3.016"/>
        <path d="M54.026 33.807h.698l.544 1.508.541-1.508h.7l-.86 2.182h-.765z" style="line-height:0;-inkscape-font-specification:'sans-serif Bold'" id="path10529" font-weight="700" font-size="1.2" font-family="sans-serif" letter-spacing="0" word-spacing="0" fill="#fff" stroke-width="3.016"/>
        <path d="M59.083 34.892v.199h-1.631q.025.245.177.368t.425.123q.22 0 .45-.064.232-.067.476-.199v.538q-.248.093-.495.14-.248.049-.495.049-.592 0-.922-.3-.327-.302-.327-.846 0-.534.321-.84.324-.306.889-.306.514 0 .822.31.31.31.31.828zm-.717-.232q0-.199-.117-.32-.115-.122-.302-.122-.203 0-.33.115-.126.113-.157.327z" style="line-height:0;-inkscape-font-specification:'sans-serif Bold'" id="path10531" font-weight="700" font-size="1.2" font-family="sans-serif" letter-spacing="0" word-spacing="0" fill="#fff" stroke-width="3.016"/>
        <path d="M61.23 34.401q-.09-.043-.183-.062-.09-.022-.18-.022-.27 0-.416.174-.144.171-.144.493v1.005h-.698v-2.182h.698v.358q.134-.214.308-.312.175-.099.419-.099.035 0 .076.004.04.002.119.012z" style="line-height:0;-inkscape-font-specification:'sans-serif Bold'" id="path10533" font-weight="700" font-size="1.2" font-family="sans-serif" letter-spacing="0" word-spacing="0" fill="#fff" stroke-width="3.016"/>
        <path d="M63.287 33.875v.53q-.225-.094-.433-.14-.209-.047-.394-.047-.198 0-.296.05-.095.05-.095.153 0 .083.072.128.074.045.263.066l.123.018q.535.068.72.224.186.156.186.49 0 .348-.258.523-.257.176-.767.176-.217 0-.449-.035-.23-.034-.473-.102v-.53q.208.102.427.152.22.05.446.05.205 0 .308-.056.103-.056.103-.167 0-.094-.072-.139-.07-.046-.282-.072l-.123-.015q-.466-.059-.653-.217t-.187-.48q0-.346.238-.514.237-.167.728-.167.193 0 .406.029.212.03.462.092z" style="line-height:0;-inkscape-font-specification:'sans-serif Bold'" id="path10535" font-weight="700" font-size="1.2" font-family="sans-serif" letter-spacing="0" word-spacing="0" fill="#fff" stroke-width="3.016"/>
        <path d="M63.959 33.807h.698v2.182h-.698zm0-.85h.698v.57h-.698z" style="line-height:0;-inkscape-font-specification:'sans-serif Bold'" id="path10537" font-weight="700" font-size="1.2" font-family="sans-serif" letter-spacing="0" word-spacing="0" fill="#fff" stroke-width="3.016"/>
        <path d="M66.37 34.253q-.232 0-.355.168-.121.165-.121.479 0 .314.12.481.124.166.356.166.227 0 .348-.166.121-.167.121-.481 0-.314-.12-.48-.122-.167-.35-.167zm0-.499q.563 0 .878.304.318.304.318.842t-.318.842q-.315.304-.878.304-.566 0-.885-.304-.318-.304-.318-.842t.318-.842q.32-.304.885-.304z" style="line-height:0;-inkscape-font-specification:'sans-serif Bold'" id="path10539" font-weight="700" font-size="1.2" font-family="sans-serif" letter-spacing="0" word-spacing="0" fill="#fff" stroke-width="3.016"/>
        <path d="M70.269 34.66v1.33h-.702V34.972q0-.283-.013-.39-.012-.108-.043-.159-.04-.068-.111-.105-.07-.039-.16-.039-.218 0-.343.17-.125.167-.125.466v1.073h-.697v-2.182h.697v.32q.158-.192.336-.281.177-.092.391-.092.378 0 .573.232.197.232.197.674z" style="line-height:0;-inkscape-font-specification:'sans-serif Bold'" id="path10541" font-weight="700" font-size="1.2" font-family="sans-serif" letter-spacing="0" word-spacing="0" fill="#fff" stroke-width="3.016"/>
    </g>
</svg>
