<svg xmlns="http://www.w3.org/2000/svg" width="747.709" height="573.802" viewBox="0 0 197.83144 151.81839">
    <path d="M0 0h197.831v151.818H0z" fill="#f1f1f1"/>
    <path d="M1.481 79.642h186.727v6.553H1.481z" fill="#fe8b00"/>
    <path d="M1.932 131.412v-51.77" fill="none" stroke="#fe8b00" stroke-width="1.285"/>
    <path d="M3.053 81.919h.633v1.98h-.633zm0-.77h.633v.515h-.633zm3.235 1.544v1.205H5.65v-.922q0-.256-.012-.354-.01-.097-.039-.143-.037-.062-.1-.095-.064-.036-.146-.036-.197 0-.31.154-.114.152-.114.423v.973h-.632V81.92h.632v.29q.143-.173.304-.255.161-.083.356-.083.342 0 .52.21t.178.612zm1.588-.774h.633l.532 1.343.452-1.343h.633l-.832 2.167q-.126.33-.294.46-.166.133-.44.133h-.365v-.415h.197q.161 0 .234-.051.074-.051.115-.184l.017-.055zm3.564.405q-.211 0-.322.152-.11.15-.11.434 0 .285.11.437.111.15.321.15.207 0 .317-.15.11-.152.11-.437 0-.284-.11-.434-.11-.152-.317-.152zm0-.453q.51 0 .796.276.288.276.288.763 0 .488-.288.764-.286.276-.797.276-.512 0-.802-.276-.288-.276-.288-.764 0-.487.288-.763.29-.276.802-.276zm1.524 1.257v-1.209h.637v.198l-.002.405-.002.323q0 .239.013.345.012.104.042.152.039.061.1.095.064.034.146.034.198 0 .31-.152.114-.152.114-.423v-.977h.632v1.98h-.632v-.287q-.143.173-.304.256-.16.082-.352.082-.343 0-.523-.21-.179-.211-.179-.612zm4.072-.67q-.083-.039-.166-.057-.081-.019-.164-.019-.244 0-.377.157-.13.156-.13.447v.912h-.633V81.92h.633v.325q.122-.194.279-.283.159-.09.38-.09.032 0 .069.004.037.002.108.01zm1.328-.539h.632l.493 1.368.492-1.368h.634l-.78 1.98h-.694zm4.586.984v.18h-1.48q.023.223.161.335.138.111.386.111.2 0 .408-.058.21-.06.431-.18v.487q-.224.085-.449.127-.224.045-.449.045-.537 0-.836-.273-.297-.274-.297-.767 0-.484.292-.761.293-.278.806-.278.466 0 .746.281.28.281.28.751zm-.65-.21q0-.18-.107-.29-.104-.111-.274-.111-.183 0-.298.104-.115.103-.143.297zm2.597-.235q-.083-.039-.166-.057-.081-.019-.164-.019-.244 0-.377.157-.13.156-.13.447v.912h-.633V81.92h.633v.325q.121-.194.279-.283.159-.09.38-.09.032 0 .069.004.037.002.107.01zm1.865-.478v.482q-.204-.085-.393-.128-.189-.042-.357-.042-.18 0-.268.046-.087.044-.087.138 0 .076.066.116.067.04.238.06l.111.016q.486.062.654.204.168.14.168.443 0 .316-.233.476-.233.159-.696.159-.197 0-.407-.032-.208-.03-.43-.092v-.48q.19.091.388.137.2.046.404.046.186 0 .28-.051.093-.052.093-.152 0-.085-.065-.126-.064-.042-.256-.065l-.112-.014q-.422-.053-.592-.196-.17-.144-.17-.435 0-.315.216-.467.216-.152.661-.152.175 0 .368.027.192.026.419.083zm.609-.061h.633v1.98h-.633zm0-.77h.633v.515h-.633zm2.187 1.175q-.21 0-.322.152-.11.15-.11.434 0 .285.11.437.111.15.322.15.206 0 .316-.15.11-.152.11-.437 0-.284-.11-.434-.11-.152-.316-.152zm0-.453q.51 0 .797.276.288.276.288.763 0 .488-.288.764-.287.276-.797.276-.513 0-.803-.276-.288-.276-.288-.764 0-.487.288-.763.29-.276.803-.276zm3.536.822v1.205h-.636v-.922q0-.256-.013-.354-.01-.097-.039-.143-.037-.062-.1-.095-.064-.036-.145-.036-.198 0-.311.154-.113.152-.113.423v.973h-.633V81.92h.633v.29q.143-.173.304-.255.16-.083.355-.083.343 0 .52.21.178.21.178.612z" style="line-height:0;-inkscape-font-specification:'sans-serif Bold'" font-weight="700" font-size="1.2" font-family="sans-serif" letter-spacing="0" word-spacing="0" fill="#fff"/>
    <path d="M1.592 26.34h186.727v6.553H1.592z" fill="#3c7aeb"/>
    <path d="M2.042 78.11V26.34" fill="none" stroke="#3c7aeb" stroke-width="1.285"/>
    <path d="M3.164 28.617h.633v1.98h-.633zm0-.77h.633v.516h-.633zm3.234 1.544v1.206h-.636v-.923q0-.256-.013-.353-.01-.098-.038-.144-.038-.061-.101-.095-.064-.035-.145-.035-.198 0-.311.153-.113.152-.113.423v.974h-.633v-1.98h.633v.29q.143-.173.304-.254.16-.083.355-.083.343 0 .52.21.178.21.178.611zm3.209-.116q0-.495-.093-.697-.092-.203-.311-.203-.22 0-.313.203-.094.202-.094.697 0 .5.094.705.094.205.313.205.217 0 .31-.205.094-.205.094-.705zm.68.005q0 .656-.282 1.013-.283.355-.802.355-.522 0-.804-.355-.283-.357-.283-1.013 0-.657.283-1.013.282-.357.804-.357.52 0 .802.357.283.356.283 1.013zm.577-.663h.638v.684h-.638zm0 1.296h.638v.684h-.638zm2.709-.638q0-.495-.093-.697-.092-.203-.311-.203-.22 0-.313.203-.094.202-.094.697 0 .5.094.705.093.205.313.205.217 0 .31-.205.094-.205.094-.705zm.68.005q0 .656-.282 1.013-.283.355-.802.355-.522 0-.805-.355-.282-.357-.282-1.013 0-.657.282-1.013.283-.357.805-.357.52 0 .802.357.283.356.283 1.013zm.577-.663h.638v.684h-.638zm0 1.296h.638v.684h-.638zm2.709-.638q0-.495-.094-.697-.092-.203-.31-.203-.22 0-.313.203-.094.202-.094.697 0 .5.094.705.093.205.312.205.218 0 .311-.205.094-.205.094-.705zm.68.005q0 .656-.282 1.013-.283.355-.803.355-.521 0-.804-.355-.283-.357-.283-1.013 0-.657.283-1.013.283-.357.804-.357.52 0 .803.357.282.356.282 1.013zm.577-.663h.638v.684h-.638zm0 1.296h.638v.684h-.638zm2.709-.638q0-.495-.094-.697-.092-.203-.31-.203-.22 0-.314.203-.093.202-.093.697 0 .5.093.705.094.205.313.205.218 0 .311-.205.094-.205.094-.705zm.68.005q0 .656-.283 1.013-.282.355-.802.355-.521 0-.804-.355-.283-.357-.283-1.013 0-.657.283-1.013.283-.357.804-.357.52 0 .802.357.283.356.283 1.013zm.576-.663h.638v.684h-.638zm0 1.296h.638v.684h-.638zm2.709-.638q0-.495-.093-.697-.092-.203-.311-.203-.22 0-.313.203-.094.202-.094.697 0 .5.094.705.094.205.313.205.217 0 .311-.205t.094-.705zm.681.005q0 .656-.283 1.013-.282.355-.802.355-.521 0-.804-.355-.283-.357-.283-1.013 0-.657.283-1.013.283-.357.804-.357.52 0 .802.357.283.356.283 1.013zm.576-.663h.638v.684h-.638zm0 1.296h.638v.684h-.638zm2.709-.638q0-.495-.093-.697-.092-.203-.311-.203-.22 0-.313.203-.094.202-.094.697 0 .5.094.705.094.205.313.205.217 0 .31-.205.094-.205.094-.705zm.68.005q0 .656-.282 1.013-.283.355-.802.355-.522 0-.804-.355-.283-.357-.283-1.013 0-.657.283-1.013.282-.357.804-.357.52 0 .802.357.283.356.283 1.013zm.577-.663h.638v.684h-.638zm0 1.296h.638v.684h-.638zm2.709-.638q0-.495-.093-.697-.092-.203-.311-.203-.22 0-.313.203-.094.202-.094.697 0 .5.094.705.093.205.313.205.217 0 .31-.205.094-.205.094-.705zm.68.005q0 .656-.282 1.013-.283.355-.802.355-.522 0-.805-.355-.282-.357-.282-1.013 0-.657.282-1.013.283-.357.805-.357.52 0 .802.357.283.356.283 1.013zm.577-.663h.638v.684h-.638zm0 1.296h.638v.684h-.638zm1.468.214h.601V28.42l-.616.127v-.463l.613-.127h.647v2.169h.6v.47h-1.845zm2.856-2.169v.98h-.418v-.98zm2.197.722v.48q-.203-.085-.392-.127-.19-.043-.357-.043-.18 0-.269.046-.086.044-.086.138 0 .076.065.117.067.04.239.06l.11.016q.487.061.655.203.168.141.168.443 0 .317-.234.476-.233.159-.696.159-.196 0-.406-.032-.209-.03-.43-.092v-.48q.19.091.387.137.2.046.405.046.185 0 .28-.051.093-.051.093-.152 0-.085-.066-.125-.063-.043-.256-.066l-.111-.014q-.423-.053-.592-.196-.17-.143-.17-.435 0-.315.216-.467.215-.151.66-.151.176 0 .368.026.193.027.42.083zm1.619-.063h.633l.493 1.368.491-1.368h.634l-.779 1.98h-.694zm4.586.985v.18h-1.48q.024.223.162.334.138.111.385.111.2 0 .408-.058.21-.06.431-.18v.487q-.224.085-.448.128-.225.044-.45.044-.537 0-.835-.272-.297-.274-.297-.767 0-.485.291-.762.294-.277.806-.277.467 0 .746.28.281.282.281.752zm-.65-.21q0-.18-.106-.29-.105-.112-.274-.112-.184 0-.299.104-.115.103-.143.297zm2.598-.236q-.083-.039-.167-.056-.08-.02-.164-.02-.244 0-.376.158-.131.155-.131.447v.912h-.633v-1.98h.633v.325q.122-.194.28-.282.158-.09.38-.09.031 0 .068.003.037.002.108.01zm1.864-.476v.48q-.203-.085-.392-.127-.19-.043-.357-.043-.18 0-.269.046-.086.044-.086.138 0 .076.065.117.067.04.239.06l.11.016q.487.061.655.203.168.141.168.443 0 .317-.234.476-.233.159-.696.159-.196 0-.406-.032-.209-.03-.43-.092v-.48q.19.091.387.137.2.046.405.046.185 0 .28-.051.093-.051.093-.152 0-.085-.066-.125-.063-.043-.256-.066l-.111-.014q-.423-.053-.592-.196-.17-.143-.17-.435 0-.315.216-.467.215-.151.66-.151.176 0 .368.026.193.027.42.083zm.61-.063h.633v1.98h-.633zm0-.77h.633v.516h-.633zm2.186 1.175q-.21 0-.322.152-.11.15-.11.435 0 .284.11.436.112.15.322.15.207 0 .316-.15.11-.152.11-.436 0-.285-.11-.435-.11-.152-.316-.152zm0-.452q.51 0 .797.275.288.276.288.764 0 .487-.288.763-.286.276-.797.276-.513 0-.802-.276-.288-.276-.288-.763 0-.488.288-.764.29-.275.802-.275zm3.537.821v1.206h-.637v-.923q0-.256-.012-.353-.01-.098-.04-.144-.036-.061-.1-.095-.063-.035-.145-.035-.198 0-.31.153-.114.152-.114.423v.974h-.633v-1.98h.633v.29q.143-.173.304-.254.16-.083.355-.083.343 0 .52.21.178.21.178.611z" style="line-height:0;-inkscape-font-specification:'sans-serif Bold'" font-weight="700" font-size="1.2" font-family="sans-serif" letter-spacing="0" word-spacing="0" fill="#fff"/>
    <path d="M4.98 92.61h29.44v-3.089H4.98zm38.618 5.618h80.003v-3.09H43.598zM5.104 114.57H91.86v-3.089H5.104zm49.78 23.15h49.25v-3.09h-49.25zM4.841 149.119h80.003v-3.09H4.84z" fill="#d8d8d8"/>
    <path d="M39.35 93.668h46.816v-5.765H39.35z" fill="#ead97f"/>
    <path d="M4.98 108.959h18.765v-3.09H4.98zm91.35 17.011h19.675v-3.09H96.33zm39.93 0h19.675v-3.09H136.26zm-47.618 23.149h19.675v-3.09H88.642zM4.98 137.72h16.285v-3.09H4.979zm14.963-39.634h19.675v-3.09H19.943zm85.067 10.873h19.676v-3.09H105.01zm23.32 40.16h19.676v-3.09h-19.675zM4.98 98.086h12.069v-3.09H4.979zm60.183 5.437h12.07v-3.09h-12.07zm35.218 0h12.07v-3.09h-12.07zm32.241 0h12.07v-3.09h-12.07zm-25.545 34.197h12.07v-3.09h-12.07zm4.713 11.399h12.07v-3.09h-12.07zm10.168-11.399h12.07v-3.09h-12.07zm-67.708 5.612h12.07v-3.09H54.25zm65.476-17.362h12.07v-3.09h-12.07zM4.98 120.183h12.069v-3.09H4.979zm32.902 23.149h12.07v-3.09h-12.07zm-17.598-23.149h54.954v-3.09H20.284zm74.652-5.613h54.705v-3.089H94.936zm-25.297 28.762h53.217v-3.09H69.639zm55.802 0h32.385v-3.09H125.44zm-17.857-23.149h38.337v-3.09h-38.337zm18.601-22.097h22.216v-3.09h-22.216zm-9.859 5.437h10.808v-3.09h-10.808zm-35.279 0h15.024v-3.09H81.047zm-76.067 0h55.945v-3.09H4.979zm58.8 5.436h36.601v-3.09h-36.6zm-36.303 0h31.888v-3.09H27.477zm53.57 11.224h20.728v-3.09H81.047zM4.98 125.97h28.663v-3.09H4.98zm31.685 0H91.37v-3.09H36.665zM4.98 143.332h30.328v-3.09H4.979zm146.793-45.175h36.6v-3.09h-36.6zm1.068 16.393h16.499v-3.09h-16.5zM24.275 137.664h26.608v-3.09H24.275zm127.203 11.421h26.608v-3.09h-26.608zM4.904 40.002h29.44v-3.09H4.904zm38.619 5.618h80.002v-3.09H43.523zM5.029 61.963h86.754v-3.09H5.03z" fill="#d8d8d8"/>
    <path d="M38.326 41.096h49.16v-5.765h-49.16z" fill="#a3c9d2"/>
    <path d="M4.904 56.35H23.67v-3.089H4.904zm91.351 17.012h19.675v-3.09H96.255zm39.93 0h19.675v-3.09h-19.675zM19.867 45.478h19.675v-3.09H19.867zm85.068 10.872h19.675v-3.089h-19.675zM4.904 45.478h12.07v-3.09H4.903zm60.184 5.436h12.07v-3.09h-12.07zm35.218 0h12.07v-3.09h-12.07zm32.241 0h12.07v-3.09h-12.07zM119.65 73.362h12.07v-3.09h-12.07zM4.904 67.575h12.07v-3.09H4.903zm15.305 0h54.953v-3.09H20.21zm74.651-5.612h54.706v-3.09H94.86zm12.649 5.612h38.337v-3.09h-38.337zm18.601-22.097h22.216v-3.09H126.11zm-9.86 5.436h10.808v-3.09h-10.807zm-35.278 0h15.023v-3.09H80.972zm-76.068 0h55.945v-3.09H4.904zm58.801 5.436h36.6v-3.089h-36.6zm-36.304 0H59.29v-3.089H27.4zm53.571 11.225H101.7v-3.09H80.972zM4.904 73.362h28.664v-3.09H4.904zm31.686 0h54.705v-3.09H36.589zm115.108-27.813h36.6v-3.09h-36.6zm1.068 16.393h16.498v-3.09h-16.498zM90.801 92.503h36.6v-3.09h-36.6zm39.452 0h19.675v-3.09h-19.675zM90.988 39.8h36.6v-3.089h-36.6zm39.452 0h19.675v-3.089H130.44zM4.79 11.353h80.003V8.264H4.79zm83.8 0h19.676V8.264H88.59zm39.69 0h19.675V8.264H128.28zm-16.542 0h12.07V8.264h-12.07zM54.2 5.566h12.07v-3.09H54.2zm-16.37 0H49.9v-3.09H37.83zm31.758 0h53.217v-3.09H69.588zm55.802 0h32.384v-3.09H125.39zm-120.462 0h30.329v-3.09H4.928zm146.499 5.754h26.608V8.23h-26.608z" fill="#d8d8d8"/>
    <path d="M192.03 35.279l-.028 18.19 5.334.001.029-18.19zm4.361-31.901l-3.175-.005 1.594-1.804zm-.178 145.78l-3.175.005 1.594 1.803z" fill="silver"/>
</svg>
