<?xml version="1.0" encoding="UTF-8" standalone="no"?>
<svg xmlns="http://www.w3.org/2000/svg" width="703.356" height="269.108" viewBox="0 0 186.09622 71.201599" id="svg6376">
    <g id="layer1" transform="translate(-11.963 -13.18)">
        <g id="g9599" transform="matrix(.87811 0 0 .87811 11.963 -6.352)">
            <path d="M104.507 56.122H0v47.206h104.507z" id="rect4663-32-8-8" fill="#fdfcfd" stroke-width="1.409" stroke-linecap="round" stroke-linejoin="round"/>
            <g transform="matrix(2.00943 0 0 2.00943 185.448 31.647)" style="line-height:1.25" id="flowRoot4530-4-1" font-weight="400" font-size="1.6" font-family="sans-serif" letter-spacing="0" word-spacing="0">
                <path d="M-.018 8.55v-.53h.143v.524q0 .124.049.186.048.062.145.062.117 0 .184-.074.068-.074.068-.202V8.02h.143v.875H.571V8.76q-.053.08-.122.119-.069.038-.16.038-.151 0-.23-.094-.077-.093-.077-.274zm.361-.552z" style="line-height:0" id="path10694"/>
                <path d="M1.74 8.366v.529h-.144V8.37q0-.124-.049-.186-.048-.062-.145-.062-.116 0-.184.075-.067.074-.067.202v.495h-.144V8.02h.144v.135q.052-.078.121-.117.07-.04.162-.04.15 0 .228.094.077.093.077.274z" style="line-height:0" id="path10696"/>
                <path d="M2.657 8.053v.134q-.06-.033-.122-.05-.061-.017-.124-.017-.14 0-.217.09-.077.088-.077.248t.077.249q.077.088.217.088.063 0 .124-.016.061-.017.122-.05v.132q-.06.028-.125.042-.064.014-.136.014-.198 0-.314-.124-.117-.124-.117-.335 0-.214.117-.337.118-.123.323-.123.066 0 .13.014.063.014.122.041z" style="line-height:0" id="path10698"/>
                <path d="M3.636 8.366v.529h-.143V8.37q0-.124-.049-.186-.048-.062-.145-.062-.117 0-.184.075-.067.074-.067.202v.495h-.144V7.679h.144v.476q.052-.078.121-.117.07-.04.162-.04.15 0 .228.094.077.093.077.274z" style="line-height:0" id="path10700"/>
                <path d="M4.322 8.455q-.174 0-.241.04t-.067.135q0 .077.05.122t.137.045q.12 0 .192-.085.072-.085.072-.225v-.032zm.287-.06v.5h-.144v-.133q-.049.08-.122.118-.074.037-.18.037-.134 0-.214-.075-.08-.076-.08-.202 0-.148.1-.223.099-.075.295-.075h.201v-.014q0-.1-.065-.153-.065-.055-.183-.055-.075 0-.146.018t-.137.054V8.06q.079-.03.153-.045.074-.016.145-.016.19 0 .283.099.094.098.094.298z" style="line-height:0" id="path10702"/>
                <path d="M5.633 8.366v.529H5.49V8.37q0-.124-.048-.186t-.145-.062q-.117 0-.184.075-.067.074-.067.202v.495H4.9V8.02h.145v.135q.051-.078.121-.117.07-.04.162-.04.15 0 .228.094.077.093.077.274z" style="line-height:0" id="path10704"/>
                <path d="M6.497 8.447q0-.156-.065-.242-.064-.086-.18-.086-.116 0-.18.086-.065.086-.065.242 0 .155.064.241.065.086.181.086.116 0 .18-.086.065-.086.065-.241zm.144.339q0 .223-.1.332-.098.11-.303.11-.076 0-.143-.012-.067-.011-.13-.035v-.14q.063.035.124.051.062.017.126.017.142 0 .212-.075.07-.073.07-.222V8.74q-.044.077-.114.115-.07.039-.166.039-.161 0-.26-.123-.098-.123-.098-.325 0-.203.098-.326.099-.123.26-.123.097 0 .166.039.07.038.114.115V8.02h.144z" style="line-height:0" id="path10706"/>
                <path d="M7.686 8.421v.07h-.661q.009.149.089.227.08.077.223.077.083 0 .16-.02.078-.02.155-.06v.135q-.077.033-.159.05-.08.017-.164.017-.21 0-.333-.122-.121-.122-.121-.33 0-.214.115-.34.117-.127.314-.127.176 0 .278.115.104.113.104.308zm-.144-.042q-.002-.118-.067-.188-.064-.07-.17-.07-.12 0-.193.067-.072.068-.083.192z" style="line-height:0" id="path10708"/>
                <path d="M8.497 8.152V7.68h.144v1.216h-.144v-.132q-.045.078-.115.117-.068.037-.165.037-.159 0-.259-.126-.099-.127-.099-.333 0-.206.1-.333.1-.127.258-.127.097 0 .165.039.07.037.115.115zm-.49.306q0 .158.065.249.066.09.18.09.114 0 .18-.09.065-.09.065-.25 0-.158-.065-.248-.066-.09-.18-.09-.114 0-.18.09-.065.09-.065.249z" style="line-height:0" id="path10710"/>
                <path d="M9.589 7.771v.249h.296v.111h-.296v.475q0 .107.029.138.03.03.12.03h.147v.12h-.148q-.166 0-.23-.061-.063-.063-.063-.227v-.475H9.34V8.02h.105V7.77z" style="line-height:0" id="path10712"/>
                <path d="M10.823 8.421v.07h-.66q.009.149.088.227.08.077.224.077.082 0 .16-.02t.154-.06v.135q-.077.033-.158.05t-.165.017q-.21 0-.332-.122-.122-.122-.122-.33 0-.214.116-.34.116-.127.313-.127.177 0 .279.115.103.113.103.308zm-.144-.042q-.001-.118-.066-.188-.064-.07-.17-.07-.12 0-.193.067-.072.068-.083.192z" style="line-height:0" id="path10714"/>
                <path d="M11.758 8.02l-.316.425.333.45h-.17l-.255-.344-.254.344h-.17l.34-.458-.31-.417h.169l.232.311.232-.311z" style="line-height:0" id="path10716"/>
                <path d="M12.12 7.771v.249h.296v.111h-.296v.475q0 .107.029.138.03.03.12.03h.147v.12h-.148q-.166 0-.23-.061-.063-.063-.063-.227v-.475h-.105V8.02h.105V7.77z" style="line-height:0" id="path10718"/>
            </g>
            <path d="M167.96 48.117a2.494 2.494 0 0 0 2.495 2.493 2.494 2.494 0 0 0 2.494-2.493 2.494 2.494 0 0 0-2.494-2.494 2.494 2.494 0 0 0-2.494 2.494z" id="path4586-9-1" fill="#3261ff" stroke-width=".584" stroke-linecap="round" stroke-linejoin="round"/>
            <path d="M168.95 48.115a1.512 1.512 0 0 0 1.513 1.511 1.512 1.512 0 0 0 1.511-1.511 1.512 1.512 0 0 0-1.511-1.512 1.512 1.512 0 0 0-1.512 1.512z" id="path4586-6" fill="#fff" stroke-width=".354" stroke-linecap="round" stroke-linejoin="round"/>
            <path d="M134.246 48.062a2.319 2.319 0 0 0 2.319 2.319 2.319 2.319 0 0 0 2.319-2.319 2.319 2.319 0 0 0-2.319-2.319 2.319 2.319 0 0 0-2.319 2.319z" id="path4586-6-0-0" fill="#fff" stroke="#373635" stroke-width=".35" stroke-linecap="round" stroke-linejoin="round"/>
            <g transform="matrix(2.00943 0 0 2.00943 157.914 31.513)" style="line-height:1.25" id="flowRoot4530-4-6" font-weight="400" font-size="1.6" font-family="sans-serif" letter-spacing="0" word-spacing="0">
                <path d="M.554 8.045v.136q-.06-.031-.126-.047Q.362 8.12.292 8.12q-.107 0-.161.033-.053.032-.053.098 0 .05.038.079.038.028.154.054l.05.01q.152.034.216.094.065.06.065.166 0 .122-.097.193-.096.071-.265.071-.07 0-.146-.014-.076-.013-.16-.04v-.149q.08.041.156.063.078.02.154.02.101 0 .156-.035.055-.035.055-.098 0-.059-.04-.09t-.173-.06l-.05-.012q-.134-.028-.193-.086-.06-.058-.06-.16 0-.123.088-.19.088-.068.249-.068.08 0 .15.012.07.012.13.035z" style="line-height:0" id="path10730"/>
                <path d="M1.558 8.366v.529h-.144V8.37q0-.124-.048-.186t-.145-.062q-.117 0-.184.075Q.97 8.272.97 8.4v.495H.825V7.679H.97v.476q.051-.078.121-.117.07-.04.162-.04.15 0 .228.094.077.093.077.274z" style="line-height:0" id="path10732"/>
                <path d="M2.186 8.12q-.116 0-.183.09-.067.09-.067.248 0 .157.066.247.067.09.184.09.114 0 .182-.09.067-.09.067-.247 0-.156-.067-.246-.068-.092-.182-.092zm0-.122q.187 0 .294.122.107.122.107.338 0 .215-.107.337-.107.122-.294.122-.189 0-.296-.122-.106-.122-.106-.337 0-.216.106-.338.107-.122.296-.122z" style="line-height:0" id="path10734"/>
                <path d="M2.741 8.02h.144l.18.682.178-.682h.17l.18.682.178-.682h.144l-.229.875h-.17l-.187-.718-.19.718h-.17z" style="line-height:0" id="path10736"/>
            </g>
            <g transform="matrix(2.00943 0 0 2.00943 125.902 31.442)" style="line-height:1.25" id="flowRoot4530-4-6-3" font-weight="400" font-size="1.6" font-family="sans-serif" letter-spacing="0" word-spacing="0">
                <path d="M.724 8.366v.529H.58V8.37q0-.124-.048-.186-.049-.062-.146-.062-.116 0-.183.075-.067.074-.067.202v.495H-.01V7.679h.145v.476q.051-.078.12-.117.071-.04.162-.04.151 0 .228.094.078.093.078.274z" style="line-height:0" id="path10739"/>
                <path d="M1.012 8.02h.144v.875h-.144zm0-.341h.144v.182h-.144z" style="line-height:0" id="path10741"/>
                <path d="M2.032 8.152V7.68h.143v1.216h-.143v-.132q-.046.078-.115.117-.069.037-.166.037-.158 0-.258-.126-.1-.127-.1-.333 0-.206.1-.333.1-.127.258-.127.097 0 .166.039.07.037.115.115zm-.49.306q0 .158.065.249.065.09.18.09.113 0 .179-.09.066-.09.066-.25 0-.158-.066-.248t-.18-.09q-.114 0-.18.09-.064.09-.064.249z" style="line-height:0" id="path10743"/>
                <path d="M3.22 8.421v.07h-.661q.01.149.089.227.08.077.223.077.083 0 .16-.02.079-.02.155-.06v.135q-.077.033-.158.05-.082.017-.165.017-.21 0-.332-.122-.122-.122-.122-.33 0-.214.116-.34.116-.127.313-.127.176 0 .279.115.103.113.103.308zm-.144-.042q-.001-.118-.066-.188-.064-.07-.17-.07-.12 0-.194.067-.071.068-.082.192z" style="line-height:0" id="path10745"/>
            </g>
            <path d="M211.927 56.027H107.42v47.206h104.507z" id="rect4663-32-8" fill="#f1f1f1" stroke-width="1.409" stroke-linecap="round" stroke-linejoin="round"/>
            <path d="M210.836 56.137h-98.668v4.365h98.668z" id="rect4851" fill="#3261ff" stroke="#3261ff" stroke-width=".228" stroke-linecap="round" stroke-linejoin="round"/>
            <path id="path4853" d="M210.536 83.303V56.137" fill="#3261ff" stroke="#3261ff" stroke-width=".759"/>
            <path d="M208.687 64.407h-50.129v-1.922h50.129z" id="rect4209-3-0-4-5-5-6-5" fill="#d8d8d8" stroke-width=".379" stroke-linecap="round"/>
            <path d="M184.651 67.903H134.86v-1.922h49.791z" id="rect4209-3-0-4-5-5-6-5-1" fill="#d8d8d8" stroke-width=".377" stroke-linecap="round"/>
            <path d="M208.609 78.075h-53.994v-1.923h53.994z" id="rect4209-3-0-4-5-5-6-5-8" fill="#d8d8d8" stroke-width=".393" stroke-linecap="round"/>
            <path d="M196.766 92.482h-49.791V90.56h49.791z" id="rect4209-3-0-4-5-5-6-5-4" fill="#d8d8d8" stroke-width=".377" stroke-linecap="round"/>
            <path d="M208.772 99.577h-49.791v-1.923h49.791z" id="rect4209-3-0-4-5-5-6-5-15" fill="#d8d8d8" stroke-width=".377" stroke-linecap="round"/>
            <path d="M156.655 65.066h-13.467v-3.589h13.467z" id="rect4209-3-0-4-5-5-6-5-1-9" fill="#ead97f" stroke-width=".268" stroke-linecap="round"/>
            <path d="M208.687 74.582h-11.68V72.66h11.68z" id="rect4209-3-0-4-5-5-6-5-1-9-8" fill="#d8d8d8" stroke-width=".183" stroke-linecap="round"/>
            <path d="M151.832 85.17h-12.245v-1.923h12.245z" id="rect4209-3-0-4-5-5-6-5-1-9-0" fill="#d8d8d8" stroke-width=".187" stroke-linecap="round"/>
            <path d="M126.98 85.17h-12.244v-1.923h12.245z" id="rect4209-3-0-4-5-5-6-5-1-9-1" fill="#d8d8d8" stroke-width=".187" stroke-linecap="round"/>
            <path d="M156.617 99.577h-12.245v-1.923h12.245z" id="rect4209-3-0-4-5-5-6-5-1-9-17" fill="#d8d8d8" stroke-width=".187" stroke-linecap="round"/>
            <path d="M208.687 92.482H198.55V90.56h10.136z" id="rect4209-3-0-4-5-5-6-5-1-9-4" fill="#d8d8d8" stroke-width=".17" stroke-linecap="round"/>
            <path d="M199.374 67.815h-12.246v-1.923h12.246z" id="rect4209-3-0-4-5-5-6-5-1-9-3" fill="#d8d8d8" stroke-width=".187" stroke-linecap="round"/>
            <path d="M143.188 65.066h-16.013v-3.589h16.013z" id="rect4209-3-0-4-5-5-6-5-1-9-40" fill="#ead97f" stroke-width=".292" stroke-linecap="round"/>
            <path d="M146.43 74.582h-12.246V72.66h12.246z" id="rect4209-3-0-4-5-5-6-5-1-9-5" fill="#d8d8d8" stroke-width=".187" stroke-linecap="round"/>
            <path d="M131.916 99.577H119.67v-1.923h12.246z" id="rect4209-3-0-4-5-5-6-5-1-9-2" fill="#d8d8d8" stroke-width=".187" stroke-linecap="round"/>
            <path d="M208.687 67.815h-7.512v-1.923h7.512z" id="rect4209-3-0-4-5-5-6-5-1-9-2-5" fill="#d8d8d8" stroke-width=".147" stroke-linecap="round"/>
            <path d="M171.23 71.199h-7.512v-1.923h7.512z" id="rect4209-3-0-4-5-5-6-5-1-9-2-5-8" fill="#d8d8d8" stroke-width=".147" stroke-linecap="round"/>
            <path d="M149.311 71.199h-7.512v-1.923h7.512z" id="rect4209-3-0-4-5-5-6-5-1-9-2-5-6" fill="#d8d8d8" stroke-width=".147" stroke-linecap="round"/>
            <path d="M129.245 71.199h-7.512v-1.923h7.512z" id="rect4209-3-0-4-5-5-6-5-1-9-2-5-3" fill="#d8d8d8" stroke-width=".147" stroke-linecap="round"/>
            <path d="M145.143 92.482h-7.511V90.56h7.511z" id="rect4209-3-0-4-5-5-6-5-1-9-2-5-1" fill="#d8d8d8" stroke-width=".147" stroke-linecap="round"/>
            <path d="M142.21 99.577H134.7v-1.923h7.512z" id="rect4209-3-0-4-5-5-6-5-1-9-2-5-67" fill="#d8d8d8" stroke-width=".147" stroke-linecap="round"/>
            <path d="M135.882 92.482h-7.512V90.56h7.512z" id="rect4209-3-0-4-5-5-6-5-1-9-2-5-84" fill="#d8d8d8" stroke-width=".147" stroke-linecap="round"/>
            <path d="M178.021 95.975h-7.512v-1.923h7.512z" id="rect4209-3-0-4-5-5-6-5-1-9-2-5-63" fill="#d8d8d8" stroke-width=".147" stroke-linecap="round"/>
            <path d="M137.271 85.17h-7.512v-1.923h7.512z" id="rect4209-3-0-4-5-5-6-5-1-9-2-5-7" fill="#d8d8d8" stroke-width=".147" stroke-linecap="round"/>
            <path d="M208.687 81.568h-7.512v-1.923h7.512z" id="rect4209-3-0-4-5-5-6-5-1-9-2-5-0" fill="#d8d8d8" stroke-width=".147" stroke-linecap="round"/>
            <path d="M188.209 95.975h-7.512v-1.923h7.512z" id="rect4209-3-0-4-5-5-6-5-1-9-2-5-4" fill="#d8d8d8" stroke-width=".147" stroke-linecap="round"/>
            <path d="M199.161 81.568H164.96v-1.923h34.202z" id="rect4209-3-0-4-5-5-6-5-4-1" fill="#d8d8d8" stroke-width=".313" stroke-linecap="round"/>
            <path d="M152.7 78.075h-34.047v-1.923H152.7z" id="rect4209-3-0-4-5-5-6-5-4-2" fill="#d8d8d8" stroke-width=".312" stroke-linecap="round"/>
            <path d="M168.444 95.975h-33.12v-1.923h33.12z" id="rect4209-3-0-4-5-5-6-5-4-0" fill="#d8d8d8" stroke-width=".308" stroke-linecap="round"/>
            <path d="M133.714 95.975H113.56v-1.923h20.155z" id="rect4209-3-0-4-5-5-6-5-4-6" fill="#d8d8d8" stroke-width=".24" stroke-linecap="round"/>
            <path d="M144.828 81.568h-23.86v-1.923h23.86z" id="rect4209-3-0-4-5-5-6-5-4-24" fill="#d8d8d8" stroke-width=".261" stroke-linecap="round"/>
            <path d="M133.251 67.815h-13.826v-1.923h13.826z" id="rect4209-3-0-4-5-5-6-5-4-9" fill="#d8d8d8" stroke-width=".199" stroke-linecap="round"/>
            <path d="M139.387 71.199h-6.726v-1.923h6.726z" id="rect4209-3-0-4-5-5-6-5-4-18" fill="#d8d8d8" stroke-width=".139" stroke-linecap="round"/>
            <path d="M161.344 71.199h-9.35v-1.923h9.35z" id="rect4209-3-0-4-5-5-6-5-4-5" fill="#d8d8d8" stroke-width=".163" stroke-linecap="round"/>
            <path d="M208.687 71.199h-34.82v-1.923h34.82z" id="rect4209-3-0-4-5-5-6-5-4-51" fill="#d8d8d8" stroke-width=".315" stroke-linecap="round"/>
            <path d="M172.09 74.582h-22.779V72.66h22.78z" id="rect4209-3-0-4-5-5-6-5-4-98" fill="#d8d8d8" stroke-width=".255" stroke-linecap="round"/>
            <path d="M194.685 74.582h-19.847V72.66h19.847z" id="rect4209-3-0-4-5-5-6-5-4-90" fill="#d8d8d8" stroke-width=".238" stroke-linecap="round"/>
            <path d="M161.344 81.568h-12.9v-1.923h12.9z" id="rect4209-3-0-4-5-5-6-5-4-988" fill="#d8d8d8" stroke-width=".192" stroke-linecap="round"/>
            <path d="M208.687 85.17h-17.84v-1.923h17.84z" id="rect4209-3-0-4-5-5-6-5-4-63" fill="#d8d8d8" stroke-width=".226" stroke-linecap="round"/>
            <path d="M188.966 85.17H154.92v-1.923h34.047z" id="rect4209-3-0-4-5-5-6-5-4-8" fill="#d8d8d8" stroke-width=".312" stroke-linecap="round"/>
            <path d="M208.687 95.975H189.81v-1.923h18.876z" id="rect4209-3-0-4-5-5-6-5-4-19" fill="#d8d8d8" stroke-width=".232" stroke-linecap="round"/>
            <path d="M80.44 31.034H30.648v-2.64H80.44z" id="rect4209-3-0-4-5-5-6-5-1-4" fill="#d8d8d8" stroke-width=".442" stroke-linecap="round"/>
            <path d="M104.475 40.209h-11.68v-2.641h11.68z" id="rect4209-3-0-4-5-5-6-5-1-9-8-9" fill="#d8d8d8" stroke-width=".214" stroke-linecap="round"/>
            <path d="M95.162 30.913H82.917v-2.641h12.245z" id="rect4209-3-0-4-5-5-6-5-1-9-3-4" fill="#d8d8d8" stroke-width=".219" stroke-linecap="round"/>
            <path d="M104.475 30.913h-7.512v-2.641h7.512z" id="rect4209-3-0-4-5-5-6-5-1-9-2-5-30" fill="#d8d8d8" stroke-width=".172" stroke-linecap="round"/>
            <path d="M67.018 35.561h-7.512V32.92h7.512z" id="rect4209-3-0-4-5-5-6-5-1-9-2-5-8-9" fill="#d8d8d8" stroke-width=".172" stroke-linecap="round"/>
            <path d="M45.1 35.561h-7.512V32.92H45.1z" id="rect4209-3-0-4-5-5-6-5-1-9-2-5-6-9" fill="#d8d8d8" stroke-width=".172" stroke-linecap="round"/>
            <path d="M25.033 35.561h-7.511V32.92h7.511z" id="rect4209-3-0-4-5-5-6-5-1-9-2-5-3-1" fill="#d8d8d8" stroke-width=".172" stroke-linecap="round"/>
            <path d="M29.04 30.913H15.213v-2.641H29.04z" id="rect4209-3-0-4-5-5-6-5-4-9-9" fill="#d8d8d8" stroke-width=".233" stroke-linecap="round"/>
            <path d="M35.176 35.561h-6.727V32.92h6.727z" id="rect4209-3-0-4-5-5-6-5-4-18-6" fill="#d8d8d8" stroke-width=".163" stroke-linecap="round"/>
            <path d="M57.133 35.561h-9.35V32.92h9.35z" id="rect4209-3-0-4-5-5-6-5-4-5-3" fill="#d8d8d8" stroke-width=".192" stroke-linecap="round"/>
            <path d="M104.475 35.561H69.656V32.92h34.82z" id="rect4209-3-0-4-5-5-6-5-4-51-4" fill="#d8d8d8" stroke-width=".37" stroke-linecap="round"/>
            <path d="M67.879 40.209h-22.78v-2.641h22.78z" id="rect4209-3-0-4-5-5-6-5-4-98-4" fill="#d8d8d8" stroke-width=".299" stroke-linecap="round"/>
            <path d="M90.473 40.209H70.627v-2.641h19.846z" id="rect4209-3-0-4-5-5-6-5-4-90-7" fill="#d8d8d8" stroke-width=".279" stroke-linecap="round"/>
            <path d="M89.514 64.407H52.737v-1.922h36.777z" id="rect4209-3-0-4-5-5-6-5-3" fill="#d8d8d8" stroke-width=".324" stroke-linecap="round"/>
            <path d="M59.922 67.903H29.039v-1.922h30.883z" id="rect4209-3-0-4-5-5-6-5-1-8" fill="#d8d8d8" stroke-width=".297" stroke-linecap="round"/>
            <path d="M102.788 78.075H78.431v-1.923h24.357z" id="rect4209-3-0-4-5-5-6-5-8-6" fill="#d8d8d8" stroke-width=".264" stroke-linecap="round"/>
            <path d="M90.946 92.482H41.154V90.56h49.792z" id="rect4209-3-0-4-5-5-6-5-4-68" fill="#d8d8d8" stroke-width=".377" stroke-linecap="round"/>
            <path d="M64.517 99.577h-13.72v-1.923h13.72z" id="rect4209-3-0-4-5-5-6-5-15-2" fill="#d8d8d8" stroke-width=".198" stroke-linecap="round"/>
            <path d="M102.866 74.582h-11.68V72.66h11.68z" id="rect4209-3-0-4-5-5-6-5-1-9-8-5" fill="#d8d8d8" stroke-width=".183" stroke-linecap="round"/>
            <path d="M44.93 85.17H30.37v-1.923h14.56z" id="rect4209-3-0-4-5-5-6-5-1-9-0-8" fill="#d8d8d8" stroke-width=".204" stroke-linecap="round"/>
            <path d="M23.939 85.17H8.915v-1.923h15.024z" id="rect4209-3-0-4-5-5-6-5-1-9-1-8" fill="#d8d8d8" stroke-width=".207" stroke-linecap="round"/>
            <path d="M50.796 99.577H38.551v-1.923h12.245z" id="rect4209-3-0-4-5-5-6-5-1-9-17-4" fill="#d8d8d8" stroke-width=".187" stroke-linecap="round"/>
            <path d="M102.866 92.482H92.73V90.56h10.136z" id="rect4209-3-0-4-5-5-6-5-1-9-4-6" fill="#d8d8d8" stroke-width=".17" stroke-linecap="round"/>
            <path d="M95.354 67.815H81.308v-1.923h14.046z" id="rect4209-3-0-4-5-5-6-5-1-9-3-1" fill="#d8d8d8" stroke-width=".2" stroke-linecap="round"/>
            <path d="M40.609 74.582H28.364V72.66h12.245z" id="rect4209-3-0-4-5-5-6-5-1-9-5-1" fill="#d8d8d8" stroke-width=".187" stroke-linecap="round"/>
            <path d="M26.095 99.577H13.85v-1.923h12.245z" id="rect4209-3-0-4-5-5-6-5-1-9-2-57" fill="#d8d8d8" stroke-width=".187" stroke-linecap="round"/>
            <path d="M102.866 67.815h-7.512v-1.923h7.512z" id="rect4209-3-0-4-5-5-6-5-1-9-2-5-17" fill="#d8d8d8" stroke-width=".147" stroke-linecap="round"/>
            <path d="M69.428 71.199h-9.886v-1.923h9.886z" id="rect4209-3-0-4-5-5-6-5-1-9-2-5-8-1" fill="#d8d8d8" stroke-width=".168" stroke-linecap="round"/>
            <path d="M47.51 71.199h-9.925v-1.923h9.924z" id="rect4209-3-0-4-5-5-6-5-1-9-2-5-6-6" fill="#d8d8d8" stroke-width=".168" stroke-linecap="round"/>
            <path d="M27.443 71.199H19.93v-1.923h7.512z" id="rect4209-3-0-4-5-5-6-5-1-9-2-5-3-7" fill="#d8d8d8" stroke-width=".147" stroke-linecap="round"/>
            <path d="M39.323 92.482H31.81V90.56h7.512z" id="rect4209-3-0-4-5-5-6-5-1-9-2-5-1-1" fill="#d8d8d8" stroke-width=".147" stroke-linecap="round"/>
            <path d="M36.39 99.577h-7.512v-1.923h7.512z" id="rect4209-3-0-4-5-5-6-5-1-9-2-5-67-3" fill="#d8d8d8" stroke-width=".147" stroke-linecap="round"/>
            <path d="M30.061 92.482H22.55V90.56h7.511z" id="rect4209-3-0-4-5-5-6-5-1-9-2-5-84-4" fill="#d8d8d8" stroke-width=".147" stroke-linecap="round"/>
            <path d="M72.2 95.975H64.69v-1.923H72.2z" id="rect4209-3-0-4-5-5-6-5-1-9-2-5-63-8" fill="#d8d8d8" stroke-width=".147" stroke-linecap="round"/>
            <path d="M30.37 85.17h-7.512v-1.923h7.512z" id="rect4209-3-0-4-5-5-6-5-1-9-2-5-7-5" fill="#d8d8d8" stroke-width=".147" stroke-linecap="round"/>
            <path d="M102.866 81.568h-7.512v-1.923h7.512z" id="rect4209-3-0-4-5-5-6-5-1-9-2-5-0-7" fill="#d8d8d8" stroke-width=".147" stroke-linecap="round"/>
            <path d="M82.388 95.975H72.201v-1.923h10.187z" id="rect4209-3-0-4-5-5-6-5-1-9-2-5-4-3" fill="#d8d8d8" stroke-width=".171" stroke-linecap="round"/>
            <path d="M93.495 81.568H71.873v-1.923h21.622z" id="rect4209-3-0-4-5-5-6-5-4-1-9" fill="#d8d8d8" stroke-width=".249" stroke-linecap="round"/>
            <path d="M76.438 78.075H54.585v-1.923h21.853z" id="rect4209-3-0-4-5-5-6-5-4-2-3" fill="#d8d8d8" stroke-width=".25" stroke-linecap="round"/>
            <path d="M39.47 95.975h-9.968v-1.923h9.968z" id="rect4209-3-0-4-5-5-6-5-4-0-5" fill="#d8d8d8" stroke-width=".169" stroke-linecap="round"/>
            <path d="M27.893 95.975H7.738v-1.923h20.155z" id="rect4209-3-0-4-5-5-6-5-4-6-3" fill="#d8d8d8" stroke-width=".24" stroke-linecap="round"/>
            <path d="M55.06 81.568H31.2v-1.923h23.86z" id="rect4209-3-0-4-5-5-6-5-4-24-0" fill="#d8d8d8" stroke-width=".261" stroke-linecap="round"/>
            <path d="M27.43 67.815H13.604v-1.923H27.43z" id="rect4209-3-0-4-5-5-6-5-4-9-5" fill="#d8d8d8" stroke-width=".199" stroke-linecap="round"/>
            <path d="M37.585 71.199H30.86v-1.923h6.726z" id="rect4209-3-0-4-5-5-6-5-4-18-8" fill="#d8d8d8" stroke-width=".139" stroke-linecap="round"/>
            <path d="M59.542 71.199h-9.35v-1.923h9.35z" id="rect4209-3-0-4-5-5-6-5-4-5-0" fill="#d8d8d8" stroke-width=".163" stroke-linecap="round"/>
            <path d="M102.866 71.199H82.325v-1.923h20.541z" id="rect4209-3-0-4-5-5-6-5-4-51-7" fill="#d8d8d8" stroke-width=".242" stroke-linecap="round"/>
            <path d="M66.27 74.582H43.49V72.66h22.78z" id="rect4209-3-0-4-5-5-6-5-4-98-3" fill="#d8d8d8" stroke-width=".255" stroke-linecap="round"/>
            <path d="M88.864 74.582H69.018V72.66h19.846z" id="rect4209-3-0-4-5-5-6-5-4-90-70" fill="#d8d8d8" stroke-width=".238" stroke-linecap="round"/>
            <path d="M69.647 81.568h-12.9v-1.923h12.9z" id="rect4209-3-0-4-5-5-6-5-4-988-0" fill="#d8d8d8" stroke-width=".192" stroke-linecap="round"/>
            <path d="M102.866 85.17h-19.72v-1.923h19.72z" id="rect4209-3-0-4-5-5-6-5-4-63-0" fill="#d8d8d8" stroke-width=".237" stroke-linecap="round"/>
            <path d="M83.146 85.17H70.708v-1.923h12.438z" id="rect4209-3-0-4-5-5-6-5-4-8-9" fill="#d8d8d8" stroke-width=".189" stroke-linecap="round"/>
            <path d="M102.866 95.975H83.99v-1.923h18.876z" id="rect4209-3-0-4-5-5-6-5-4-19-6" fill="#d8d8d8" stroke-width=".232" stroke-linecap="round"/>
            <path d="M102.86 64.322H91.182V62.4h11.68z" id="rect4209-3-0-4-5-5-6-5-1-9-8-5-4" fill="#d8d8d8" stroke-width=".183" stroke-linecap="round"/>
            <path d="M80.013 67.815h-9.886v-1.923h9.886z" id="rect4209-3-0-4-5-5-6-5-1-9-2-5-8-1-8" fill="#d8d8d8" stroke-width=".168" stroke-linecap="round"/>
            <path d="M70.127 67.815h-9.35v-1.923h9.35z" id="rect4209-3-0-4-5-5-6-5-4-5-0-1" fill="#d8d8d8" stroke-width=".163" stroke-linecap="round"/>
            <path d="M68.433 85.17h-12.9v-1.923h12.9z" id="rect4209-3-0-4-5-5-6-5-4-988-0-9" fill="#d8d8d8" stroke-width=".192" stroke-linecap="round"/>
            <path d="M53.986 85.17h-7.512v-1.923h7.512z" id="rect4209-3-0-4-5-5-6-5-1-9-2-5-1-1-7" fill="#d8d8d8" stroke-width=".147" stroke-linecap="round"/>
            <path d="M29.38 81.568H14.629v-1.923H29.38z" id="rect4209-3-0-4-5-5-6-5-4-0-5-7" fill="#d8d8d8" stroke-width=".205" stroke-linecap="round"/>
            <path d="M102.931 99.577H82.776v-1.923h20.155z" id="rect4209-3-0-4-5-5-6-5-4-6-3-5" fill="#d8d8d8" stroke-width=".24" stroke-linecap="round"/>
            <path d="M79.604 99.577H67.36v-1.923h12.245z" id="rect4209-3-0-4-5-5-6-5-1-9-2-57-0" fill="#d8d8d8" stroke-width=".187" stroke-linecap="round"/>
            <path d="M62.934 95.975H50.689v-1.923h12.245z" id="rect4209-3-0-4-5-5-6-5-1-9-2-57-3" fill="#d8d8d8" stroke-width=".187" stroke-linecap="round"/>
            <path d="M49.145 95.975h-7.512v-1.923h7.512z" id="rect4209-3-0-4-5-5-6-5-1-9-2-5-67-3-5" fill="#d8d8d8" stroke-width=".147" stroke-linecap="round"/>
            <path d="M102.706 61.249H53.21v-5.01h49.496z" id="rect4209-3-0-4-5-5-6-5-1-9-8-5-4-7" fill="#9babc7" stroke-width=".607" stroke-linecap="round"/>
            <g transform="matrix(-2.00943 0 0 2.00943 100.625 42.245)" style="line-height:1.25" id="flowRoot4530-4-6-3-7-1" font-weight="400" font-size="8" font-family="sans-serif" letter-spacing="0" word-spacing="0">
                <path d="M2.54 7.63l.267.726h-.536zm.111-.193h-.224l-.555 1.458h.205l.133-.374h.657L3 8.895h.208z" style="line-height:0" id="path10970" font-size="2"/>
                <path d="M1.31 7.884l.213.58h-.429zm.088-.156H1.22L.775 8.895h.164l.106-.3h.526l.106.3h.167z" id="path10972" font-size="1.6"/>
                <path d="M.307 8.052l.178.484H.128zm.074-.13H.23l-.37.973h.137l.089-.25h.438l.088.25h.139z" id="path10974" font-size="1.333"/>
                <path d="M5.928 8.001q-.089 0-.135-.04-.046-.038-.046-.114 0-.076.046-.115.046-.04.135-.04h.208v.309zm-.013.638q-.113 0-.17-.048-.057-.048-.057-.145 0-.094.056-.141.057-.048.171-.048h.221v.382zm-.35-.525q-.12.035-.187.13-.066.095-.066.233 0 .21.142.314.143.104.434.104h.624V7.437h-.564q-.304 0-.44.091-.137.092-.137.294 0 .107.05.182.05.074.145.11z" style="-inkscape-font-specification:'sans-serif Bold'" id="path10976" font-weight="700" font-size="2"/>
                <path d="M8.99 7.437H8.79l.285 1.458h.198z" style="-inkscape-font-specification:'sans-serif Italic'" id="path10978" font-style="italic" font-size="2"/>
            </g>
            <path d="M1.923 56.117l.01 47.164-1.923.005L0 56.122z" id="rect4209-3-0-4-5-5-6-5-4-9-0" fill="#f1f1f1" stroke-width=".367" stroke-linecap="round"/>
            <path d="M1.968 62.866l.01 7.036H.055l-.01-7.035z" id="rect4209-3-0-4-5-5-6-5-4-9-0-9" fill="silver" stroke-width=".142" stroke-linecap="round"/>
            <path d="M109.332 56.064l.01 47.164-1.922.005-.01-47.164z" id="rect4209-3-0-4-5-5-6-5-4-9-0-0" fill="#f1f1f1" stroke-width=".367" stroke-linecap="round"/>
            <path d="M109.378 62.813l.01 7.036h-1.923l-.01-7.035z" id="rect4209-3-0-4-5-5-6-5-4-9-0-9-4" fill="silver" stroke-width=".142" stroke-linecap="round"/>
            <g transform="matrix(-.06218 0 0 .06218 125.19 47.142)" id="g6041" fill="silver" stroke="#000" fill-rule="evenodd">
                <path d="M1147.465 454.805v53.515" id="path4922-54-0-8-3-9" stroke-width="6.9"/>
                <path d="M1156.448 454.136l-17.896.034" id="path4922-54-0-8-3-9-5" stroke-width="4.066"/>
                <path d="M1156.448 509.511l-17.896.034" id="path4922-54-0-8-3-9-5-3" stroke-width="4.066"/>
            </g>
            <path d="M80.857 71.2h-9.476v-1.923h9.476z" id="rect4209-3-0-4-5-5-6-5-1-9-2-5-3-7-8" fill="#d8d8d8" stroke-width=".165" stroke-linecap="round"/>
            <path d="M107.575 57.412l1.696-.003-.851-1.152z" id="path7050" fill="silver" stroke-width=".01" stroke-linecap="round" stroke-linejoin="round"/>
            <path d="M.104 57.417l1.696-.003-.852-1.152z" id="path7050-5" fill="silver" stroke-width=".01" stroke-linecap="round" stroke-linejoin="round"/>
            <path d="M107.557 101.926l1.696.003-.852 1.152z" id="path7050-57" fill="silver" stroke-width=".01" stroke-linecap="round" stroke-linejoin="round"/>
            <path d="M.106 101.965l1.696.003-.852 1.151z" id="path7050-57-1" fill="silver" stroke-width=".01" stroke-linecap="round" stroke-linejoin="round"/>
            <g transform="matrix(2.00943 0 0 2.00943 35.043 7.362)" style="line-height:1.25" id="flowRoot4530-7-6" font-weight="400" font-size="1.96" font-family="sans-serif" letter-spacing="0" word-spacing="0">
                <path d="M.038 7.466h.904v.162h-.71v.423h.68v.163h-.68v.518h.727v.163h-.92z" style="line-height:0" id="path10766-7"/>
                <path d="M1.976 7.985v-.58h.176v1.49h-.176v-.161q-.055.095-.14.142-.085.046-.204.046-.194 0-.316-.155t-.122-.407q0-.253.122-.408.122-.155.316-.155.12 0 .203.047.086.046.141.141zm-.6.375q0 .194.08.305.08.11.22.11t.22-.11q.08-.111.08-.305 0-.195-.08-.305-.08-.11-.22-.11t-.22.11q-.08.11-.08.305z" style="line-height:0" id="path10768-4"/>
                <path d="M2.515 7.823h.176v1.072h-.176zm0-.418h.176v.223h-.176z" style="line-height:0" id="path10770-4"/>
                <path d="M3.233 7.518v.305h.362v.137h-.362v.581q0 .131.035.169.036.037.146.037h.181v.148h-.18q-.204 0-.282-.076-.077-.077-.077-.278V7.96h-.13v-.137h.13v-.305z" style="line-height:0" id="path10772-1"/>
                <path d="M4.243 7.946q-.141 0-.224.111-.082.11-.082.303 0 .192.081.303.083.11.225.11.14 0 .223-.111.083-.111.083-.302 0-.19-.083-.302-.082-.112-.223-.112zm0-.15q.23 0 .361.15.131.15.131.414 0 .263-.13.413-.132.15-.362.15-.23 0-.361-.15-.13-.15-.13-.413 0-.265.13-.414.13-.15.361-.15z" style="line-height:0" id="path10774-4"/>
                <path d="M5.647 7.987q-.03-.017-.065-.025-.034-.008-.076-.008-.15 0-.23.097-.08.097-.08.279v.565H5.02V7.823h.177v.166q.056-.097.145-.144.089-.048.216-.048.018 0 .04.003l.05.006z" style="line-height:0" id="path10776-3"/>
                <path d="M6.355 7.823h.177l.22.836.219-.836h.207l.22.836.22-.836h.176l-.28 1.072h-.208l-.23-.879-.232.879h-.208z" style="line-height:0" id="path10778-6"/>
                <path d="M8.062 7.823h.176v1.072h-.176zm0-.418h.176v.223h-.176z" style="line-height:0" id="path10780-8"/>
                <path d="M8.78 7.518v.305h.362v.137H8.78v.581q0 .131.035.169.036.037.146.037h.181v.148h-.18q-.204 0-.282-.076-.077-.077-.077-.278V7.96h-.13v-.137h.13v-.305z" style="line-height:0" id="path10782-2"/>
                <path d="M10.266 8.248v.647h-.176v-.642q0-.152-.06-.227-.059-.076-.178-.076-.142 0-.224.09-.083.092-.083.249v.606h-.177v-1.49h.177v.584q.063-.096.149-.144.086-.048.198-.048.184 0 .28.115.094.114.094.336z" style="line-height:0" id="path10784-1"/>
                <path d="M11.117 7.823h.186l.335.9.335-.9h.187l-.402 1.072h-.24z" style="line-height:0" id="path10786-2"/>
                <path d="M13.32 8.315V8.4h-.81q.012.182.11.277.098.095.273.095.101 0 .196-.025.096-.025.19-.075v.167q-.095.04-.195.061-.1.021-.202.021-.256 0-.406-.149-.15-.15-.15-.404 0-.263.142-.417.143-.155.384-.155.216 0 .341.14.127.138.127.378zm-.176-.052q-.002-.145-.082-.23-.078-.087-.208-.087-.148 0-.237.083-.088.084-.101.235z" style="line-height:0" id="path10788-0"/>
                <path d="M14.23 7.987q-.03-.017-.065-.025t-.077-.008q-.15 0-.23.097-.079.097-.079.279v.565h-.177V7.823h.177v.166q.056-.097.145-.144.089-.048.216-.048.018 0 .04.003l.049.006z" style="line-height:0" id="path10790-4"/>
                <path d="M15.1 7.854v.167q-.075-.039-.155-.058-.08-.019-.167-.019-.13 0-.197.04-.065.04-.065.121 0 .061.047.097.047.034.188.066l.06.013q.188.04.267.114.08.073.08.204 0 .15-.12.236-.117.087-.324.087-.086 0-.18-.017-.093-.016-.196-.05v-.182q.098.051.192.077.095.025.188.025.124 0 .191-.042.067-.043.067-.12 0-.073-.048-.11-.048-.04-.212-.075l-.061-.014q-.164-.034-.237-.105-.072-.072-.072-.196 0-.152.107-.234.107-.082.304-.082.098 0 .184.014.086.015.159.043z" style="line-height:0" id="path10792-2"/>
                <path d="M15.439 7.823h.176v1.072h-.176zm0-.418h.176v.223h-.176z" style="line-height:0" id="path10794-8"/>
                <path d="M16.398 7.946q-.142 0-.224.111-.083.11-.083.303 0 .192.082.303.082.11.225.11.14 0 .223-.111.082-.111.082-.302 0-.19-.082-.302-.083-.112-.223-.112zm0-.15q.23 0 .36.15.131.15.131.414 0 .263-.13.413-.132.15-.361.15-.231 0-.362-.15-.13-.15-.13-.413 0-.265.13-.414.13-.15.362-.15z" style="line-height:0" id="path10796-8"/>
                <path d="M18.071 8.248v.647h-.176v-.642q0-.152-.059-.227-.06-.076-.178-.076-.143 0-.225.09-.082.092-.082.249v.606h-.177V7.823h.177v.166q.063-.096.148-.144.086-.048.198-.048.185 0 .28.115.094.114.094.336z" style="line-height:0" id="path10798-0"/>
                <path d="M19.223 7.518v.305h.362v.137h-.362v.581q0 .131.035.169.036.037.147.037h.18v.148h-.18q-.204 0-.282-.076-.077-.077-.077-.278V7.96h-.13v-.137h.13v-.305z" style="line-height:0" id="path10800-2"/>
                <path d="M20.233 7.946q-.141 0-.224.111-.082.11-.082.303 0 .192.081.303.083.11.225.11.141 0 .223-.111.083-.111.083-.302 0-.19-.083-.302-.082-.112-.223-.112zm0-.15q.23 0 .361.15.131.15.131.414 0 .263-.13.413-.132.15-.362.15-.23 0-.361-.15-.13-.15-.13-.413 0-.265.13-.414.13-.15.361-.15z" style="line-height:0" id="path10802-5"/>
                <path d="M22.41 8.36q0-.195-.08-.305-.08-.11-.22-.11t-.22.11q-.08.11-.08.305 0 .194.08.305.08.11.22.11t.22-.11q.08-.111.08-.305zm-.6-.375q.056-.095.14-.141.085-.047.203-.047.195 0 .317.155t.122.408q0 .252-.122.407-.122.155-.317.155-.118 0-.203-.046-.084-.047-.14-.142v.16h-.177V7.406h.178z" style="line-height:0" id="path10804-6"/>
                <path d="M23.801 8.315V8.4h-.81q.012.182.11.277.098.095.273.095.102 0 .197-.025.095-.025.189-.075v.167q-.095.04-.194.061-.1.021-.202.021-.257 0-.407-.149-.15-.15-.15-.404 0-.263.142-.417.143-.155.384-.155.216 0 .342.14.126.138.126.378zm-.176-.052q-.002-.145-.081-.23-.079-.087-.209-.087-.147 0-.236.083-.088.084-.102.235z" style="line-height:0" id="path10806-0"/>
                <path d="M24.869 8.734v.568h-.177v-1.48h.177v.163q.055-.095.14-.141.085-.047.202-.047.196 0 .317.155.123.155.123.408 0 .252-.123.407-.121.155-.317.155-.117 0-.203-.046-.084-.047-.14-.142zm.599-.374q0-.195-.08-.305-.08-.11-.22-.11t-.22.11q-.08.11-.08.305 0 .194.08.305.08.11.22.11t.22-.11q.08-.111.08-.305z" style="line-height:0" id="path10808-8"/>
                <path d="M25.924 8.472v-.65h.176v.643q0 .152.06.229.06.075.178.075.142 0 .225-.09.083-.092.083-.249v-.607h.176v1.072h-.176V8.73q-.064.098-.15.145-.084.047-.196.047-.184 0-.28-.115-.096-.114-.096-.335zm.443-.675z" style="line-height:0" id="path10810-5"/>
                <path d="M27.956 8.36q0-.195-.08-.305-.08-.11-.22-.11t-.22.11q-.079.11-.079.305 0 .194.08.305.08.11.22.11t.219-.11q.08-.111.08-.305zm-.599-.375q.056-.095.14-.141.085-.047.203-.047.195 0 .316.155.123.155.123.408 0 .252-.123.407-.121.155-.316.155-.118 0-.203-.046-.084-.047-.14-.142v.16h-.177V7.406h.177z" style="line-height:0" id="path10812-7"/>
                <path d="M28.43 7.405h.177v1.49h-.176z" style="line-height:0" id="path10814-6"/>
                <path d="M28.974 7.823h.176v1.072h-.176zm0-.418h.176v.223h-.176z" style="line-height:0" id="path10816-5"/>
                <path d="M30.201 7.854v.167q-.074-.039-.155-.058-.08-.019-.166-.019-.131 0-.197.04-.065.04-.065.121 0 .061.046.097.047.034.189.066l.06.013q.188.04.266.114.08.073.08.204 0 .15-.119.236-.118.087-.324.087-.087 0-.18-.017-.093-.016-.197-.05v-.182q.098.051.193.077.095.025.187.025.125 0 .192-.042.067-.043.067-.12 0-.073-.049-.11-.048-.04-.211-.075l-.062-.014q-.163-.034-.236-.105-.073-.072-.073-.196 0-.152.107-.234.108-.082.305-.082.097 0 .183.014.087.015.16.043z" style="line-height:0" id="path10818-3"/>
                <path d="M31.431 8.248v.647h-.176v-.642q0-.152-.06-.227-.059-.076-.177-.076-.143 0-.225.09-.083.092-.083.249v.606h-.177v-1.49h.177v.584q.064-.096.149-.144.086-.048.198-.048.185 0 .28.115.094.114.094.336z" style="line-height:0" id="path10820-9"/>
                <path d="M32.701 8.315V8.4h-.81q.012.182.11.277.098.095.273.095.102 0 .196-.025.096-.025.19-.075v.167q-.095.04-.194.061-.1.021-.202.021-.257 0-.407-.149-.15-.15-.15-.404 0-.263.142-.417.143-.155.384-.155.216 0 .342.14.126.138.126.378zm-.176-.052q-.002-.145-.081-.23-.079-.087-.209-.087-.147 0-.236.083-.088.084-.102.235z" style="line-height:0" id="path10822-3"/>
                <path d="M33.695 7.985v-.58h.177v1.49h-.177v-.161q-.055.095-.14.142-.084.046-.203.046-.194 0-.317-.155-.121-.155-.121-.407 0-.253.121-.408.123-.155.317-.155.119 0 .203.047.085.046.14.141zm-.6.375q0 .194.08.305.08.11.22.11t.22-.11q.08-.111.08-.305 0-.195-.08-.305-.08-.11-.22-.11t-.22.11q-.08.11-.08.305z" style="line-height:0" id="path10824-7"/>
            </g>
            <g transform="matrix(2.156 0 0 2.156 169.272 6.348)" style="line-height:1.25" id="flowRoot4530" font-weight="400" font-size="1.96" font-family="sans-serif" letter-spacing="0" word-spacing="0">
                <path d="M1.108 7.576v.204q-.098-.091-.209-.136-.11-.045-.234-.045-.245 0-.375.15t-.13.433q0 .282.13.432.13.15.375.15.124 0 .234-.046.111-.045.209-.135v.201q-.101.07-.215.104-.113.034-.24.034-.324 0-.51-.198-.187-.199-.187-.542 0-.345.186-.543.187-.2.511-.2.129 0 .242.035.113.034.213.102z" style="line-height:0" id="path10636"/>
                <path d="M1.816 7.946q-.141 0-.224.111-.082.11-.082.303 0 .192.081.303.083.11.225.11.14 0 .223-.111.083-.111.083-.302 0-.19-.083-.302-.082-.112-.223-.112zm0-.15q.23 0 .361.15.131.15.131.414 0 .263-.131.413-.131.15-.36.15-.231 0-.363-.15-.13-.15-.13-.413 0-.265.13-.414.132-.15.362-.15z" style="line-height:0" id="path10638"/>
                <path d="M3.49 8.248v.647h-.176v-.642q0-.152-.06-.227-.059-.076-.177-.076-.143 0-.225.09-.083.092-.083.249v.606h-.177V7.823h.177v.166q.064-.096.149-.144.086-.048.198-.048.185 0 .28.115.094.114.094.336z" style="line-height:0" id="path10640"/>
                <path d="M4.22 7.405h.49v1.49h-.178V7.552h-.315q-.094 0-.132.038-.036.038-.036.138v.095h.29v.137h-.29v.935h-.177V7.96h-.169v-.137h.169v-.075q0-.179.083-.26.083-.083.264-.083z" style="line-height:0" id="path10642"/>
                <path d="M5.08 7.823h.176v1.072H5.08zm0-.418h.176v.223H5.08z" style="line-height:0" id="path10644"/>
                <path d="M6.395 7.864v.164q-.075-.04-.15-.06-.075-.022-.152-.022-.171 0-.266.11-.095.107-.095.304 0 .196.095.305.095.108.266.108.077 0 .151-.02.076-.021.15-.062v.162q-.073.035-.152.052-.079.017-.168.017-.242 0-.385-.152-.142-.152-.142-.41 0-.263.143-.413.145-.15.396-.15.08 0 .158.017.078.016.15.05z" style="line-height:0" id="path10646"/>
                <path d="M6.877 7.518v.305h.363v.137h-.363v.581q0 .131.035.169.037.037.147.037h.18v.148h-.18q-.204 0-.282-.076Q6.7 8.742 6.7 8.54V7.96h-.13v-.137h.13v-.305z" style="line-height:0" id="path10648"/>
                <path d="M7.472 7.823h.176v1.072h-.176zm0-.418h.176v.223h-.176z" style="line-height:0" id="path10650"/>
                <path d="M8.907 8.248v.647H8.73v-.642q0-.152-.06-.227-.059-.076-.178-.076-.142 0-.224.09-.083.092-.083.249v.606H8.01V7.823h.177v.166q.063-.096.149-.144.086-.048.198-.048.184 0 .28.115.094.114.094.336z" style="line-height:0" id="path10652"/>
                <path d="M9.965 8.346q0-.191-.08-.297-.078-.105-.22-.105-.142 0-.221.105-.079.106-.079.297 0 .19.079.296.08.105.22.105.143 0 .222-.105.08-.105.08-.296zm.176.416q0 .273-.121.406-.122.134-.372.134-.093 0-.176-.014-.082-.014-.16-.042v-.172q.078.043.154.063.075.02.154.02.173 0 .26-.091.085-.09.085-.273v-.087q-.054.095-.14.142-.085.047-.203.047-.197 0-.318-.15-.12-.151-.12-.399 0-.249.12-.399.12-.15.318-.15.118 0 .204.047.085.047.14.141v-.162h.175z" style="line-height:0" id="path10654"/>
                <path d="M11.9 7.864v.164q-.075-.04-.15-.06-.075-.022-.152-.022-.171 0-.266.11-.095.107-.095.304 0 .196.095.305.095.108.266.108.077 0 .151-.02.076-.021.15-.062v.162q-.073.035-.153.052-.078.017-.167.017-.242 0-.385-.152-.142-.152-.142-.41 0-.263.143-.413.145-.15.395-.15.082 0 .16.017.077.016.15.05z" style="line-height:0" id="path10656"/>
                <path d="M13.099 8.248v.647h-.176v-.642q0-.152-.06-.227-.06-.076-.178-.076-.142 0-.225.09-.082.092-.082.249v.606h-.177v-1.49h.177v.584q.063-.096.148-.144.086-.048.198-.048.185 0 .28.115.095.114.095.336z" style="line-height:0" id="path10658"/>
                <path d="M13.939 8.356q-.213 0-.296.049-.082.048-.082.166 0 .094.061.15.062.054.169.054.146 0 .234-.103.09-.105.09-.277v-.04zm.351-.073v.612h-.176v-.163q-.06.097-.15.144-.09.046-.22.046-.165 0-.263-.092-.096-.092-.096-.247 0-.181.12-.273.122-.092.362-.092h.247V8.2q0-.122-.08-.188-.08-.067-.224-.067-.092 0-.18.022-.086.022-.167.066v-.163q.097-.037.188-.055.09-.02.177-.02.232 0 .347.121.115.121.115.366z" style="line-height:0" id="path10660"/>
                <path d="M15.545 8.248v.647h-.176v-.642q0-.152-.06-.227-.059-.076-.178-.076-.142 0-.224.09-.083.092-.083.249v.606h-.177V7.823h.177v.166q.063-.096.149-.144.086-.048.198-.048.184 0 .28.115.094.114.094.336z" style="line-height:0" id="path10662"/>
                <path d="M16.603 8.346q0-.191-.08-.297-.078-.105-.22-.105-.142 0-.221.105-.079.106-.079.297 0 .19.079.296.08.105.22.105.143 0 .222-.105.08-.105.08-.296zm.176.416q0 .273-.121.406-.122.134-.372.134-.093 0-.176-.014-.082-.014-.16-.042v-.172q.078.043.154.063.075.02.154.02.173 0 .26-.091.085-.09.085-.273v-.087q-.054.095-.14.142-.085.047-.203.047-.197 0-.318-.15-.12-.151-.12-.399 0-.249.12-.399.12-.15.318-.15.118 0 .204.047.085.047.14.141v-.162h.175z" style="line-height:0" id="path10664"/>
                <path d="M18.059 8.315V8.4h-.81q.012.182.11.277.098.095.273.095.102 0 .196-.025.096-.025.19-.075v.167q-.095.04-.194.061-.1.021-.202.021-.257 0-.407-.149-.15-.15-.15-.404 0-.263.142-.417.143-.155.384-.155.216 0 .342.14.126.138.126.378zm-.176-.052q-.002-.145-.081-.23-.079-.087-.21-.087-.146 0-.235.083-.089.084-.102.235z" style="line-height:0" id="path10666"/>
                <path d="M19.031 7.854v.167q-.074-.039-.155-.058-.08-.019-.166-.019-.131 0-.197.04-.065.04-.065.121 0 .061.046.097.047.034.189.066l.06.013q.188.04.266.114.08.073.08.204 0 .15-.119.236-.118.087-.324.087-.087 0-.18-.017-.093-.016-.196-.05v-.182q.097.051.192.077.095.025.187.025.125 0 .192-.042.067-.043.067-.12 0-.073-.049-.11-.048-.04-.211-.075l-.062-.014q-.163-.034-.236-.105-.073-.072-.073-.196 0-.152.107-.234.108-.082.305-.082.097 0 .183.014.087.015.16.043z" style="line-height:0" id="path10668"/>
            </g>
            <path d="M205.378 37.9h-17.98v-3.446h17.98z" id="rect4209-3-0-4-5-5-6-5-1-9-2-5-84-1-4" fill="#a4c2cd" stroke-width=".37" stroke-linecap="round"/>
            <path d="M205.456 43.002h-13.45v-3.298h13.45z" id="rect4209-3-0-4-5-5-6-5-1-9-2-5-63-9-9-5" fill="#ead97f" stroke-width=".223" stroke-linecap="round"/>
            <circle id="path5984-8" cx="-208.128" cy="35.986" r=".761" transform="scale(-1 1)" stroke-width="1.948" stroke-linecap="round"/>
            <circle id="path5984-5" cx="-208.128" cy="41.339" r=".761" transform="scale(-1 1)" stroke-width="1.948" stroke-linecap="round"/>
            <path d="M209.555 31.57h-15.73v-2.88h15.73z" id="rect4209-3-0-4-5-5-6-5-1-9-2-5-1-0-0" fill="#d8d8d8" stroke-width=".191" stroke-linecap="round"/>
            <path d="M192.246 31.6h-7.209v-2.88h7.209z" id="rect4209-3-0-4-5-5-6-5-1-9-2-5-1-0-0-2" fill="#d8d8d8" stroke-width=".191" stroke-linecap="round"/>
            <path d="M183.21 31.602h-10.867v-2.88h10.867z" id="rect4209-3-0-4-5-5-6-5-1-9-2-5-1-0-0-2-9" fill="#d8d8d8" stroke-width=".191" stroke-linecap="round"/>
            <path d="M170.325 57.747h.46v1.439h-.46zm0-.56h.46v.375h-.46z" style="line-height:0;-inkscape-font-specification:'sans-serif Bold'" id="path10491" font-weight="700" font-size="1.2" font-family="sans-serif" letter-spacing="0" word-spacing="0" fill="#fff" stroke-width="3.435"/>
            <path d="M172.675 58.31v.876h-.462v-.671q0-.186-.01-.256-.007-.071-.028-.104-.027-.045-.073-.07-.046-.025-.105-.025-.144 0-.226.111-.082.11-.082.307v.708h-.46v-1.439h.46v.211q.104-.126.22-.185.117-.06.259-.06.249 0 .377.153.13.152.13.444z" style="line-height:0;-inkscape-font-specification:'sans-serif Bold'" id="path10493" font-weight="700" font-size="1.2" font-family="sans-serif" letter-spacing="0" word-spacing="0" fill="#fff" stroke-width="3.435"/>
            <path d="M175.007 58.225q0-.36-.068-.506-.067-.148-.226-.148-.16 0-.227.148-.068.147-.068.506 0 .364.068.513.068.149.227.149.158 0 .226-.15.068-.148.068-.512zm.495.004q0 .477-.206.736-.205.258-.583.258-.379 0-.584-.258-.206-.26-.206-.736 0-.478.206-.736.205-.26.584-.26.378 0 .583.26.206.258.206.736z" style="line-height:0;-inkscape-font-specification:'sans-serif Bold'" id="path10495" font-weight="700" font-size="1.2" font-family="sans-serif" letter-spacing="0" word-spacing="0" fill="#fff" stroke-width="3.435"/>
            <path d="M175.92 57.747h.464v.497h-.464zm0 .942h.464v.497h-.464z" style="line-height:0;-inkscape-font-specification:'sans-serif Bold'" id="path10497" font-weight="700" font-size="1.2" font-family="sans-serif" letter-spacing="0" word-spacing="0" fill="#fff" stroke-width="3.435"/>
            <path d="M177.889 58.225q0-.36-.068-.506-.067-.148-.226-.148-.16 0-.227.148-.069.147-.069.506 0 .364.069.513.068.149.227.149.158 0 .226-.15.068-.148.068-.512zm.494.004q0 .477-.205.736-.206.258-.583.258-.379 0-.584-.258-.206-.26-.206-.736 0-.478.206-.736.205-.26.584-.26.377 0 .583.26.205.258.205.736z" style="line-height:0;-inkscape-font-specification:'sans-serif Bold'" id="path10499" font-weight="700" font-size="1.2" font-family="sans-serif" letter-spacing="0" word-spacing="0" fill="#fff" stroke-width="3.435"/>
            <path d="M178.802 57.747h.464v.497h-.464zm0 .942h.464v.497h-.464z" style="line-height:0;-inkscape-font-specification:'sans-serif Bold'" id="path10501" font-weight="700" font-size="1.2" font-family="sans-serif" letter-spacing="0" word-spacing="0" fill="#fff" stroke-width="3.435"/>
            <path d="M180.77 58.225q0-.36-.067-.506-.067-.148-.226-.148-.16 0-.228.148-.068.147-.068.506 0 .364.068.513.068.149.228.149.158 0 .226-.15.068-.148.068-.512zm.495.004q0 .477-.205.736-.206.258-.583.258-.38 0-.585-.258-.205-.26-.205-.736 0-.478.205-.736.206-.26.585-.26.377 0 .583.26.205.258.205.736z" style="line-height:0;-inkscape-font-specification:'sans-serif Bold'" id="path10503" font-weight="700" font-size="1.2" font-family="sans-serif" letter-spacing="0" word-spacing="0" fill="#fff" stroke-width="3.435"/>
            <path d="M181.684 57.747h.463v.497h-.463zm0 .942h.463v.497h-.463z" style="line-height:0;-inkscape-font-specification:'sans-serif Bold'" id="path10505" font-weight="700" font-size="1.2" font-family="sans-serif" letter-spacing="0" word-spacing="0" fill="#fff" stroke-width="3.435"/>
            <path d="M183.653 58.225q0-.36-.068-.506-.067-.148-.227-.148-.159 0-.227.148-.068.147-.068.506 0 .364.068.513.068.149.227.149.158 0 .227-.15.068-.148.068-.512zm.494.004q0 .477-.205.736-.206.258-.583.258-.38 0-.585-.258-.205-.26-.205-.736 0-.478.205-.736.206-.26.585-.26.377 0 .583.26.205.258.205.736z" style="line-height:0;-inkscape-font-specification:'sans-serif Bold'" id="path10507" font-weight="700" font-size="1.2" font-family="sans-serif" letter-spacing="0" word-spacing="0" fill="#fff" stroke-width="3.435"/>
            <path d="M184.566 57.747h.463v.497h-.463zm0 .942h.463v.497h-.463z" style="line-height:0;-inkscape-font-specification:'sans-serif Bold'" id="path10509" font-weight="700" font-size="1.2" font-family="sans-serif" letter-spacing="0" word-spacing="0" fill="#fff" stroke-width="3.435"/>
            <path d="M186.534 58.225q0-.36-.068-.506-.066-.148-.226-.148-.159 0-.227.148-.068.147-.068.506 0 .364.068.513.068.149.227.149.158 0 .226-.15.068-.148.068-.512zm.495.004q0 .477-.206.736-.205.258-.583.258-.379 0-.584-.258-.205-.26-.205-.736 0-.478.205-.736.205-.26.584-.26.378 0 .583.26.206.258.206.736z" style="line-height:0;-inkscape-font-specification:'sans-serif Bold'" id="path10511" font-weight="700" font-size="1.2" font-family="sans-serif" letter-spacing="0" word-spacing="0" fill="#fff" stroke-width="3.435"/>
            <path d="M187.447 57.747h.464v.497h-.464zm0 .942h.464v.497h-.464z" style="line-height:0;-inkscape-font-specification:'sans-serif Bold'" id="path10513" font-weight="700" font-size="1.2" font-family="sans-serif" letter-spacing="0" word-spacing="0" fill="#fff" stroke-width="3.435"/>
            <path d="M189.416 58.225q0-.36-.068-.506-.067-.148-.226-.148-.16 0-.227.148-.068.147-.068.506 0 .364.068.513.068.149.227.149.158 0 .226-.15.068-.148.068-.512zm.495.004q0 .477-.206.736-.205.258-.583.258-.379 0-.584-.258-.206-.26-.206-.736 0-.478.206-.736.205-.26.584-.26.378 0 .583.26.206.258.206.736z" style="line-height:0;-inkscape-font-specification:'sans-serif Bold'" id="path10515" font-weight="700" font-size="1.2" font-family="sans-serif" letter-spacing="0" word-spacing="0" fill="#fff" stroke-width="3.435"/>
            <path d="M190.33 57.747h.463v.497h-.464zm0 .942h.463v.497h-.464z" style="line-height:0;-inkscape-font-specification:'sans-serif Bold'" id="path10517" font-weight="700" font-size="1.2" font-family="sans-serif" letter-spacing="0" word-spacing="0" fill="#fff" stroke-width="3.435"/>
            <path d="M192.298 58.225q0-.36-.068-.506-.067-.148-.226-.148-.16 0-.227.148-.068.147-.068.506 0 .364.068.513.068.149.227.149.158 0 .226-.15.068-.148.068-.512zm.494.004q0 .477-.205.736-.205.258-.583.258-.379 0-.584-.258-.206-.26-.206-.736 0-.478.206-.736.205-.26.584-.26.378 0 .583.26.205.258.205.736z" style="line-height:0;-inkscape-font-specification:'sans-serif Bold'" id="path10519" font-weight="700" font-size="1.2" font-family="sans-serif" letter-spacing="0" word-spacing="0" fill="#fff" stroke-width="3.435"/>
            <path d="M193.211 57.747h.464v.497h-.464zm0 .942h.464v.497h-.464z" style="line-height:0;-inkscape-font-specification:'sans-serif Bold'" id="path10521" font-weight="700" font-size="1.2" font-family="sans-serif" letter-spacing="0" word-spacing="0" fill="#fff" stroke-width="3.435"/>
            <path d="M194.278 58.844h.437v-1.24l-.448.093v-.336l.445-.093h.47v1.576h.437v.342h-1.34z" style="line-height:0;-inkscape-font-specification:'sans-serif Bold'" id="path10523" font-weight="700" font-size="1.2" font-family="sans-serif" letter-spacing="0" word-spacing="0" fill="#fff" stroke-width="3.435"/>
            <path d="M196.354 57.268v.713h-.305v-.713z" style="line-height:0;-inkscape-font-specification:'sans-serif Bold'" id="path10525" font-weight="700" font-size="1.2" font-family="sans-serif" letter-spacing="0" word-spacing="0" fill="#fff" stroke-width="3.435"/>
            <path d="M197.95 57.792v.35q-.148-.062-.285-.093-.138-.03-.26-.03-.13 0-.195.033-.063.032-.063.1 0 .055.048.085.049.03.173.043l.081.012q.353.045.475.148.122.102.122.322 0 .23-.17.345-.169.116-.505.116-.143 0-.296-.023-.151-.022-.312-.067v-.35q.138.067.282.1.145.034.294.034.134 0 .203-.037.068-.037.068-.11 0-.062-.048-.092-.046-.03-.186-.047l-.08-.01q-.308-.039-.431-.143-.123-.104-.123-.316 0-.229.156-.339.157-.11.48-.11.128 0 .268.019.14.02.304.06z" style="line-height:0;-inkscape-font-specification:'sans-serif Bold'" id="path10527" font-weight="700" font-size="1.2" font-family="sans-serif" letter-spacing="0" word-spacing="0" fill="#fff" stroke-width="3.435"/>
            <path d="M199.126 57.747h.46l.358.994.357-.994h.461l-.566 1.439h-.505z" style="line-height:0;-inkscape-font-specification:'sans-serif Bold'" id="path10529" font-weight="700" font-size="1.2" font-family="sans-serif" letter-spacing="0" word-spacing="0" fill="#fff" stroke-width="3.435"/>
            <path d="M202.459 58.463v.13h-1.075q.017.163.117.243.1.081.28.081.145 0 .296-.042.153-.044.314-.131v.354q-.163.062-.326.093-.163.032-.327.032-.39 0-.607-.198-.216-.199-.216-.557 0-.352.212-.554.213-.201.586-.201.339 0 .542.204.204.204.204.546zm-.473-.153q0-.131-.077-.21-.076-.082-.199-.082-.133 0-.217.076-.083.075-.104.216z" style="line-height:0;-inkscape-font-specification:'sans-serif Bold'" id="path10531" font-weight="700" font-size="1.2" font-family="sans-serif" letter-spacing="0" word-spacing="0" fill="#fff" stroke-width="3.435"/>
            <path d="M203.874 58.14q-.06-.03-.12-.042-.06-.014-.12-.014-.177 0-.274.114-.095.113-.095.325v.663h-.46v-1.439h.46v.237q.089-.142.203-.206.116-.065.276-.065l.05.002.079.008z" style="line-height:0;-inkscape-font-specification:'sans-serif Bold'" id="path10533" font-weight="700" font-size="1.2" font-family="sans-serif" letter-spacing="0" word-spacing="0" fill="#fff" stroke-width="3.435"/>
            <path d="M205.229 57.792v.35q-.148-.062-.285-.093-.138-.03-.26-.03-.13 0-.195.033-.063.032-.063.1 0 .055.048.085.049.03.173.043l.081.012q.353.045.475.148.122.102.122.322 0 .23-.17.345-.169.116-.505.116-.143 0-.296-.023-.151-.022-.312-.067v-.35q.138.067.282.1.145.034.294.034.135 0 .203-.037t.068-.11q0-.062-.048-.092-.046-.03-.186-.047l-.08-.01q-.308-.039-.431-.143-.123-.104-.123-.316 0-.229.156-.339.157-.11.48-.11.128 0 .268.019.14.02.304.06z" style="line-height:0;-inkscape-font-specification:'sans-serif Bold'" id="path10535" font-weight="700" font-size="1.2" font-family="sans-serif" letter-spacing="0" word-spacing="0" fill="#fff" stroke-width="3.435"/>
            <path d="M205.672 57.747h.46v1.439h-.46zm0-.56h.46v.375h-.46z" style="line-height:0;-inkscape-font-specification:'sans-serif Bold'" id="path10537" font-weight="700" font-size="1.2" font-family="sans-serif" letter-spacing="0" word-spacing="0" fill="#fff" stroke-width="3.435"/>
            <path d="M207.26 58.042q-.152 0-.233.11-.08.11-.08.316 0 .207.08.317.08.11.234.11.15 0 .23-.11.08-.11.08-.317 0-.207-.08-.316-.08-.11-.23-.11zm0-.33q.372 0 .58.201.21.2.21.555 0 .354-.21.555-.208.2-.58.2t-.582-.2q-.21-.2-.21-.555 0-.355.21-.555.21-.2.583-.2z" style="line-height:0;-inkscape-font-specification:'sans-serif Bold'" id="path10539" font-weight="700" font-size="1.2" font-family="sans-serif" letter-spacing="0" word-spacing="0" fill="#fff" stroke-width="3.435"/>
            <path d="M209.83 58.31v.876h-.462v-.671q0-.186-.009-.256-.008-.071-.028-.104-.027-.045-.073-.07-.047-.025-.106-.025-.144 0-.226.111-.082.11-.082.307v.708h-.46v-1.439h.46v.211q.104-.126.22-.185.118-.06.26-.06.248 0 .377.153.13.152.13.444z" style="line-height:0;-inkscape-font-specification:'sans-serif Bold'" id="path10541" font-weight="700" font-size="1.2" font-family="sans-serif" letter-spacing="0" word-spacing="0" fill="#fff" stroke-width="3.435"/>
        </g>
    </g>
</svg>
