<svg xmlns="http://www.w3.org/2000/svg" width="757.642" height="311.329" viewBox="0 0 200.45932 82.372337">
    <path d="M101.607 37.721h98.852v44.651h-98.852z" fill="#fdfcfd"/>
    <path d="M36.75 15.693h27.617v4.181H36.75z" fill="#feeb5e"/>
    <path d="M2.752.34v.387Q2.566.554 2.355.47 2.146.383 1.91.383q-.466 0-.713.286-.248.284-.248.822 0 .537.248.822.247.284.713.284.236 0 .445-.085.211-.086.397-.259v.384q-.193.131-.41.197-.214.065-.454.065-.617 0-.972-.376Q.562 2.144.562 1.49q0-.654.354-1.03.355-.38.972-.38.244 0 .458.066.217.064.406.193zm1.346.704q-.27 0-.426.21-.156.21-.156.576 0 .365.154.576.157.21.428.21.267 0 .424-.212.156-.21.156-.574 0-.362-.156-.573-.157-.213-.424-.213zm0-.284q.437 0 .686.284.249.283.249.786 0 .5-.25.785-.248.284-.685.284-.438 0-.688-.284-.247-.285-.247-.785 0-.503.247-.786.25-.284.688-.284zm3.182.857v1.23h-.335v-1.22q0-.289-.113-.432-.113-.144-.338-.144-.271 0-.428.173-.156.173-.156.47v1.152h-.337V.81h.337v.317q.12-.184.282-.275.163-.091.376-.091.351 0 .531.218.18.217.18.639zM8.666.016h.93v2.83H9.26V.294h-.598q-.18 0-.251.073-.07.073-.07.262v.18h.552v.26h-.551v1.777h-.337V1.07h-.32V.81h.32V.667q0-.34.158-.495.159-.156.503-.156zM10.3.809h.336v2.037H10.3zm0-.793h.336V.44H10.3zm2.5.871V1.2q-.142-.078-.285-.116-.142-.04-.288-.04-.325 0-.505.207-.18.206-.18.579 0 .372.18.58.18.205.505.205.146 0 .288-.038.143-.04.285-.118v.31q-.14.065-.29.097-.15.033-.32.033-.46 0-.73-.29-.271-.288-.271-.78 0-.498.272-.783.275-.286.752-.286.154 0 .302.033.147.03.285.094zm.917-.657v.58h.69v.26h-.69v1.106q0 .25.067.32.07.071.279.071h.343v.28h-.343q-.388 0-.535-.143-.148-.146-.148-.528V1.07h-.245V.81h.245V.231zm1.131.579h.335v2.037h-.335zm0-.793h.335V.44h-.335zm2.727 1.601v1.23h-.335v-1.22q0-.289-.112-.432-.113-.144-.339-.144-.27 0-.427.173-.157.173-.157.47v1.152h-.336V.81h.336v.317q.12-.184.282-.275.164-.091.377-.091.351 0 .531.218.18.217.18.639zm2.012.187q0-.364-.151-.564-.15-.2-.42-.2t-.42.2q-.15.2-.15.564 0 .362.15.562.15.2.42.2t.42-.2q.151-.2.151-.562zm.335.79q0 .52-.231.773-.231.254-.708.254-.176 0-.333-.027-.156-.025-.304-.08v-.326q.148.08.291.119.144.038.293.038.33 0 .493-.173.164-.171.164-.518v-.166q-.104.18-.266.27-.161.088-.387.088-.375 0-.604-.285-.23-.286-.23-.757 0-.473.23-.758.23-.286.604-.286.226 0 .387.09.162.088.266.268V.81h.335zM23.263.887V1.2q-.142-.078-.285-.116-.142-.04-.288-.04-.325 0-.505.207-.18.206-.18.579 0 .372.18.58.18.205.505.205.146 0 .288-.038.143-.04.285-.118v.31q-.14.065-.29.097-.15.033-.32.033-.46 0-.73-.29-.271-.288-.271-.78 0-.498.272-.783.275-.286.752-.286.154 0 .302.033.147.03.285.094zm2.279.73v1.23h-.334v-1.22q0-.289-.113-.432-.113-.144-.338-.144-.271 0-.428.173-.156.173-.156.47v1.152h-.337V.016h.337v1.11q.12-.184.282-.275.163-.091.376-.091.351 0 .531.218.18.217.18.639zm1.598.205q-.406 0-.563.093-.156.093-.156.317 0 .178.116.283.119.104.32.104.279 0 .446-.196.17-.199.17-.526v-.075zm.667-.138v1.162h-.335v-.309q-.114.186-.285.275-.171.087-.419.087-.312 0-.498-.175-.184-.176-.184-.47 0-.344.23-.52.23-.174.687-.174h.47v-.032q0-.231-.153-.357-.151-.127-.426-.127-.175 0-.34.042-.166.041-.318.125v-.31q.183-.07.356-.105.173-.036.337-.036.442 0 .66.23.218.228.218.694zm2.385-.067v1.23h-.335v-1.22q0-.289-.113-.432-.112-.144-.338-.144-.271 0-.427.173-.157.173-.157.47v1.152h-.336V.81h.336v.317q.12-.184.282-.275.164-.091.377-.091.35 0 .53.218.18.217.18.639zm2.012.187q0-.364-.151-.564-.15-.2-.42-.2t-.42.2q-.15.2-.15.564 0 .362.15.562.15.2.42.2t.42-.2q.15-.2.15-.562zm.334.79q0 .52-.23.773-.232.254-.708.254-.177 0-.333-.027-.157-.025-.304-.08v-.326q.148.08.291.119.144.038.293.038.33 0 .493-.173.164-.171.164-.518v-.166q-.104.18-.266.27-.162.088-.387.088-.375 0-.604-.285-.23-.286-.23-.757 0-.473.23-.758.229-.286.604-.286.225 0 .387.09.162.088.266.268V.81h.334zm2.432-.85v.164h-1.538q.021.345.207.527.187.18.52.18.193 0 .373-.047.182-.047.36-.142v.317q-.18.076-.369.116-.19.04-.384.04-.487 0-.773-.284-.284-.283-.284-.767 0-.5.27-.793.27-.295.729-.295.411 0 .65.266.24.263.24.718zm-.334-.098q-.004-.275-.155-.439-.149-.163-.396-.163-.28 0-.45.158-.167.158-.193.446zM36.819.87v.316q-.142-.073-.295-.11-.153-.036-.317-.036-.249 0-.374.076-.124.077-.124.23 0 .116.09.183.088.066.357.126l.115.025q.357.077.506.217.15.138.15.387 0 .284-.225.45-.224.165-.616.165-.164 0-.342-.033-.177-.03-.373-.094v-.346q.185.097.365.146.18.047.357.047.236 0 .364-.08.127-.082.127-.23 0-.136-.093-.208-.09-.073-.402-.14l-.116-.028q-.311-.065-.45-.2-.138-.136-.138-.373 0-.287.204-.444.204-.156.578-.156.186 0 .35.027.163.027.302.082z" style="line-height:0" font-weight="400" font-size="1.96" font-family="sans-serif" letter-spacing="0" word-spacing="0"/>
    <path d="M1.622 20.144v.258q-.116-.06-.241-.089-.125-.03-.258-.03-.204 0-.306.063-.101.062-.101.187 0 .095.073.15.072.053.292.102l.094.021q.29.062.412.177.124.113.124.316 0 .232-.184.367-.183.135-.504.135-.134 0-.279-.027Q.6 21.75.44 21.697v-.282q.151.079.298.119.147.038.291.038.193 0 .297-.065.104-.067.104-.187 0-.111-.076-.17-.074-.06-.328-.115l-.095-.022q-.254-.054-.367-.164-.113-.111-.113-.304 0-.235.167-.363.166-.127.472-.127.151 0 .285.022.134.022.247.067zm1.908.61v1.004h-.274v-.995q0-.236-.092-.353-.092-.118-.276-.118-.221 0-.349.141-.127.141-.127.385v.94h-.275v-2.31h.275v.905q.098-.15.23-.224.133-.074.307-.074.287 0 .434.178.147.177.147.521zm1.192-.468q-.22 0-.347.173-.128.17-.128.469 0 .298.126.47.128.171.35.171.217 0 .345-.172.128-.172.128-.47 0-.295-.128-.467-.128-.174-.346-.174zm0-.231q.356 0 .56.231.203.232.203.642 0 .408-.203.641-.204.232-.56.232-.358 0-.561-.232-.202-.233-.202-.641 0-.41.202-.642.203-.231.561-.231zm1.056.04h.273l.342 1.298.34-1.298h.322l.341 1.298.34-1.298h.274l-.435 1.663h-.323l-.357-1.363-.36 1.363h-.322zm4.812.064v.255q-.115-.064-.233-.095-.115-.033-.234-.033-.266 0-.413.17-.147.167-.147.472 0 .304.147.474.147.167.413.167.119 0 .234-.03.118-.033.233-.097v.252q-.114.054-.237.08-.122.027-.26.027-.376 0-.597-.236-.221-.236-.221-.637 0-.407.223-.64.224-.233.613-.233.126 0 .246.026t.233.078zm1.861.595v1.004h-.273v-.995q0-.236-.092-.353-.092-.118-.276-.118-.222 0-.35.141-.127.141-.127.385v.94h-.275v-2.31h.275v.905q.098-.15.23-.224.134-.074.307-.074.287 0 .434.178.147.177.147.521zm1.304.168q-.331 0-.459.076-.128.075-.128.258 0 .146.095.232.097.084.262.084.227 0 .363-.16.139-.162.139-.43v-.06zm.545-.113v.949h-.273v-.252q-.094.151-.234.224-.14.071-.341.071-.255 0-.407-.143-.15-.144-.15-.384 0-.28.187-.423.189-.143.561-.143h.384v-.027q0-.188-.125-.29-.123-.105-.348-.105-.142 0-.277.035-.135.034-.26.102v-.252q.15-.058.29-.087.142-.03.276-.03.36 0 .539.188.178.187.178.567zm1.947-.055v1.004h-.274v-.995q0-.236-.092-.353-.092-.118-.276-.118-.221 0-.349.141-.128.141-.128.385v.94h-.274v-1.663h.274v.258q.098-.15.23-.224.134-.074.308-.074.287 0 .434.178.147.177.147.521zm1.642.153q0-.297-.123-.46-.122-.164-.343-.164-.22 0-.343.164-.122.163-.122.46 0 .296.122.459.123.163.343.163.22 0 .343-.163.123-.163.123-.459zm.273.645q0 .424-.189.63-.188.209-.577.209-.144 0-.272-.023-.128-.02-.248-.065v-.266q.12.065.238.097.117.03.239.03.269 0 .402-.14.134-.14.134-.423v-.136q-.085.147-.217.22-.132.073-.316.073-.306 0-.493-.233t-.187-.618q0-.386.187-.62.187-.232.493-.232.184 0 .316.073.132.072.217.22v-.253h.273zm1.985-.694v.134h-1.256q.018.282.17.43.152.147.424.147.158 0 .305-.038.148-.039.294-.116v.258q-.147.063-.302.095-.154.033-.313.033-.398 0-.631-.232-.232-.231-.232-.626 0-.409.22-.648.221-.24.595-.24.336 0 .53.217.196.215.196.586zm-.273-.08q-.003-.224-.126-.358-.122-.134-.324-.134-.228 0-.367.13-.136.129-.157.363zm1.782-.634v.258q-.116-.06-.24-.089-.125-.03-.259-.03-.203 0-.306.063-.1.062-.1.187 0 .095.072.15.073.053.293.102l.093.021q.291.062.413.177.123.113.123.316 0 .232-.184.367-.183.135-.503.135-.134 0-.28-.027-.144-.025-.304-.077v-.282q.152.079.299.119.147.038.29.038.194 0 .298-.065.104-.067.104-.187 0-.111-.076-.17-.074-.06-.328-.115l-.095-.022q-.254-.054-.367-.164-.113-.111-.113-.304 0-.235.166-.363.167-.127.473-.127.151 0 .285.022.133.022.246.067zM.307 30.82v-1.007H.58v.997q0 .236.092.355.092.117.276.117.222 0 .35-.141.128-.141.128-.385v-.943H1.7v1.663h-.274v-.255q-.099.151-.231.226-.13.072-.305.072-.286 0-.435-.178-.148-.178-.148-.52zm.687-1.047zm2.654.7v1.003h-.273v-.994q0-.237-.092-.354-.092-.117-.277-.117-.22 0-.349.14-.127.142-.127.385v.94h-.275v-1.663h.275v.259q.098-.15.23-.225.134-.074.307-.074.287 0 .434.178.147.177.147.522zm1.745-.596v.256q-.116-.064-.233-.095-.116-.033-.235-.033-.266 0-.413.17-.147.167-.147.471 0 .305.147.474.147.168.413.168.119 0 .235-.031.117-.033.233-.097v.253q-.115.053-.238.08-.122.026-.26.026-.375 0-.597-.236-.221-.236-.221-.637 0-.407.223-.64.224-.233.613-.233.126 0 .247.027.12.025.233.077zm1.86.596v1.003H6.98v-.994q0-.237-.092-.354-.092-.117-.276-.117-.221 0-.35.14-.127.142-.127.385v.94H5.86v-2.31h.275v.906q.098-.15.23-.225.134-.074.308-.074.286 0 .433.178.147.177.147.522zm1.304.167q-.331 0-.459.076t-.128.259q0 .145.096.231.096.085.26.085.228 0 .365-.16.138-.162.138-.43v-.06zm.545-.112v.948h-.273v-.252q-.094.151-.233.224-.14.071-.342.071-.255 0-.407-.142-.15-.144-.15-.385 0-.28.187-.423.189-.142.562-.142h.383V30.4q0-.189-.125-.291-.123-.104-.347-.104-.143 0-.278.034-.135.034-.26.102v-.252q.15-.058.291-.086.141-.03.275-.03.36 0 .539.187.178.187.178.568zm1.947-.055v1.003h-.273v-.994q0-.237-.093-.354-.092-.117-.276-.117-.221 0-.349.14-.127.142-.127.385v.94h-.275v-1.663h.275v.259q.098-.15.23-.225.133-.074.307-.074.287 0 .434.178.147.177.147.522zm1.642.153q0-.297-.123-.46-.122-.164-.343-.164-.22 0-.343.163-.122.164-.122.46 0 .296.122.46.123.163.343.163.221 0 .343-.164.123-.163.123-.458zm.273.644q0 .425-.188.631-.189.208-.578.208-.144 0-.272-.022-.127-.021-.248-.066v-.265q.12.065.238.096.117.031.239.031.269 0 .402-.14.134-.14.134-.424v-.135q-.085.147-.217.22-.132.072-.316.072-.306 0-.493-.233t-.187-.617q0-.387.187-.62.187-.233.493-.233.184 0 .316.073t.217.22v-.253h.273zm1.986-.693v.133h-1.257q.018.282.17.43.153.148.424.148.158 0 .305-.039.148-.038.294-.116v.259q-.147.062-.302.095-.154.032-.313.032-.398 0-.631-.231-.232-.232-.232-.627 0-.408.22-.647.221-.24.595-.24.336 0 .53.216.197.215.197.587zm-.274-.08q-.003-.225-.126-.358-.122-.134-.324-.134-.228 0-.366.13-.137.128-.158.363zm1.816-.431v-.9h.274v2.31h-.274v-.249q-.086.148-.218.221-.13.071-.315.071-.301 0-.491-.24-.189-.24-.189-.633 0-.392.189-.632.19-.24.491-.24.184 0 .315.072.132.071.218.22zm-.93.58q0 .302.123.474.124.17.341.17.217 0 .342-.17.124-.172.124-.474 0-.301-.124-.472-.125-.172-.342-.172-.217 0-.341.172-.124.17-.124.472zm3.005-1.305v.472h.563v.213h-.563v.902q0 .204.055.262.056.058.227.058h.28v.228h-.28q-.316 0-.437-.117-.12-.119-.12-.43v-.903h-.2v-.213h.2v-.472zm2.346 1.236v.133h-1.256q.018.282.17.43.152.148.424.148.157 0 .304-.039.149-.038.294-.116v.259q-.147.062-.301.095-.155.032-.314.032-.398 0-.63-.231-.232-.232-.232-.627 0-.408.22-.647.22-.24.595-.24.336 0 .53.216.196.215.196.587zm-.273-.08q-.003-.225-.126-.358-.122-.134-.324-.134-.229 0-.367.13-.137.128-.157.363zm2.05-.684l-.6.81.632.853h-.323l-.484-.653-.484.653h-.322l.646-.87-.591-.793h.322l.441.593.441-.593zm.688-.472v.472h.563v.213h-.563v.902q0 .204.055.262.056.058.227.058h.28v.228h-.28q-.316 0-.436-.117-.12-.119-.12-.43v-.903h-.201v-.213h.2v-.472z" style="line-height:0" font-weight="400" font-size="1.6" font-family="sans-serif" letter-spacing="0" word-spacing="0"/>
    <path d="M68.541 15.693h27.617v4.181H68.54z" fill="#feeb5e"/>
    <path d="M36.75 19.874h27.617v4.181H36.75z" fill="#aad9e3"/>
    <path d="M41.536 19.874a2.359 2.359 0 0 1-2.36 2.36 2.359 2.359 0 0 1-2.358-2.36 2.359 2.359 0 0 1 2.359-2.359 2.359 2.359 0 0 1 2.359 2.36z" fill="#3261ff"/>
    <path d="M40.6 19.873a1.43 1.43 0 0 1-1.43 1.43 1.43 1.43 0 0 1-1.43-1.43 1.43 1.43 0 0 1 1.43-1.43 1.43 1.43 0 0 1 1.43 1.43z" fill="#fff"/>
    <path d="M41.587 29.579a2.359 2.359 0 0 1-2.359 2.359 2.359 2.359 0 0 1-2.359-2.36 2.359 2.359 0 0 1 2.36-2.358 2.359 2.359 0 0 1 2.358 2.359z" fill="#3261ff"/>
    <path d="M40.65 29.577a1.43 1.43 0 0 1-1.429 1.43 1.43 1.43 0 0 1-1.43-1.43 1.43 1.43 0 0 1 1.43-1.43 1.43 1.43 0 0 1 1.43 1.43z" fill="#fff"/>
    <path d="M68.541 19.874h27.617v4.181H68.54z" fill="#feeb5e"/>
    <path d="M73.473 19.879a2.193 2.193 0 0 1-2.193 2.193 2.193 2.193 0 0 1-2.194-2.193 2.193 2.193 0 0 1 2.194-2.194 2.193 2.193 0 0 1 2.193 2.194zm.005 9.648a2.193 2.193 0 0 1-2.194 2.194 2.193 2.193 0 0 1-2.193-2.194 2.193 2.193 0 0 1 2.193-2.193 2.193 2.193 0 0 1 2.194 2.193z" fill="#fff" stroke="#373635" stroke-width=".331" stroke-linecap="round" stroke-linejoin="round"/>
    <path d="M44.83 29.165v.258q-.115-.06-.24-.089-.125-.03-.258-.03-.204 0-.306.063-.101.062-.101.187 0 .095.072.15.073.053.293.102l.093.021q.292.063.413.177.124.113.124.316 0 .232-.185.367-.182.135-.503.135-.134 0-.28-.027-.143-.025-.304-.077v-.282q.152.079.299.119.147.038.291.038.193 0 .297-.065.104-.067.104-.187 0-.111-.076-.17-.074-.06-.328-.115l-.095-.022q-.254-.054-.367-.164-.113-.111-.113-.304 0-.235.167-.362.166-.128.472-.128.151 0 .285.022.134.022.246.067zm1.909.61v1.004h-.274v-.995q0-.236-.092-.353-.092-.118-.276-.118-.221 0-.349.142-.128.14-.128.384v.94h-.274v-2.31h.274v.905q.098-.15.23-.224.134-.074.308-.074.287 0 .434.178.147.177.147.521zm1.192-.468q-.22 0-.348.173-.127.17-.127.469 0 .298.126.47.128.171.349.171.218 0 .346-.172.128-.172.128-.469 0-.296-.128-.468-.128-.174-.346-.174zm0-.231q.356 0 .56.231.203.232.203.642 0 .408-.203.641-.204.232-.56.232-.358 0-.561-.232-.202-.233-.202-.641 0-.41.202-.642.203-.231.561-.231zm1.056.04h.273l.341 1.298.34-1.298h.323l.341 1.298.34-1.298h.274l-.436 1.663h-.322l-.358-1.363-.359 1.363h-.322zm27.656.593v1.003h-.273v-.994q0-.237-.092-.354-.092-.117-.276-.117-.222 0-.35.14-.127.142-.127.386v.94h-.275v-2.311h.275v.906q.098-.15.23-.224.134-.075.308-.075.286 0 .433.178.147.177.147.522zm.548-.659h.273v1.662h-.273zm0-.648h.273v.346h-.273zm1.938.9v-.9h.273v2.31h-.273v-.249q-.086.148-.218.221-.131.072-.315.072-.302 0-.492-.241-.188-.24-.188-.633 0-.392.188-.632.19-.24.492-.24.184 0 .315.072.132.071.218.22zm-.931.58q0 .302.123.474.125.17.342.17.216 0 .341-.17.125-.172.125-.474 0-.301-.125-.472-.125-.172-.341-.172-.217 0-.342.172-.123.171-.123.472zm3.189-.069v.133h-1.256q.018.282.17.43.152.148.424.148.158 0 .305-.039.148-.038.294-.116v.259q-.147.062-.302.095-.154.033-.313.033-.398 0-.631-.232-.232-.232-.232-.627 0-.408.22-.647.221-.24.595-.24.336 0 .53.216.196.215.196.587zm-.273-.08q-.003-.225-.126-.358-.122-.134-.324-.134-.228 0-.366.13-.137.128-.158.363zm-36.317-9.555q0-.302-.125-.472-.123-.173-.34-.173-.216 0-.341.173-.123.17-.123.472 0 .301.123.474.125.17.341.17.217 0 .34-.17.125-.173.125-.474zm-.93-.58q.087-.15.217-.22.133-.073.315-.073.303 0 .492.24.19.24.19.633 0 .392-.19.632-.189.241-.492.241-.182 0-.315-.071-.13-.073-.216-.222v.25h-.275v-2.31h.275zm2.311-.062q-.22 0-.347.173-.128.17-.128.469 0 .298.126.47.128.171.35.171.217 0 .345-.172.128-.172.128-.47 0-.295-.128-.467-.128-.174-.346-.174zm0-.231q.357 0 .56.231.203.232.203.642 0 .408-.203.641-.203.232-.56.232-.358 0-.561-.232-.202-.233-.202-.641 0-.41.202-.642.203-.231.561-.231zm1.485-.432v.472h.563v.212h-.563v.903q0 .203.055.261.056.058.227.058h.28v.229h-.28q-.316 0-.436-.117-.12-.12-.12-.431v-.903h-.201v-.212h.2v-.472zm2.307 1.131v1.004h-.274v-.995q0-.236-.092-.353-.092-.118-.276-.118-.222 0-.35.141-.127.141-.127.385v.94h-.275v-2.31h.275v.905q.098-.15.23-.224.134-.074.308-.074.286 0 .433.178.147.177.147.521zm26.607-.392q.102-.184.245-.271.142-.088.335-.088.26 0 .401.183.141.18.141.516v1.004h-.275v-.995q0-.239-.084-.354-.085-.116-.259-.116-.212 0-.335.14-.123.142-.123.385v.94h-.275v-.995q0-.24-.085-.354-.084-.116-.261-.116-.21 0-.333.142-.123.141-.123.383v.94h-.275v-1.663h.275v.259q.094-.153.224-.226.13-.073.31-.073.182 0 .308.092.128.092.189.267zm1.669-.319h.273v1.663h-.273zm0-.647h.273v.346h-.273zm2.225 1.306v1.004h-.273v-.995q0-.236-.092-.353-.092-.117-.276-.117-.221 0-.349.14-.128.142-.128.385v.94h-.274v-1.663h.274v.259q.098-.15.23-.225.134-.074.308-.074.286 0 .433.178.147.177.147.521zm1.971.104v.134h-1.256q.018.282.169.43.153.148.425.148.157 0 .304-.039.149-.039.294-.116v.259q-.147.062-.301.095-.155.032-.314.032-.398 0-.63-.231-.232-.232-.232-.627 0-.408.22-.647.22-.24.595-.24.335 0 .53.216.196.215.196.586zm-.273-.08q-.003-.224-.126-.358-.122-.133-.324-.133-.229 0-.367.129-.137.13-.157.364z" style="line-height:0" font-weight="400" font-size="1.6" letter-spacing="0" word-spacing="0" font-family="sans-serif"/>
    <path d="M102.225.115h1.717v.309h-1.35v.804h1.294v.31h-1.294v.983h1.383v.31h-1.75zm3.683.987V0h.335v2.83h-.335v-.305q-.105.182-.267.27-.16.088-.386.088-.369 0-.602-.295-.23-.294-.23-.774 0-.48.23-.775.233-.295.602-.295.226 0 .386.09.162.086.267.268zm-1.14.712q0 .369.15.58.154.209.42.209.265 0 .417-.21.153-.21.153-.58 0-.369-.153-.578-.152-.21-.418-.21-.265 0-.418.21-.151.21-.151.579zm2.164-1.021h.335V2.83h-.335zm0-.793h.335v.424h-.335zm1.365.215v.578h.69v.26h-.69V2.16q0 .25.067.32.07.071.278.071h.344v.28h-.344q-.387 0-.535-.143-.147-.146-.147-.528V1.053h-.245v-.26h.245V.215zm1.921.813q-.27 0-.426.21-.157.21-.157.576 0 .365.155.576.157.21.428.21.267 0 .423-.212.157-.21.157-.574 0-.362-.157-.573-.156-.213-.423-.213zm0-.284q.436 0 .685.284.25.284.25.786 0 .5-.25.785-.249.284-.685.284-.439 0-.688-.284-.247-.285-.247-.785 0-.502.247-.786.25-.284.688-.284zm2.668.362q-.056-.033-.124-.047-.065-.017-.145-.017-.284 0-.437.186-.15.184-.15.53V2.83h-.337V.793h.336v.317q.106-.186.275-.275.17-.091.411-.091.035 0 .076.005.042.004.093.013zm1.346-.313h.335l.418 1.59.417-1.59h.395l.418 1.59.416-1.59h.335l-.533 2.037h-.395l-.438-1.67-.44 1.67h-.395zm3.243 0h.335V2.83h-.335zm0-.793h.335v.424h-.335zm1.365.215v.578h.69v.26h-.69V2.16q0 .25.067.32.07.071.278.071h.344v.28h-.344q-.387 0-.534-.143-.148-.146-.148-.528V1.053h-.245v-.26h.245V.215zm2.825 1.385v1.23h-.335V1.612q0-.29-.113-.433-.113-.144-.338-.144-.271 0-.428.173-.156.173-.156.471V2.83h-.337V0h.337v1.11q.12-.184.282-.275.164-.091.376-.091.352 0 .532.218.18.217.18.639zm1.617-.807h.355l.636 1.71.637-1.71h.355L124.5 2.83h-.455zm4.188.935v.164h-1.54q.022.345.208.527.187.18.52.18.193 0 .373-.047.182-.047.36-.142v.317q-.18.076-.37.116-.188.04-.383.04-.488 0-.773-.284-.284-.283-.284-.767 0-.5.27-.793.27-.295.729-.295.41 0 .65.266.24.263.24.718zm-.335-.098q-.004-.275-.155-.439-.15-.163-.397-.163-.28 0-.449.158-.167.158-.193.446zm2.065-.524q-.057-.033-.125-.047-.065-.017-.145-.017-.284 0-.437.186-.15.184-.15.53V2.83h-.337V.793h.336v.317q.106-.186.275-.275.17-.091.411-.091.035 0 .077.005.041.004.092.013zm1.653-.253v.317q-.142-.073-.295-.11-.153-.036-.317-.036-.249 0-.374.077-.124.076-.124.229 0 .116.09.183.088.066.357.126l.115.025q.357.077.506.217.15.138.15.387 0 .284-.225.45-.224.165-.616.165-.164 0-.342-.033-.177-.03-.373-.094V2.41q.185.097.365.146.18.047.357.047.236 0 .364-.08.127-.082.127-.23 0-.136-.093-.208-.09-.073-.402-.14l-.116-.028q-.311-.065-.45-.2-.138-.136-.138-.373 0-.287.204-.444.204-.156.578-.156.186 0 .35.027.163.028.302.082zm.644-.06h.334V2.83h-.334zm0-.793h.334v.424h-.334zm1.823 1.028q-.27 0-.426.21-.157.21-.157.576 0 .365.155.576.156.21.427.21.268 0 .424-.212.156-.21.156-.574 0-.362-.156-.573-.156-.213-.424-.213zm0-.284q.436 0 .685.284.25.284.25.786 0 .5-.25.785-.25.284-.686.284-.438 0-.687-.284-.248-.285-.248-.785 0-.502.248-.786.249-.284.687-.284zm3.18.856v1.23h-.334V1.612q0-.29-.113-.433-.113-.144-.338-.144-.271 0-.428.173-.156.173-.156.471V2.83h-.337V.793h.337v.317q.12-.184.282-.275.164-.091.376-.091.351 0 .532.218.18.217.18.639zm2.189-1.385v.578h.69v.26h-.69V2.16q0 .25.067.32.07.071.279.071h.343v.28h-.343q-.388 0-.535-.143-.148-.146-.148-.528V1.053h-.245v-.26h.245V.215zm1.921.813q-.27 0-.426.21-.156.21-.156.576 0 .365.154.576.157.21.428.21.267 0 .424-.212.156-.21.156-.574 0-.362-.156-.573-.157-.213-.424-.213zm0-.284q.436 0 .686.284.249.284.249.786 0 .5-.25.785-.249.284-.685.284-.439 0-.688-.284-.247-.285-.247-.785 0-.502.247-.786.25-.284.688-.284zm4.136 1.07q0-.37-.152-.579-.151-.21-.417-.21t-.418.21q-.151.21-.151.579t.15.58q.153.209.419.209t.417-.21q.152-.21.152-.58zm-1.138-.712q.105-.182.265-.269.162-.089.386-.089.37 0 .602.295.233.294.233.775 0 .48-.233.774-.231.295-.602.295-.224 0-.386-.087-.16-.09-.265-.271v.305h-.337V0h.337zm3.783.626v.164h-1.539q.022.345.208.527.187.18.52.18.193 0 .373-.047.182-.047.36-.142v.317q-.18.076-.37.116-.188.04-.383.04-.488 0-.773-.284-.284-.283-.284-.767 0-.5.27-.793.27-.295.729-.295.41 0 .65.266.24.263.24.718zm-.335-.098q-.003-.275-.154-.439-.15-.163-.397-.163-.28 0-.449.158-.167.158-.193.446zm3.58.895v1.08h-.336V.793h.336v.31q.106-.183.266-.27.162-.089.386-.089.37 0 .602.295.232.294.232.775 0 .48-.232.774-.231.295-.602.295-.224 0-.386-.087-.16-.09-.266-.271zm1.139-.711q0-.37-.153-.579-.15-.21-.416-.21t-.419.21q-.15.21-.15.579t.15.58q.153.209.419.209.265 0 .416-.21.153-.21.153-.58zm.868.212V.793h.334v1.22q0 .29.113.435.113.144.339.144.27 0 .427-.173.158-.173.158-.47V.792h.335V2.83h-.335v-.312q-.122.185-.284.276-.16.09-.372.09-.351 0-.533-.22-.182-.217-.182-.638zm.842-1.282zm3.02 1.07q0-.37-.153-.579-.151-.21-.417-.21-.265 0-.418.21-.151.21-.151.579t.15.58q.154.209.42.209.265 0 .416-.21.153-.21.153-.58zm-1.14-.712q.106-.182.266-.269.162-.089.386-.089.371 0 .602.295.233.294.233.775 0 .48-.233.774-.23.295-.602.295-.224 0-.386-.087-.16-.09-.265-.271v.305h-.337V0h.337zM157.407 0h.334v2.83h-.334zm1.033.793h.335V2.83h-.335zm0-.793h.335v.424h-.335zm2.332.853v.317q-.142-.073-.295-.11-.153-.036-.316-.036-.25 0-.375.077-.124.076-.124.229 0 .116.09.183.089.066.358.126l.114.025q.357.077.506.217.151.138.151.387 0 .284-.225.45-.224.165-.617.165-.164 0-.342-.033-.177-.03-.373-.094V2.41q.186.097.366.146.18.047.356.047.237 0 .364-.08.127-.082.127-.23 0-.136-.093-.208-.09-.073-.402-.14l-.116-.028q-.311-.065-.45-.2-.137-.136-.137-.373 0-.287.203-.444.204-.156.579-.156.185 0 .349.027.164.028.302.082zm2.338.747v1.23h-.335V1.612q0-.29-.113-.433-.113-.144-.338-.144-.271 0-.428.173-.156.173-.156.471V2.83h-.337V0h.337v1.11q.12-.184.282-.275.163-.091.376-.091.351 0 .531.218.18.217.18.639zm2.413.128v.164h-1.539q.022.345.208.527.187.18.52.18.193 0 .373-.047.182-.047.36-.142v.317q-.18.076-.37.116-.188.04-.383.04-.488 0-.773-.284-.284-.283-.284-.767 0-.5.27-.793.27-.295.729-.295.41 0 .65.266.24.263.24.718zm-.334-.098q-.004-.275-.155-.439-.15-.163-.397-.163-.28 0-.449.158-.167.158-.193.446zm2.224-.528V0h.335v2.83h-.335v-.305q-.105.182-.267.27-.16.088-.386.088-.37 0-.602-.295-.23-.294-.23-.774 0-.48.23-.775.233-.295.602-.295.226 0 .386.09.162.086.267.268zm-1.14.712q0 .369.15.58.153.209.419.209t.418-.21q.153-.21.153-.58 0-.369-.153-.578-.152-.21-.418-.21t-.418.21q-.151.21-.151.579z" style="line-height:0" font-weight="400" font-size="1.96" font-family="sans-serif" letter-spacing="0" word-spacing="0"/>
    <path d="M0 37.631h98.852v44.652H0z" fill="#f1f1f1"/>
    <path d="M1.032 37.735h93.33v4.13H1.031z" fill="#fe8b00"/>
    <path d="M1.316 63.431V37.735" fill="none" stroke="#fe8b00" stroke-width=".718"/>
    <path d="M2.023 39.17h.399v1.247h-.399zm0-.486h.399v.325h-.399zm2.038.973v.76h-.4v-.581q0-.162-.009-.223-.006-.061-.024-.09-.023-.04-.064-.06-.04-.023-.09-.023-.126 0-.197.097-.071.096-.071.266v.614h-.399V39.17h.399v.182q.09-.109.191-.16.102-.052.224-.052.216 0 .328.132.112.133.112.385zm1.001-.487h.4l.334.846.285-.846h.4l-.525 1.365q-.08.208-.185.29-.105.084-.278.084h-.23v-.261h.125q.1 0 .147-.033.046-.032.072-.116l.011-.034zm2.246.255q-.133 0-.203.095t-.07.274q0 .18.07.276.07.094.203.094.13 0 .199-.094.069-.096.069-.276 0-.179-.07-.274-.068-.095-.198-.095zm0-.285q.321 0 .502.173.181.174.181.481 0 .308-.181.482-.18.173-.502.173-.323 0-.506-.173-.182-.174-.182-.482 0-.307.182-.48.183-.174.506-.174zm.961.791v-.761h.4v.379l-.002.204q0 .15.008.217.008.066.027.096.024.04.063.06.04.022.092.022.124 0 .196-.096.071-.096.071-.266v-.616h.399v1.247h-.399v-.18q-.09.109-.192.161-.1.051-.221.051-.216 0-.33-.132-.112-.133-.112-.386zm2.566-.421q-.053-.025-.105-.036-.051-.013-.104-.013-.153 0-.237.1-.082.098-.082.281v.575h-.399V39.17h.399v.205q.077-.123.176-.179.1-.056.24-.056l.043.002q.023.001.068.007zm.836-.34h.399l.31.862.31-.862h.4l-.491 1.247h-.438zm2.89.62v.114h-.932q.014.14.101.21.087.07.243.07.126 0 .257-.036.133-.038.272-.114v.307q-.141.054-.283.08-.141.028-.283.028-.338 0-.527-.171-.187-.173-.187-.484 0-.305.184-.48.185-.174.508-.174.294 0 .47.177.177.177.177.473zm-.41-.133q0-.113-.067-.182-.065-.07-.172-.07-.116 0-.188.065-.073.065-.09.187zm1.637-.147q-.052-.025-.104-.036-.052-.013-.104-.013-.154 0-.237.1-.083.098-.083.281v.575h-.398V39.17h.398v.205q.077-.123.176-.179.1-.056.24-.056l.043.002q.024.001.068.007zm1.175-.301v.303q-.128-.054-.247-.08-.12-.027-.225-.027-.114 0-.17.029-.054.027-.054.086 0 .048.041.074.043.026.15.038l.07.01q.307.039.413.128.106.09.106.28 0 .199-.147.3-.147.1-.439.1-.124 0-.256-.02t-.27-.059v-.303q.118.058.243.087.126.03.255.03.117 0 .176-.033.06-.032.06-.096 0-.053-.042-.079-.04-.027-.162-.041l-.07-.009q-.266-.033-.373-.124-.107-.09-.107-.274 0-.198.136-.294.136-.095.417-.095.11 0 .231.016.122.017.264.053zm.384-.039h.4v1.247h-.4zm0-.486h.4v.325h-.4zm1.378.741q-.132 0-.203.095-.069.095-.069.274 0 .18.07.276.07.094.202.094.13 0 .2-.094.069-.096.069-.276 0-.179-.07-.274-.069-.095-.199-.095zm0-.285q.322 0 .502.173.182.174.182.481 0 .308-.182.482-.18.173-.502.173-.323 0-.506-.173-.181-.174-.181-.482 0-.307.181-.48.183-.174.506-.174zm2.229.517v.76h-.401v-.581q0-.162-.008-.223-.007-.061-.025-.09-.023-.04-.063-.06-.04-.023-.091-.023-.125 0-.196.097-.072.096-.072.266v.614H19.7V39.17h.398v.182q.09-.109.192-.16.101-.052.224-.052.216 0 .327.132.113.133.113.385z" style="line-height:0;-inkscape-font-specification:'sans-serif Bold'" font-weight="700" font-size="1.2" font-family="sans-serif" letter-spacing="0" word-spacing="0" fill="#fff"/>
    <path d="M3.065 45.558h47.416v-1.819H3.065zM25.8 48.865h47.097v-1.819H25.8zM3.139 58.486H54.21v-1.819H3.139zM14.34 72.114h47.098v-1.82H14.34zm-11.356 6.71h47.097v-1.819H2.984z" fill="#d8d8d8"/>
    <path d="M52.281 46.18H65.02v-3.393H52.281z" fill="#ead97f"/>
    <path d="M3.065 55.182h11.048v-1.818H3.065zm53.778 10.015h11.583v-1.82H56.843zm23.507 0h11.582v-1.82H80.35zM52.317 78.824H63.9v-1.819H52.317zm-49.252-6.71h9.588v-1.82H3.065zm8.809-23.333h11.583v-1.818H11.874z" fill="#d8d8d8"/>
    <path d="M65.02 46.18h15.146v-3.393H65.019z" fill="#ead97f"/>
    <path d="M61.953 55.182h11.583v-1.818H61.953zm13.729 23.642h11.583v-1.819H75.682zM3.065 48.781h7.106v-1.818H3.065zm35.43 3.201h7.106v-1.819h-7.106zm20.733 0h7.105v-1.819h-7.105zm18.98 0h7.106v-1.819h-7.106zM63.17 72.114h7.105v-1.82H63.17zm2.774 6.71h7.105v-1.819h-7.105zm5.986-6.71h7.106v-1.82H71.93zm-39.859 3.303h7.106V73.6H32.07zm38.545-10.22h7.105v-1.82h-7.105zM3.065 61.79h7.106v-1.82H3.065zm19.37 13.627h7.105V73.6h-7.105zM12.075 61.79h32.351v-1.82h-32.35zm43.947-3.304h32.205v-1.819H56.022zM41.13 75.417h31.329V73.6H41.13zm32.85 0h19.065V73.6H73.981zM63.469 61.79h22.568v-1.82H63.47zm10.95-13.009h13.078v-1.818H74.42zm-5.804 3.201h6.362v-1.819h-6.362zm-20.769 0h8.844v-1.819h-8.844zm-44.781 0H36v-1.819H3.065zm34.616 3.2h21.547v-1.818H37.68zm-21.371 0h18.772v-1.818H16.309zm31.536 6.608H60.05v-1.82H47.846zM3.065 65.197H19.94v-1.82H3.065zm18.653 0h32.205v-1.82H21.718zM3.065 75.417H20.92V73.6H3.065zm9.932-67.432h49.645v-2.54H12.997zm-11.885 0h10.106v-2.54H1.112zm63.356 0h7.49v-2.54h-7.49z" fill="#d8d8d8"/>
    <path d="M74.077 8.465h19.316V4.763H74.077z" fill="#a4c2cd"/>
    <path d="M31.687 12.597h5.838v-2.539h-5.838zm-10.157 0h7.49v-2.539h-7.49zm27.006 0h25.723v-2.539H48.536zm27.327 0H95.96v-2.539H75.863zm-74.751 0h18.82v-2.539H1.112z" fill="#d8d8d8"/>
    <path d="M39.523 13.02h7.49V9.541h-7.49z" fill="#ead97f"/>
    <path d="M124.372 8.316h47.097V5.817h-47.097zm-22.735 8.678h11.048v-2.499h-11.048zm8.809-8.793h11.583V5.703h-11.583zm-8.809 0h7.106V5.703h-7.106zm35.431 4.396h7.105V10.1h-7.105zm20.732 0h7.105V10.1H157.8zm18.98 0h7.106V10.1h-7.105zm-3.789-4.396h13.078V5.703h-13.078zm-5.804 4.396h6.362V10.1h-6.362zm-20.769 0h8.845V10.1h-8.845zm-44.781 0h32.935V10.1h-32.935zm34.616 4.397H157.8v-2.499h-21.547zm-21.371 0h18.772v-2.499h-18.772zm.907 28.564h34.787v-1.819h-34.787zm27.991 3.307h29.212v-1.819H143.78zm-40.547 9.621h23.04v-1.819h-23.04zm11.202 13.628h47.097v-1.82h-47.097zm24.998 6.71h12.979v-1.819h-12.979zM103.16 55.182h11.047v-1.818H103.16zm54.8 10.015h13.773v-1.82H157.96zm19.856 0h14.21v-1.82h-14.21zm-25.404 13.627h11.582v-1.819h-11.582zm-49.252-6.71h9.587v-1.82h-9.587zm7.105-23.333h13.286v-1.818h-13.286zm51.783 6.401h11.582v-1.818h-11.582zm13.728 23.642h11.583v-1.819h-11.583zM103.16 48.781h7.105v-1.818h-7.105zm31.629 3.201h9.35v-1.819h-9.35zm20.732 0h9.387v-1.819h-9.387zm18.98 0h7.106v-1.819H174.5zm-11.237 20.132h7.106v-1.82h-7.106zm2.775 6.71h7.105v-1.819h-7.105zm5.986-6.71h7.105v-1.82h-7.105zm-39.859 3.303h7.105V73.6h-7.105z" fill="#d8d8d8"/>
    <path d="M171.733 65.197h7.105v-1.82h-7.105zM103.16 61.79h7.105v-1.82h-7.105zm19.37 13.627h9.636V73.6h-9.636zM112.024 61.79h20.451v-1.82h-20.451zm16.133-3.304h20.67v-1.819h-20.67zm34.968 16.931h9.428V73.6h-9.428zm10.95 0h19.065V73.6h-19.065zM148.379 61.79h22.568v-1.82H148.38zm26.134-13.009h13.079v-1.818h-13.079zm-9.605 3.201h6.362v-1.819h-6.362zm-20.768 0h8.844v-1.819h-8.845zm-40.98 0h19.43v-1.819h-19.43zm34.616 3.2h21.546v-1.818h-21.546zm-21.372 0h18.772v-1.818h-18.772zm18.177 6.608h12.203v-1.82H134.58zm-31.421 3.407h18.653v-1.82H103.16zm18.653 0h11.764v-1.82h-11.764zm-18.653 10.22h17.854V73.6H103.16zm.005-29.939h11.047v-1.82h-11.047zm21.611 3.303h9.351v-1.818h-9.35zm9.351 0h8.844v-1.818h-8.844zm1.603 16.416h12.202v-1.82H135.73zm13.664 0h7.106v-1.82h-7.106zm23.275-3.407h13.954v-1.82H172.67zm-69.571 17.034h19.065v-1.819h-19.065zm22.064 0h11.583v-1.819h-11.583zm15.768-3.407h11.583V73.6h-11.582zm13.044 0h7.105V73.6h-7.105z" fill="#d8d8d8"/>
    <path d="M103.31 42.57h46.819v-4.739H103.31z" fill="#9babc7"/>
    <g style="line-height:1.25" font-weight="400" font-size="8" font-family="sans-serif" letter-spacing="0" word-spacing="0">
        <path d="M106.286 39.1l-.509 1.378h1.019zm-.212-.37h.425l1.056 2.771h-.39l-.252-.71h-1.25l-.252.71h-.395z" style="line-height:0" font-size="2"/>
        <path d="M108.624 39.58l-.407 1.103h.816zm-.169-.296h.34l.845 2.217h-.312l-.202-.569h-1l-.201.569h-.316z" font-size="1.6"/>
        <path d="M110.53 39.9l-.34.92h.68zm-.141-.246h.283l.704 1.847h-.26l-.168-.474h-.833l-.168.474h-.263z" font-size="1.333"/>
        <path d="M116.486 39.803q.169 0 .256-.075.087-.074.087-.219 0-.143-.087-.217-.087-.076-.256-.076h-.396v.587zm.024 1.212q.215 0 .323-.091.11-.091.11-.275 0-.18-.108-.27-.108-.09-.325-.09h-.42v.726zm.664-.997q.23.067.357.247.126.18.126.442 0 .4-.271.597-.271.197-.824.197h-1.186V38.73h1.073q.577 0 .835.174.26.175.26.559 0 .202-.095.345-.095.141-.275.21z" style="-inkscape-font-specification:'sans-serif Bold'" font-weight="700" font-size="2"/>
        <path d="M122.53 38.73h.376l-.54 2.771h-.377z" style="-inkscape-font-specification:'sans-serif Italic'" font-style="italic" font-size="2"/>
    </g>
    <path d="M198.64 37.716l-.01 44.612 1.82.005.01-44.612z" fill="#f1f1f1"/>
    <path d="M198.598 44.1l-.01 6.655h1.819l.01-6.654z" fill="silver"/>
    <path d="M97.043 37.666l-.01 44.612 1.82.005.009-44.612z" fill="#f1f1f1"/>
    <path d="M97 44.05l-.01 6.655h1.82l.01-6.654z" fill="silver"/>
    <g fill="silver" stroke="#000" fill-rule="evenodd">
        <path d="M149.535 55.978v3.148" stroke-width=".406"/>
        <path d="M150.063 55.939l-1.053.002m1.053 3.255l-1.053.002" stroke-width=".239"/>
    </g>
    <path d="M123.977 51.982h8.964v-1.818h-8.964z" fill="#d8d8d8"/>
    <path d="M98.705 38.941l-1.604-.003.805-1.09zm101.656.005l-1.604-.003.805-1.09zm-101.638 42.1l-1.605.003.806 1.09zm101.637.037l-1.605.003.805 1.09z" fill="silver"/>
</svg>
