<svg width="30" height="30" viewBox="0 0 30 30" fill="none" xmlns="http://www.w3.org/2000/svg">
<rect width="30" height="30" fill="white"/>
<ellipse cx="14.9509" cy="15.2657" rx="5.95088" ry="6.26567" fill="#3366CC"/>
<path d="M14.9509 25.5313C20.6384 25.5313 24.9018 20.7385 24.9018 15.2657C24.9018 9.79288 20.6384 5 14.9509 5C9.26338 5 5 9.79288 5 15.2657C5 20.7385 9.26338 25.5313 14.9509 25.5313Z" stroke="#D5DDED" stroke-opacity="0.8" stroke-width="8"/>
<path d="M14.9509 24.0313C19.738 24.0313 23.4018 19.9838 23.4018 15.2657C23.4018 10.5475 19.738 6.5 14.9509 6.5C10.1637 6.5 6.5 10.5475 6.5 15.2657C6.5 19.9838 10.1637 24.0313 14.9509 24.0313Z" fill="#3366CC" stroke="url(#paint0_radial)" stroke-width="5"/>
<defs>
<radialGradient id="paint0_radial" cx="0" cy="0" r="1" gradientUnits="userSpaceOnUse" gradientTransform="translate(14.9509 15.2657) rotate(90) scale(13.2887 12.3942)">
<stop stop-color="#416FC4"/>
<stop offset="1" stop-color="#B6C7E9" stop-opacity="0.39"/>
</radialGradient>
</defs>
</svg>
