<svg width="598" height="166" viewBox="0 0 598 166" fill="none" xmlns="http://www.w3.org/2000/svg">
<circle cx="283.396" cy="146.516" r="5.45088" fill="#EAF3FF" stroke="#A3D3FF"/>
<circle cx="314.494" cy="146.516" r="5.45088" fill="#FEF6E7" stroke="#FFE49C"/>
<rect x="596.148" y="164.082" width="255.647" height="32.9099" rx="8.5" transform="rotate(-180 596.148 164.082)" fill="white" stroke="#FFE49C" stroke-width="3"/>
<rect x="594.676" y="162.404" width="3.80263" height="29.2622" transform="rotate(-180 594.676 162.404)" fill="#FFE49C"/>
<rect x="581.645" y="144.635" width="19.8397" height="6" transform="rotate(-180 581.645 144.635)" fill="#C4C4C4"/>
<rect x="429.824" y="144.635" width="54.3435" height="6" transform="rotate(-180 429.824 144.635)" fill="#C4C4C4"/>
<rect x="415.16" y="157.635" width="54.3435" height="6" transform="rotate(-180 415.16 157.635)" fill="#C4C4C4"/>
<rect x="557.492" y="144.635" width="30.1908" height="6" transform="rotate(-180 557.492 144.635)" fill="#C4C4C4"/>
<rect x="449.668" y="157.635" width="30.1908" height="6" transform="rotate(-180 449.668 157.635)" fill="#C4C4C4"/>
<rect x="581.645" y="157.635" width="127.664" height="6" transform="rotate(-180 581.645 157.635)" fill="#C4C4C4"/>
<rect x="522.984" y="144.635" width="88.8473" height="6" transform="rotate(-180 522.984 144.635)" fill="#C4C4C4"/>
<rect x="596.148" y="124.275" width="255.647" height="122.646" rx="8.5" transform="rotate(-180 596.148 124.275)" fill="white" stroke="#FFE49C" stroke-width="3"/>
<rect x="594.676" y="122.244" width="3.80263" height="118.804" transform="rotate(-180 594.676 122.244)" fill="#FFE49C"/>
<rect x="581.645" y="118.286" width="19.8397" height="6" transform="rotate(-180 581.645 118.286)" fill="#C4C4C4"/>
<rect x="488.48" y="105.286" width="21.5649" height="6" transform="rotate(-180 488.48 105.286)" fill="#C4C4C4"/>
<rect x="462.605" y="105.286" width="21.5649" height="6" transform="rotate(-180 462.605 105.286)" fill="#C4C4C4"/>
<rect x="436.727" y="105.286" width="14.6641" height="6" transform="rotate(-180 436.727 105.286)" fill="#C4C4C4"/>
<rect x="417.75" y="105.286" width="27.6031" height="6" transform="rotate(-180 417.75 105.286)" fill="#C4C4C4"/>
<rect x="488.48" y="92.2856" width="56.9313" height="6" transform="rotate(-180 488.48 92.2856)" fill="#C4C4C4"/>
<rect x="484.172" y="79.2856" width="15.5267" height="6" transform="rotate(-180 484.172 79.2856)" fill="#C4C4C4"/>
<rect x="429.824" y="79.2856" width="56.9313" height="6" transform="rotate(-180 429.824 79.2856)" fill="#C4C4C4"/>
<rect x="581.645" y="79.2856" width="54.3435" height="6" transform="rotate(-180 581.645 79.2856)" fill="#C4C4C4"/>
<rect x="522.988" y="79.2856" width="34.5038" height="6" transform="rotate(-180 522.988 79.2856)" fill="#C4C4C4"/>
<rect x="464.332" y="79.2856" width="30.1908" height="6" transform="rotate(-180 464.332 79.2856)" fill="#C4C4C4"/>
<rect x="547.141" y="92.2856" width="54.3435" height="6" transform="rotate(-180 547.141 92.2856)" fill="#C4C4C4"/>
<rect x="429.824" y="53.2856" width="54.3435" height="6" transform="rotate(-180 429.824 53.2856)" fill="#C4C4C4"/>
<rect x="415.16" y="66.2856" width="54.3435" height="6" transform="rotate(-180 415.16 66.2856)" fill="#C4C4C4"/>
<rect x="581.645" y="92.2856" width="30.1908" height="6" transform="rotate(-180 581.645 92.2856)" fill="#C4C4C4"/>
<rect x="581.645" y="53.2856" width="54.3435" height="6" transform="rotate(-180 581.645 53.2856)" fill="#C4C4C4"/>
<rect x="449.668" y="66.2856" width="30.1908" height="6" transform="rotate(-180 449.668 66.2856)" fill="#C4C4C4"/>
<rect x="385.832" y="105.286" width="24.1527" height="6" transform="rotate(-180 385.832 105.286)" fill="#C4C4C4"/>
<rect x="557.492" y="118.286" width="31.0534" height="6" transform="rotate(-180 557.492 118.286)" fill="#C4C4C4"/>
<rect x="390.145" y="118.286" width="34.5038" height="6" transform="rotate(-180 390.145 118.286)" fill="#C4C4C4"/>
<rect x="522.125" y="118.286" width="127.664" height="6" transform="rotate(-180 522.125 118.286)" fill="#C4C4C4"/>
<rect x="581.645" y="66.2856" width="127.664" height="6" transform="rotate(-180 581.645 66.2856)" fill="#C4C4C4"/>
<rect x="581.645" y="40.2856" width="19.8397" height="6" transform="rotate(-180 581.645 40.2856)" fill="#C4C4C4"/>
<rect x="488.484" y="27.2856" width="21.5649" height="6" transform="rotate(-180 488.484 27.2856)" fill="#C4C4C4"/>
<rect x="462.605" y="27.2856" width="21.5649" height="6" transform="rotate(-180 462.605 27.2856)" fill="#C4C4C4"/>
<rect x="436.727" y="27.2856" width="14.6641" height="6" transform="rotate(-180 436.727 27.2856)" fill="#C4C4C4"/>
<rect x="417.75" y="27.2856" width="27.6031" height="6" transform="rotate(-180 417.75 27.2856)" fill="#C4C4C4"/>
<rect x="488.484" y="14.2856" width="56.9313" height="6" transform="rotate(-180 488.484 14.2856)" fill="#C4C4C4"/>
<rect x="547.141" y="14.2856" width="54.3435" height="6" transform="rotate(-180 547.141 14.2856)" fill="#C4C4C4"/>
<rect x="581.645" y="14.2856" width="30.1908" height="6" transform="rotate(-180 581.645 14.2856)" fill="#C4C4C4"/>
<rect x="385.836" y="27.2856" width="24.1527" height="6" transform="rotate(-180 385.836 27.2856)" fill="#C4C4C4"/>
<rect x="557.492" y="40.2856" width="31.0534" height="6" transform="rotate(-180 557.492 40.2856)" fill="#C4C4C4"/>
<rect x="390.148" y="40.2856" width="34.5038" height="6" transform="rotate(-180 390.148 40.2856)" fill="#C4C4C4"/>
<rect x="522.125" y="40.2856" width="127.664" height="6" transform="rotate(-180 522.125 40.2856)" fill="#C4C4C4"/>
<rect x="581.645" y="27.2856" width="88.8473" height="6" transform="rotate(-180 581.645 27.2856)" fill="#C4C4C4"/>
<rect x="581.645" y="105.286" width="88.8473" height="6" transform="rotate(-180 581.645 105.286)" fill="#C4C4C4"/>
<rect x="522.984" y="53.2856" width="88.8473" height="6" transform="rotate(-180 522.984 53.2856)" fill="#C4C4C4"/>
<rect x="257.148" y="164.082" width="255.647" height="32.9099" rx="8.5" transform="rotate(-180 257.148 164.082)" fill="white" stroke="#A3D3FF" stroke-width="3"/>
<rect x="255.676" y="162.404" width="3.80263" height="29.2622" transform="rotate(-180 255.676 162.404)" fill="#A3D3FF"/>
<rect width="19.8397" height="6" transform="matrix(-1 -8.74228e-08 -8.74228e-08 1 246.637 138.635)" fill="#C4C4C4"/>
<rect width="21.5648" height="6" transform="matrix(-1 -8.74228e-08 -8.74228e-08 1 153.477 151.635)" fill="#C4C4C4"/>
<rect width="21.5648" height="6" transform="matrix(-1 -8.74228e-08 -8.74228e-08 1 127.598 151.635)" fill="#C4C4C4"/>
<rect width="14.6641" height="6" transform="matrix(-1 -8.74228e-08 -8.74228e-08 1 101.723 151.635)" fill="#C4C4C4"/>
<rect width="27.603" height="6" transform="matrix(-1 -8.74228e-08 -8.74228e-08 1 82.7422 151.635)" fill="#C4C4C4"/>
<rect width="24.1526" height="6" transform="matrix(-1 -8.74228e-08 -8.74228e-08 1 50.8281 151.635)" fill="#C4C4C4"/>
<rect width="31.0534" height="6" transform="matrix(-1 -8.74228e-08 -8.74228e-08 1 222.484 138.635)" fill="#C4C4C4"/>
<rect width="34.5037" height="6" transform="matrix(-1 -8.74228e-08 -8.74228e-08 1 55.1406 138.635)" fill="#C4C4C4"/>
<rect width="127.664" height="6" transform="matrix(-1 -8.74228e-08 -8.74228e-08 1 187.117 138.635)" fill="#C4C4C4"/>
<rect width="88.8471" height="6" transform="matrix(-1 -8.74228e-08 -8.74228e-08 1 246.637 151.635)" fill="#C4C4C4"/>
<rect x="257.148" y="124.274" width="255.647" height="122.646" rx="8.5" transform="rotate(-180 257.148 124.274)" fill="white" stroke="#A3D3FF" stroke-width="3"/>
<rect x="255.176" y="121.743" width="2.80263" height="117.804" transform="rotate(-180 255.176 121.743)" fill="#A3D3FF" stroke="#A3D3FF"/>
<rect x="-0.5" y="0.5" width="14.5267" height="5" transform="matrix(-1 -8.74228e-08 -8.74228e-08 1 148.164 8.28467)" fill="#C4C4C4" stroke="#A3D3FF"/>
<rect x="-0.5" y="0.5" width="55.9312" height="5" transform="matrix(-1 -8.74228e-08 -8.74228e-08 1 93.8203 8.28467)" fill="#C4C4C4" stroke="#A3D3FF"/>
<rect x="-0.5" y="0.5" width="53.3434" height="5" transform="matrix(-1 -8.74228e-08 -8.74228e-08 1 93.8203 34.2847)" fill="#C4C4C4" stroke="#A3D3FF"/>
<rect x="-0.5" y="0.5" width="53.3434" height="5" transform="matrix(-1 -8.74228e-08 -8.74228e-08 1 79.1562 21.2847)" fill="#C4C4C4" stroke="#A3D3FF"/>
<rect x="-0.5" y="0.5" width="53.3434" height="5" transform="matrix(-1 -8.74228e-08 -8.74228e-08 1 245.637 8.28467)" fill="#C4C4C4" stroke="#A3D3FF"/>
<rect x="-0.5" y="0.5" width="53.3434" height="5" transform="matrix(-1 -8.74228e-08 -8.74228e-08 1 245.637 34.2847)" fill="#C4C4C4" stroke="#A3D3FF"/>
<rect x="-0.5" y="0.5" width="29.1908" height="5" transform="matrix(-1 -8.74228e-08 -8.74228e-08 1 113.66 21.2847)" fill="#C4C4C4" stroke="#A3D3FF"/>
<rect x="-0.5" y="0.5" width="33.5037" height="5" transform="matrix(-1 -8.74228e-08 -8.74228e-08 1 186.98 8.28467)" fill="#C4C4C4" stroke="#A3D3FF"/>
<rect x="-0.5" y="0.5" width="29.1908" height="5" transform="matrix(-1 -8.74228e-08 -8.74228e-08 1 128.324 8.28467)" fill="#C4C4C4" stroke="#A3D3FF"/>
<rect x="-0.5" y="0.5" width="126.664" height="5" transform="matrix(-1 -8.74228e-08 -8.74228e-08 1 245.637 21.2847)" fill="#C4C4C4" stroke="#A3D3FF"/>
<rect x="-0.5" y="0.5" width="87.8471" height="5" transform="matrix(-1 -8.74228e-08 -8.74228e-08 1 186.98 34.2847)" fill="#C4C4C4" stroke="#A3D3FF"/>
<rect x="-0.5" y="0.5" width="18.8397" height="5" transform="matrix(-1 -8.74228e-08 -8.74228e-08 1 245.637 47.2842)" fill="#C4C4C4" stroke="#A3D3FF"/>
<rect x="-0.5" y="0.5" width="14.5267" height="5" transform="matrix(-1 -8.74228e-08 -8.74228e-08 1 148.164 86.2842)" fill="#C4C4C4" stroke="#A3D3FF"/>
<rect x="-0.5" y="0.5" width="18.8397" height="5" transform="matrix(-1 -8.74228e-08 -8.74228e-08 1 245.637 112.284)" fill="#C4C4C4" stroke="#A3D3FF"/>
<rect x="-0.5" y="0.5" width="20.5648" height="5" transform="matrix(-1 -8.74228e-08 -8.74228e-08 1 152.477 60.2842)" fill="#C4C4C4" stroke="#A3D3FF"/>
<rect x="-0.5" y="0.5" width="20.5648" height="5" transform="matrix(-1 -8.74228e-08 -8.74228e-08 1 126.598 60.2842)" fill="#C4C4C4" stroke="#A3D3FF"/>
<rect x="-0.5" y="0.5" width="13.6641" height="5" transform="matrix(-1 -8.74228e-08 -8.74228e-08 1 100.723 60.2842)" fill="#C4C4C4" stroke="#A3D3FF"/>
<rect x="-0.5" y="0.5" width="26.603" height="5" transform="matrix(-1 -8.74228e-08 -8.74228e-08 1 81.7422 60.2842)" fill="#C4C4C4" stroke="#A3D3FF"/>
<rect x="-0.5" y="0.5" width="55.9312" height="5" transform="matrix(-1 -8.74228e-08 -8.74228e-08 1 152.477 73.2842)" fill="#C4C4C4" stroke="#A3D3FF"/>
<rect x="-0.5" y="0.5" width="55.9312" height="5" transform="matrix(-1 -8.74228e-08 -8.74228e-08 1 93.8203 86.2842)" fill="#C4C4C4" stroke="#A3D3FF"/>
<rect x="-0.5" y="0.5" width="53.3434" height="5" transform="matrix(-1 -8.74228e-08 -8.74228e-08 1 211.133 73.2842)" fill="#C4C4C4" stroke="#A3D3FF"/>
<rect x="-0.5" y="0.5" width="53.3434" height="5" transform="matrix(-1 -8.74228e-08 -8.74228e-08 1 93.8203 112.284)" fill="#C4C4C4" stroke="#A3D3FF"/>
<rect x="-0.5" y="0.5" width="53.3434" height="5" transform="matrix(-1 -8.74228e-08 -8.74228e-08 1 79.1562 99.2842)" fill="#C4C4C4" stroke="#A3D3FF"/>
<rect x="-0.5" y="0.5" width="53.3434" height="5" transform="matrix(-1 -8.74228e-08 -8.74228e-08 1 245.637 86.2842)" fill="#C4C4C4" stroke="#A3D3FF"/>
<rect x="-0.5" y="0.5" width="29.1908" height="5" transform="matrix(-1 -8.74228e-08 -8.74228e-08 1 245.637 73.2842)" fill="#C4C4C4" stroke="#A3D3FF"/>
<rect x="-0.5" y="0.5" width="29.1908" height="5" transform="matrix(-1 -8.74228e-08 -8.74228e-08 1 221.484 112.284)" fill="#C4C4C4" stroke="#A3D3FF"/>
<rect x="-0.5" y="0.5" width="29.1908" height="5" transform="matrix(-1 -8.74228e-08 -8.74228e-08 1 113.66 99.2842)" fill="#C4C4C4" stroke="#A3D3FF"/>
<rect x="-0.5" y="0.5" width="33.5037" height="5" transform="matrix(-1 -8.74228e-08 -8.74228e-08 1 186.98 86.2842)" fill="#C4C4C4" stroke="#A3D3FF"/>
<rect x="-0.5" y="0.5" width="29.1908" height="5" transform="matrix(-1 -8.74228e-08 -8.74228e-08 1 128.324 86.2842)" fill="#C4C4C4" stroke="#A3D3FF"/>
<rect x="-0.5" y="0.5" width="23.1526" height="5" transform="matrix(-1 -8.74228e-08 -8.74228e-08 1 49.8281 60.2842)" fill="#C4C4C4" stroke="#A3D3FF"/>
<rect x="-0.5" y="0.5" width="30.0534" height="5" transform="matrix(-1 -8.74228e-08 -8.74228e-08 1 221.484 47.2842)" fill="#C4C4C4" stroke="#A3D3FF"/>
<rect x="-0.5" y="0.5" width="33.5037" height="5" transform="matrix(-1 -8.74228e-08 -8.74228e-08 1 54.1406 47.2842)" fill="#C4C4C4" stroke="#A3D3FF"/>
<rect x="-0.5" y="0.5" width="126.664" height="5" transform="matrix(-1 -8.74228e-08 -8.74228e-08 1 186.117 47.2842)" fill="#C4C4C4" stroke="#A3D3FF"/>
<rect x="-0.5" y="0.5" width="126.664" height="5" transform="matrix(-1 -8.74228e-08 -8.74228e-08 1 245.637 99.2842)" fill="#C4C4C4" stroke="#A3D3FF"/>
<rect x="-0.5" y="0.5" width="87.8471" height="5" transform="matrix(-1 -8.74228e-08 -8.74228e-08 1 245.637 60.2842)" fill="#C4C4C4" stroke="#A3D3FF"/>
<rect x="-0.5" y="0.5" width="87.8471" height="5" transform="matrix(-1 -8.74228e-08 -8.74228e-08 1 186.98 112.284)" fill="#C4C4C4" stroke="#A3D3FF"/>
<path d="M357 57.5L299.5 0L242 57.5L299.5 115L357 57.5Z" fill="white" stroke="#A2A9B1" stroke-width="1.36095" stroke-linejoin="round"/>
<path d="M304.262 51.0266C305.17 50.215 305.17 48.794 304.262 47.9825L289.585 34.8636C288.927 34.2758 287.884 34.7426 287.884 35.6246L287.884 43.9317L265.559 46.7699C264.54 46.8996 263.775 47.7671 263.775 48.795L263.775 50.214C263.775 51.2419 264.54 52.1094 265.559 52.2391L287.884 55.0773L287.884 63.3844C287.884 64.2665 288.927 64.7332 289.585 64.1454L304.262 51.0266Z" fill="#3366CC"/>
<path d="M295.082 65.6746C294.174 66.4862 294.174 67.9071 295.082 68.7187L309.759 81.8376C310.417 82.4254 311.46 81.9586 311.46 81.0766L311.46 72.7695L333.784 69.9313C334.804 69.8016 335.568 68.934 335.568 67.9061L335.568 66.4872C335.568 65.4593 334.804 64.5917 333.784 64.4621L311.46 61.6238L311.46 53.3168C311.46 52.4347 310.417 51.9679 309.759 52.5557L295.082 65.6746Z" fill="#FFCC33"/>
<path d="M291.625 81.8833L292.078 71.0665" stroke="#C4C4C4" stroke-width="2.04142" stroke-linecap="round"/>
<path d="M269.09 60.2583L279.907 60.7108" stroke="#C4C4C4" stroke-width="2.04142" stroke-linecap="round"/>
<path d="M278.316 73.4419L286.285 66.1133" stroke="#C4C4C4" stroke-width="2.04142" stroke-linecap="round"/>
<path d="M307.637 35.5503L307.637 46.3766" stroke="#C4C4C4" stroke-width="2.04142" stroke-linecap="round"/>
<path d="M331.055 56.2148L320.228 56.2148" stroke="#C4C4C4" stroke-width="2.04142" stroke-linecap="round"/>
<path d="M321.289 43.4282L313.634 51.0835" stroke="#C4C4C4" stroke-width="2.04142" stroke-linecap="round"/>
</svg>
