<svg width="598" height="167" viewBox="0 0 598 167" fill="none" xmlns="http://www.w3.org/2000/svg">
<circle cx="283.396" cy="147.516" r="5.45088" fill="#FEF6E7" stroke="#FFE49C"/>
<circle cx="314.494" cy="147.516" r="5.45088" fill="#EAF3FF" stroke="#A3D3FF"/>
<rect x="340.5" y="132.172" width="255.647" height="32.9099" rx="8.5" fill="white" stroke="#A3D3FF" stroke-width="3"/>
<rect x="341.973" y="133.85" width="3.80263" height="29.2622" fill="#A3D3FF"/>
<rect x="355.008" y="151.619" width="19.8397" height="6" fill="#C4C4C4"/>
<rect x="506.824" y="151.619" width="54.3435" height="6" fill="#C4C4C4"/>
<rect x="521.488" y="138.619" width="54.3435" height="6" fill="#C4C4C4"/>
<rect x="379.156" y="151.619" width="30.1908" height="6" fill="#C4C4C4"/>
<rect x="486.98" y="138.619" width="30.1908" height="6" fill="#C4C4C4"/>
<rect x="355.008" y="138.619" width="127.664" height="6" fill="#C4C4C4"/>
<rect x="413.664" y="151.619" width="88.8473" height="6" fill="#C4C4C4"/>
<rect x="340.5" y="2.62891" width="255.647" height="122.646" rx="8.5" fill="white" stroke="#A3D3FF" stroke-width="3"/>
<rect x="341.973" y="4.66016" width="3.80263" height="118.804" fill="#A3D3FF"/>
<rect x="355.008" y="8.61865" width="19.8397" height="6" fill="#C4C4C4"/>
<rect x="448.168" y="21.6187" width="21.5649" height="6" fill="#C4C4C4"/>
<rect x="474.043" y="21.6187" width="21.5649" height="6" fill="#C4C4C4"/>
<rect x="499.922" y="21.6187" width="14.6641" height="6" fill="#C4C4C4"/>
<rect x="518.898" y="21.6187" width="27.6031" height="6" fill="#C4C4C4"/>
<rect x="448.168" y="34.6187" width="56.9313" height="6" fill="#C4C4C4"/>
<rect x="452.477" y="47.6187" width="15.5267" height="6" fill="#C4C4C4"/>
<rect x="506.824" y="47.6187" width="56.9313" height="6" fill="#C4C4C4"/>
<rect x="355.008" y="47.6187" width="54.3435" height="6" fill="#C4C4C4"/>
<rect x="413.664" y="47.6187" width="34.5038" height="6" fill="#C4C4C4"/>
<rect x="472.32" y="47.6187" width="30.1908" height="6" fill="#C4C4C4"/>
<rect x="389.508" y="34.6187" width="54.3435" height="6" fill="#C4C4C4"/>
<rect x="506.824" y="73.6187" width="54.3435" height="6" fill="#C4C4C4"/>
<rect x="521.488" y="60.6187" width="54.3435" height="6" fill="#C4C4C4"/>
<rect x="355.008" y="34.6187" width="30.1908" height="6" fill="#C4C4C4"/>
<rect x="355.008" y="73.6187" width="54.3435" height="6" fill="#C4C4C4"/>
<rect x="486.98" y="60.6187" width="30.1908" height="6" fill="#C4C4C4"/>
<rect x="550.816" y="21.6187" width="24.1527" height="6" fill="#C4C4C4"/>
<rect x="379.156" y="8.61865" width="31.0534" height="6" fill="#C4C4C4"/>
<rect x="546.504" y="8.61865" width="34.5038" height="6" fill="#C4C4C4"/>
<rect x="414.523" y="8.61865" width="127.664" height="6" fill="#C4C4C4"/>
<rect x="355.008" y="60.6187" width="127.664" height="6" fill="#C4C4C4"/>
<rect x="355.008" y="86.6187" width="19.8397" height="6" fill="#C4C4C4"/>
<rect x="448.164" y="99.6187" width="21.5649" height="6" fill="#C4C4C4"/>
<rect x="474.047" y="99.6187" width="21.5649" height="6" fill="#C4C4C4"/>
<rect x="499.922" y="99.6187" width="14.6641" height="6" fill="#C4C4C4"/>
<rect x="518.898" y="99.6187" width="27.6031" height="6" fill="#C4C4C4"/>
<rect x="448.164" y="112.619" width="56.9313" height="6" fill="#C4C4C4"/>
<rect x="389.508" y="112.619" width="54.3435" height="6" fill="#C4C4C4"/>
<rect x="355.008" y="112.619" width="30.1908" height="6" fill="#C4C4C4"/>
<rect x="550.812" y="99.6187" width="24.1527" height="6" fill="#C4C4C4"/>
<rect x="379.156" y="86.6187" width="31.0534" height="6" fill="#C4C4C4"/>
<rect x="546.5" y="86.6187" width="34.5038" height="6" fill="#C4C4C4"/>
<rect x="414.523" y="86.6187" width="127.664" height="6" fill="#C4C4C4"/>
<rect x="355.008" y="99.6187" width="88.8473" height="6" fill="#C4C4C4"/>
<rect x="355.008" y="21.6187" width="88.8473" height="6" fill="#C4C4C4"/>
<rect x="413.664" y="73.6187" width="88.8473" height="6" fill="#C4C4C4"/>
<rect x="1.5" y="132.172" width="255.647" height="32.9099" rx="8.5" fill="white" stroke="#FFE49C" stroke-width="3"/>
<rect x="2.97266" y="133.85" width="3.80263" height="29.2622" fill="#FFE49C"/>
<rect width="19.8397" height="6" transform="matrix(1 0 0 -1 12.0117 157.619)" fill="#C4C4C4"/>
<rect width="21.5648" height="6" transform="matrix(1 0 0 -1 105.172 144.619)" fill="#C4C4C4"/>
<rect width="21.5648" height="6" transform="matrix(1 0 0 -1 131.051 144.619)" fill="#C4C4C4"/>
<rect width="14.6641" height="6" transform="matrix(1 0 0 -1 156.926 144.619)" fill="#C4C4C4"/>
<rect width="27.603" height="6" transform="matrix(1 0 0 -1 175.906 144.619)" fill="#C4C4C4"/>
<rect width="24.1526" height="6" transform="matrix(1 0 0 -1 207.82 144.619)" fill="#C4C4C4"/>
<rect width="31.0534" height="6" transform="matrix(1 0 0 -1 36.1641 157.619)" fill="#C4C4C4"/>
<rect width="34.5037" height="6" transform="matrix(1 0 0 -1 203.508 157.619)" fill="#C4C4C4"/>
<rect width="127.664" height="6" transform="matrix(1 0 0 -1 71.5312 157.619)" fill="#C4C4C4"/>
<rect width="88.8471" height="6" transform="matrix(1 0 0 -1 12.0117 144.619)" fill="#C4C4C4"/>
<rect x="1.5" y="2.62891" width="255.647" height="122.646" rx="8.5" fill="white" stroke="#FFE49C" stroke-width="3"/>
<rect x="2.97266" y="4.66016" width="3.80263" height="118.804" fill="#FFE49C"/>
<rect width="15.5267" height="6" transform="matrix(1 0 0 -1 109.484 118.619)" fill="#C4C4C4"/>
<rect width="56.9312" height="6" transform="matrix(1 0 0 -1 163.828 118.619)" fill="#C4C4C4"/>
<rect width="54.3434" height="6" transform="matrix(1 0 0 -1 163.828 92.6187)" fill="#C4C4C4"/>
<rect width="54.3434" height="6" transform="matrix(1 0 0 -1 178.492 105.619)" fill="#C4C4C4"/>
<rect width="54.3434" height="6" transform="matrix(1 0 0 -1 12.0117 118.619)" fill="#C4C4C4"/>
<rect width="54.3434" height="6" transform="matrix(1 0 0 -1 12.0117 92.6187)" fill="#C4C4C4"/>
<rect width="30.1908" height="6" transform="matrix(1 0 0 -1 143.988 105.619)" fill="#C4C4C4"/>
<rect width="34.5037" height="6" transform="matrix(1 0 0 -1 70.668 118.619)" fill="#C4C4C4"/>
<rect width="30.1908" height="6" transform="matrix(1 0 0 -1 129.324 118.619)" fill="#C4C4C4"/>
<rect width="127.664" height="6" transform="matrix(1 0 0 -1 12.0117 105.619)" fill="#C4C4C4"/>
<rect width="88.8471" height="6" transform="matrix(1 0 0 -1 70.668 92.6187)" fill="#C4C4C4"/>
<rect width="19.8397" height="6" transform="matrix(1 0 0 -1 12.0117 79.6191)" fill="#C4C4C4"/>
<rect width="15.5267" height="6" transform="matrix(1 0 0 -1 109.484 40.6191)" fill="#C4C4C4"/>
<rect width="19.8397" height="6" transform="matrix(1 0 0 -1 12.0117 14.6191)" fill="#C4C4C4"/>
<rect width="21.5648" height="6" transform="matrix(1 0 0 -1 105.172 66.6191)" fill="#C4C4C4"/>
<rect width="21.5648" height="6" transform="matrix(1 0 0 -1 131.051 66.6191)" fill="#C4C4C4"/>
<rect width="14.6641" height="6" transform="matrix(1 0 0 -1 156.926 66.6191)" fill="#C4C4C4"/>
<rect width="27.603" height="6" transform="matrix(1 0 0 -1 175.906 66.6191)" fill="#C4C4C4"/>
<rect width="56.9312" height="6" transform="matrix(1 0 0 -1 105.172 53.6191)" fill="#C4C4C4"/>
<rect width="56.9312" height="6" transform="matrix(1 0 0 -1 163.828 40.6191)" fill="#C4C4C4"/>
<rect width="54.3434" height="6" transform="matrix(1 0 0 -1 46.5156 53.6191)" fill="#C4C4C4"/>
<rect width="54.3434" height="6" transform="matrix(1 0 0 -1 163.828 14.6191)" fill="#C4C4C4"/>
<rect width="54.3434" height="6" transform="matrix(1 0 0 -1 178.492 27.6191)" fill="#C4C4C4"/>
<rect width="54.3434" height="6" transform="matrix(1 0 0 -1 12.0117 40.6191)" fill="#C4C4C4"/>
<rect width="30.1908" height="6" transform="matrix(1 0 0 -1 12.0117 53.6191)" fill="#C4C4C4"/>
<rect width="30.1908" height="6" transform="matrix(1 0 0 -1 36.1641 14.6191)" fill="#C4C4C4"/>
<rect width="30.1908" height="6" transform="matrix(1 0 0 -1 143.988 27.6191)" fill="#C4C4C4"/>
<rect width="34.5037" height="6" transform="matrix(1 0 0 -1 70.668 40.6191)" fill="#C4C4C4"/>
<rect width="30.1908" height="6" transform="matrix(1 0 0 -1 129.324 40.6191)" fill="#C4C4C4"/>
<rect width="24.1526" height="6" transform="matrix(1 0 0 -1 207.82 66.6191)" fill="#C4C4C4"/>
<rect width="31.0534" height="6" transform="matrix(1 0 0 -1 36.1641 79.6191)" fill="#C4C4C4"/>
<rect width="34.5037" height="6" transform="matrix(1 0 0 -1 203.508 79.6191)" fill="#C4C4C4"/>
<rect width="127.664" height="6" transform="matrix(1 0 0 -1 71.5312 79.6191)" fill="#C4C4C4"/>
<rect width="127.664" height="6" transform="matrix(1 0 0 -1 12.0117 27.6191)" fill="#C4C4C4"/>
<rect width="88.8471" height="6" transform="matrix(1 0 0 -1 12.0117 66.6191)" fill="#C4C4C4"/>
<rect width="88.8471" height="6" transform="matrix(1 0 0 -1 70.668 14.6191)" fill="#C4C4C4"/>
<path d="M357 58.5L299.5 1L242 58.5L299.5 116L357 58.5Z" fill="white" stroke="#A2A9B1" stroke-width="1.36095" stroke-linejoin="round"/>
<path d="M304.262 52.0266C305.17 51.215 305.17 49.794 304.262 48.9825L289.585 35.8636C288.927 35.2758 287.884 35.7426 287.884 36.6246L287.884 44.9317L265.559 47.7699C264.54 47.8996 263.775 48.7671 263.775 49.795L263.775 51.214C263.775 52.2419 264.54 53.1094 265.559 53.2391L287.884 56.0773L287.884 64.3844C287.884 65.2665 288.927 65.7332 289.585 65.1454L304.262 52.0266Z" fill="#FFCC33"/>
<path d="M295.082 66.6746C294.174 67.4862 294.174 68.9071 295.082 69.7187L309.759 82.8376C310.417 83.4254 311.46 82.9586 311.46 82.0766L311.46 73.7695L333.784 70.9313C334.804 70.8016 335.568 69.934 335.568 68.9061L335.568 67.4872C335.568 66.4593 334.804 65.5917 333.784 65.4621L311.46 62.6238L311.46 54.3168C311.46 53.4347 310.417 52.9679 309.759 53.5557L295.082 66.6746Z" fill="#3366CC"/>
<path d="M291.625 82.8828L292.078 72.066" stroke="#C4C4C4" stroke-width="2.04142" stroke-linecap="round"/>
<path d="M269.09 61.2578L279.907 61.7103" stroke="#C4C4C4" stroke-width="2.04142" stroke-linecap="round"/>
<path d="M278.316 74.4414L286.285 67.1128" stroke="#C4C4C4" stroke-width="2.04142" stroke-linecap="round"/>
<path d="M307.637 36.5493L307.637 47.3756" stroke="#C4C4C4" stroke-width="2.04142" stroke-linecap="round"/>
<path d="M331.055 57.2139L320.228 57.2139" stroke="#C4C4C4" stroke-width="2.04142" stroke-linecap="round"/>
<path d="M321.289 44.4272L313.634 52.0826" stroke="#C4C4C4" stroke-width="2.04142" stroke-linecap="round"/>
</svg>
