<svg width="598" height="166" viewBox="0 0 598 166" fill="none" xmlns="http://www.w3.org/2000/svg">
<circle cx="283.396" cy="147.516" r="5.45088" fill="#FEF6E7" stroke="#FFE49C"/>
<circle cx="314.494" cy="147.516" r="5.45088" fill="#EAF3FF" stroke="#A3D3FF"/>
<rect x="340.5" y="132.172" width="255.647" height="32.9099" rx="8.5" fill="white" stroke="#A3D3FF" stroke-width="3"/>
<rect x="341.973" y="133.85" width="3.80263" height="29.2622" fill="#A3D3FF"/>
<rect x="355.008" y="151.619" width="19.8397" height="6" fill="#C4C4C4"/>
<rect x="506.824" y="151.619" width="54.3435" height="6" fill="#C4C4C4"/>
<rect x="521.488" y="138.619" width="54.3435" height="6" fill="#C4C4C4"/>
<rect x="379.156" y="151.619" width="30.1908" height="6" fill="#C4C4C4"/>
<rect x="486.98" y="138.619" width="30.1908" height="6" fill="#C4C4C4"/>
<rect x="355.008" y="138.619" width="127.664" height="6" fill="#C4C4C4"/>
<rect x="413.664" y="151.619" width="88.8473" height="6" fill="#C4C4C4"/>
<rect x="340.5" y="2.62891" width="255.647" height="122.646" rx="8.5" fill="white" stroke="#A3D3FF" stroke-width="3"/>
<rect x="341.973" y="4.66016" width="3.80263" height="118.804" fill="#A3D3FF"/>
<rect x="355.008" y="8.61914" width="19.8397" height="6" fill="#C4C4C4"/>
<rect x="448.168" y="21.6191" width="21.5649" height="6" fill="#C4C4C4"/>
<rect x="474.043" y="21.6191" width="21.5649" height="6" fill="#C4C4C4"/>
<rect x="499.922" y="21.6191" width="14.6641" height="6" fill="#C4C4C4"/>
<rect x="518.898" y="21.6191" width="27.6031" height="6" fill="#C4C4C4"/>
<rect x="448.168" y="34.6191" width="56.9313" height="6" fill="#C4C4C4"/>
<rect x="452.477" y="47.6191" width="15.5267" height="6" fill="#C4C4C4"/>
<rect x="506.824" y="47.6191" width="56.9313" height="6" fill="#C4C4C4"/>
<rect x="355.008" y="47.6191" width="54.3435" height="6" fill="#C4C4C4"/>
<rect x="413.664" y="47.6191" width="34.5038" height="6" fill="#C4C4C4"/>
<rect x="472.32" y="47.6191" width="30.1908" height="6" fill="#C4C4C4"/>
<rect x="389.508" y="34.6191" width="54.3435" height="6" fill="#C4C4C4"/>
<rect x="506.824" y="73.6191" width="54.3435" height="6" fill="#C4C4C4"/>
<rect x="521.488" y="60.6191" width="54.3435" height="6" fill="#C4C4C4"/>
<rect x="355.008" y="34.6191" width="30.1908" height="6" fill="#C4C4C4"/>
<rect x="355.008" y="73.6191" width="54.3435" height="6" fill="#C4C4C4"/>
<rect x="486.98" y="60.6191" width="30.1908" height="6" fill="#C4C4C4"/>
<rect x="550.816" y="21.6191" width="24.1527" height="6" fill="#C4C4C4"/>
<rect x="379.156" y="8.61914" width="31.0534" height="6" fill="#C4C4C4"/>
<rect x="546.504" y="8.61914" width="34.5038" height="6" fill="#C4C4C4"/>
<rect x="414.523" y="8.61914" width="127.664" height="6" fill="#C4C4C4"/>
<rect x="355.008" y="60.6191" width="127.664" height="6" fill="#C4C4C4"/>
<rect x="355.008" y="86.6191" width="19.8397" height="6" fill="#C4C4C4"/>
<rect x="448.164" y="99.6191" width="21.5649" height="6" fill="#C4C4C4"/>
<rect x="474.047" y="99.6191" width="21.5649" height="6" fill="#C4C4C4"/>
<rect x="499.922" y="99.6191" width="14.6641" height="6" fill="#C4C4C4"/>
<rect x="518.898" y="99.6191" width="27.6031" height="6" fill="#C4C4C4"/>
<rect x="448.164" y="112.619" width="56.9313" height="6" fill="#C4C4C4"/>
<rect x="389.508" y="112.619" width="54.3435" height="6" fill="#C4C4C4"/>
<rect x="355.008" y="112.619" width="30.1908" height="6" fill="#C4C4C4"/>
<rect x="550.812" y="99.6191" width="24.1527" height="6" fill="#C4C4C4"/>
<rect x="379.156" y="86.6191" width="31.0534" height="6" fill="#C4C4C4"/>
<rect x="546.5" y="86.6191" width="34.5038" height="6" fill="#C4C4C4"/>
<rect x="414.523" y="86.6191" width="127.664" height="6" fill="#C4C4C4"/>
<rect x="355.008" y="99.6191" width="88.8473" height="6" fill="#C4C4C4"/>
<rect x="355.008" y="21.6191" width="88.8473" height="6" fill="#C4C4C4"/>
<rect x="413.664" y="73.6191" width="88.8473" height="6" fill="#C4C4C4"/>
<rect x="1.5" y="132.172" width="255.647" height="32.9099" rx="8.5" fill="white" stroke="#FFE49C" stroke-width="3"/>
<rect x="2.97266" y="133.851" width="3.80263" height="29.2622" fill="#FFE49C"/>
<rect width="19.8397" height="6" transform="matrix(1 0 0 -1 12.0117 157.619)" fill="#C4C4C4"/>
<rect width="21.5648" height="6" transform="matrix(1 0 0 -1 105.172 144.619)" fill="#C4C4C4"/>
<rect width="21.5648" height="6" transform="matrix(1 0 0 -1 131.051 144.619)" fill="#C4C4C4"/>
<rect width="14.6641" height="6" transform="matrix(1 0 0 -1 156.926 144.619)" fill="#C4C4C4"/>
<rect width="27.603" height="6" transform="matrix(1 0 0 -1 175.906 144.619)" fill="#C4C4C4"/>
<rect width="24.1526" height="6" transform="matrix(1 0 0 -1 207.82 144.619)" fill="#C4C4C4"/>
<rect width="31.0534" height="6" transform="matrix(1 0 0 -1 36.1641 157.619)" fill="#C4C4C4"/>
<rect width="34.5037" height="6" transform="matrix(1 0 0 -1 203.508 157.619)" fill="#C4C4C4"/>
<rect width="127.664" height="6" transform="matrix(1 0 0 -1 71.5312 157.619)" fill="#C4C4C4"/>
<rect width="88.8471" height="6" transform="matrix(1 0 0 -1 12.0117 144.619)" fill="#C4C4C4"/>
<rect x="1.5" y="2.62891" width="255.647" height="122.646" rx="8.5" fill="white" stroke="#FFE49C" stroke-width="3"/>
<rect x="2.97266" y="4.66016" width="3.80263" height="118.804" fill="#FFE49C"/>
<rect width="15.5267" height="6" transform="matrix(1 0 0 -1 109.484 118.619)" fill="#C4C4C4"/>
<rect width="56.9312" height="6" transform="matrix(1 0 0 -1 163.828 118.619)" fill="#C4C4C4"/>
<rect width="54.3434" height="6" transform="matrix(1 0 0 -1 163.828 92.6191)" fill="#C4C4C4"/>
<rect width="54.3434" height="6" transform="matrix(1 0 0 -1 178.492 105.619)" fill="#C4C4C4"/>
<rect width="54.3434" height="6" transform="matrix(1 0 0 -1 12.0117 118.619)" fill="#C4C4C4"/>
<rect width="54.3434" height="6" transform="matrix(1 0 0 -1 12.0117 92.6191)" fill="#C4C4C4"/>
<rect width="30.1908" height="6" transform="matrix(1 0 0 -1 143.988 105.619)" fill="#C4C4C4"/>
<rect width="34.5037" height="6" transform="matrix(1 0 0 -1 70.668 118.619)" fill="#C4C4C4"/>
<rect width="30.1908" height="6" transform="matrix(1 0 0 -1 129.324 118.619)" fill="#C4C4C4"/>
<rect width="127.664" height="6" transform="matrix(1 0 0 -1 12.0117 105.619)" fill="#C4C4C4"/>
<rect width="88.8471" height="6" transform="matrix(1 0 0 -1 70.668 92.6191)" fill="#C4C4C4"/>
<rect width="19.8397" height="6" transform="matrix(1 0 0 -1 12.0117 79.6191)" fill="#C4C4C4"/>
<rect width="15.5267" height="6" transform="matrix(1 0 0 -1 109.484 40.6191)" fill="#C4C4C4"/>
<rect width="19.8397" height="6" transform="matrix(1 0 0 -1 12.0117 14.6191)" fill="#C4C4C4"/>
<rect width="21.5648" height="6" transform="matrix(1 0 0 -1 105.172 66.6191)" fill="#C4C4C4"/>
<rect width="21.5648" height="6" transform="matrix(1 0 0 -1 131.051 66.6191)" fill="#C4C4C4"/>
<rect width="14.6641" height="6" transform="matrix(1 0 0 -1 156.926 66.6191)" fill="#C4C4C4"/>
<rect width="27.603" height="6" transform="matrix(1 0 0 -1 175.906 66.6191)" fill="#C4C4C4"/>
<rect width="56.9312" height="6" transform="matrix(1 0 0 -1 105.172 53.6191)" fill="#C4C4C4"/>
<rect width="56.9312" height="6" transform="matrix(1 0 0 -1 163.828 40.6191)" fill="#C4C4C4"/>
<rect width="54.3434" height="6" transform="matrix(1 0 0 -1 46.5156 53.6191)" fill="#C4C4C4"/>
<rect width="54.3434" height="6" transform="matrix(1 0 0 -1 163.828 14.6191)" fill="#C4C4C4"/>
<rect width="54.3434" height="6" transform="matrix(1 0 0 -1 178.492 27.6191)" fill="#C4C4C4"/>
<rect width="54.3434" height="6" transform="matrix(1 0 0 -1 12.0117 40.6191)" fill="#C4C4C4"/>
<rect width="30.1908" height="6" transform="matrix(1 0 0 -1 12.0117 53.6191)" fill="#C4C4C4"/>
<rect width="30.1908" height="6" transform="matrix(1 0 0 -1 36.1641 14.6191)" fill="#C4C4C4"/>
<rect width="30.1908" height="6" transform="matrix(1 0 0 -1 143.988 27.6191)" fill="#C4C4C4"/>
<rect width="34.5037" height="6" transform="matrix(1 0 0 -1 70.668 40.6191)" fill="#C4C4C4"/>
<rect width="30.1908" height="6" transform="matrix(1 0 0 -1 129.324 40.6191)" fill="#C4C4C4"/>
<rect width="24.1526" height="6" transform="matrix(1 0 0 -1 207.82 66.6191)" fill="#C4C4C4"/>
<rect width="31.0534" height="6" transform="matrix(1 0 0 -1 36.1641 79.6191)" fill="#C4C4C4"/>
<rect width="34.5037" height="6" transform="matrix(1 0 0 -1 203.508 79.6191)" fill="#C4C4C4"/>
<rect width="127.664" height="6" transform="matrix(1 0 0 -1 71.5312 79.6191)" fill="#C4C4C4"/>
<rect width="127.664" height="6" transform="matrix(1 0 0 -1 12.0117 27.6191)" fill="#C4C4C4"/>
<rect width="88.8471" height="6" transform="matrix(1 0 0 -1 12.0117 66.6191)" fill="#C4C4C4"/>
<rect width="88.8471" height="6" transform="matrix(1 0 0 -1 70.668 14.6191)" fill="#C4C4C4"/>
<path d="M356 58.5L298.5 1L241 58.5L298.5 116L356 58.5Z" fill="white" stroke="#72777D" stroke-width="1.36095" stroke-linejoin="round"/>
<path d="M303.262 52.027C304.17 51.2155 304.17 49.7945 303.262 48.9829L288.585 35.8641C287.927 35.2763 286.884 35.743 286.884 36.6251L286.884 44.9322L264.559 47.7704C263.54 47.9 262.775 48.7676 262.775 49.7955L262.775 51.2145C262.775 52.2424 263.54 53.1099 264.559 53.2396L286.884 56.0778L286.884 64.3849C286.884 65.2669 287.927 65.7337 288.585 65.1459L303.262 52.027Z" fill="#FFCC33"/>
<path d="M294.082 66.6751C293.174 67.4867 293.174 68.9076 294.082 69.7192L308.759 82.8381C309.417 83.4259 310.46 82.9591 310.46 82.0771L310.46 73.77L332.784 70.9317C333.804 70.8021 334.568 69.9345 334.568 68.9066L334.568 67.4877C334.568 66.4598 333.804 65.5922 332.784 65.4626L310.46 62.6243L310.46 54.3172C310.46 53.4352 309.417 52.9684 308.759 53.5562L294.082 66.6751Z" fill="#3366CC"/>
<path d="M290.625 82.8838L291.078 72.067" stroke="#222222" stroke-width="2.04142" stroke-linecap="round"/>
<path d="M268.09 61.2588L278.907 61.7113" stroke="#222222" stroke-width="2.04142" stroke-linecap="round"/>
<path d="M277.316 74.4424L285.285 67.1137" stroke="#222222" stroke-width="2.04142" stroke-linecap="round"/>
<path d="M306.637 36.5498L306.637 47.3761" stroke="#222222" stroke-width="2.04142" stroke-linecap="round"/>
<path d="M330.055 57.2148L319.228 57.2148" stroke="#222222" stroke-width="2.04142" stroke-linecap="round"/>
<path d="M320.289 44.4277L312.634 52.0831" stroke="#222222" stroke-width="2.04142" stroke-linecap="round"/>
</svg>
