<svg width="476" height="178" viewBox="0 0 476 178" fill="none" xmlns="http://www.w3.org/2000/svg">
<rect x="1.5" y="92.5" width="472" height="33" rx="8.5" fill="white" stroke="#FFE49C" stroke-width="3"/>
<rect x="277.219" y="110.917" width="19.8397" height="6" fill="#C4C4C4"/>
<rect x="301.367" y="110.917" width="30.1908" height="6" fill="#C4C4C4"/>
<rect x="407.191" y="97.917" width="30.1908" height="6" fill="#C4C4C4"/>
<rect x="271.219" y="97.917" width="132" height="6" fill="#C4C4C4"/>
<rect x="335.875" y="110.917" width="88.8473" height="6" fill="#C4C4C4"/>
<rect x="3" y="94.1108" width="3.80263" height="29.4046" fill="#FFE49C"/>
<rect width="27" height="6" transform="matrix(1 0 0 -1 12 117)" fill="#C4C4C4"/>
<rect width="21.5648" height="6" transform="matrix(1 0 0 -1 139.391 103.917)" fill="#C4C4C4"/>
<rect width="21.5648" height="6" transform="matrix(1 0 0 -1 165.27 103.917)" fill="#C4C4C4"/>
<rect width="14.6641" height="6" transform="matrix(1 0 0 -1 191.145 103.917)" fill="#C4C4C4"/>
<rect width="27.603" height="6" transform="matrix(1 0 0 -1 210.125 103.917)" fill="#C4C4C4"/>
<rect width="24.1526" height="6" transform="matrix(1 0 0 -1 242.039 103.917)" fill="#C4C4C4"/>
<rect width="57" height="6" transform="matrix(1 0 0 -1 44 117)" fill="#C4C4C4"/>
<rect width="34.5037" height="6" transform="matrix(1 0 0 -1 237.727 116.917)" fill="#C4C4C4"/>
<rect width="127.664" height="6" transform="matrix(1 0 0 -1 105.75 116.917)" fill="#C4C4C4"/>
<rect width="123" height="6" transform="matrix(1 0 0 -1 12 104)" fill="#C4C4C4"/>
<rect x="1.5" y="143.5" width="472" height="33" rx="8.5" fill="white" stroke="#A3D3FF" stroke-width="3"/>
<rect x="3" y="145.111" width="3.80263" height="29.4046" fill="#A3D3FF"/>
<rect width="51" height="6" transform="matrix(1 0 0 -1 187.219 154.917)" fill="#C4C4C4"/>
<rect width="51" height="6" transform="matrix(1 0 0 -1 201.219 167.917)" fill="#C4C4C4"/>
<rect width="51" height="6" transform="matrix(1 0 0 -1 12.0273 154.917)" fill="#C4C4C4"/>
<rect width="62" height="6" transform="matrix(1 0 0 -1 135 168)" fill="#C4C4C4"/>
<rect width="119" height="6" transform="matrix(1 0 0 -1 12.0273 167.917)" fill="#C4C4C4"/>
<rect width="115" height="6" transform="matrix(1 0 0 -1 68 155)" fill="#C4C4C4"/>
<rect width="50" height="6" transform="matrix(1 0 0 -1 398.219 154.917)" fill="#C4C4C4"/>
<rect width="51" height="6" transform="matrix(1 0 0 -1 411.219 167.917)" fill="#C4C4C4"/>
<rect width="65" height="6" transform="matrix(1 0 0 -1 242.219 154.917)" fill="#C4C4C4"/>
<rect width="28" height="6" transform="matrix(1 0 0 -1 379.219 167.917)" fill="#C4C4C4"/>
<rect width="119" height="6" transform="matrix(1 0 0 -1 256.219 167.917)" fill="#C4C4C4"/>
<rect width="83" height="6" transform="matrix(1 0 0 -1 311.219 154.917)" fill="#C4C4C4"/>
<rect x="1.71875" y="2.41699" width="472" height="72" rx="8.5" fill="white" stroke="#C8CCD1" stroke-width="3"/>
<rect x="3.21875" y="4.91748" width="4" height="68" fill="#C8CCD1"/>
<rect width="15.5267" height="6" transform="matrix(1 0 0 -1 109.691 39.917)" fill="#C4C4C4"/>
<rect width="19.8397" height="6" transform="matrix(1 0 0 -1 12.2188 13.917)" fill="#C4C4C4"/>
<rect width="21.5648" height="6" transform="matrix(1 0 0 -1 105.379 65.917)" fill="#C4C4C4"/>
<rect width="21.5648" height="6" transform="matrix(1 0 0 -1 131.258 65.917)" fill="#C4C4C4"/>
<rect width="14.6641" height="6" transform="matrix(1 0 0 -1 157.133 65.917)" fill="#C4C4C4"/>
<rect width="27.603" height="6" transform="matrix(1 0 0 -1 176.113 65.917)" fill="#C4C4C4"/>
<rect width="56.9312" height="6" transform="matrix(1 0 0 -1 105.379 52.917)" fill="#C4C4C4"/>
<rect width="56.9312" height="6" transform="matrix(1 0 0 -1 164.035 39.917)" fill="#C4C4C4"/>
<rect width="54.3434" height="6" transform="matrix(1 0 0 -1 46.7227 52.917)" fill="#C4C4C4"/>
<rect width="54.3434" height="6" transform="matrix(1 0 0 -1 164.035 13.917)" fill="#C4C4C4"/>
<rect width="54.3434" height="6" transform="matrix(1 0 0 -1 178.699 26.917)" fill="#C4C4C4"/>
<rect width="54.3434" height="6" transform="matrix(1 0 0 -1 12.2188 39.917)" fill="#C4C4C4"/>
<rect width="30.1908" height="6" transform="matrix(1 0 0 -1 12.2188 52.917)" fill="#C4C4C4"/>
<rect width="30.1908" height="6" transform="matrix(1 0 0 -1 36.3711 13.917)" fill="#C4C4C4"/>
<rect width="30.1908" height="6" transform="matrix(1 0 0 -1 144.195 26.917)" fill="#C4C4C4"/>
<rect width="34.5037" height="6" transform="matrix(1 0 0 -1 70.875 39.917)" fill="#C4C4C4"/>
<rect width="30.1908" height="6" transform="matrix(1 0 0 -1 129.531 39.917)" fill="#C4C4C4"/>
<rect width="24.1526" height="6" transform="matrix(1 0 0 -1 208.027 65.917)" fill="#C4C4C4"/>
<rect width="127.664" height="6" transform="matrix(1 0 0 -1 12.2188 26.917)" fill="#C4C4C4"/>
<rect width="88.8471" height="6" transform="matrix(1 0 0 -1 12.2188 65.917)" fill="#C4C4C4"/>
<rect width="88.8471" height="6" transform="matrix(1 0 0 -1 70.875 13.917)" fill="#C4C4C4"/>
<rect width="15.5267" height="6" transform="matrix(1 0 0 -1 335.691 39.917)" fill="#C4C4C4"/>
<rect width="35" height="6" transform="matrix(1 0 0 -1 223.219 13.917)" fill="#C4C4C4"/>
<rect width="21.5648" height="6" transform="matrix(1 0 0 -1 331.379 65.917)" fill="#C4C4C4"/>
<rect width="21.5648" height="6" transform="matrix(1 0 0 -1 357.258 65.917)" fill="#C4C4C4"/>
<rect width="14.6641" height="6" transform="matrix(1 0 0 -1 383.133 65.917)" fill="#C4C4C4"/>
<rect width="27.603" height="6" transform="matrix(1 0 0 -1 402.113 65.917)" fill="#C4C4C4"/>
<rect width="56.9312" height="6" transform="matrix(1 0 0 -1 331.379 52.917)" fill="#C4C4C4"/>
<rect width="56.9312" height="6" transform="matrix(1 0 0 -1 390.035 39.917)" fill="#C4C4C4"/>
<rect width="54.3434" height="6" transform="matrix(1 0 0 -1 272.723 52.917)" fill="#C4C4C4"/>
<rect width="54.3434" height="6" transform="matrix(1 0 0 -1 390.035 13.917)" fill="#C4C4C4"/>
<rect width="54.3434" height="6" transform="matrix(1 0 0 -1 404.699 26.917)" fill="#C4C4C4"/>
<rect width="66" height="6" transform="matrix(1 0 0 -1 226.219 39.917)" fill="#C4C4C4"/>
<rect width="101" height="6" transform="matrix(1 0 0 -1 167.219 52.917)" fill="#C4C4C4"/>
<rect width="30.1908" height="6" transform="matrix(1 0 0 -1 262.371 13.917)" fill="#C4C4C4"/>
<rect width="30.1908" height="6" transform="matrix(1 0 0 -1 370.195 26.917)" fill="#C4C4C4"/>
<rect width="34.5037" height="6" transform="matrix(1 0 0 -1 296.875 39.917)" fill="#C4C4C4"/>
<rect width="30.1908" height="6" transform="matrix(1 0 0 -1 355.531 39.917)" fill="#C4C4C4"/>
<rect width="24.1526" height="6" transform="matrix(1 0 0 -1 434.027 65.917)" fill="#C4C4C4"/>
<rect width="127.664" height="6" transform="matrix(1 0 0 -1 238.219 26.917)" fill="#C4C4C4"/>
<rect width="88.8471" height="6" transform="matrix(1 0 0 -1 238.219 65.917)" fill="#C4C4C4"/>
<rect width="88.8471" height="6" transform="matrix(1 0 0 -1 296.875 13.917)" fill="#C4C4C4"/>
<path d="M297 88L237 28L177 88L237 148L297 88Z" fill="white"/>
<path d="M241.305 81.0831C242.232 80.239 242.232 78.761 241.305 77.9169L226.331 64.2722C225.66 63.6608 224.596 64.1463 224.596 65.0637L224.596 73.7038L201.82 76.6558C200.78 76.7906 200 77.693 200 78.7621L200 80.2379C200 81.307 200.78 82.2094 201.82 82.3442L224.596 85.2962L224.596 93.9363C224.596 94.8537 225.66 95.3392 226.331 94.7278L241.305 81.0831Z" fill="#FFCC33"/>
<path d="M232.711 96.9169C231.763 97.761 231.763 99.239 232.711 100.083L248.042 113.728C248.729 114.339 249.819 113.854 249.819 112.936L249.819 104.296L273.137 101.344C274.202 101.209 275 100.307 275 99.2379L275 97.7621C275 96.693 274.202 95.7906 273.137 95.6558L249.819 92.7038L249.819 84.0637C249.819 83.1463 248.729 82.6608 248.042 83.2722L232.711 96.9169Z" fill="#3366CC"/>
<path fill-rule="evenodd" clip-rule="evenodd" d="M228.698 114.634C228.108 114.61 227.649 114.111 227.674 113.52L228.148 102.179C228.173 101.589 228.672 101.13 229.262 101.155C229.853 101.179 230.311 101.678 230.287 102.269L229.812 113.61C229.787 114.2 229.289 114.659 228.698 114.634Z" fill="#222222"/>
<path fill-rule="evenodd" clip-rule="evenodd" d="M204.048 90.8476C204.024 91.4382 204.482 91.9369 205.073 91.9616L216.414 92.4361C217.004 92.4608 217.503 92.0021 217.528 91.4116C217.553 90.821 217.094 90.3223 216.503 90.2976L205.162 89.8231C204.572 89.7984 204.073 90.2571 204.048 90.8476Z" fill="#222222"/>
<path fill-rule="evenodd" clip-rule="evenodd" d="M213.998 105.439C213.598 105.004 213.626 104.327 214.061 103.927L222.416 96.2433C222.851 95.8432 223.528 95.8715 223.928 96.3065C224.328 96.7415 224.3 97.4186 223.865 97.8186L215.51 105.502C215.075 105.903 214.398 105.874 213.998 105.439Z" fill="#222222"/>
<path fill-rule="evenodd" clip-rule="evenodd" d="M245.527 63.9164C246.118 63.9164 246.598 64.3956 246.598 64.9866L246.598 76.3375C246.598 76.9286 246.118 77.4077 245.527 77.4077C244.936 77.4077 244.457 76.9286 244.457 76.3375L244.457 64.9866C244.457 64.3956 244.936 63.9164 245.527 63.9164Z" fill="#222222"/>
<path fill-rule="evenodd" clip-rule="evenodd" d="M271.154 86.6523C271.154 86.0613 270.675 85.5822 270.084 85.5822L258.733 85.5822C258.142 85.5822 257.663 86.0613 257.663 86.6523C257.663 87.2434 258.142 87.7225 258.733 87.7225L270.084 87.7225C270.675 87.7225 271.154 87.2434 271.154 86.6523Z" fill="#222222"/>
<path fill-rule="evenodd" clip-rule="evenodd" d="M260.692 72.3391C261.103 72.7913 261.103 73.5245 260.692 73.9767L252.797 82.6609C252.386 83.113 251.719 83.113 251.308 82.6609C250.897 82.2087 250.897 81.4755 251.308 81.0233L259.203 72.3391C259.614 71.887 260.281 71.887 260.692 72.3391Z" fill="#222222"/>
<path fill-rule="evenodd" clip-rule="evenodd" d="M236.496 27.209C236.774 26.9303 237.226 26.9303 237.504 27.209L297.791 87.4955C298.07 87.7741 298.07 88.2259 297.791 88.5045L237.504 148.791C237.226 149.07 236.774 149.07 236.496 148.791L176.209 88.5045C175.93 88.2259 175.93 87.7741 176.209 87.4955L236.496 27.209ZM177.722 88L237 147.278L296.278 88L237 28.7224L177.722 88Z" fill="#72777D"/>
</svg>
