<svg width="476" height="178" viewBox="0 0 476 178" fill="none" xmlns="http://www.w3.org/2000/svg">
<g clip-path="url(#clip0)">
<rect x="473.5" y="124.583" width="472" height="33" rx="8.5" transform="rotate(180 473.5 124.583)" fill="white" stroke="#FFE49C" stroke-width="3"/>
<rect x="197.781" y="106.166" width="19.8397" height="6" transform="rotate(180 197.781 106.166)" fill="#C4C4C4"/>
<rect x="173.633" y="106.166" width="30.1908" height="6" transform="rotate(180 173.633 106.166)" fill="#C4C4C4"/>
<rect x="67.8086" y="119.166" width="30.1908" height="6" transform="rotate(180 67.8086 119.166)" fill="#C4C4C4"/>
<rect x="203.781" y="119.166" width="132" height="6" transform="rotate(180 203.781 119.166)" fill="#C4C4C4"/>
<rect x="139.125" y="106.166" width="88.8473" height="6" transform="rotate(180 139.125 106.166)" fill="#C4C4C4"/>
<rect x="472" y="122.972" width="3.80263" height="29.4046" transform="rotate(180 472 122.972)" fill="#FFE49C"/>
<rect width="27" height="6" transform="matrix(-1 8.74228e-08 8.74228e-08 1 463 100.083)" fill="#C4C4C4"/>
<rect width="21.5648" height="6" transform="matrix(-1 8.74228e-08 8.74228e-08 1 335.609 113.167)" fill="#C4C4C4"/>
<rect width="21.5648" height="6" transform="matrix(-1 8.74228e-08 8.74228e-08 1 309.73 113.167)" fill="#C4C4C4"/>
<rect width="14.6641" height="6" transform="matrix(-1 8.74228e-08 8.74228e-08 1 283.855 113.167)" fill="#C4C4C4"/>
<rect width="27.603" height="6" transform="matrix(-1 8.74228e-08 8.74228e-08 1 264.875 113.167)" fill="#C4C4C4"/>
<rect width="24.1526" height="6" transform="matrix(-1 8.74228e-08 8.74228e-08 1 232.961 113.167)" fill="#C4C4C4"/>
<rect width="57" height="6" transform="matrix(-1 8.74228e-08 8.74228e-08 1 431 100.083)" fill="#C4C4C4"/>
<rect width="34.5037" height="6" transform="matrix(-1 8.74228e-08 8.74228e-08 1 237.273 100.167)" fill="#C4C4C4"/>
<rect width="127.664" height="6" transform="matrix(-1 8.74228e-08 8.74228e-08 1 369.25 100.167)" fill="#C4C4C4"/>
<rect width="123" height="6" transform="matrix(-1 8.74228e-08 8.74228e-08 1 463 113.083)" fill="#C4C4C4"/>
<rect x="473.5" y="175.583" width="472" height="33" rx="8.5" transform="rotate(180 473.5 175.583)" fill="white" stroke="#A3D3FF" stroke-width="3"/>
<rect x="472" y="173.972" width="3.80263" height="29.4046" transform="rotate(180 472 173.972)" fill="#A3D3FF"/>
<rect width="51" height="6" transform="matrix(-1 8.74228e-08 8.74228e-08 1 287.781 164.166)" fill="#C4C4C4"/>
<rect width="51" height="6" transform="matrix(-1 8.74228e-08 8.74228e-08 1 273.781 151.166)" fill="#C4C4C4"/>
<rect width="51" height="6" transform="matrix(-1 8.74228e-08 8.74228e-08 1 462.973 164.166)" fill="#C4C4C4"/>
<rect width="62" height="6" transform="matrix(-1 8.74228e-08 8.74228e-08 1 340 151.083)" fill="#C4C4C4"/>
<rect width="119" height="6" transform="matrix(-1 8.74228e-08 8.74228e-08 1 462.973 151.166)" fill="#C4C4C4"/>
<rect width="115" height="6" transform="matrix(-1 8.74228e-08 8.74228e-08 1 407 164.083)" fill="#C4C4C4"/>
<rect width="50" height="6" transform="matrix(-1 8.74228e-08 8.74228e-08 1 76.7812 164.166)" fill="#C4C4C4"/>
<rect width="51" height="6" transform="matrix(-1 8.74228e-08 8.74228e-08 1 63.7812 151.166)" fill="#C4C4C4"/>
<rect width="65" height="6" transform="matrix(-1 8.74228e-08 8.74228e-08 1 232.781 164.166)" fill="#C4C4C4"/>
<rect width="28" height="6" transform="matrix(-1 8.74228e-08 8.74228e-08 1 95.7812 151.166)" fill="#C4C4C4"/>
<rect width="119" height="6" transform="matrix(-1 8.74228e-08 8.74228e-08 1 218.781 151.166)" fill="#C4C4C4"/>
<rect width="83" height="6" transform="matrix(-1 8.74228e-08 8.74228e-08 1 163.781 164.166)" fill="#C4C4C4"/>
<rect x="473.719" y="73.5" width="472" height="72" rx="8.5" transform="rotate(-180 473.719 73.5)" fill="white" stroke="#C8CCD1" stroke-width="3"/>
<rect x="472.219" y="70.9995" width="4" height="68" transform="rotate(-180 472.219 70.9995)" fill="#C8CCD1"/>
<rect width="15.5267" height="6" transform="matrix(-1 -8.74228e-08 -8.74228e-08 1 365.746 36)" fill="#C4C4C4"/>
<rect width="19.8397" height="6" transform="matrix(-1 -8.74228e-08 -8.74228e-08 1 463.219 62)" fill="#C4C4C4"/>
<rect width="21.5648" height="6" transform="matrix(-1 -8.74228e-08 -8.74228e-08 1 370.059 10)" fill="#C4C4C4"/>
<rect width="21.5648" height="6" transform="matrix(-1 -8.74228e-08 -8.74228e-08 1 344.18 10)" fill="#C4C4C4"/>
<rect width="14.6641" height="6" transform="matrix(-1 -8.74228e-08 -8.74228e-08 1 318.305 10)" fill="#C4C4C4"/>
<rect width="27.603" height="6" transform="matrix(-1 -8.74228e-08 -8.74228e-08 1 299.324 10)" fill="#C4C4C4"/>
<rect width="56.9312" height="6" transform="matrix(-1 -8.74228e-08 -8.74228e-08 1 370.059 23)" fill="#C4C4C4"/>
<rect width="56.9312" height="6" transform="matrix(-1 -8.74228e-08 -8.74228e-08 1 311.402 36)" fill="#C4C4C4"/>
<rect width="54.3434" height="6" transform="matrix(-1 -8.74228e-08 -8.74228e-08 1 428.715 23)" fill="#C4C4C4"/>
<rect width="54.3434" height="6" transform="matrix(-1 -8.74228e-08 -8.74228e-08 1 311.402 62)" fill="#C4C4C4"/>
<rect width="54.3434" height="6" transform="matrix(-1 -8.74228e-08 -8.74228e-08 1 296.738 49)" fill="#C4C4C4"/>
<rect width="54.3434" height="6" transform="matrix(-1 -8.74228e-08 -8.74228e-08 1 463.219 36)" fill="#C4C4C4"/>
<rect width="30.1908" height="6" transform="matrix(-1 -8.74228e-08 -8.74228e-08 1 463.219 23)" fill="#C4C4C4"/>
<rect width="30.1908" height="6" transform="matrix(-1 -8.74228e-08 -8.74228e-08 1 439.066 62)" fill="#C4C4C4"/>
<rect width="30.1908" height="6" transform="matrix(-1 -8.74228e-08 -8.74228e-08 1 331.242 49)" fill="#C4C4C4"/>
<rect width="34.5037" height="6" transform="matrix(-1 -8.74228e-08 -8.74228e-08 1 404.562 36)" fill="#C4C4C4"/>
<rect width="30.1908" height="6" transform="matrix(-1 -8.74228e-08 -8.74228e-08 1 345.906 36)" fill="#C4C4C4"/>
<rect width="24.1526" height="6" transform="matrix(-1 -8.74228e-08 -8.74228e-08 1 267.41 10)" fill="#C4C4C4"/>
<rect width="127.664" height="6" transform="matrix(-1 -8.74228e-08 -8.74228e-08 1 463.219 49)" fill="#C4C4C4"/>
<rect width="88.8471" height="6" transform="matrix(-1 -8.74228e-08 -8.74228e-08 1 463.219 10)" fill="#C4C4C4"/>
<rect width="88.8471" height="6" transform="matrix(-1 -8.74228e-08 -8.74228e-08 1 404.562 62)" fill="#C4C4C4"/>
<rect width="15.5267" height="6" transform="matrix(-1 -8.74228e-08 -8.74228e-08 1 139.746 36)" fill="#C4C4C4"/>
<rect width="35" height="6" transform="matrix(-1 -8.74228e-08 -8.74228e-08 1 252.219 62)" fill="#C4C4C4"/>
<rect width="21.5648" height="6" transform="matrix(-1 -8.74228e-08 -8.74228e-08 1 144.059 10)" fill="#C4C4C4"/>
<rect width="21.5648" height="6" transform="matrix(-1 -8.74228e-08 -8.74228e-08 1 118.18 10)" fill="#C4C4C4"/>
<rect width="14.6641" height="6" transform="matrix(-1 -8.74228e-08 -8.74228e-08 1 92.3047 10)" fill="#C4C4C4"/>
<rect width="27.603" height="6" transform="matrix(-1 -8.74228e-08 -8.74228e-08 1 73.3242 10)" fill="#C4C4C4"/>
<rect width="56.9312" height="6" transform="matrix(-1 -8.74228e-08 -8.74228e-08 1 144.059 23)" fill="#C4C4C4"/>
<rect width="56.9312" height="6" transform="matrix(-1 -8.74228e-08 -8.74228e-08 1 85.4023 36)" fill="#C4C4C4"/>
<rect width="54.3434" height="6" transform="matrix(-1 -8.74228e-08 -8.74228e-08 1 202.715 23)" fill="#C4C4C4"/>
<rect width="54.3434" height="6" transform="matrix(-1 -8.74228e-08 -8.74228e-08 1 85.4023 62)" fill="#C4C4C4"/>
<rect width="54.3434" height="6" transform="matrix(-1 -8.74228e-08 -8.74228e-08 1 70.7383 49)" fill="#C4C4C4"/>
<rect width="66" height="6" transform="matrix(-1 -8.74228e-08 -8.74228e-08 1 249.219 36)" fill="#C4C4C4"/>
<rect width="101" height="6" transform="matrix(-1 -8.74228e-08 -8.74228e-08 1 308.219 23)" fill="#C4C4C4"/>
<rect width="30.1908" height="6" transform="matrix(-1 -8.74228e-08 -8.74228e-08 1 213.066 62)" fill="#C4C4C4"/>
<rect width="30.1908" height="6" transform="matrix(-1 -8.74228e-08 -8.74228e-08 1 105.242 49)" fill="#C4C4C4"/>
<rect width="34.5037" height="6" transform="matrix(-1 -8.74228e-08 -8.74228e-08 1 178.562 36)" fill="#C4C4C4"/>
<rect width="30.1908" height="6" transform="matrix(-1 -8.74228e-08 -8.74228e-08 1 119.906 36)" fill="#C4C4C4"/>
<rect width="24.1526" height="6" transform="matrix(-1 -8.74228e-08 -8.74228e-08 1 41.4102 10)" fill="#C4C4C4"/>
<rect width="127.664" height="6" transform="matrix(-1 -8.74228e-08 -8.74228e-08 1 237.219 49)" fill="#C4C4C4"/>
<rect width="88.8471" height="6" transform="matrix(-1 -8.74228e-08 -8.74228e-08 1 237.219 10)" fill="#C4C4C4"/>
<rect width="88.8471" height="6" transform="matrix(-1 -8.74228e-08 -8.74228e-08 1 178.562 62)" fill="#C4C4C4"/>
<path d="M177 87.083L237 27.083L297 87.083L237 147.083L177 87.083Z" fill="white"/>
<path d="M232.695 80.1661C231.768 79.322 231.768 77.8441 232.695 77L247.669 63.3552C248.34 62.7438 249.404 63.2293 249.404 64.1467L249.404 72.7868L272.18 75.7388C273.22 75.8736 274 76.776 274 77.8451L274 79.3209C274 80.39 273.22 81.2924 272.18 81.4272L249.404 84.3792L249.404 93.0193C249.404 93.9367 248.34 94.4222 247.669 93.8108L232.695 80.1661Z" fill="#FFCC33"/>
<path d="M241.289 96C242.237 96.8441 242.237 98.322 241.289 99.1661L225.958 112.811C225.271 113.422 224.181 112.937 224.181 112.019L224.181 103.379L200.863 100.427C199.798 100.292 199 99.39 199 98.3209L199 96.8451C199 95.776 199.798 94.8736 200.863 94.7388L224.181 91.7868L224.181 83.1467C224.181 82.2293 225.271 81.7438 225.958 82.3552L241.289 96Z" fill="#3366CC"/>
<path fill-rule="evenodd" clip-rule="evenodd" d="M245.302 113.717C245.892 113.693 246.351 113.194 246.326 112.603L245.852 101.262C245.827 100.672 245.328 100.213 244.738 100.238C244.147 100.262 243.689 100.761 243.713 101.352L244.188 112.693C244.213 113.283 244.711 113.742 245.302 113.717Z" fill="#222222"/>
<path fill-rule="evenodd" clip-rule="evenodd" d="M269.952 89.9306C269.976 90.5212 269.518 91.0199 268.927 91.0446L257.586 91.5191C256.996 91.5438 256.497 91.0851 256.472 90.4946C256.447 89.904 256.906 89.4053 257.497 89.3806L268.838 88.9061C269.428 88.8814 269.927 89.3401 269.952 89.9306Z" fill="#222222"/>
<path fill-rule="evenodd" clip-rule="evenodd" d="M260.002 104.522C260.402 104.087 260.374 103.41 259.939 103.01L251.584 95.3263C251.149 94.9262 250.472 94.9545 250.072 95.3895C249.672 95.8246 249.7 96.5016 250.135 96.9017L258.49 104.585C258.925 104.986 259.602 104.957 260.002 104.522Z" fill="#222222"/>
<path fill-rule="evenodd" clip-rule="evenodd" d="M228.473 62.9994C227.882 62.9994 227.402 63.4786 227.402 64.0696L227.402 75.4205C227.402 76.0116 227.882 76.4907 228.473 76.4907C229.064 76.4907 229.543 76.0116 229.543 75.4205L229.543 64.0696C229.543 63.4786 229.064 62.9994 228.473 62.9994Z" fill="#222222"/>
<path fill-rule="evenodd" clip-rule="evenodd" d="M202.846 85.7354C202.846 85.1443 203.325 84.6652 203.916 84.6652L215.267 84.6652C215.858 84.6652 216.337 85.1443 216.337 85.7353C216.337 86.3264 215.858 86.8055 215.267 86.8055L203.916 86.8055C203.325 86.8055 202.846 86.3264 202.846 85.7354Z" fill="#222222"/>
<path fill-rule="evenodd" clip-rule="evenodd" d="M213.308 71.4221C212.897 71.8743 212.897 72.6075 213.308 73.0597L221.203 81.7439C221.614 82.1961 222.281 82.1961 222.692 81.7439C223.103 81.2917 223.103 80.5585 222.692 80.1064L214.797 71.4221C214.386 70.97 213.719 70.97 213.308 71.4221Z" fill="#222222"/>
<path fill-rule="evenodd" clip-rule="evenodd" d="M237.504 26.292C237.226 26.0134 236.774 26.0134 236.496 26.292L176.209 86.5785C175.93 86.8572 175.93 87.3089 176.209 87.5875L236.496 147.874C236.774 148.153 237.226 148.153 237.505 147.874L297.791 87.5875C298.07 87.3089 298.07 86.8571 297.791 86.5785L237.504 26.292ZM296.278 87.083L237 146.361L177.722 87.083L237 27.8054L296.278 87.083Z" fill="#72777D"/>
</g>
<defs>
<clipPath id="clip0">
<rect width="475.219" height="177.083" fill="white"/>
</clipPath>
</defs>
</svg>
